<?xml version="1.0" encoding="utf-8" standalone="no"?>
<!DOCTYPE svg PUBLIC "-//W3C//DTD SVG 1.1//EN"
  "http://www.w3.org/Graphics/SVG/1.1/DTD/svg11.dtd">
<svg xmlns:xlink="http://www.w3.org/1999/xlink" width="720pt" height="698.4pt" viewBox="0 0 720 698.4" xmlns="http://www.w3.org/2000/svg" version="1.1">
 <metadata>
  <rdf:RDF xmlns:dc="http://purl.org/dc/elements/1.1/" xmlns:cc="http://creativecommons.org/ns#" xmlns:rdf="http://www.w3.org/1999/02/22-rdf-syntax-ns#">
   <cc:Work>
    <dc:type rdf:resource="http://purl.org/dc/dcmitype/StillImage"/>
    <dc:date>2024-03-16T15:36:42.884604</dc:date>
    <dc:format>image/svg+xml</dc:format>
    <dc:creator>
     <cc:Agent>
      <dc:title>Matplotlib v3.7.2, https://matplotlib.org/</dc:title>
     </cc:Agent>
    </dc:creator>
   </cc:Work>
  </rdf:RDF>
 </metadata>
 <defs>
  <style type="text/css">*{stroke-linejoin: round; stroke-linecap: butt}</style>
 </defs>
 <g id="figure_1">
  <g id="patch_1">
   <path d="M 0 698.4 
L 720 698.4 
L 720 0 
L 0 0 
z
" style="fill: #ffffff"/>
  </g>
  <g id="axes_1">
   <g id="patch_2">
    <path d="M 90 621.576 
L 648 621.576 
L 648 83.808 
L 90 83.808 
z
" style="fill: #ffffff"/>
   </g>
   <g id="matplotlib.axis_1">
    <g id="xtick_1">
     <g id="line2d_1">
      <path d="M 115.363636 621.576 
L 115.363636 83.808 
" clip-path="url(#pec399d79ee)" style="fill: none; stroke: #b0b0b0; stroke-width: 0.5; stroke-linecap: square"/>
     </g>
     <g id="line2d_2">
      <defs>
       <path id="m9810b0a67c" d="M 0 0 
L 0 3.5 
" style="stroke: #000000; stroke-width: 0.8"/>
      </defs>
      <g>
       <use xlink:href="#m9810b0a67c" x="115.363636" y="621.576" style="stroke: #000000; stroke-width: 0.8"/>
      </g>
     </g>
     <g id="text_1">
      <!-- 0.0 -->
      <g transform="translate(101.050824 642.253187) scale(0.18 -0.18)">
       <defs>
        <path id="DejaVuSans-30" d="M 2034 4250 
Q 1547 4250 1301 3770 
Q 1056 3291 1056 2328 
Q 1056 1369 1301 889 
Q 1547 409 2034 409 
Q 2525 409 2770 889 
Q 3016 1369 3016 2328 
Q 3016 3291 2770 3770 
Q 2525 4250 2034 4250 
z
M 2034 4750 
Q 2819 4750 3233 4129 
Q 3647 3509 3647 2328 
Q 3647 1150 3233 529 
Q 2819 -91 2034 -91 
Q 1250 -91 836 529 
Q 422 1150 422 2328 
Q 422 3509 836 4129 
Q 1250 4750 2034 4750 
z
" transform="scale(0.015625)"/>
        <path id="DejaVuSans-2e" d="M 684 794 
L 1344 794 
L 1344 0 
L 684 0 
L 684 794 
z
" transform="scale(0.015625)"/>
       </defs>
       <use xlink:href="#DejaVuSans-30"/>
       <use xlink:href="#DejaVuSans-2e" x="63.623047"/>
       <use xlink:href="#DejaVuSans-30" x="95.410156"/>
      </g>
     </g>
    </g>
    <g id="xtick_2">
     <g id="line2d_3">
      <path d="M 192.22314 621.576 
L 192.22314 83.808 
" clip-path="url(#pec399d79ee)" style="fill: none; stroke: #b0b0b0; stroke-width: 0.5; stroke-linecap: square"/>
     </g>
     <g id="line2d_4">
      <g>
       <use xlink:href="#m9810b0a67c" x="192.22314" y="621.576" style="stroke: #000000; stroke-width: 0.8"/>
      </g>
     </g>
     <g id="text_2">
      <!-- 0.5 -->
      <g transform="translate(177.910328 642.253187) scale(0.18 -0.18)">
       <defs>
        <path id="DejaVuSans-35" d="M 691 4666 
L 3169 4666 
L 3169 4134 
L 1269 4134 
L 1269 2991 
Q 1406 3038 1543 3061 
Q 1681 3084 1819 3084 
Q 2600 3084 3056 2656 
Q 3513 2228 3513 1497 
Q 3513 744 3044 326 
Q 2575 -91 1722 -91 
Q 1428 -91 1123 -41 
Q 819 9 494 109 
L 494 744 
Q 775 591 1075 516 
Q 1375 441 1709 441 
Q 2250 441 2565 725 
Q 2881 1009 2881 1497 
Q 2881 1984 2565 2268 
Q 2250 2553 1709 2553 
Q 1456 2553 1204 2497 
Q 953 2441 691 2322 
L 691 4666 
z
" transform="scale(0.015625)"/>
       </defs>
       <use xlink:href="#DejaVuSans-30"/>
       <use xlink:href="#DejaVuSans-2e" x="63.623047"/>
       <use xlink:href="#DejaVuSans-35" x="95.410156"/>
      </g>
     </g>
    </g>
    <g id="xtick_3">
     <g id="line2d_5">
      <path d="M 269.082645 621.576 
L 269.082645 83.808 
" clip-path="url(#pec399d79ee)" style="fill: none; stroke: #b0b0b0; stroke-width: 0.5; stroke-linecap: square"/>
     </g>
     <g id="line2d_6">
      <g>
       <use xlink:href="#m9810b0a67c" x="269.082645" y="621.576" style="stroke: #000000; stroke-width: 0.8"/>
      </g>
     </g>
     <g id="text_3">
      <!-- 1.0 -->
      <g transform="translate(254.769832 642.253187) scale(0.18 -0.18)">
       <defs>
        <path id="DejaVuSans-31" d="M 794 531 
L 1825 531 
L 1825 4091 
L 703 3866 
L 703 4441 
L 1819 4666 
L 2450 4666 
L 2450 531 
L 3481 531 
L 3481 0 
L 794 0 
L 794 531 
z
" transform="scale(0.015625)"/>
       </defs>
       <use xlink:href="#DejaVuSans-31"/>
       <use xlink:href="#DejaVuSans-2e" x="63.623047"/>
       <use xlink:href="#DejaVuSans-30" x="95.410156"/>
      </g>
     </g>
    </g>
    <g id="xtick_4">
     <g id="line2d_7">
      <path d="M 345.942149 621.576 
L 345.942149 83.808 
" clip-path="url(#pec399d79ee)" style="fill: none; stroke: #b0b0b0; stroke-width: 0.5; stroke-linecap: square"/>
     </g>
     <g id="line2d_8">
      <g>
       <use xlink:href="#m9810b0a67c" x="345.942149" y="621.576" style="stroke: #000000; stroke-width: 0.8"/>
      </g>
     </g>
     <g id="text_4">
      <!-- 1.5 -->
      <g transform="translate(331.629336 642.253187) scale(0.18 -0.18)">
       <use xlink:href="#DejaVuSans-31"/>
       <use xlink:href="#DejaVuSans-2e" x="63.623047"/>
       <use xlink:href="#DejaVuSans-35" x="95.410156"/>
      </g>
     </g>
    </g>
    <g id="xtick_5">
     <g id="line2d_9">
      <path d="M 422.801653 621.576 
L 422.801653 83.808 
" clip-path="url(#pec399d79ee)" style="fill: none; stroke: #b0b0b0; stroke-width: 0.5; stroke-linecap: square"/>
     </g>
     <g id="line2d_10">
      <g>
       <use xlink:href="#m9810b0a67c" x="422.801653" y="621.576" style="stroke: #000000; stroke-width: 0.8"/>
      </g>
     </g>
     <g id="text_5">
      <!-- 2.0 -->
      <g transform="translate(408.48884 642.253187) scale(0.18 -0.18)">
       <defs>
        <path id="DejaVuSans-32" d="M 1228 531 
L 3431 531 
L 3431 0 
L 469 0 
L 469 531 
Q 828 903 1448 1529 
Q 2069 2156 2228 2338 
Q 2531 2678 2651 2914 
Q 2772 3150 2772 3378 
Q 2772 3750 2511 3984 
Q 2250 4219 1831 4219 
Q 1534 4219 1204 4116 
Q 875 4013 500 3803 
L 500 4441 
Q 881 4594 1212 4672 
Q 1544 4750 1819 4750 
Q 2544 4750 2975 4387 
Q 3406 4025 3406 3419 
Q 3406 3131 3298 2873 
Q 3191 2616 2906 2266 
Q 2828 2175 2409 1742 
Q 1991 1309 1228 531 
z
" transform="scale(0.015625)"/>
       </defs>
       <use xlink:href="#DejaVuSans-32"/>
       <use xlink:href="#DejaVuSans-2e" x="63.623047"/>
       <use xlink:href="#DejaVuSans-30" x="95.410156"/>
      </g>
     </g>
    </g>
    <g id="xtick_6">
     <g id="line2d_11">
      <path d="M 499.661157 621.576 
L 499.661157 83.808 
" clip-path="url(#pec399d79ee)" style="fill: none; stroke: #b0b0b0; stroke-width: 0.5; stroke-linecap: square"/>
     </g>
     <g id="line2d_12">
      <g>
       <use xlink:href="#m9810b0a67c" x="499.661157" y="621.576" style="stroke: #000000; stroke-width: 0.8"/>
      </g>
     </g>
     <g id="text_6">
      <!-- 2.5 -->
      <g transform="translate(485.348345 642.253187) scale(0.18 -0.18)">
       <use xlink:href="#DejaVuSans-32"/>
       <use xlink:href="#DejaVuSans-2e" x="63.623047"/>
       <use xlink:href="#DejaVuSans-35" x="95.410156"/>
      </g>
     </g>
    </g>
    <g id="xtick_7">
     <g id="line2d_13">
      <path d="M 576.520661 621.576 
L 576.520661 83.808 
" clip-path="url(#pec399d79ee)" style="fill: none; stroke: #b0b0b0; stroke-width: 0.5; stroke-linecap: square"/>
     </g>
     <g id="line2d_14">
      <g>
       <use xlink:href="#m9810b0a67c" x="576.520661" y="621.576" style="stroke: #000000; stroke-width: 0.8"/>
      </g>
     </g>
     <g id="text_7">
      <!-- 3.0 -->
      <g transform="translate(562.207849 642.253187) scale(0.18 -0.18)">
       <defs>
        <path id="DejaVuSans-33" d="M 2597 2516 
Q 3050 2419 3304 2112 
Q 3559 1806 3559 1356 
Q 3559 666 3084 287 
Q 2609 -91 1734 -91 
Q 1441 -91 1130 -33 
Q 819 25 488 141 
L 488 750 
Q 750 597 1062 519 
Q 1375 441 1716 441 
Q 2309 441 2620 675 
Q 2931 909 2931 1356 
Q 2931 1769 2642 2001 
Q 2353 2234 1838 2234 
L 1294 2234 
L 1294 2753 
L 1863 2753 
Q 2328 2753 2575 2939 
Q 2822 3125 2822 3475 
Q 2822 3834 2567 4026 
Q 2313 4219 1838 4219 
Q 1578 4219 1281 4162 
Q 984 4106 628 3988 
L 628 4550 
Q 988 4650 1302 4700 
Q 1616 4750 1894 4750 
Q 2613 4750 3031 4423 
Q 3450 4097 3450 3541 
Q 3450 3153 3228 2886 
Q 3006 2619 2597 2516 
z
" transform="scale(0.015625)"/>
       </defs>
       <use xlink:href="#DejaVuSans-33"/>
       <use xlink:href="#DejaVuSans-2e" x="63.623047"/>
       <use xlink:href="#DejaVuSans-30" x="95.410156"/>
      </g>
     </g>
    </g>
    <g id="text_8">
     <!-- $V_{OUT}$ [V] -->
     <g transform="translate(317.13 669.752562) scale(0.26 -0.26)">
      <defs>
       <path id="DejaVuSans-Oblique-56" d="M 1319 0 
L 500 4666 
L 1119 4666 
L 1797 653 
L 4063 4666 
L 4750 4666 
L 2053 0 
L 1319 0 
z
" transform="scale(0.015625)"/>
       <path id="DejaVuSans-Oblique-4f" d="M 2919 4238 
Q 2400 4238 2003 3986 
Q 1606 3734 1313 3219 
Q 1125 2891 1026 2522 
Q 928 2153 928 1778 
Q 928 1128 1239 775 
Q 1550 422 2119 422 
Q 2631 422 3032 676 
Q 3434 931 3719 1434 
Q 3909 1772 4009 2142 
Q 4109 2513 4109 2881 
Q 4109 3528 3796 3883 
Q 3484 4238 2919 4238 
z
M 2100 -91 
Q 1241 -91 748 418 
Q 256 928 256 1813 
Q 256 2319 448 2847 
Q 641 3375 978 3788 
Q 1375 4272 1862 4511 
Q 2350 4750 2938 4750 
Q 3794 4750 4287 4245 
Q 4781 3741 4781 2869 
Q 4781 2331 4593 1812 
Q 4406 1294 4056 872 
Q 3656 384 3173 146 
Q 2691 -91 2100 -91 
z
" transform="scale(0.015625)"/>
       <path id="DejaVuSans-Oblique-55" d="M 991 4666 
L 1625 4666 
L 1075 1831 
Q 1041 1641 1027 1517 
Q 1013 1394 1013 1300 
Q 1013 869 1253 645 
Q 1494 422 1959 422 
Q 2563 422 2898 753 
Q 3234 1084 3378 1831 
L 3928 4666 
L 4563 4666 
L 4000 1753 
Q 3816 809 3300 359 
Q 2784 -91 1888 -91 
Q 1188 -91 780 261 
Q 372 613 372 1216 
Q 372 1325 387 1461 
Q 403 1597 434 1753 
L 991 4666 
z
" transform="scale(0.015625)"/>
       <path id="DejaVuSans-Oblique-54" d="M 378 4666 
L 4325 4666 
L 4225 4134 
L 2559 4134 
L 1759 0 
L 1125 0 
L 1925 4134 
L 275 4134 
L 378 4666 
z
" transform="scale(0.015625)"/>
       <path id="DejaVuSans-20" transform="scale(0.015625)"/>
       <path id="DejaVuSans-5b" d="M 550 4863 
L 1875 4863 
L 1875 4416 
L 1125 4416 
L 1125 -397 
L 1875 -397 
L 1875 -844 
L 550 -844 
L 550 4863 
z
" transform="scale(0.015625)"/>
       <path id="DejaVuSans-56" d="M 1831 0 
L 50 4666 
L 709 4666 
L 2188 738 
L 3669 4666 
L 4325 4666 
L 2547 0 
L 1831 0 
z
" transform="scale(0.015625)"/>
       <path id="DejaVuSans-5d" d="M 1947 4863 
L 1947 -844 
L 622 -844 
L 622 -397 
L 1369 -397 
L 1369 4416 
L 622 4416 
L 622 4863 
L 1947 4863 
z
" transform="scale(0.015625)"/>
      </defs>
      <use xlink:href="#DejaVuSans-Oblique-56" transform="translate(0 0.015625)"/>
      <use xlink:href="#DejaVuSans-Oblique-4f" transform="translate(68.408203 -16.390625) scale(0.7)"/>
      <use xlink:href="#DejaVuSans-Oblique-55" transform="translate(123.505859 -16.390625) scale(0.7)"/>
      <use xlink:href="#DejaVuSans-Oblique-54" transform="translate(174.741211 -16.390625) scale(0.7)"/>
      <use xlink:href="#DejaVuSans-20" transform="translate(220.234375 0.015625)"/>
      <use xlink:href="#DejaVuSans-5b" transform="translate(252.021484 0.015625)"/>
      <use xlink:href="#DejaVuSans-56" transform="translate(291.035156 0.015625)"/>
      <use xlink:href="#DejaVuSans-5d" transform="translate(359.443359 0.015625)"/>
     </g>
    </g>
   </g>
   <g id="matplotlib.axis_2">
    <g id="ytick_1">
     <g id="line2d_15">
      <path d="M 90 621.576 
L 648 621.576 
" clip-path="url(#pec399d79ee)" style="fill: none; stroke: #b0b0b0; stroke-width: 0.5; stroke-linecap: square"/>
     </g>
     <g id="line2d_16">
      <defs>
       <path id="m7ffa2a4a51" d="M 0 0 
L -3.5 0 
" style="stroke: #000000; stroke-width: 0.8"/>
      </defs>
      <g>
       <use xlink:href="#m7ffa2a4a51" x="90" y="621.576" style="stroke: #000000; stroke-width: 0.8"/>
      </g>
     </g>
     <g id="text_9">
      <!-- 1.9 -->
      <g transform="translate(54.374375 628.414594) scale(0.18 -0.18)">
       <defs>
        <path id="DejaVuSans-39" d="M 703 97 
L 703 672 
Q 941 559 1184 500 
Q 1428 441 1663 441 
Q 2288 441 2617 861 
Q 2947 1281 2994 2138 
Q 2813 1869 2534 1725 
Q 2256 1581 1919 1581 
Q 1219 1581 811 2004 
Q 403 2428 403 3163 
Q 403 3881 828 4315 
Q 1253 4750 1959 4750 
Q 2769 4750 3195 4129 
Q 3622 3509 3622 2328 
Q 3622 1225 3098 567 
Q 2575 -91 1691 -91 
Q 1453 -91 1209 -44 
Q 966 3 703 97 
z
M 1959 2075 
Q 2384 2075 2632 2365 
Q 2881 2656 2881 3163 
Q 2881 3666 2632 3958 
Q 2384 4250 1959 4250 
Q 1534 4250 1286 3958 
Q 1038 3666 1038 3163 
Q 1038 2656 1286 2365 
Q 1534 2075 1959 2075 
z
" transform="scale(0.015625)"/>
       </defs>
       <use xlink:href="#DejaVuSans-31"/>
       <use xlink:href="#DejaVuSans-2e" x="63.623047"/>
       <use xlink:href="#DejaVuSans-39" x="95.410156"/>
      </g>
     </g>
    </g>
    <g id="ytick_2">
     <g id="line2d_17">
      <path d="M 90 514.0224 
L 648 514.0224 
" clip-path="url(#pec399d79ee)" style="fill: none; stroke: #b0b0b0; stroke-width: 0.5; stroke-linecap: square"/>
     </g>
     <g id="line2d_18">
      <g>
       <use xlink:href="#m7ffa2a4a51" x="90" y="514.0224" style="stroke: #000000; stroke-width: 0.8"/>
      </g>
     </g>
     <g id="text_10">
      <!-- 2.0 -->
      <g transform="translate(54.374375 520.860994) scale(0.18 -0.18)">
       <use xlink:href="#DejaVuSans-32"/>
       <use xlink:href="#DejaVuSans-2e" x="63.623047"/>
       <use xlink:href="#DejaVuSans-30" x="95.410156"/>
      </g>
     </g>
    </g>
    <g id="ytick_3">
     <g id="line2d_19">
      <path d="M 90 406.4688 
L 648 406.4688 
" clip-path="url(#pec399d79ee)" style="fill: none; stroke: #b0b0b0; stroke-width: 0.5; stroke-linecap: square"/>
     </g>
     <g id="line2d_20">
      <g>
       <use xlink:href="#m7ffa2a4a51" x="90" y="406.4688" style="stroke: #000000; stroke-width: 0.8"/>
      </g>
     </g>
     <g id="text_11">
      <!-- 2.1 -->
      <g transform="translate(54.374375 413.307394) scale(0.18 -0.18)">
       <use xlink:href="#DejaVuSans-32"/>
       <use xlink:href="#DejaVuSans-2e" x="63.623047"/>
       <use xlink:href="#DejaVuSans-31" x="95.410156"/>
      </g>
     </g>
    </g>
    <g id="ytick_4">
     <g id="line2d_21">
      <path d="M 90 298.9152 
L 648 298.9152 
" clip-path="url(#pec399d79ee)" style="fill: none; stroke: #b0b0b0; stroke-width: 0.5; stroke-linecap: square"/>
     </g>
     <g id="line2d_22">
      <g>
       <use xlink:href="#m7ffa2a4a51" x="90" y="298.9152" style="stroke: #000000; stroke-width: 0.8"/>
      </g>
     </g>
     <g id="text_12">
      <!-- 2.2 -->
      <g transform="translate(54.374375 305.753794) scale(0.18 -0.18)">
       <use xlink:href="#DejaVuSans-32"/>
       <use xlink:href="#DejaVuSans-2e" x="63.623047"/>
       <use xlink:href="#DejaVuSans-32" x="95.410156"/>
      </g>
     </g>
    </g>
    <g id="ytick_5">
     <g id="line2d_23">
      <path d="M 90 191.3616 
L 648 191.3616 
" clip-path="url(#pec399d79ee)" style="fill: none; stroke: #b0b0b0; stroke-width: 0.5; stroke-linecap: square"/>
     </g>
     <g id="line2d_24">
      <g>
       <use xlink:href="#m7ffa2a4a51" x="90" y="191.3616" style="stroke: #000000; stroke-width: 0.8"/>
      </g>
     </g>
     <g id="text_13">
      <!-- 2.3 -->
      <g transform="translate(54.374375 198.200194) scale(0.18 -0.18)">
       <use xlink:href="#DejaVuSans-32"/>
       <use xlink:href="#DejaVuSans-2e" x="63.623047"/>
       <use xlink:href="#DejaVuSans-33" x="95.410156"/>
      </g>
     </g>
    </g>
    <g id="ytick_6">
     <g id="line2d_25">
      <path d="M 90 83.808 
L 648 83.808 
" clip-path="url(#pec399d79ee)" style="fill: none; stroke: #b0b0b0; stroke-width: 0.5; stroke-linecap: square"/>
     </g>
     <g id="line2d_26">
      <g>
       <use xlink:href="#m7ffa2a4a51" x="90" y="83.808" style="stroke: #000000; stroke-width: 0.8"/>
      </g>
     </g>
     <g id="text_14">
      <!-- 2.4 -->
      <g transform="translate(54.374375 90.646594) scale(0.18 -0.18)">
       <defs>
        <path id="DejaVuSans-34" d="M 2419 4116 
L 825 1625 
L 2419 1625 
L 2419 4116 
z
M 2253 4666 
L 3047 4666 
L 3047 1625 
L 3713 1625 
L 3713 1100 
L 3047 1100 
L 3047 0 
L 2419 0 
L 2419 1100 
L 313 1100 
L 313 1709 
L 2253 4666 
z
" transform="scale(0.015625)"/>
       </defs>
       <use xlink:href="#DejaVuSans-32"/>
       <use xlink:href="#DejaVuSans-2e" x="63.623047"/>
       <use xlink:href="#DejaVuSans-34" x="95.410156"/>
      </g>
     </g>
    </g>
    <g id="text_15">
     <!-- $I_{OUT}$ [pA] -->
     <g transform="translate(44.914375 407.812) rotate(-90) scale(0.26 -0.26)">
      <defs>
       <path id="DejaVuSans-Oblique-49" d="M 1081 4666 
L 1716 4666 
L 806 0 
L 172 0 
L 1081 4666 
z
" transform="scale(0.015625)"/>
       <path id="DejaVuSans-70" d="M 1159 525 
L 1159 -1331 
L 581 -1331 
L 581 3500 
L 1159 3500 
L 1159 2969 
Q 1341 3281 1617 3432 
Q 1894 3584 2278 3584 
Q 2916 3584 3314 3078 
Q 3713 2572 3713 1747 
Q 3713 922 3314 415 
Q 2916 -91 2278 -91 
Q 1894 -91 1617 61 
Q 1341 213 1159 525 
z
M 3116 1747 
Q 3116 2381 2855 2742 
Q 2594 3103 2138 3103 
Q 1681 3103 1420 2742 
Q 1159 2381 1159 1747 
Q 1159 1113 1420 752 
Q 1681 391 2138 391 
Q 2594 391 2855 752 
Q 3116 1113 3116 1747 
z
" transform="scale(0.015625)"/>
       <path id="DejaVuSans-41" d="M 2188 4044 
L 1331 1722 
L 3047 1722 
L 2188 4044 
z
M 1831 4666 
L 2547 4666 
L 4325 0 
L 3669 0 
L 3244 1197 
L 1141 1197 
L 716 0 
L 50 0 
L 1831 4666 
z
" transform="scale(0.015625)"/>
      </defs>
      <use xlink:href="#DejaVuSans-Oblique-49" transform="translate(0 0.015625)"/>
      <use xlink:href="#DejaVuSans-Oblique-4f" transform="translate(29.492188 -16.390625) scale(0.7)"/>
      <use xlink:href="#DejaVuSans-Oblique-55" transform="translate(84.589844 -16.390625) scale(0.7)"/>
      <use xlink:href="#DejaVuSans-Oblique-54" transform="translate(135.825195 -16.390625) scale(0.7)"/>
      <use xlink:href="#DejaVuSans-20" transform="translate(181.318359 0.015625)"/>
      <use xlink:href="#DejaVuSans-5b" transform="translate(213.105469 0.015625)"/>
      <use xlink:href="#DejaVuSans-70" transform="translate(252.119141 0.015625)"/>
      <use xlink:href="#DejaVuSans-41" transform="translate(315.595703 0.015625)"/>
      <use xlink:href="#DejaVuSans-5d" transform="translate(384.003906 0.015625)"/>
     </g>
    </g>
   </g>
   <g id="line2d_27">
    <path d="M 115.363636 228.279341 
L 116.900826 229.247173 
L 118.438017 231.452495 
L 119.975207 235.266098 
L 123.049587 243.908288 
L 124.586777 243.744107 
L 126.123967 246.580059 
L 127.661157 251.550434 
L 129.198347 252.505703 
L 130.735537 253.013184 
L 132.272727 257.610412 
L 133.809917 257.819378 
L 135.347107 261.073262 
L 136.884298 261.341931 
L 138.421488 263.819654 
L 139.958678 266.655605 
L 141.495868 267.013834 
L 143.033058 268.984076 
L 144.570248 271.670765 
L 146.107438 274.596277 
L 147.644628 277.16356 
L 149.181818 274.65598 
L 150.719008 275.850062 
L 152.256198 277.700898 
L 153.793388 279.014385 
L 155.330579 282.536938 
L 156.867769 282.238412 
L 158.404959 283.432504 
L 159.942149 283.910139 
L 161.479339 285.28333 
L 163.016529 284.148951 
L 164.553719 285.402736 
L 166.090909 288.38795 
L 167.628099 287.671504 
L 169.165289 286.477411 
L 170.702479 293.164287 
L 172.239669 288.38795 
L 173.77686 293.522516 
L 175.31405 294.597192 
L 176.85124 292.925475 
L 178.38843 294.955421 
L 179.92562 293.641922 
L 181.46281 296.388325 
L 183 298.060041 
L 184.53719 296.030096 
L 186.07438 297.463001 
L 187.61157 300.567621 
L 189.14876 297.463001 
L 190.68595 296.627137 
L 192.22314 299.492946 
L 193.760331 301.164662 
L 195.297521 299.492946 
L 196.834711 303.07519 
L 198.371901 299.134717 
L 199.909091 300.209392 
L 201.446281 299.492946 
L 202.983471 302.47815 
L 204.520661 301.522891 
L 206.057851 304.269283 
L 207.595041 299.97058 
L 209.132231 303.672242 
L 210.669421 301.881109 
L 212.206612 302.955784 
L 213.743802 299.851164 
L 215.280992 302.47815 
L 216.818182 302.47815 
L 218.355372 304.388689 
L 219.892562 305.105136 
L 221.429752 304.627501 
L 222.966942 303.194607 
L 224.504132 305.58277 
L 226.041322 304.388689 
L 227.578512 303.672242 
L 229.115702 304.149877 
L 230.652893 301.761703 
L 232.190083 305.343958 
L 233.727273 303.911054 
L 235.264463 304.866324 
L 236.801653 307.254497 
L 238.338843 307.015675 
L 239.876033 307.732121 
L 241.413223 304.627501 
L 242.950413 304.149877 
L 244.487603 306.299228 
L 246.024793 308.209756 
L 247.561983 307.732121 
L 249.099174 305.821593 
L 250.636364 305.105136 
L 252.173554 306.299228 
L 253.710744 307.254497 
L 255.247934 307.254497 
L 256.785124 306.776863 
L 258.322314 307.732121 
L 259.859504 305.343958 
L 261.396694 306.53804 
L 262.933884 308.209756 
L 264.471074 307.015675 
L 266.008264 304.388689 
L 267.545455 307.015675 
L 270.619835 306.060405 
L 272.157025 306.776863 
L 273.694215 308.926214 
L 275.231405 305.343958 
L 276.768595 307.493309 
L 278.305785 308.448579 
L 279.842975 306.53804 
L 281.380165 308.448579 
L 282.917355 308.209756 
L 284.454545 307.254497 
L 285.991736 309.165026 
L 287.528926 305.58277 
L 289.066116 309.881483 
L 290.603306 307.970944 
L 292.140496 309.165026 
L 293.677686 311.5532 
L 295.214876 308.448579 
L 296.752066 308.448579 
L 298.289256 311.075565 
L 299.826446 307.254497 
L 301.363636 309.881483 
L 304.438017 308.926214 
L 307.512397 309.403849 
L 309.049587 308.448579 
L 310.586777 308.448579 
L 312.123967 309.881483 
L 313.661157 310.359118 
L 315.198347 308.926214 
L 316.735537 310.836742 
L 318.272727 310.359118 
L 319.809917 308.926214 
L 322.884298 309.881483 
L 324.421488 311.792012 
L 325.958678 310.836742 
L 327.495868 307.493309 
L 329.033058 309.881483 
L 330.570248 308.448579 
L 333.644628 310.359118 
L 336.719008 310.359118 
L 338.256198 308.926214 
L 339.793388 312.747281 
L 341.330579 308.448579 
L 342.867769 310.836742 
L 347.479339 310.836742 
L 349.016529 311.314377 
L 350.553719 311.314377 
L 352.090909 310.359118 
L 353.628099 312.747281 
L 355.165289 311.314377 
L 356.702479 310.836742 
L 358.239669 311.314377 
L 359.77686 309.403849 
L 361.31405 313.224916 
L 364.38843 311.314377 
L 365.92562 309.881483 
L 369 312.747281 
L 370.53719 309.403849 
L 372.07438 309.881483 
L 373.61157 310.836742 
L 375.14876 311.314377 
L 376.68595 313.224916 
L 378.22314 311.314377 
L 379.760331 311.314377 
L 381.297521 310.836742 
L 382.834711 314.180186 
L 384.371901 312.269647 
L 385.909091 310.836742 
L 387.446281 312.747281 
L 388.983471 310.359118 
L 390.520661 312.269647 
L 392.057851 309.403849 
L 393.595041 312.269647 
L 395.132231 313.224916 
L 398.206612 311.314377 
L 399.743802 313.702551 
L 401.280992 310.836742 
L 402.818182 312.747281 
L 404.355372 312.747281 
L 405.892562 311.314377 
L 408.966942 314.180186 
L 410.504132 311.792012 
L 412.041322 314.180186 
L 413.578512 313.702551 
L 415.115702 315.135455 
L 416.652893 307.970944 
L 418.190083 314.180186 
L 419.727273 311.792012 
L 421.264463 310.359118 
L 422.801653 313.224916 
L 424.338843 315.61309 
L 425.876033 315.135455 
L 428.950413 313.224916 
L 430.487603 315.135455 
L 432.024793 312.747281 
L 433.561983 315.61309 
L 435.099174 313.702551 
L 436.636364 315.61309 
L 438.173554 315.61309 
L 439.710744 312.747281 
L 441.247934 312.747281 
L 442.785124 317.045984 
L 444.322314 315.61309 
L 445.859504 314.65782 
L 447.396694 312.269647 
L 448.933884 313.224916 
L 450.471074 313.224916 
L 452.008264 312.747281 
L 453.545455 314.65782 
L 455.082645 314.65782 
L 456.619835 315.61309 
L 458.157025 315.61309 
L 461.231405 311.792012 
L 462.768595 311.792012 
L 464.305785 316.090725 
L 465.842975 313.224916 
L 467.380165 313.224916 
L 468.917355 314.180186 
L 470.454545 315.61309 
L 471.991736 311.792012 
L 473.528926 314.180186 
L 475.066116 315.61309 
L 476.603306 317.523618 
L 478.140496 315.61309 
L 481.214876 315.61309 
L 482.752066 312.747281 
L 484.289256 316.090725 
L 485.826446 313.224916 
L 487.363636 317.045984 
L 488.900826 317.045984 
L 490.438017 316.56836 
L 491.975207 314.180186 
L 493.512397 312.269647 
L 495.049587 312.747281 
L 496.586777 314.180186 
L 498.123967 317.523618 
L 499.661157 314.180186 
L 501.198347 318.001253 
L 502.735537 316.56836 
L 504.272727 317.045984 
L 505.809917 316.090725 
L 507.347107 317.045984 
L 508.884298 315.135455 
L 510.421488 315.135455 
L 511.958678 313.224916 
L 513.495868 314.180186 
L 515.033058 316.090725 
L 516.570248 315.135455 
L 518.107438 317.045984 
L 519.644628 317.045984 
L 521.181818 316.090725 
L 522.719008 318.001253 
L 524.256198 316.090725 
L 525.793388 317.045984 
L 528.867769 317.045984 
L 530.404959 316.090725 
L 531.942149 317.045984 
L 533.479339 316.090725 
L 535.016529 318.956523 
L 536.553719 317.045984 
L 541.165289 317.045984 
L 542.702479 318.001253 
L 544.239669 318.001253 
L 545.77686 317.045984 
L 548.85124 318.956523 
L 550.38843 317.045984 
L 551.92562 317.045984 
L 555 318.956523 
L 556.53719 316.090725 
L 558.07438 318.956523 
L 559.61157 319.911792 
L 561.14876 318.001253 
L 562.68595 320.867062 
L 564.22314 317.045984 
L 565.760331 317.045984 
L 567.297521 318.001253 
L 568.834711 317.045984 
L 570.371901 315.135455 
L 571.909091 317.045984 
L 573.446281 318.001253 
L 576.520661 318.001253 
L 578.057851 316.090725 
L 579.595041 320.867062 
L 581.132231 318.956523 
L 582.669421 320.867062 
L 584.206612 318.956523 
L 585.743802 318.001253 
L 587.280992 321.822331 
L 588.818182 320.867062 
L 590.355372 320.867062 
L 591.892562 321.822331 
L 593.429752 321.822331 
L 594.966942 319.911792 
L 596.504132 323.73286 
L 598.041322 323.73286 
L 599.578512 322.77759 
L 601.115702 324.688129 
L 602.652893 323.73286 
L 604.190083 332.330275 
L 605.727273 334.240814 
L 607.264463 343.793488 
L 608.801653 368.630454 
L 610.338843 395.377948 
L 611.876033 437.409744 
L 613.413223 510.010102 
L 614.950413 615.089561 
L 615.782744 699.4 
L 615.782744 699.4 
" clip-path="url(#pec399d79ee)" style="fill: none; stroke-dasharray: 3.5,5.775; stroke-dashoffset: 0; stroke: #0000ff; stroke-width: 3.5"/>
   </g>
   <g id="line2d_28">
    <path d="M 115.363636 261.361817 
L 116.900826 264.532379 
L 118.438017 265.804824 
L 119.975207 264.849555 
L 121.512397 264.640589 
L 123.049587 266.35709 
L 124.586777 269.193042 
L 126.123967 269.805012 
L 127.661157 268.446739 
L 129.198347 271.402096 
L 130.735537 269.581117 
L 132.272727 274.387311 
L 133.809917 273.01411 
L 135.347107 273.849973 
L 136.884298 275.163461 
L 138.421488 272.894704 
L 139.958678 275.312724 
L 141.495868 273.879819 
L 143.033058 275.014198 
L 144.570248 274.894792 
L 146.107438 274.417157 
L 147.644628 279.611426 
L 149.181818 279.551723 
L 150.719008 279.193494 
L 152.256198 278.297939 
L 153.793388 278.059116 
L 155.330579 278.477048 
L 156.867769 279.193494 
L 158.404959 280.327884 
L 159.942149 280.686102 
L 161.479339 279.432317 
L 163.016529 279.312911 
L 164.553719 283.372801 
L 166.090909 280.148764 
L 167.628099 282.178709 
L 169.165289 281.701074 
L 170.702479 281.939897 
L 172.239669 281.701074 
L 173.77686 284.208654 
L 176.85124 279.790546 
L 178.38843 282.059303 
L 179.92562 283.969842 
L 181.46281 285.402736 
L 183 284.447477 
L 184.53719 282.178709 
L 186.07438 284.566883 
L 187.61157 285.163924 
L 189.14876 282.298115 
L 190.68595 284.925112 
L 192.22314 281.820491 
L 193.760331 283.611613 
L 195.297521 282.895167 
L 196.834711 284.686289 
L 198.371901 287.074463 
L 199.909091 286.358005 
L 201.446281 287.193869 
L 202.983471 285.999787 
L 204.520661 285.999787 
L 206.057851 284.686289 
L 207.595041 283.850425 
L 209.132231 287.79091 
L 210.669421 284.089248 
L 212.206612 288.38795 
L 213.743802 285.28333 
L 215.280992 285.044518 
L 216.818182 287.910316 
L 218.355372 284.805695 
L 219.892562 285.999787 
L 221.429752 288.865585 
L 222.966942 285.999787 
L 224.504132 286.477411 
L 226.041322 286.238599 
L 227.578512 287.193869 
L 229.115702 286.716234 
L 230.652893 286.955046 
L 232.190083 286.238599 
L 235.264463 288.149138 
L 236.801653 287.910316 
L 238.338843 287.910316 
L 239.876033 288.38795 
L 241.413223 291.492571 
L 242.950413 287.910316 
L 244.487603 287.193869 
L 246.024793 290.29849 
L 247.561983 286.238599 
L 249.099174 288.626773 
L 250.636364 286.716234 
L 252.173554 288.865585 
L 253.710744 286.955046 
L 255.247934 286.238599 
L 256.785124 290.537302 
L 258.322314 287.432681 
L 259.859504 287.432681 
L 261.396694 289.104408 
L 262.933884 287.910316 
L 264.471074 289.104408 
L 266.008264 287.432681 
L 267.545455 288.865585 
L 269.082645 289.104408 
L 270.619835 290.059667 
L 272.157025 288.626773 
L 273.694215 289.820855 
L 275.231405 288.38795 
L 276.768595 287.193869 
L 278.305785 287.671504 
L 279.842975 284.089248 
L 281.380165 290.059667 
L 282.917355 290.059667 
L 284.454545 291.014936 
L 285.991736 291.014936 
L 287.528926 288.626773 
L 289.066116 290.29849 
L 290.603306 291.253759 
L 292.140496 290.537302 
L 293.677686 289.582032 
L 295.214876 287.910316 
L 296.752066 290.537302 
L 298.289256 290.776124 
L 299.826446 291.731394 
L 301.363636 290.059667 
L 302.900826 290.537302 
L 304.438017 292.209029 
L 305.975207 287.432681 
L 307.512397 290.776124 
L 309.049587 287.910316 
L 310.586777 289.820855 
L 312.123967 287.910316 
L 313.661157 289.34322 
L 315.198347 288.865585 
L 316.735537 288.865585 
L 318.272727 290.29849 
L 319.809917 293.641922 
L 321.347107 289.820855 
L 322.884298 290.29849 
L 324.421488 289.820855 
L 325.958678 288.865585 
L 329.033058 291.731394 
L 330.570248 291.731394 
L 332.107438 289.820855 
L 333.644628 294.119557 
L 335.181818 291.253759 
L 336.719008 292.209029 
L 338.256198 292.209029 
L 339.793388 289.820855 
L 341.330579 293.641922 
L 342.867769 291.253759 
L 344.404959 292.686653 
L 345.942149 293.164287 
L 347.479339 292.209029 
L 349.016529 293.641922 
L 350.553719 292.686653 
L 352.090909 294.119557 
L 353.628099 289.820855 
L 355.165289 292.209029 
L 356.702479 290.776124 
L 358.239669 291.731394 
L 359.77686 295.074827 
L 361.31405 291.731394 
L 362.85124 293.164287 
L 364.38843 291.253759 
L 365.92562 292.686653 
L 367.46281 292.209029 
L 369 295.074827 
L 370.53719 291.253759 
L 372.07438 291.731394 
L 373.61157 294.119557 
L 375.14876 292.209029 
L 376.68595 294.119557 
L 378.22314 295.074827 
L 379.760331 295.552461 
L 381.297521 295.074827 
L 382.834711 293.641922 
L 384.371901 291.253759 
L 385.909091 290.776124 
L 388.983471 293.641922 
L 390.520661 295.552461 
L 392.057851 293.641922 
L 395.132231 292.686653 
L 396.669421 294.597192 
L 398.206612 295.552461 
L 399.743802 293.164287 
L 401.280992 294.119557 
L 402.818182 293.164287 
L 404.355372 295.552461 
L 405.892562 294.597192 
L 407.429752 295.074827 
L 408.966942 294.119557 
L 410.504132 296.985366 
L 412.041322 293.164287 
L 413.578512 293.164287 
L 415.115702 295.074827 
L 416.652893 296.507731 
L 419.727273 293.641922 
L 421.264463 295.074827 
L 422.801653 294.597192 
L 424.338843 295.074827 
L 425.876033 295.074827 
L 427.413223 293.641922 
L 430.487603 293.641922 
L 432.024793 296.030096 
L 433.561983 296.507731 
L 435.099174 298.41827 
L 436.636364 294.597192 
L 438.173554 295.074827 
L 439.710744 295.074827 
L 441.247934 292.686653 
L 442.785124 294.119557 
L 444.322314 296.030096 
L 445.859504 296.030096 
L 447.396694 295.552461 
L 448.933884 296.507731 
L 450.471074 295.552461 
L 452.008264 295.552461 
L 453.545455 292.686653 
L 455.082645 297.463001 
L 456.619835 294.597192 
L 458.157025 297.463001 
L 459.694215 295.074827 
L 461.231405 293.641922 
L 462.768595 293.641922 
L 464.305785 295.552461 
L 465.842975 294.597192 
L 467.380165 295.074827 
L 468.917355 296.030096 
L 470.454545 297.463001 
L 473.528926 297.463001 
L 475.066116 295.074827 
L 476.603306 297.463001 
L 478.140496 295.074827 
L 479.677686 297.940635 
L 481.214876 296.985366 
L 482.752066 297.463001 
L 484.289256 294.119557 
L 485.826446 297.940635 
L 487.363636 296.030096 
L 488.900826 296.030096 
L 490.438017 298.41827 
L 491.975207 296.507731 
L 493.512397 295.074827 
L 495.049587 297.463001 
L 496.586777 296.030096 
L 498.123967 297.463001 
L 499.661157 296.030096 
L 501.198347 297.463001 
L 502.735537 295.552461 
L 504.272727 296.030096 
L 505.809917 295.074827 
L 507.347107 300.806433 
L 508.884298 296.985366 
L 510.421488 299.851164 
L 511.958678 298.895894 
L 513.495868 295.074827 
L 515.033058 298.895894 
L 516.570248 296.985366 
L 518.107438 296.985366 
L 519.644628 297.940635 
L 522.719008 296.030096 
L 524.256198 297.940635 
L 525.793388 298.895894 
L 528.867769 296.985366 
L 530.404959 297.940635 
L 531.942149 296.985366 
L 533.479339 294.119557 
L 535.016529 297.940635 
L 536.553719 299.851164 
L 538.090909 296.030096 
L 539.628099 297.940635 
L 541.165289 296.985366 
L 542.702479 296.985366 
L 544.239669 298.895894 
L 545.77686 297.940635 
L 547.31405 298.895894 
L 548.85124 298.895894 
L 550.38843 300.806433 
L 551.92562 299.851164 
L 553.46281 300.806433 
L 555 298.895894 
L 556.53719 299.851164 
L 558.07438 299.851164 
L 559.61157 300.806433 
L 561.14876 298.895894 
L 562.68595 302.716972 
L 564.22314 298.895894 
L 565.760331 301.761703 
L 567.297521 296.985366 
L 568.834711 299.851164 
L 570.371901 300.806433 
L 571.909091 299.851164 
L 574.983471 301.761703 
L 578.057851 297.940635 
L 579.595041 299.851164 
L 581.132231 300.806433 
L 582.669421 296.985366 
L 585.743802 304.627501 
L 587.280992 302.716972 
L 588.818182 299.851164 
L 590.355372 303.672242 
L 591.892562 300.806433 
L 593.429752 303.672242 
L 594.966942 300.806433 
L 596.504132 300.806433 
L 598.041322 301.761703 
L 599.578512 303.672242 
L 601.115702 306.53804 
L 602.652893 311.314377 
L 604.190083 314.180186 
L 605.727273 318.001253 
L 607.264463 326.598668 
L 608.801653 343.793488 
L 610.338843 371.496252 
L 611.876033 420.214914 
L 613.413223 486.128395 
L 614.950413 590.252595 
L 616.008467 699.4 
L 616.008467 699.4 
" clip-path="url(#pec399d79ee)" style="fill: none; stroke: #ff0000; stroke-width: 3.5; stroke-linecap: square"/>
   </g>
   <g id="line2d_29">
    <path d="M 115.363636 241.936067 
L 116.900826 244.430708 
L 118.438017 244.662056 
L 119.975207 247.154707 
L 121.512397 249.968277 
L 123.049587 253.05797 
L 124.586777 253.923679 
L 126.123967 258.998542 
L 127.661157 256.356628 
L 129.198347 256.476034 
L 130.735537 263.342019 
L 132.272727 261.998674 
L 133.809917 265.252558 
L 135.347107 266.566056 
L 136.884298 268.058653 
L 139.958678 271.37224 
L 141.495868 268.625848 
L 143.033058 274.238048 
L 144.570248 274.118642 
L 146.107438 274.178345 
L 147.644628 275.253021 
L 149.181818 278.477048 
L 150.719008 277.880007 
L 152.256198 279.372614 
L 153.793388 281.04433 
L 155.330579 280.268181 
L 156.867769 279.014385 
L 158.404959 283.55191 
L 159.942149 284.268357 
L 161.479339 286.119193 
L 163.016529 283.074276 
L 164.553719 284.089248 
L 166.090909 283.014573 
L 167.628099 288.507356 
L 169.165289 287.552098 
L 170.702479 287.79091 
L 172.239669 288.626773 
L 173.77686 288.984991 
L 175.31405 288.149138 
L 176.85124 290.537302 
L 178.38843 290.417896 
L 179.92562 290.89553 
L 181.46281 289.582032 
L 183 290.656718 
L 184.53719 293.283704 
L 186.07438 292.925475 
L 187.61157 290.776124 
L 189.14876 291.8508 
L 190.68595 293.522516 
L 192.22314 290.776124 
L 193.760331 291.373165 
L 195.297521 292.567247 
L 196.834711 290.89553 
L 198.371901 294.238963 
L 199.909091 293.761339 
L 201.446281 295.194233 
L 202.983471 293.522516 
L 204.520661 294.000151 
L 206.057851 296.268908 
L 207.595041 295.313649 
L 209.132231 295.552461 
L 210.669421 295.671867 
L 212.206612 296.746543 
L 213.743802 294.119557 
L 215.280992 294.35838 
L 216.818182 296.985366 
L 218.355372 295.313649 
L 221.429752 295.313649 
L 222.966942 294.597192 
L 224.504132 296.746543 
L 226.041322 295.791273 
L 227.578512 297.224178 
L 229.115702 296.268908 
L 230.652893 297.224178 
L 232.190083 296.030096 
L 233.727273 298.41827 
L 236.801653 296.507731 
L 238.338843 296.985366 
L 239.876033 296.268908 
L 241.413223 299.612352 
L 242.950413 296.985366 
L 244.487603 299.612352 
L 246.024793 298.179447 
L 247.561983 299.612352 
L 249.099174 299.134717 
L 250.636364 300.567621 
L 252.173554 299.373529 
L 253.710744 296.507731 
L 255.247934 297.701813 
L 256.785124 300.089986 
L 258.322314 299.851164 
L 259.859504 298.657082 
L 261.396694 299.134717 
L 262.933884 297.224178 
L 264.471074 298.657082 
L 266.008264 300.567621 
L 267.545455 299.851164 
L 269.082645 302.000515 
L 270.619835 298.41827 
L 272.157025 301.045256 
L 273.694215 298.179447 
L 275.231405 298.895894 
L 276.768595 299.134717 
L 278.305785 298.179447 
L 279.842975 299.373529 
L 281.380165 300.806433 
L 282.917355 301.522891 
L 284.454545 297.940635 
L 285.991736 303.433419 
L 289.066116 298.657082 
L 290.603306 302.000515 
L 292.140496 300.328798 
L 293.677686 300.089986 
L 295.214876 297.463001 
L 296.752066 302.239338 
L 298.289256 297.463001 
L 299.826446 299.612352 
L 301.363636 298.895894 
L 302.900826 303.433419 
L 304.438017 298.895894 
L 305.975207 300.806433 
L 307.512397 299.851164 
L 310.586777 302.716972 
L 312.123967 301.284068 
L 313.661157 301.761703 
L 315.198347 300.806433 
L 316.735537 304.149877 
L 318.272727 301.761703 
L 321.347107 300.806433 
L 322.884298 301.284068 
L 324.421488 302.239338 
L 325.958678 301.284068 
L 327.495868 304.149877 
L 329.033058 300.806433 
L 330.570248 301.284068 
L 332.107438 298.895894 
L 333.644628 300.806433 
L 335.181818 301.761703 
L 336.719008 301.284068 
L 338.256198 300.328798 
L 339.793388 302.239338 
L 341.330579 302.239338 
L 342.867769 303.194607 
L 344.404959 300.328798 
L 345.942149 303.672242 
L 347.479339 301.284068 
L 349.016529 303.672242 
L 350.553719 303.194607 
L 352.090909 301.761703 
L 353.628099 304.149877 
L 355.165289 301.761703 
L 356.702479 301.761703 
L 358.239669 301.284068 
L 359.77686 302.239338 
L 361.31405 302.716972 
L 362.85124 301.761703 
L 364.38843 304.627501 
L 365.92562 301.761703 
L 367.46281 301.284068 
L 369 301.284068 
L 372.07438 305.105136 
L 373.61157 304.627501 
L 375.14876 301.284068 
L 376.68595 304.149877 
L 378.22314 303.194607 
L 379.760331 302.716972 
L 381.297521 303.672242 
L 384.371901 301.761703 
L 385.909091 302.716972 
L 387.446281 303.194607 
L 388.983471 299.851164 
L 390.520661 301.761703 
L 392.057851 302.716972 
L 393.595041 305.105136 
L 395.132231 304.627501 
L 396.669421 302.716972 
L 398.206612 303.672242 
L 399.743802 306.060405 
L 401.280992 305.58277 
L 402.818182 304.627501 
L 404.355372 302.716972 
L 405.892562 304.149877 
L 407.429752 305.105136 
L 408.966942 304.627501 
L 412.041322 304.627501 
L 415.115702 305.58277 
L 416.652893 301.761703 
L 418.190083 303.194607 
L 419.727273 300.806433 
L 421.264463 304.627501 
L 424.338843 305.58277 
L 425.876033 302.239338 
L 427.413223 307.493309 
L 428.950413 302.716972 
L 430.487603 304.627501 
L 432.024793 304.149877 
L 433.561983 306.53804 
L 435.099174 304.627501 
L 436.636364 305.58277 
L 438.173554 307.015675 
L 439.710744 304.149877 
L 442.785124 306.060405 
L 444.322314 304.149877 
L 445.859504 305.105136 
L 447.396694 307.015675 
L 448.933884 307.493309 
L 450.471074 306.53804 
L 452.008264 307.493309 
L 453.545455 307.493309 
L 456.619835 306.53804 
L 458.157025 306.53804 
L 459.694215 308.448579 
L 461.231405 306.060405 
L 462.768595 305.58277 
L 464.305785 307.970944 
L 465.842975 306.53804 
L 467.380165 307.015675 
L 468.917355 306.53804 
L 470.454545 305.58277 
L 471.991736 305.58277 
L 473.528926 304.627501 
L 475.066116 305.58277 
L 478.140496 302.716972 
L 479.677686 306.53804 
L 481.214876 307.015675 
L 482.752066 306.53804 
L 484.289256 306.53804 
L 485.826446 305.58277 
L 487.363636 307.493309 
L 488.900826 305.105136 
L 490.438017 310.359118 
L 491.975207 306.53804 
L 493.512397 308.448579 
L 495.049587 307.970944 
L 496.586777 307.970944 
L 498.123967 306.53804 
L 499.661157 303.672242 
L 501.198347 307.015675 
L 502.735537 306.060405 
L 504.272727 304.627501 
L 505.809917 305.58277 
L 507.347107 307.493309 
L 508.884298 306.53804 
L 510.421488 306.53804 
L 511.958678 308.448579 
L 513.495868 311.314377 
L 515.033058 306.53804 
L 516.570248 308.448579 
L 518.107438 304.627501 
L 519.644628 309.403849 
L 521.181818 308.448579 
L 522.719008 310.359118 
L 524.256198 308.448579 
L 525.793388 308.448579 
L 527.330579 307.493309 
L 528.867769 308.448579 
L 530.404959 311.314377 
L 531.942149 307.493309 
L 533.479339 309.403849 
L 535.016529 307.493309 
L 536.553719 308.448579 
L 538.090909 308.448579 
L 539.628099 305.58277 
L 541.165289 309.403849 
L 542.702479 312.269647 
L 544.239669 307.493309 
L 545.77686 308.448579 
L 547.31405 307.493309 
L 548.85124 308.448579 
L 550.38843 306.53804 
L 551.92562 308.448579 
L 553.46281 307.493309 
L 555 309.403849 
L 556.53719 310.359118 
L 558.07438 309.403849 
L 561.14876 309.403849 
L 562.68595 310.359118 
L 564.22314 313.224916 
L 565.760331 310.359118 
L 567.297521 309.403849 
L 568.834711 306.53804 
L 570.371901 312.269647 
L 571.909091 310.359118 
L 574.983471 310.359118 
L 576.520661 309.403849 
L 579.595041 309.403849 
L 581.132231 310.359118 
L 582.669421 312.269647 
L 584.206612 311.314377 
L 588.818182 311.314377 
L 590.355372 313.224916 
L 591.892562 314.180186 
L 593.429752 311.314377 
L 594.966942 314.180186 
L 596.504132 313.224916 
L 598.041322 314.180186 
L 599.578512 316.090725 
L 601.115702 315.135455 
L 604.190083 320.867062 
L 605.727273 330.419736 
L 607.264463 341.882949 
L 608.801653 357.167241 
L 610.338843 383.914735 
L 611.876033 429.767599 
L 613.413223 497.591619 
L 614.950413 603.626347 
L 615.890147 699.4 
L 615.890147 699.4 
" clip-path="url(#pec399d79ee)" style="fill: none; stroke: #bf00bf; stroke-width: 3.5; stroke-linecap: square"/>
   </g>
   <g id="line2d_30">
    <path d="M 115.363636 259.640024 
L 116.900826 261.771059 
L 118.438017 259.603047 
L 119.975207 260.349351 
L 123.049587 262.431535 
L 124.586777 260.700115 
L 126.123967 264.177882 
L 127.661157 264.62566 
L 129.198347 264.924186 
L 130.735537 265.043592 
L 132.272727 264.983889 
L 133.809917 266.506343 
L 135.347107 265.909302 
L 136.884298 264.327145 
L 138.421488 265.67049 
L 139.958678 268.625848 
L 141.495868 269.402008 
L 143.033058 269.700523 
L 144.570248 267.252646 
L 146.107438 268.625848 
L 147.644628 269.819929 
L 149.181818 270.59609 
L 150.719008 270.416981 
L 152.256198 273.521601 
L 153.793388 270.775199 
L 155.330579 274.178345 
L 156.867769 271.133428 
L 158.404959 273.223076 
L 159.942149 272.267806 
L 161.479339 272.028994 
L 163.016529 272.208103 
L 164.553719 275.61125 
L 166.090909 275.014198 
L 167.628099 271.790171 
L 169.165289 275.133615 
L 170.702479 275.969468 
L 172.239669 274.297751 
L 173.77686 276.924737 
L 176.85124 275.730656 
L 178.38843 275.850062 
L 179.92562 274.775386 
L 181.46281 275.491833 
L 183 274.536563 
L 184.53719 275.969468 
L 187.61157 275.253021 
L 189.14876 278.71587 
L 190.68595 278.596454 
L 192.22314 279.312911 
L 193.760331 278.71587 
L 195.297521 277.402372 
L 196.834711 277.641184 
L 198.371901 274.178345 
L 199.909091 278.596454 
L 201.446281 279.074088 
L 202.983471 277.880007 
L 204.520661 279.790546 
L 206.057851 279.193494 
L 207.595041 276.924737 
L 209.132231 280.029358 
L 210.669421 277.999413 
L 212.206612 278.357642 
L 213.743802 279.790546 
L 215.280992 276.924737 
L 216.818182 277.880007 
L 218.355372 279.312911 
L 219.892562 278.835276 
L 221.429752 276.685925 
L 222.966942 279.551723 
L 224.504132 278.118819 
L 226.041322 277.16356 
L 227.578512 276.924737 
L 229.115702 277.402372 
L 230.652893 279.074088 
L 232.190083 275.014198 
L 233.727273 281.701074 
L 235.264463 280.268181 
L 236.801653 279.790546 
L 238.338843 281.223439 
L 239.876033 281.462262 
L 241.413223 280.745805 
L 242.950413 278.596454 
L 244.487603 280.745805 
L 246.024793 278.357642 
L 249.099174 281.223439 
L 250.636364 280.268181 
L 252.173554 282.417532 
L 253.710744 280.506993 
L 255.247934 280.029358 
L 256.785124 282.417532 
L 258.322314 280.506993 
L 259.859504 281.939897 
L 261.396694 281.701074 
L 262.933884 283.611613 
L 264.471074 282.178709 
L 266.008264 280.268181 
L 267.545455 280.984627 
L 269.082645 280.745805 
L 270.619835 281.462262 
L 272.157025 280.745805 
L 273.694215 278.596454 
L 275.231405 278.835276 
L 276.768595 281.462262 
L 278.305785 280.745805 
L 279.842975 281.939897 
L 281.380165 281.462262 
L 282.917355 281.701074 
L 284.454545 281.223439 
L 285.991736 281.462262 
L 287.528926 284.32806 
L 289.066116 282.656344 
L 290.603306 281.462262 
L 293.677686 281.939897 
L 295.214876 281.462262 
L 296.752066 279.074088 
L 298.289256 283.372801 
L 299.826446 281.462262 
L 301.363636 283.611613 
L 302.900826 282.178709 
L 304.438017 282.656344 
L 305.975207 281.462262 
L 307.512397 281.701074 
L 309.049587 280.745805 
L 312.123967 282.656344 
L 313.661157 285.522152 
L 315.198347 284.089248 
L 316.735537 283.611613 
L 319.809917 285.522152 
L 321.347107 282.178709 
L 322.884298 282.656344 
L 324.421488 282.178709 
L 325.958678 283.133979 
L 327.495868 283.133979 
L 329.033058 280.745805 
L 330.570248 284.089248 
L 332.107438 283.611613 
L 333.644628 280.745805 
L 335.181818 282.656344 
L 336.719008 282.656344 
L 338.256198 284.089248 
L 339.793388 283.611613 
L 341.330579 285.522152 
L 342.867769 283.611613 
L 344.404959 285.999787 
L 345.942149 283.611613 
L 347.479339 285.044518 
L 349.016529 282.656344 
L 350.553719 284.566883 
L 353.628099 282.656344 
L 355.165289 282.656344 
L 356.702479 283.611613 
L 358.239669 283.133979 
L 359.77686 284.089248 
L 361.31405 283.611613 
L 362.85124 282.656344 
L 364.38843 283.611613 
L 365.92562 283.611613 
L 367.46281 282.656344 
L 369 283.133979 
L 370.53719 284.089248 
L 372.07438 283.611613 
L 373.61157 285.522152 
L 375.14876 283.611613 
L 376.68595 283.133979 
L 378.22314 286.477411 
L 379.760331 283.611613 
L 381.297521 287.910316 
L 382.834711 285.044518 
L 384.371901 283.133979 
L 385.909091 284.566883 
L 387.446281 283.611613 
L 388.983471 287.432681 
L 390.520661 285.522152 
L 392.057851 285.044518 
L 393.595041 285.522152 
L 395.132231 287.432681 
L 396.669421 285.522152 
L 398.206612 286.955046 
L 399.743802 284.566883 
L 404.355372 287.432681 
L 405.892562 285.522152 
L 407.429752 285.999787 
L 408.966942 288.38795 
L 410.504132 286.477411 
L 412.041322 285.999787 
L 416.652893 285.999787 
L 418.190083 286.955046 
L 419.727273 288.865585 
L 421.264463 282.656344 
L 422.801653 284.566883 
L 424.338843 287.432681 
L 425.876033 285.044518 
L 427.413223 283.133979 
L 428.950413 288.38795 
L 430.487603 286.955046 
L 432.024793 286.955046 
L 433.561983 285.999787 
L 435.099174 287.910316 
L 436.636364 286.955046 
L 438.173554 285.044518 
L 439.710744 287.910316 
L 441.247934 285.999787 
L 442.785124 287.432681 
L 444.322314 286.955046 
L 445.859504 285.999787 
L 448.933884 289.820855 
L 450.471074 287.432681 
L 452.008264 285.999787 
L 453.545455 288.38795 
L 455.082645 285.999787 
L 456.619835 286.955046 
L 458.157025 286.955046 
L 459.694215 287.910316 
L 461.231405 289.34322 
L 464.305785 287.432681 
L 465.842975 285.999787 
L 467.380165 288.38795 
L 468.917355 286.477411 
L 470.454545 289.820855 
L 471.991736 287.432681 
L 473.528926 288.38795 
L 475.066116 291.253759 
L 476.603306 288.865585 
L 478.140496 289.34322 
L 479.677686 287.432681 
L 481.214876 288.865585 
L 482.752066 286.955046 
L 484.289256 289.820855 
L 485.826446 286.477411 
L 487.363636 287.432681 
L 488.900826 284.566883 
L 490.438017 290.776124 
L 491.975207 287.432681 
L 493.512397 290.29849 
L 495.049587 284.566883 
L 496.586777 288.865585 
L 498.123967 288.865585 
L 499.661157 288.38795 
L 501.198347 286.955046 
L 502.735537 290.776124 
L 504.272727 292.209029 
L 505.809917 289.34322 
L 507.347107 290.29849 
L 508.884298 288.38795 
L 511.958678 290.29849 
L 513.495868 293.164287 
L 515.033058 289.34322 
L 516.570248 288.38795 
L 518.107438 289.34322 
L 519.644628 287.432681 
L 522.719008 291.253759 
L 524.256198 289.34322 
L 528.867769 292.209029 
L 530.404959 290.29849 
L 533.479339 292.209029 
L 535.016529 289.34322 
L 538.090909 291.253759 
L 539.628099 291.253759 
L 541.165289 290.29849 
L 542.702479 292.209029 
L 545.77686 290.29849 
L 547.31405 290.29849 
L 548.85124 289.34322 
L 550.38843 290.29849 
L 551.92562 289.34322 
L 553.46281 292.209029 
L 556.53719 290.29849 
L 558.07438 294.119557 
L 559.61157 290.29849 
L 564.22314 290.29849 
L 565.760331 291.253759 
L 567.297521 290.29849 
L 568.834711 291.253759 
L 570.371901 293.164287 
L 571.909091 292.209029 
L 573.446281 292.209029 
L 574.983471 293.164287 
L 576.520661 293.164287 
L 578.057851 295.074827 
L 579.595041 293.164287 
L 581.132231 292.209029 
L 582.669421 293.164287 
L 584.206612 291.253759 
L 585.743802 293.164287 
L 587.280992 293.164287 
L 588.818182 295.074827 
L 591.892562 293.164287 
L 594.966942 296.985366 
L 596.504132 296.030096 
L 598.041322 294.119557 
L 599.578512 297.940635 
L 601.115702 296.985366 
L 602.652893 301.761703 
L 604.190083 303.672242 
L 605.727273 311.314377 
L 607.264463 319.911792 
L 608.801653 337.106612 
L 610.338843 362.898847 
L 611.876033 408.7517 
L 613.413223 479.44153 
L 614.950413 584.520988 
L 616.084524 699.4 
L 616.084524 699.4 
" clip-path="url(#pec399d79ee)" style="fill: none; stroke: #008000; stroke-width: 3.5; stroke-linecap: square"/>
   </g>
   <g id="line2d_31">
    <path d="M 115.363636 256.716072 
L 118.438017 261.080726 
L 119.975207 265.692882 
L 121.512397 263.700248 
L 123.049587 264.401777 
L 124.586777 267.282503 
L 126.123967 267.192943 
L 127.661157 270.267718 
L 129.198347 269.133339 
L 130.735537 268.416882 
L 132.272727 270.655793 
L 133.809917 272.476772 
L 135.347107 272.327509 
L 136.884298 272.894704 
L 138.421488 272.835001 
L 139.958678 274.357454 
L 141.495868 276.685925 
L 143.033058 276.924737 
L 144.570248 277.93971 
L 146.107438 280.745805 
L 147.644628 276.745628 
L 149.181818 277.93971 
L 150.719008 279.551723 
L 152.256198 279.671129 
L 153.793388 282.357829 
L 155.330579 280.566696 
L 156.867769 280.029358 
L 158.404959 281.462262 
L 159.942149 282.119006 
L 161.479339 284.626586 
L 163.016529 284.447477 
L 164.553719 282.417532 
L 166.090909 284.566883 
L 167.628099 285.28333 
L 169.165289 286.596828 
L 170.702479 285.402736 
L 172.239669 285.880371 
L 173.77686 285.999787 
L 175.31405 284.805695 
L 176.85124 287.193869 
L 178.38843 287.074463 
L 179.92562 288.149138 
L 181.46281 289.582032 
L 183 286.596828 
L 184.53719 287.313275 
L 186.07438 288.984991 
L 187.61157 286.596828 
L 189.14876 291.134342 
L 190.68595 287.193869 
L 192.22314 289.223814 
L 193.760331 287.432681 
L 195.297521 287.910316 
L 196.834711 287.193869 
L 198.371901 289.462626 
L 199.909091 289.940261 
L 201.446281 291.373165 
L 202.983471 291.611977 
L 206.057851 291.134342 
L 207.595041 291.492571 
L 209.132231 292.806069 
L 210.669421 290.89553 
L 212.206612 291.253759 
L 213.743802 291.731394 
L 215.280992 291.014936 
L 216.818182 294.597192 
L 218.355372 292.209029 
L 219.892562 291.253759 
L 221.429752 290.776124 
L 222.966942 291.970206 
L 224.504132 292.209029 
L 226.041322 291.253759 
L 227.578512 291.731394 
L 229.115702 292.686653 
L 230.652893 291.253759 
L 232.190083 292.686653 
L 233.727273 292.686653 
L 235.264463 292.447841 
L 236.801653 293.40311 
L 238.338843 292.447841 
L 239.876033 290.776124 
L 241.413223 291.253759 
L 242.950413 290.29849 
L 244.487603 293.164287 
L 246.024793 294.597192 
L 247.561983 294.119557 
L 249.099174 293.164287 
L 250.636364 293.641922 
L 252.173554 295.313649 
L 253.710744 290.537302 
L 255.247934 292.925475 
L 256.785124 294.35838 
L 258.322314 293.164287 
L 259.859504 294.836015 
L 261.396694 295.313649 
L 262.933884 294.35838 
L 264.471074 293.164287 
L 266.008264 293.641922 
L 267.545455 295.791273 
L 269.082645 292.209029 
L 270.619835 293.641922 
L 272.157025 293.164287 
L 273.694215 293.641922 
L 275.231405 295.074827 
L 276.768595 293.641922 
L 278.305785 296.746543 
L 279.842975 295.074827 
L 281.380165 294.597192 
L 282.917355 294.597192 
L 284.454545 294.119557 
L 285.991736 295.074827 
L 287.528926 295.313649 
L 289.066116 294.119557 
L 290.603306 296.268908 
L 292.140496 293.164287 
L 293.677686 297.224178 
L 295.214876 294.35838 
L 296.752066 295.074827 
L 298.289256 296.746543 
L 299.826446 296.746543 
L 301.363636 295.552461 
L 302.900826 297.701813 
L 304.438017 296.030096 
L 305.975207 295.791273 
L 307.512397 296.507731 
L 309.049587 297.463001 
L 310.586777 295.074827 
L 312.123967 297.940635 
L 313.661157 296.030096 
L 315.198347 295.074827 
L 316.735537 296.985366 
L 318.272727 295.074827 
L 319.809917 296.985366 
L 321.347107 297.940635 
L 322.884298 296.030096 
L 324.421488 294.597192 
L 325.958678 296.507731 
L 327.495868 297.463001 
L 329.033058 295.552461 
L 330.570248 296.507731 
L 332.107438 295.074827 
L 333.644628 297.463001 
L 335.181818 296.507731 
L 338.256198 297.463001 
L 339.793388 296.985366 
L 341.330579 297.463001 
L 342.867769 296.030096 
L 344.404959 297.940635 
L 345.942149 296.985366 
L 347.479339 296.507731 
L 349.016529 296.507731 
L 350.553719 296.030096 
L 352.090909 297.940635 
L 353.628099 295.074827 
L 355.165289 296.507731 
L 356.702479 296.030096 
L 358.239669 296.985366 
L 359.77686 296.507731 
L 361.31405 297.940635 
L 364.38843 297.940635 
L 365.92562 297.463001 
L 367.46281 297.940635 
L 369 296.985366 
L 370.53719 297.463001 
L 372.07438 297.463001 
L 373.61157 298.895894 
L 375.14876 297.940635 
L 376.68595 297.463001 
L 378.22314 301.284068 
L 379.760331 295.552461 
L 381.297521 300.328798 
L 382.834711 300.328798 
L 384.371901 297.940635 
L 385.909091 299.851164 
L 387.446281 297.463001 
L 388.983471 302.239338 
L 390.520661 299.373529 
L 392.057851 297.940635 
L 393.595041 300.328798 
L 395.132231 296.507731 
L 396.669421 297.940635 
L 398.206612 296.507731 
L 399.743802 300.806433 
L 401.280992 297.940635 
L 402.818182 300.806433 
L 404.355372 299.851164 
L 405.892562 298.41827 
L 407.429752 298.895894 
L 408.966942 297.463001 
L 410.504132 301.284068 
L 412.041322 300.328798 
L 413.578512 301.284068 
L 415.115702 300.328798 
L 416.652893 296.030096 
L 418.190083 298.895894 
L 419.727273 297.940635 
L 421.264463 300.328798 
L 422.801653 298.895894 
L 424.338843 298.895894 
L 425.876033 299.373529 
L 427.413223 298.895894 
L 428.950413 302.716972 
L 430.487603 298.41827 
L 432.024793 299.851164 
L 433.561983 299.373529 
L 435.099174 301.284068 
L 436.636364 301.761703 
L 438.173554 301.761703 
L 439.710744 300.806433 
L 441.247934 300.328798 
L 442.785124 304.149877 
L 444.322314 301.284068 
L 445.859504 299.373529 
L 447.396694 299.373529 
L 448.933884 301.284068 
L 450.471074 301.284068 
L 452.008264 299.851164 
L 453.545455 301.284068 
L 455.082645 298.895894 
L 456.619835 300.806433 
L 458.157025 301.284068 
L 459.694215 298.895894 
L 461.231405 298.41827 
L 462.768595 300.328798 
L 464.305785 301.761703 
L 465.842975 300.328798 
L 467.380165 301.284068 
L 468.917355 300.806433 
L 470.454545 299.851164 
L 471.991736 301.284068 
L 473.528926 302.239338 
L 475.066116 299.851164 
L 478.140496 303.672242 
L 479.677686 301.284068 
L 481.214876 300.328798 
L 482.752066 298.895894 
L 484.289256 300.328798 
L 485.826446 300.806433 
L 487.363636 297.463001 
L 488.900826 301.761703 
L 490.438017 300.806433 
L 491.975207 300.328798 
L 493.512397 303.194607 
L 495.049587 300.806433 
L 496.586777 303.672242 
L 498.123967 300.806433 
L 499.661157 303.672242 
L 501.198347 301.761703 
L 502.735537 301.284068 
L 504.272727 303.672242 
L 505.809917 300.806433 
L 507.347107 302.716972 
L 508.884298 302.716972 
L 510.421488 301.761703 
L 511.958678 301.761703 
L 513.495868 305.58277 
L 515.033058 300.806433 
L 516.570248 301.761703 
L 518.107438 304.627501 
L 519.644628 302.716972 
L 521.181818 302.716972 
L 522.719008 301.761703 
L 524.256198 304.627501 
L 525.793388 304.627501 
L 527.330579 301.761703 
L 528.867769 300.806433 
L 530.404959 303.672242 
L 531.942149 302.716972 
L 533.479339 304.627501 
L 536.553719 302.716972 
L 538.090909 300.806433 
L 539.628099 304.627501 
L 541.165289 304.627501 
L 544.239669 300.806433 
L 545.77686 305.58277 
L 548.85124 305.58277 
L 551.92562 301.761703 
L 553.46281 304.627501 
L 555 303.672242 
L 556.53719 304.627501 
L 558.07438 302.716972 
L 559.61157 304.627501 
L 561.14876 301.761703 
L 562.68595 304.627501 
L 564.22314 300.806433 
L 565.760331 305.58277 
L 567.297521 306.53804 
L 568.834711 304.627501 
L 573.446281 304.627501 
L 574.983471 309.403849 
L 576.520661 305.58277 
L 578.057851 304.627501 
L 579.595041 306.53804 
L 581.132231 304.627501 
L 582.669421 304.627501 
L 584.206612 302.716972 
L 587.280992 306.53804 
L 590.355372 306.53804 
L 591.892562 311.314377 
L 593.429752 309.403849 
L 594.966942 308.448579 
L 598.041322 308.448579 
L 599.578512 312.269647 
L 601.115702 310.359118 
L 604.190083 316.090725 
L 605.727273 324.688129 
L 607.264463 331.375006 
L 608.801653 350.480365 
L 610.338843 377.227859 
L 611.876033 421.170183 
L 613.413223 493.770541 
L 614.950413 600.760549 
L 615.924204 699.4 
L 615.924204 699.4 
" clip-path="url(#pec399d79ee)" style="fill: none; stroke-dasharray: 12.95,5.6; stroke-dashoffset: 0; stroke: #000000; stroke-width: 3.5"/>
   </g>
   <g id="patch_3">
    <path d="M 90 621.576 
L 90 83.808 
" style="fill: none; stroke: #000000; stroke-width: 0.8; stroke-linejoin: miter; stroke-linecap: square"/>
   </g>
   <g id="patch_4">
    <path d="M 648 621.576 
L 648 83.808 
" style="fill: none; stroke: #000000; stroke-width: 0.8; stroke-linejoin: miter; stroke-linecap: square"/>
   </g>
   <g id="patch_5">
    <path d="M 90 621.576 
L 648 621.576 
" style="fill: none; stroke: #000000; stroke-width: 0.8; stroke-linejoin: miter; stroke-linecap: square"/>
   </g>
   <g id="patch_6">
    <path d="M 90 83.808 
L 648 83.808 
" style="fill: none; stroke: #000000; stroke-width: 0.8; stroke-linejoin: miter; stroke-linecap: square"/>
   </g>
   <g id="legend_1">
    <g id="patch_7">
     <path d="M 565.285 214.033 
L 636.8 214.033 
Q 640 214.033 640 210.833 
L 640 95.008 
Q 640 91.808 636.8 91.808 
L 565.285 91.808 
Q 562.085 91.808 562.085 95.008 
L 562.085 210.833 
Q 562.085 214.033 565.285 214.033 
z
" style="fill: #ffffff; opacity: 0.8; stroke: #cccccc; stroke-linejoin: miter"/>
    </g>
    <g id="line2d_32">
     <path d="M 568.485 104.7655 
L 584.485 104.7655 
L 600.485 104.7655 
" style="fill: none; stroke-dasharray: 3.5,5.775; stroke-dashoffset: 0; stroke: #0000ff; stroke-width: 3.5"/>
    </g>
    <g id="text_16">
     <!-- FF -->
     <g transform="translate(613.285 110.3655) scale(0.16 -0.16)">
      <defs>
       <path id="DejaVuSans-46" d="M 628 4666 
L 3309 4666 
L 3309 4134 
L 1259 4134 
L 1259 2759 
L 3109 2759 
L 3109 2228 
L 1259 2228 
L 1259 0 
L 628 0 
L 628 4666 
z
" transform="scale(0.015625)"/>
      </defs>
      <use xlink:href="#DejaVuSans-46"/>
      <use xlink:href="#DejaVuSans-46" x="57.519531"/>
     </g>
    </g>
    <g id="line2d_33">
     <path d="M 568.485 128.2505 
L 584.485 128.2505 
L 600.485 128.2505 
" style="fill: none; stroke: #ff0000; stroke-width: 3.5; stroke-linecap: square"/>
    </g>
    <g id="text_17">
     <!-- FS -->
     <g transform="translate(613.285 133.8505) scale(0.16 -0.16)">
      <defs>
       <path id="DejaVuSans-53" d="M 3425 4513 
L 3425 3897 
Q 3066 4069 2747 4153 
Q 2428 4238 2131 4238 
Q 1616 4238 1336 4038 
Q 1056 3838 1056 3469 
Q 1056 3159 1242 3001 
Q 1428 2844 1947 2747 
L 2328 2669 
Q 3034 2534 3370 2195 
Q 3706 1856 3706 1288 
Q 3706 609 3251 259 
Q 2797 -91 1919 -91 
Q 1588 -91 1214 -16 
Q 841 59 441 206 
L 441 856 
Q 825 641 1194 531 
Q 1563 422 1919 422 
Q 2459 422 2753 634 
Q 3047 847 3047 1241 
Q 3047 1584 2836 1778 
Q 2625 1972 2144 2069 
L 1759 2144 
Q 1053 2284 737 2584 
Q 422 2884 422 3419 
Q 422 4038 858 4394 
Q 1294 4750 2059 4750 
Q 2388 4750 2728 4690 
Q 3069 4631 3425 4513 
z
" transform="scale(0.015625)"/>
      </defs>
      <use xlink:href="#DejaVuSans-46"/>
      <use xlink:href="#DejaVuSans-53" x="55.769531"/>
     </g>
    </g>
    <g id="line2d_34">
     <path d="M 568.485 151.7355 
L 584.485 151.7355 
L 600.485 151.7355 
" style="fill: none; stroke: #bf00bf; stroke-width: 3.5; stroke-linecap: square"/>
    </g>
    <g id="text_18">
     <!-- SF -->
     <g transform="translate(613.285 157.3355) scale(0.16 -0.16)">
      <use xlink:href="#DejaVuSans-53"/>
      <use xlink:href="#DejaVuSans-46" x="63.476562"/>
     </g>
    </g>
    <g id="line2d_35">
     <path d="M 568.485 175.2205 
L 584.485 175.2205 
L 600.485 175.2205 
" style="fill: none; stroke: #008000; stroke-width: 3.5; stroke-linecap: square"/>
    </g>
    <g id="text_19">
     <!-- SS -->
     <g transform="translate(613.285 180.8205) scale(0.16 -0.16)">
      <use xlink:href="#DejaVuSans-53"/>
      <use xlink:href="#DejaVuSans-53" x="63.476562"/>
     </g>
    </g>
    <g id="line2d_36">
     <path d="M 568.485 198.7055 
L 584.485 198.7055 
L 600.485 198.7055 
" style="fill: none; stroke-dasharray: 12.95,5.6; stroke-dashoffset: 0; stroke: #000000; stroke-width: 3.5"/>
    </g>
    <g id="text_20">
     <!-- TT -->
     <g transform="translate(613.285 204.3055) scale(0.16 -0.16)">
      <defs>
       <path id="DejaVuSans-54" d="M -19 4666 
L 3928 4666 
L 3928 4134 
L 2272 4134 
L 2272 0 
L 1638 0 
L 1638 4134 
L -19 4134 
L -19 4666 
z
" transform="scale(0.015625)"/>
      </defs>
      <use xlink:href="#DejaVuSans-54"/>
      <use xlink:href="#DejaVuSans-54" x="59.333984"/>
     </g>
    </g>
   </g>
  </g>
 </g>
 <defs>
  <clipPath id="pec399d79ee">
   <rect x="90" y="83.808" width="558" height="537.768"/>
  </clipPath>
 </defs>
</svg>
