<?xml version="1.0" encoding="utf-8" standalone="no"?>
<!DOCTYPE svg PUBLIC "-//W3C//DTD SVG 1.1//EN"
  "http://www.w3.org/Graphics/SVG/1.1/DTD/svg11.dtd">
<svg xmlns:xlink="http://www.w3.org/1999/xlink" width="720pt" height="698.4pt" viewBox="0 0 720 698.4" xmlns="http://www.w3.org/2000/svg" version="1.1">
 <metadata>
  <rdf:RDF xmlns:dc="http://purl.org/dc/elements/1.1/" xmlns:cc="http://creativecommons.org/ns#" xmlns:rdf="http://www.w3.org/1999/02/22-rdf-syntax-ns#">
   <cc:Work>
    <dc:type rdf:resource="http://purl.org/dc/dcmitype/StillImage"/>
    <dc:date>2024-03-15T21:17:31.850785</dc:date>
    <dc:format>image/svg+xml</dc:format>
    <dc:creator>
     <cc:Agent>
      <dc:title>Matplotlib v3.7.2, https://matplotlib.org/</dc:title>
     </cc:Agent>
    </dc:creator>
   </cc:Work>
  </rdf:RDF>
 </metadata>
 <defs>
  <style type="text/css">*{stroke-linejoin: round; stroke-linecap: butt}</style>
 </defs>
 <g id="figure_1">
  <g id="patch_1">
   <path d="M 0 698.4 
L 720 698.4 
L 720 0 
L 0 0 
z
" style="fill: #ffffff"/>
  </g>
  <g id="axes_1">
   <g id="patch_2">
    <path d="M 90 621.576 
L 648 621.576 
L 648 83.808 
L 90 83.808 
z
" style="fill: #ffffff"/>
   </g>
   <g id="matplotlib.axis_1">
    <g id="xtick_1">
     <g id="line2d_1">
      <path d="M 115.363636 621.576 
L 115.363636 83.808 
" clip-path="url(#p38ec8eb78b)" style="fill: none; stroke: #b0b0b0; stroke-width: 0.5; stroke-linecap: square"/>
     </g>
     <g id="line2d_2">
      <defs>
       <path id="m3af8d3ae3f" d="M 0 0 
L 0 3.5 
" style="stroke: #000000; stroke-width: 0.8"/>
      </defs>
      <g>
       <use xlink:href="#m3af8d3ae3f" x="115.363636" y="621.576" style="stroke: #000000; stroke-width: 0.8"/>
      </g>
     </g>
     <g id="text_1">
      <!-- 0.0 -->
      <g transform="translate(101.050824 642.253187) scale(0.18 -0.18)">
       <defs>
        <path id="DejaVuSans-30" d="M 2034 4250 
Q 1547 4250 1301 3770 
Q 1056 3291 1056 2328 
Q 1056 1369 1301 889 
Q 1547 409 2034 409 
Q 2525 409 2770 889 
Q 3016 1369 3016 2328 
Q 3016 3291 2770 3770 
Q 2525 4250 2034 4250 
z
M 2034 4750 
Q 2819 4750 3233 4129 
Q 3647 3509 3647 2328 
Q 3647 1150 3233 529 
Q 2819 -91 2034 -91 
Q 1250 -91 836 529 
Q 422 1150 422 2328 
Q 422 3509 836 4129 
Q 1250 4750 2034 4750 
z
" transform="scale(0.015625)"/>
        <path id="DejaVuSans-2e" d="M 684 794 
L 1344 794 
L 1344 0 
L 684 0 
L 684 794 
z
" transform="scale(0.015625)"/>
       </defs>
       <use xlink:href="#DejaVuSans-30"/>
       <use xlink:href="#DejaVuSans-2e" x="63.623047"/>
       <use xlink:href="#DejaVuSans-30" x="95.410156"/>
      </g>
     </g>
    </g>
    <g id="xtick_2">
     <g id="line2d_3">
      <path d="M 192.22314 621.576 
L 192.22314 83.808 
" clip-path="url(#p38ec8eb78b)" style="fill: none; stroke: #b0b0b0; stroke-width: 0.5; stroke-linecap: square"/>
     </g>
     <g id="line2d_4">
      <g>
       <use xlink:href="#m3af8d3ae3f" x="192.22314" y="621.576" style="stroke: #000000; stroke-width: 0.8"/>
      </g>
     </g>
     <g id="text_2">
      <!-- 0.5 -->
      <g transform="translate(177.910328 642.253187) scale(0.18 -0.18)">
       <defs>
        <path id="DejaVuSans-35" d="M 691 4666 
L 3169 4666 
L 3169 4134 
L 1269 4134 
L 1269 2991 
Q 1406 3038 1543 3061 
Q 1681 3084 1819 3084 
Q 2600 3084 3056 2656 
Q 3513 2228 3513 1497 
Q 3513 744 3044 326 
Q 2575 -91 1722 -91 
Q 1428 -91 1123 -41 
Q 819 9 494 109 
L 494 744 
Q 775 591 1075 516 
Q 1375 441 1709 441 
Q 2250 441 2565 725 
Q 2881 1009 2881 1497 
Q 2881 1984 2565 2268 
Q 2250 2553 1709 2553 
Q 1456 2553 1204 2497 
Q 953 2441 691 2322 
L 691 4666 
z
" transform="scale(0.015625)"/>
       </defs>
       <use xlink:href="#DejaVuSans-30"/>
       <use xlink:href="#DejaVuSans-2e" x="63.623047"/>
       <use xlink:href="#DejaVuSans-35" x="95.410156"/>
      </g>
     </g>
    </g>
    <g id="xtick_3">
     <g id="line2d_5">
      <path d="M 269.082645 621.576 
L 269.082645 83.808 
" clip-path="url(#p38ec8eb78b)" style="fill: none; stroke: #b0b0b0; stroke-width: 0.5; stroke-linecap: square"/>
     </g>
     <g id="line2d_6">
      <g>
       <use xlink:href="#m3af8d3ae3f" x="269.082645" y="621.576" style="stroke: #000000; stroke-width: 0.8"/>
      </g>
     </g>
     <g id="text_3">
      <!-- 1.0 -->
      <g transform="translate(254.769832 642.253187) scale(0.18 -0.18)">
       <defs>
        <path id="DejaVuSans-31" d="M 794 531 
L 1825 531 
L 1825 4091 
L 703 3866 
L 703 4441 
L 1819 4666 
L 2450 4666 
L 2450 531 
L 3481 531 
L 3481 0 
L 794 0 
L 794 531 
z
" transform="scale(0.015625)"/>
       </defs>
       <use xlink:href="#DejaVuSans-31"/>
       <use xlink:href="#DejaVuSans-2e" x="63.623047"/>
       <use xlink:href="#DejaVuSans-30" x="95.410156"/>
      </g>
     </g>
    </g>
    <g id="xtick_4">
     <g id="line2d_7">
      <path d="M 345.942149 621.576 
L 345.942149 83.808 
" clip-path="url(#p38ec8eb78b)" style="fill: none; stroke: #b0b0b0; stroke-width: 0.5; stroke-linecap: square"/>
     </g>
     <g id="line2d_8">
      <g>
       <use xlink:href="#m3af8d3ae3f" x="345.942149" y="621.576" style="stroke: #000000; stroke-width: 0.8"/>
      </g>
     </g>
     <g id="text_4">
      <!-- 1.5 -->
      <g transform="translate(331.629336 642.253187) scale(0.18 -0.18)">
       <use xlink:href="#DejaVuSans-31"/>
       <use xlink:href="#DejaVuSans-2e" x="63.623047"/>
       <use xlink:href="#DejaVuSans-35" x="95.410156"/>
      </g>
     </g>
    </g>
    <g id="xtick_5">
     <g id="line2d_9">
      <path d="M 422.801653 621.576 
L 422.801653 83.808 
" clip-path="url(#p38ec8eb78b)" style="fill: none; stroke: #b0b0b0; stroke-width: 0.5; stroke-linecap: square"/>
     </g>
     <g id="line2d_10">
      <g>
       <use xlink:href="#m3af8d3ae3f" x="422.801653" y="621.576" style="stroke: #000000; stroke-width: 0.8"/>
      </g>
     </g>
     <g id="text_5">
      <!-- 2.0 -->
      <g transform="translate(408.48884 642.253187) scale(0.18 -0.18)">
       <defs>
        <path id="DejaVuSans-32" d="M 1228 531 
L 3431 531 
L 3431 0 
L 469 0 
L 469 531 
Q 828 903 1448 1529 
Q 2069 2156 2228 2338 
Q 2531 2678 2651 2914 
Q 2772 3150 2772 3378 
Q 2772 3750 2511 3984 
Q 2250 4219 1831 4219 
Q 1534 4219 1204 4116 
Q 875 4013 500 3803 
L 500 4441 
Q 881 4594 1212 4672 
Q 1544 4750 1819 4750 
Q 2544 4750 2975 4387 
Q 3406 4025 3406 3419 
Q 3406 3131 3298 2873 
Q 3191 2616 2906 2266 
Q 2828 2175 2409 1742 
Q 1991 1309 1228 531 
z
" transform="scale(0.015625)"/>
       </defs>
       <use xlink:href="#DejaVuSans-32"/>
       <use xlink:href="#DejaVuSans-2e" x="63.623047"/>
       <use xlink:href="#DejaVuSans-30" x="95.410156"/>
      </g>
     </g>
    </g>
    <g id="xtick_6">
     <g id="line2d_11">
      <path d="M 499.661157 621.576 
L 499.661157 83.808 
" clip-path="url(#p38ec8eb78b)" style="fill: none; stroke: #b0b0b0; stroke-width: 0.5; stroke-linecap: square"/>
     </g>
     <g id="line2d_12">
      <g>
       <use xlink:href="#m3af8d3ae3f" x="499.661157" y="621.576" style="stroke: #000000; stroke-width: 0.8"/>
      </g>
     </g>
     <g id="text_6">
      <!-- 2.5 -->
      <g transform="translate(485.348345 642.253187) scale(0.18 -0.18)">
       <use xlink:href="#DejaVuSans-32"/>
       <use xlink:href="#DejaVuSans-2e" x="63.623047"/>
       <use xlink:href="#DejaVuSans-35" x="95.410156"/>
      </g>
     </g>
    </g>
    <g id="xtick_7">
     <g id="line2d_13">
      <path d="M 576.520661 621.576 
L 576.520661 83.808 
" clip-path="url(#p38ec8eb78b)" style="fill: none; stroke: #b0b0b0; stroke-width: 0.5; stroke-linecap: square"/>
     </g>
     <g id="line2d_14">
      <g>
       <use xlink:href="#m3af8d3ae3f" x="576.520661" y="621.576" style="stroke: #000000; stroke-width: 0.8"/>
      </g>
     </g>
     <g id="text_7">
      <!-- 3.0 -->
      <g transform="translate(562.207849 642.253187) scale(0.18 -0.18)">
       <defs>
        <path id="DejaVuSans-33" d="M 2597 2516 
Q 3050 2419 3304 2112 
Q 3559 1806 3559 1356 
Q 3559 666 3084 287 
Q 2609 -91 1734 -91 
Q 1441 -91 1130 -33 
Q 819 25 488 141 
L 488 750 
Q 750 597 1062 519 
Q 1375 441 1716 441 
Q 2309 441 2620 675 
Q 2931 909 2931 1356 
Q 2931 1769 2642 2001 
Q 2353 2234 1838 2234 
L 1294 2234 
L 1294 2753 
L 1863 2753 
Q 2328 2753 2575 2939 
Q 2822 3125 2822 3475 
Q 2822 3834 2567 4026 
Q 2313 4219 1838 4219 
Q 1578 4219 1281 4162 
Q 984 4106 628 3988 
L 628 4550 
Q 988 4650 1302 4700 
Q 1616 4750 1894 4750 
Q 2613 4750 3031 4423 
Q 3450 4097 3450 3541 
Q 3450 3153 3228 2886 
Q 3006 2619 2597 2516 
z
" transform="scale(0.015625)"/>
       </defs>
       <use xlink:href="#DejaVuSans-33"/>
       <use xlink:href="#DejaVuSans-2e" x="63.623047"/>
       <use xlink:href="#DejaVuSans-30" x="95.410156"/>
      </g>
     </g>
    </g>
    <g id="text_8">
     <!-- $V_{OUT}$ [V] -->
     <g transform="translate(317.13 669.752562) scale(0.26 -0.26)">
      <defs>
       <path id="DejaVuSans-Oblique-56" d="M 1319 0 
L 500 4666 
L 1119 4666 
L 1797 653 
L 4063 4666 
L 4750 4666 
L 2053 0 
L 1319 0 
z
" transform="scale(0.015625)"/>
       <path id="DejaVuSans-Oblique-4f" d="M 2919 4238 
Q 2400 4238 2003 3986 
Q 1606 3734 1313 3219 
Q 1125 2891 1026 2522 
Q 928 2153 928 1778 
Q 928 1128 1239 775 
Q 1550 422 2119 422 
Q 2631 422 3032 676 
Q 3434 931 3719 1434 
Q 3909 1772 4009 2142 
Q 4109 2513 4109 2881 
Q 4109 3528 3796 3883 
Q 3484 4238 2919 4238 
z
M 2100 -91 
Q 1241 -91 748 418 
Q 256 928 256 1813 
Q 256 2319 448 2847 
Q 641 3375 978 3788 
Q 1375 4272 1862 4511 
Q 2350 4750 2938 4750 
Q 3794 4750 4287 4245 
Q 4781 3741 4781 2869 
Q 4781 2331 4593 1812 
Q 4406 1294 4056 872 
Q 3656 384 3173 146 
Q 2691 -91 2100 -91 
z
" transform="scale(0.015625)"/>
       <path id="DejaVuSans-Oblique-55" d="M 991 4666 
L 1625 4666 
L 1075 1831 
Q 1041 1641 1027 1517 
Q 1013 1394 1013 1300 
Q 1013 869 1253 645 
Q 1494 422 1959 422 
Q 2563 422 2898 753 
Q 3234 1084 3378 1831 
L 3928 4666 
L 4563 4666 
L 4000 1753 
Q 3816 809 3300 359 
Q 2784 -91 1888 -91 
Q 1188 -91 780 261 
Q 372 613 372 1216 
Q 372 1325 387 1461 
Q 403 1597 434 1753 
L 991 4666 
z
" transform="scale(0.015625)"/>
       <path id="DejaVuSans-Oblique-54" d="M 378 4666 
L 4325 4666 
L 4225 4134 
L 2559 4134 
L 1759 0 
L 1125 0 
L 1925 4134 
L 275 4134 
L 378 4666 
z
" transform="scale(0.015625)"/>
       <path id="DejaVuSans-20" transform="scale(0.015625)"/>
       <path id="DejaVuSans-5b" d="M 550 4863 
L 1875 4863 
L 1875 4416 
L 1125 4416 
L 1125 -397 
L 1875 -397 
L 1875 -844 
L 550 -844 
L 550 4863 
z
" transform="scale(0.015625)"/>
       <path id="DejaVuSans-56" d="M 1831 0 
L 50 4666 
L 709 4666 
L 2188 738 
L 3669 4666 
L 4325 4666 
L 2547 0 
L 1831 0 
z
" transform="scale(0.015625)"/>
       <path id="DejaVuSans-5d" d="M 1947 4863 
L 1947 -844 
L 622 -844 
L 622 -397 
L 1369 -397 
L 1369 4416 
L 622 4416 
L 622 4863 
L 1947 4863 
z
" transform="scale(0.015625)"/>
      </defs>
      <use xlink:href="#DejaVuSans-Oblique-56" transform="translate(0 0.015625)"/>
      <use xlink:href="#DejaVuSans-Oblique-4f" transform="translate(68.408203 -16.390625) scale(0.7)"/>
      <use xlink:href="#DejaVuSans-Oblique-55" transform="translate(123.505859 -16.390625) scale(0.7)"/>
      <use xlink:href="#DejaVuSans-Oblique-54" transform="translate(174.741211 -16.390625) scale(0.7)"/>
      <use xlink:href="#DejaVuSans-20" transform="translate(220.234375 0.015625)"/>
      <use xlink:href="#DejaVuSans-5b" transform="translate(252.021484 0.015625)"/>
      <use xlink:href="#DejaVuSans-56" transform="translate(291.035156 0.015625)"/>
      <use xlink:href="#DejaVuSans-5d" transform="translate(359.443359 0.015625)"/>
     </g>
    </g>
   </g>
   <g id="matplotlib.axis_2">
    <g id="ytick_1">
     <g id="line2d_15">
      <path d="M 90 606.638 
L 648 606.638 
" clip-path="url(#p38ec8eb78b)" style="fill: none; stroke: #b0b0b0; stroke-width: 0.5; stroke-linecap: square"/>
     </g>
     <g id="line2d_16">
      <defs>
       <path id="m91a8e9fd2e" d="M 0 0 
L -3.5 0 
" style="stroke: #000000; stroke-width: 0.8"/>
      </defs>
      <g>
       <use xlink:href="#m91a8e9fd2e" x="90" y="606.638" style="stroke: #000000; stroke-width: 0.8"/>
      </g>
     </g>
     <g id="text_9">
      <!-- 0.925 -->
      <g transform="translate(31.469375 613.476594) scale(0.18 -0.18)">
       <defs>
        <path id="DejaVuSans-39" d="M 703 97 
L 703 672 
Q 941 559 1184 500 
Q 1428 441 1663 441 
Q 2288 441 2617 861 
Q 2947 1281 2994 2138 
Q 2813 1869 2534 1725 
Q 2256 1581 1919 1581 
Q 1219 1581 811 2004 
Q 403 2428 403 3163 
Q 403 3881 828 4315 
Q 1253 4750 1959 4750 
Q 2769 4750 3195 4129 
Q 3622 3509 3622 2328 
Q 3622 1225 3098 567 
Q 2575 -91 1691 -91 
Q 1453 -91 1209 -44 
Q 966 3 703 97 
z
M 1959 2075 
Q 2384 2075 2632 2365 
Q 2881 2656 2881 3163 
Q 2881 3666 2632 3958 
Q 2384 4250 1959 4250 
Q 1534 4250 1286 3958 
Q 1038 3666 1038 3163 
Q 1038 2656 1286 2365 
Q 1534 2075 1959 2075 
z
" transform="scale(0.015625)"/>
       </defs>
       <use xlink:href="#DejaVuSans-30"/>
       <use xlink:href="#DejaVuSans-2e" x="63.623047"/>
       <use xlink:href="#DejaVuSans-39" x="95.410156"/>
       <use xlink:href="#DejaVuSans-32" x="159.033203"/>
       <use xlink:href="#DejaVuSans-35" x="222.65625"/>
      </g>
     </g>
    </g>
    <g id="ytick_2">
     <g id="line2d_17">
      <path d="M 90 531.948 
L 648 531.948 
" clip-path="url(#p38ec8eb78b)" style="fill: none; stroke: #b0b0b0; stroke-width: 0.5; stroke-linecap: square"/>
     </g>
     <g id="line2d_18">
      <g>
       <use xlink:href="#m91a8e9fd2e" x="90" y="531.948" style="stroke: #000000; stroke-width: 0.8"/>
      </g>
     </g>
     <g id="text_10">
      <!-- 0.950 -->
      <g transform="translate(31.469375 538.786594) scale(0.18 -0.18)">
       <use xlink:href="#DejaVuSans-30"/>
       <use xlink:href="#DejaVuSans-2e" x="63.623047"/>
       <use xlink:href="#DejaVuSans-39" x="95.410156"/>
       <use xlink:href="#DejaVuSans-35" x="159.033203"/>
       <use xlink:href="#DejaVuSans-30" x="222.65625"/>
      </g>
     </g>
    </g>
    <g id="ytick_3">
     <g id="line2d_19">
      <path d="M 90 457.258 
L 648 457.258 
" clip-path="url(#p38ec8eb78b)" style="fill: none; stroke: #b0b0b0; stroke-width: 0.5; stroke-linecap: square"/>
     </g>
     <g id="line2d_20">
      <g>
       <use xlink:href="#m91a8e9fd2e" x="90" y="457.258" style="stroke: #000000; stroke-width: 0.8"/>
      </g>
     </g>
     <g id="text_11">
      <!-- 0.975 -->
      <g transform="translate(31.469375 464.096594) scale(0.18 -0.18)">
       <defs>
        <path id="DejaVuSans-37" d="M 525 4666 
L 3525 4666 
L 3525 4397 
L 1831 0 
L 1172 0 
L 2766 4134 
L 525 4134 
L 525 4666 
z
" transform="scale(0.015625)"/>
       </defs>
       <use xlink:href="#DejaVuSans-30"/>
       <use xlink:href="#DejaVuSans-2e" x="63.623047"/>
       <use xlink:href="#DejaVuSans-39" x="95.410156"/>
       <use xlink:href="#DejaVuSans-37" x="159.033203"/>
       <use xlink:href="#DejaVuSans-35" x="222.65625"/>
      </g>
     </g>
    </g>
    <g id="ytick_4">
     <g id="line2d_21">
      <path d="M 90 382.568 
L 648 382.568 
" clip-path="url(#p38ec8eb78b)" style="fill: none; stroke: #b0b0b0; stroke-width: 0.5; stroke-linecap: square"/>
     </g>
     <g id="line2d_22">
      <g>
       <use xlink:href="#m91a8e9fd2e" x="90" y="382.568" style="stroke: #000000; stroke-width: 0.8"/>
      </g>
     </g>
     <g id="text_12">
      <!-- 1.000 -->
      <g transform="translate(31.469375 389.406594) scale(0.18 -0.18)">
       <use xlink:href="#DejaVuSans-31"/>
       <use xlink:href="#DejaVuSans-2e" x="63.623047"/>
       <use xlink:href="#DejaVuSans-30" x="95.410156"/>
       <use xlink:href="#DejaVuSans-30" x="159.033203"/>
       <use xlink:href="#DejaVuSans-30" x="222.65625"/>
      </g>
     </g>
    </g>
    <g id="ytick_5">
     <g id="line2d_23">
      <path d="M 90 307.878 
L 648 307.878 
" clip-path="url(#p38ec8eb78b)" style="fill: none; stroke: #b0b0b0; stroke-width: 0.5; stroke-linecap: square"/>
     </g>
     <g id="line2d_24">
      <g>
       <use xlink:href="#m91a8e9fd2e" x="90" y="307.878" style="stroke: #000000; stroke-width: 0.8"/>
      </g>
     </g>
     <g id="text_13">
      <!-- 1.025 -->
      <g transform="translate(31.469375 314.716594) scale(0.18 -0.18)">
       <use xlink:href="#DejaVuSans-31"/>
       <use xlink:href="#DejaVuSans-2e" x="63.623047"/>
       <use xlink:href="#DejaVuSans-30" x="95.410156"/>
       <use xlink:href="#DejaVuSans-32" x="159.033203"/>
       <use xlink:href="#DejaVuSans-35" x="222.65625"/>
      </g>
     </g>
    </g>
    <g id="ytick_6">
     <g id="line2d_25">
      <path d="M 90 233.188 
L 648 233.188 
" clip-path="url(#p38ec8eb78b)" style="fill: none; stroke: #b0b0b0; stroke-width: 0.5; stroke-linecap: square"/>
     </g>
     <g id="line2d_26">
      <g>
       <use xlink:href="#m91a8e9fd2e" x="90" y="233.188" style="stroke: #000000; stroke-width: 0.8"/>
      </g>
     </g>
     <g id="text_14">
      <!-- 1.050 -->
      <g transform="translate(31.469375 240.026594) scale(0.18 -0.18)">
       <use xlink:href="#DejaVuSans-31"/>
       <use xlink:href="#DejaVuSans-2e" x="63.623047"/>
       <use xlink:href="#DejaVuSans-30" x="95.410156"/>
       <use xlink:href="#DejaVuSans-35" x="159.033203"/>
       <use xlink:href="#DejaVuSans-30" x="222.65625"/>
      </g>
     </g>
    </g>
    <g id="ytick_7">
     <g id="line2d_27">
      <path d="M 90 158.498 
L 648 158.498 
" clip-path="url(#p38ec8eb78b)" style="fill: none; stroke: #b0b0b0; stroke-width: 0.5; stroke-linecap: square"/>
     </g>
     <g id="line2d_28">
      <g>
       <use xlink:href="#m91a8e9fd2e" x="90" y="158.498" style="stroke: #000000; stroke-width: 0.8"/>
      </g>
     </g>
     <g id="text_15">
      <!-- 1.075 -->
      <g transform="translate(31.469375 165.336594) scale(0.18 -0.18)">
       <use xlink:href="#DejaVuSans-31"/>
       <use xlink:href="#DejaVuSans-2e" x="63.623047"/>
       <use xlink:href="#DejaVuSans-30" x="95.410156"/>
       <use xlink:href="#DejaVuSans-37" x="159.033203"/>
       <use xlink:href="#DejaVuSans-35" x="222.65625"/>
      </g>
     </g>
    </g>
    <g id="ytick_8">
     <g id="line2d_29">
      <path d="M 90 83.808 
L 648 83.808 
" clip-path="url(#p38ec8eb78b)" style="fill: none; stroke: #b0b0b0; stroke-width: 0.5; stroke-linecap: square"/>
     </g>
     <g id="line2d_30">
      <g>
       <use xlink:href="#m91a8e9fd2e" x="90" y="83.808" style="stroke: #000000; stroke-width: 0.8"/>
      </g>
     </g>
     <g id="text_16">
      <!-- 1.100 -->
      <g transform="translate(31.469375 90.646594) scale(0.18 -0.18)">
       <use xlink:href="#DejaVuSans-31"/>
       <use xlink:href="#DejaVuSans-2e" x="63.623047"/>
       <use xlink:href="#DejaVuSans-31" x="95.410156"/>
       <use xlink:href="#DejaVuSans-30" x="159.033203"/>
       <use xlink:href="#DejaVuSans-30" x="222.65625"/>
      </g>
     </g>
    </g>
    <g id="text_17">
     <!-- $I_{OUT}$ [pA] -->
     <g transform="translate(22.009375 407.812) rotate(-90) scale(0.26 -0.26)">
      <defs>
       <path id="DejaVuSans-Oblique-49" d="M 1081 4666 
L 1716 4666 
L 806 0 
L 172 0 
L 1081 4666 
z
" transform="scale(0.015625)"/>
       <path id="DejaVuSans-70" d="M 1159 525 
L 1159 -1331 
L 581 -1331 
L 581 3500 
L 1159 3500 
L 1159 2969 
Q 1341 3281 1617 3432 
Q 1894 3584 2278 3584 
Q 2916 3584 3314 3078 
Q 3713 2572 3713 1747 
Q 3713 922 3314 415 
Q 2916 -91 2278 -91 
Q 1894 -91 1617 61 
Q 1341 213 1159 525 
z
M 3116 1747 
Q 3116 2381 2855 2742 
Q 2594 3103 2138 3103 
Q 1681 3103 1420 2742 
Q 1159 2381 1159 1747 
Q 1159 1113 1420 752 
Q 1681 391 2138 391 
Q 2594 391 2855 752 
Q 3116 1113 3116 1747 
z
" transform="scale(0.015625)"/>
       <path id="DejaVuSans-41" d="M 2188 4044 
L 1331 1722 
L 3047 1722 
L 2188 4044 
z
M 1831 4666 
L 2547 4666 
L 4325 0 
L 3669 0 
L 3244 1197 
L 1141 1197 
L 716 0 
L 50 0 
L 1831 4666 
z
" transform="scale(0.015625)"/>
      </defs>
      <use xlink:href="#DejaVuSans-Oblique-49" transform="translate(0 0.015625)"/>
      <use xlink:href="#DejaVuSans-Oblique-4f" transform="translate(29.492188 -16.390625) scale(0.7)"/>
      <use xlink:href="#DejaVuSans-Oblique-55" transform="translate(84.589844 -16.390625) scale(0.7)"/>
      <use xlink:href="#DejaVuSans-Oblique-54" transform="translate(135.825195 -16.390625) scale(0.7)"/>
      <use xlink:href="#DejaVuSans-20" transform="translate(181.318359 0.015625)"/>
      <use xlink:href="#DejaVuSans-5b" transform="translate(213.105469 0.015625)"/>
      <use xlink:href="#DejaVuSans-70" transform="translate(252.119141 0.015625)"/>
      <use xlink:href="#DejaVuSans-41" transform="translate(315.595703 0.015625)"/>
      <use xlink:href="#DejaVuSans-5d" transform="translate(384.003906 0.015625)"/>
     </g>
    </g>
   </g>
   <g id="line2d_31">
    <path d="M 124.100724 699.4 
L 124.586777 655.57369 
L 126.123967 561.124896 
L 127.661157 496.818452 
L 129.198347 453.118265 
L 130.735537 424.012447 
L 132.272727 405.27195 
L 133.809917 394.326172 
L 135.347107 388.770359 
L 136.884298 386.116839 
L 138.421488 384.707154 
L 139.958678 383.795007 
L 141.495868 383.629163 
L 143.033058 383.29747 
L 146.107438 382.302402 
L 147.644628 382.302402 
L 149.181818 382.136561 
L 150.719008 382.136561 
L 152.256198 381.804877 
L 156.867769 381.307322 
L 159.942149 381.307322 
L 161.479339 381.141481 
L 163.016529 380.643956 
L 164.553719 380.643956 
L 166.090909 380.312272 
L 169.165289 380.312272 
L 170.702479 380.643956 
L 175.31405 379.648876 
L 176.85124 379.980559 
L 178.38843 379.980559 
L 181.46281 379.317192 
L 183 379.317192 
L 184.53719 378.985509 
L 186.07438 378.985509 
L 187.61157 378.653796 
L 189.14876 378.985509 
L 192.22314 378.322113 
L 193.760331 378.653796 
L 196.834711 377.990429 
L 198.371901 378.653796 
L 202.983471 377.658746 
L 204.520661 377.990429 
L 206.057851 377.990429 
L 207.595041 377.658746 
L 209.132231 377.658746 
L 210.669421 376.663666 
L 212.206612 377.658746 
L 213.743802 378.322113 
L 215.280992 376.331983 
L 216.818182 376.995349 
L 218.355372 376.331983 
L 219.892562 376.331983 
L 221.429752 376.995349 
L 224.504132 375.668586 
L 226.041322 376.331983 
L 233.727273 376.331983 
L 235.264463 374.341823 
L 236.801653 375.668586 
L 238.338843 375.005219 
L 241.413223 376.331983 
L 242.950413 375.668586 
L 244.487603 375.668586 
L 247.561983 374.341823 
L 249.099174 374.341823 
L 250.636364 375.005219 
L 252.173554 374.341823 
L 253.710744 375.005219 
L 255.247934 373.678456 
L 256.785124 374.341823 
L 258.322314 373.678456 
L 259.859504 375.005219 
L 261.396694 374.341823 
L 262.933884 374.341823 
L 264.471074 373.015059 
L 266.008264 373.015059 
L 267.545455 373.678456 
L 269.082645 373.015059 
L 270.619835 373.678456 
L 272.157025 373.678456 
L 273.694215 373.015059 
L 275.231405 374.341823 
L 276.768595 373.678456 
L 278.305785 372.351693 
L 281.380165 373.678456 
L 282.917355 372.351693 
L 284.454545 373.015059 
L 285.991736 372.351693 
L 287.528926 373.678456 
L 290.603306 371.024929 
L 292.140496 372.351693 
L 293.677686 372.351693 
L 295.214876 373.015059 
L 298.289256 371.688326 
L 299.826446 372.351693 
L 301.363636 371.688326 
L 302.900826 371.688326 
L 304.438017 371.024929 
L 305.975207 371.024929 
L 307.512397 370.361563 
L 315.198347 370.361563 
L 316.735537 369.034799 
L 318.272727 369.034799 
L 319.809917 370.361563 
L 321.347107 369.034799 
L 324.421488 371.688326 
L 327.495868 369.034799 
L 329.033058 369.034799 
L 330.570248 371.688326 
L 332.107438 370.361563 
L 335.181818 370.361563 
L 338.256198 367.708036 
L 339.793388 369.034799 
L 342.867769 369.034799 
L 344.404959 367.708036 
L 347.479339 367.708036 
L 349.016529 369.034799 
L 355.165289 369.034799 
L 356.702479 367.708036 
L 358.239669 369.034799 
L 359.77686 369.034799 
L 361.31405 370.361563 
L 362.85124 367.708036 
L 364.38843 366.381273 
L 365.92562 367.708036 
L 367.46281 367.708036 
L 369 366.381273 
L 370.53719 367.708036 
L 372.07438 365.05451 
L 373.61157 366.381273 
L 375.14876 366.381273 
L 376.68595 367.708036 
L 378.22314 366.381273 
L 381.297521 366.381273 
L 382.834711 365.05451 
L 384.371901 367.708036 
L 387.446281 365.05451 
L 388.983471 366.381273 
L 390.520661 363.727746 
L 392.057851 366.381273 
L 393.595041 365.05451 
L 395.132231 366.381273 
L 396.669421 366.381273 
L 398.206612 365.05451 
L 401.280992 365.05451 
L 402.818182 366.381273 
L 405.892562 363.727746 
L 407.429752 363.727746 
L 408.966942 365.05451 
L 410.504132 363.727746 
L 412.041322 365.05451 
L 415.115702 362.400983 
L 416.652893 363.727746 
L 418.190083 363.727746 
L 419.727273 362.400983 
L 422.801653 365.05451 
L 424.338843 362.400983 
L 425.876033 361.07422 
L 428.950413 363.727746 
L 432.024793 361.07422 
L 433.561983 363.727746 
L 435.099174 362.400983 
L 436.636364 362.400983 
L 438.173554 361.07422 
L 439.710744 362.400983 
L 441.247934 362.400983 
L 442.785124 359.747456 
L 444.322314 362.400983 
L 448.933884 358.420693 
L 450.471074 361.07422 
L 452.008264 359.747456 
L 453.545455 361.07422 
L 455.082645 361.07422 
L 456.619835 358.420693 
L 458.157025 361.07422 
L 459.694215 359.747456 
L 461.231405 359.747456 
L 462.768595 358.420693 
L 464.305785 359.747456 
L 467.380165 357.09393 
L 468.917355 358.420693 
L 470.454545 355.767196 
L 473.528926 358.420693 
L 475.066116 357.09393 
L 476.603306 357.09393 
L 479.677686 354.440433 
L 482.752066 354.440433 
L 484.289256 351.786907 
L 485.826446 354.440433 
L 488.900826 354.440433 
L 490.438017 349.13338 
L 491.975207 351.786907 
L 495.049587 349.13338 
L 496.586777 350.460143 
L 499.661157 347.806617 
L 501.198347 347.806617 
L 502.735537 346.479853 
L 504.272727 347.806617 
L 505.809917 345.15309 
L 508.884298 345.15309 
L 510.421488 342.499564 
L 511.958678 342.499564 
L 513.495868 345.15309 
L 515.033058 342.499564 
L 516.570248 342.499564 
L 518.107438 339.846037 
L 519.644628 339.846037 
L 521.181818 337.19254 
L 525.793388 337.19254 
L 527.330579 334.539014 
L 528.867769 329.231961 
L 530.404959 329.231961 
L 531.942149 331.885487 
L 533.479339 329.231961 
L 535.016529 331.885487 
L 541.165289 321.271411 
L 542.702479 321.271411 
L 544.239669 323.924907 
L 545.77686 318.617884 
L 547.31405 318.617884 
L 548.85124 315.964358 
L 550.38843 315.964358 
L 551.92562 310.657305 
L 553.46281 315.964358 
L 555 310.657305 
L 556.53719 308.003778 
L 558.07438 310.657305 
L 559.61157 302.696755 
L 561.14876 302.696755 
L 562.68595 305.350281 
L 564.22314 302.696755 
L 565.760331 297.389702 
L 567.297521 297.389702 
L 568.834711 294.736175 
L 570.371901 297.389702 
L 571.909091 294.736175 
L 573.446281 289.429122 
L 574.983471 289.429122 
L 576.520661 286.775625 
L 578.057851 281.468572 
L 579.595041 278.815045 
L 581.132231 278.815045 
L 582.669421 276.161519 
L 584.206612 270.854496 
L 585.743802 273.507992 
L 587.280992 268.200969 
L 590.355372 262.893916 
L 591.892562 262.893916 
L 593.429752 260.240389 
L 594.966942 252.27984 
L 596.504132 249.626313 
L 598.041322 249.626313 
L 599.578512 246.972786 
L 601.115702 241.665733 
L 602.652893 239.012207 
L 604.190083 233.705183 
L 605.727273 233.705183 
L 607.264463 231.051657 
L 610.338843 220.43758 
L 611.876033 220.43758 
L 613.413223 215.130527 
L 614.950413 212.477001 
L 616.487603 204.516451 
L 618.024793 201.862924 
L 619.561983 196.555871 
L 621.099174 193.902345 
L 622.636364 193.902345 
L 622.636364 193.902345 
" clip-path="url(#p38ec8eb78b)" style="fill: none; stroke-dasharray: 3.5,5.775; stroke-dashoffset: 0; stroke: #0000ff; stroke-width: 3.5"/>
   </g>
   <g id="line2d_32">
    <path d="M 124.044788 699.4 
L 124.586777 650.515414 
L 126.123967 555.983699 
L 127.661157 491.677255 
L 129.198347 447.977065 
L 130.735537 418.871248 
L 132.272727 400.462439 
L 133.809917 389.599585 
L 135.347107 384.126697 
L 136.884298 381.5561 
L 138.421488 380.146401 
L 139.958678 379.317192 
L 146.107438 377.990429 
L 150.719008 377.492904 
L 152.256198 377.658746 
L 153.793388 376.829508 
L 155.330579 376.995349 
L 156.867769 376.995349 
L 161.479339 376.497824 
L 163.016529 376.166141 
L 164.553719 376.331983 
L 166.090909 376.000299 
L 170.702479 376.000299 
L 173.77686 375.336903 
L 176.85124 375.336903 
L 178.38843 375.005219 
L 183 375.005219 
L 184.53719 374.673536 
L 186.07438 374.673536 
L 187.61157 374.341823 
L 189.14876 374.341823 
L 190.68595 374.673536 
L 192.22314 373.678456 
L 193.760331 374.341823 
L 195.297521 374.010139 
L 196.834711 373.346773 
L 198.371901 373.346773 
L 199.909091 374.010139 
L 201.446281 373.678456 
L 202.983471 373.015059 
L 206.057851 373.678456 
L 207.595041 373.346773 
L 209.132231 372.683376 
L 210.669421 373.015059 
L 212.206612 373.015059 
L 213.743802 372.351693 
L 215.280992 373.015059 
L 218.355372 371.688326 
L 219.892562 372.351693 
L 222.966942 372.351693 
L 224.504132 371.688326 
L 227.578512 371.688326 
L 229.115702 372.351693 
L 232.190083 371.024929 
L 233.727273 371.688326 
L 236.801653 370.361563 
L 238.338843 370.361563 
L 239.876033 371.024929 
L 241.413223 370.361563 
L 250.636364 370.361563 
L 252.173554 369.698166 
L 259.859504 369.698166 
L 261.396694 369.034799 
L 262.933884 370.361563 
L 264.471074 370.361563 
L 266.008264 369.034799 
L 267.545455 369.034799 
L 269.082645 368.371403 
L 272.157025 369.698166 
L 273.694215 367.708036 
L 275.231405 369.034799 
L 278.305785 367.708036 
L 279.842975 367.708036 
L 281.380165 369.034799 
L 284.454545 367.708036 
L 285.991736 368.371403 
L 287.528926 368.371403 
L 290.603306 367.04464 
L 292.140496 367.04464 
L 293.677686 367.708036 
L 295.214876 367.04464 
L 296.752066 367.04464 
L 298.289256 367.708036 
L 299.826446 367.04464 
L 304.438017 367.04464 
L 305.975207 368.371403 
L 307.512397 367.04464 
L 309.049587 366.381273 
L 310.586777 365.05451 
L 312.123967 366.381273 
L 316.735537 366.381273 
L 318.272727 365.05451 
L 321.347107 365.05451 
L 322.884298 366.381273 
L 324.421488 365.05451 
L 335.181818 365.05451 
L 336.719008 366.381273 
L 338.256198 366.381273 
L 339.793388 363.727746 
L 341.330579 363.727746 
L 342.867769 365.05451 
L 345.942149 362.400983 
L 347.479339 363.727746 
L 349.016529 363.727746 
L 350.553719 362.400983 
L 352.090909 363.727746 
L 361.31405 363.727746 
L 362.85124 365.05451 
L 364.38843 363.727746 
L 365.92562 363.727746 
L 367.46281 362.400983 
L 369 362.400983 
L 370.53719 363.727746 
L 372.07438 363.727746 
L 373.61157 361.07422 
L 375.14876 362.400983 
L 376.68595 361.07422 
L 378.22314 362.400983 
L 379.760331 362.400983 
L 381.297521 363.727746 
L 384.371901 361.07422 
L 385.909091 361.07422 
L 387.446281 359.747456 
L 388.983471 361.07422 
L 390.520661 361.07422 
L 392.057851 359.747456 
L 393.595041 359.747456 
L 395.132231 361.07422 
L 399.743802 361.07422 
L 401.280992 359.747456 
L 402.818182 359.747456 
L 404.355372 358.420693 
L 405.892562 361.07422 
L 407.429752 359.747456 
L 410.504132 359.747456 
L 412.041322 358.420693 
L 413.578512 359.747456 
L 422.801653 359.747456 
L 424.338843 361.07422 
L 427.413223 358.420693 
L 428.950413 361.07422 
L 430.487603 358.420693 
L 432.024793 358.420693 
L 433.561983 361.07422 
L 435.099174 358.420693 
L 436.636364 358.420693 
L 438.173554 359.747456 
L 439.710744 359.747456 
L 441.247934 358.420693 
L 442.785124 359.747456 
L 445.859504 357.09393 
L 447.396694 357.09393 
L 448.933884 355.767196 
L 450.471074 357.09393 
L 453.545455 354.440433 
L 455.082645 354.440433 
L 456.619835 351.786907 
L 459.694215 357.09393 
L 461.231405 355.767196 
L 462.768595 351.786907 
L 464.305785 350.460143 
L 465.842975 355.767196 
L 470.454545 351.786907 
L 471.991736 354.440433 
L 473.528926 351.786907 
L 475.066116 350.460143 
L 476.603306 353.11367 
L 478.140496 349.13338 
L 479.677686 347.806617 
L 481.214876 350.460143 
L 482.752066 350.460143 
L 484.289256 347.806617 
L 485.826446 349.13338 
L 487.363636 345.15309 
L 488.900826 347.806617 
L 490.438017 345.15309 
L 491.975207 347.806617 
L 495.049587 345.15309 
L 496.586777 347.806617 
L 498.123967 346.479853 
L 499.661157 341.1728 
L 501.198347 343.826327 
L 502.735537 339.846037 
L 504.272727 339.846037 
L 505.809917 342.499564 
L 507.347107 339.846037 
L 508.884298 342.499564 
L 510.421488 337.19254 
L 511.958678 339.846037 
L 513.495868 339.846037 
L 515.033058 334.539014 
L 516.570248 337.19254 
L 518.107438 337.19254 
L 519.644628 331.885487 
L 521.181818 331.885487 
L 522.719008 334.539014 
L 524.256198 334.539014 
L 525.793388 331.885487 
L 527.330579 331.885487 
L 528.867769 329.231961 
L 530.404959 329.231961 
L 531.942149 323.924907 
L 535.016529 323.924907 
L 536.553719 321.271411 
L 538.090909 321.271411 
L 539.628099 323.924907 
L 544.239669 315.964358 
L 545.77686 318.617884 
L 550.38843 310.657305 
L 555 310.657305 
L 556.53719 305.350281 
L 558.07438 302.696755 
L 559.61157 305.350281 
L 561.14876 300.043228 
L 567.297521 289.429122 
L 568.834711 289.429122 
L 570.371901 292.082648 
L 571.909091 286.775625 
L 573.446281 286.775625 
L 574.983471 281.468572 
L 578.057851 281.468572 
L 581.132231 276.161519 
L 582.669421 270.854496 
L 584.206612 268.200969 
L 585.743802 268.200969 
L 587.280992 265.547443 
L 588.818182 260.240389 
L 590.355372 260.240389 
L 591.892562 252.27984 
L 594.966942 252.27984 
L 599.578512 244.31926 
L 601.115702 236.35871 
L 604.190083 231.051657 
L 605.727273 231.051657 
L 607.264463 223.091077 
L 608.801653 217.784054 
L 610.338843 217.784054 
L 611.876033 215.130527 
L 616.487603 199.209398 
L 621.099174 191.248818 
L 622.636364 180.634742 
L 622.636364 180.634742 
" clip-path="url(#p38ec8eb78b)" style="fill: none; stroke: #ff0000; stroke-width: 3.5; stroke-linecap: square"/>
   </g>
   <g id="line2d_33">
    <path d="M 124.158162 699.4 
L 124.586777 661.088041 
L 126.123967 567.219704 
L 127.661157 503.53518 
L 129.198347 460.415451 
L 130.735537 431.890091 
L 132.272727 413.564204 
L 133.809917 403.115963 
L 135.347107 397.808919 
L 136.884298 395.238319 
L 138.421488 394.077403 
L 139.958678 393.248177 
L 141.495868 392.916488 
L 143.033058 392.253106 
L 144.570248 392.253106 
L 146.107438 392.087261 
L 149.181818 391.423883 
L 150.719008 391.589727 
L 152.256198 391.258038 
L 153.793388 391.09219 
L 155.330579 391.258038 
L 156.867769 391.09219 
L 158.404959 390.760501 
L 159.942149 390.262967 
L 161.479339 390.097122 
L 163.016529 390.262967 
L 164.553719 389.931275 
L 166.090909 390.262967 
L 167.628099 389.931275 
L 169.165289 389.931275 
L 170.702479 389.599585 
L 172.239669 389.599585 
L 173.77686 389.267896 
L 176.85124 389.267896 
L 178.38843 388.936204 
L 179.92562 389.267896 
L 181.46281 388.604515 
L 183 388.604515 
L 184.53719 387.941136 
L 186.07438 388.272825 
L 187.61157 388.272825 
L 189.14876 388.604515 
L 190.68595 387.941136 
L 193.760331 387.941136 
L 195.297521 387.609444 
L 201.446281 387.609444 
L 202.983471 386.614373 
L 204.520661 386.946065 
L 206.057851 387.609444 
L 207.595041 387.609444 
L 209.132231 386.946065 
L 210.669421 386.614373 
L 212.206612 386.614373 
L 213.743802 386.946065 
L 215.280992 386.946065 
L 216.818182 386.282683 
L 219.892562 386.282683 
L 221.429752 385.619302 
L 222.966942 386.282683 
L 224.504132 386.282683 
L 226.041322 384.955923 
L 227.578512 384.955923 
L 229.115702 385.619302 
L 230.652893 384.292541 
L 233.727273 385.619302 
L 235.264463 384.955923 
L 236.801653 384.955923 
L 238.338843 384.292541 
L 239.876033 384.292541 
L 241.413223 384.955923 
L 244.487603 384.955923 
L 246.024793 384.292541 
L 247.561983 384.955923 
L 249.099174 383.629163 
L 250.636364 383.629163 
L 252.173554 384.292541 
L 253.710744 383.629163 
L 261.396694 383.629163 
L 262.933884 382.965781 
L 264.471074 383.629163 
L 267.545455 382.302402 
L 269.082645 384.292541 
L 270.619835 381.639006 
L 272.157025 380.975639 
L 273.694215 382.302402 
L 275.231405 381.639006 
L 276.768595 382.302402 
L 278.305785 382.302402 
L 279.842975 382.965781 
L 281.380165 382.965781 
L 282.917355 382.302402 
L 284.454545 382.965781 
L 285.991736 380.975639 
L 287.528926 382.302402 
L 289.066116 381.639006 
L 290.603306 381.639006 
L 292.140496 380.975639 
L 293.677686 381.639006 
L 295.214876 380.975639 
L 296.752066 380.975639 
L 298.289256 380.312272 
L 299.826446 381.639006 
L 301.363636 381.639006 
L 302.900826 380.312272 
L 304.438017 381.639006 
L 305.975207 380.975639 
L 307.512397 380.975639 
L 309.049587 380.312272 
L 310.586777 380.975639 
L 312.123967 379.648876 
L 316.735537 379.648876 
L 318.272727 378.322113 
L 319.809917 378.322113 
L 321.347107 380.975639 
L 322.884298 379.648876 
L 324.421488 379.648876 
L 325.958678 380.975639 
L 329.033058 378.322113 
L 332.107438 380.975639 
L 333.644628 380.975639 
L 336.719008 378.322113 
L 338.256198 378.322113 
L 339.793388 379.648876 
L 341.330579 378.322113 
L 342.867769 378.322113 
L 344.404959 379.648876 
L 345.942149 376.995349 
L 347.479339 378.322113 
L 349.016529 376.995349 
L 350.553719 376.995349 
L 352.090909 378.322113 
L 353.628099 376.995349 
L 355.165289 378.322113 
L 356.702479 378.322113 
L 358.239669 379.648876 
L 359.77686 379.648876 
L 361.31405 376.995349 
L 362.85124 376.995349 
L 364.38843 375.668586 
L 367.46281 378.322113 
L 369 375.668586 
L 373.61157 375.668586 
L 375.14876 374.341823 
L 376.68595 376.995349 
L 378.22314 374.341823 
L 379.760331 378.322113 
L 381.297521 375.668586 
L 382.834711 374.341823 
L 384.371901 375.668586 
L 388.983471 375.668586 
L 390.520661 374.341823 
L 392.057851 375.668586 
L 393.595041 374.341823 
L 396.669421 376.995349 
L 398.206612 373.015059 
L 399.743802 374.341823 
L 402.818182 374.341823 
L 404.355372 375.668586 
L 405.892562 373.015059 
L 413.578512 373.015059 
L 415.115702 371.688326 
L 416.652893 371.688326 
L 418.190083 373.015059 
L 419.727273 373.015059 
L 422.801653 370.361563 
L 424.338843 373.015059 
L 425.876033 374.341823 
L 427.413223 373.015059 
L 430.487603 373.015059 
L 432.024793 371.688326 
L 433.561983 371.688326 
L 435.099174 370.361563 
L 436.636364 373.015059 
L 438.173554 369.034799 
L 439.710744 373.015059 
L 441.247934 371.688326 
L 442.785124 371.688326 
L 444.322314 370.361563 
L 445.859504 371.688326 
L 448.933884 369.034799 
L 450.471074 371.688326 
L 453.545455 369.034799 
L 456.619835 369.034799 
L 458.157025 367.708036 
L 459.694215 369.034799 
L 462.768595 369.034799 
L 465.842975 366.381273 
L 467.380165 367.708036 
L 470.454545 365.05451 
L 471.991736 365.05451 
L 473.528926 366.381273 
L 475.066116 366.381273 
L 476.603306 363.727746 
L 478.140496 365.05451 
L 479.677686 365.05451 
L 481.214876 361.07422 
L 482.752066 365.05451 
L 484.289256 361.07422 
L 485.826446 365.05451 
L 487.363636 365.05451 
L 490.438017 359.747456 
L 491.975207 361.07422 
L 493.512397 358.420693 
L 495.049587 358.420693 
L 496.586777 362.400983 
L 498.123967 357.09393 
L 499.661157 362.400983 
L 501.198347 357.09393 
L 502.735537 354.440433 
L 504.272727 355.767196 
L 507.347107 355.767196 
L 508.884298 353.11367 
L 510.421488 355.767196 
L 511.958678 350.460143 
L 513.495868 350.460143 
L 515.033058 353.11367 
L 516.570248 353.11367 
L 518.107438 350.460143 
L 519.644628 345.15309 
L 521.181818 345.15309 
L 522.719008 347.806617 
L 524.256198 347.806617 
L 525.793388 345.15309 
L 528.867769 345.15309 
L 530.404959 342.499564 
L 533.479339 342.499564 
L 535.016529 337.19254 
L 538.090909 337.19254 
L 539.628099 334.539014 
L 541.165289 337.19254 
L 545.77686 329.231961 
L 547.31405 331.885487 
L 548.85124 331.885487 
L 550.38843 323.924907 
L 553.46281 323.924907 
L 555 321.271411 
L 556.53719 321.271411 
L 558.07438 315.964358 
L 559.61157 318.617884 
L 562.68595 313.310831 
L 564.22314 313.310831 
L 565.760331 308.003778 
L 567.297521 305.350281 
L 568.834711 308.003778 
L 570.371901 302.696755 
L 571.909091 302.696755 
L 578.057851 292.082648 
L 579.595041 292.082648 
L 581.132231 286.775625 
L 582.669421 286.775625 
L 584.206612 281.468572 
L 587.280992 281.468572 
L 588.818182 276.161519 
L 590.355372 273.507992 
L 591.892562 273.507992 
L 593.429752 270.854496 
L 596.504132 260.240389 
L 598.041322 260.240389 
L 599.578512 254.933366 
L 607.264463 241.665733 
L 608.801653 236.35871 
L 611.876033 231.051657 
L 613.413223 225.744604 
L 614.950413 223.091077 
L 616.487603 217.784054 
L 618.024793 215.130527 
L 619.561983 209.823474 
L 621.099174 212.477001 
L 622.636364 199.209398 
L 622.636364 199.209398 
" clip-path="url(#p38ec8eb78b)" style="fill: none; stroke: #bf00bf; stroke-width: 3.5; stroke-linecap: square"/>
   </g>
   <g id="line2d_34">
    <path d="M 124.089757 699.4 
L 124.586777 654.785926 
L 126.123967 561.124896 
L 127.661157 497.315989 
L 129.198347 454.362104 
L 130.735537 425.670897 
L 132.272727 407.759625 
L 133.809917 397.477229 
L 135.347107 392.33603 
L 136.884298 389.848354 
L 138.421488 388.853283 
L 139.958678 387.609444 
L 141.495868 387.609444 
L 144.570248 386.614373 
L 146.107438 386.614373 
L 149.181818 385.950994 
L 152.256198 385.950994 
L 153.793388 385.785149 
L 155.330579 385.453457 
L 156.867769 385.453457 
L 158.404959 384.955923 
L 159.942149 384.955923 
L 161.479339 385.121768 
L 163.016529 384.624234 
L 164.553719 384.292541 
L 166.090909 384.624234 
L 167.628099 384.624234 
L 170.702479 383.960852 
L 172.239669 384.292541 
L 175.31405 383.629163 
L 178.38843 383.629163 
L 179.92562 383.29747 
L 187.61157 383.29747 
L 189.14876 382.302402 
L 192.22314 382.302402 
L 193.760331 382.634092 
L 195.297521 381.970719 
L 196.834711 382.302402 
L 198.371901 381.639006 
L 199.909091 381.970719 
L 202.983471 381.307322 
L 207.595041 381.307322 
L 209.132231 381.639006 
L 210.669421 381.307322 
L 212.206612 381.639006 
L 215.280992 381.639006 
L 216.818182 380.312272 
L 222.966942 380.312272 
L 224.504132 380.975639 
L 226.041322 379.648876 
L 227.578512 379.648876 
L 229.115702 380.312272 
L 230.652893 378.985509 
L 232.190083 379.648876 
L 233.727273 379.648876 
L 235.264463 378.985509 
L 236.801653 379.648876 
L 238.338843 379.648876 
L 239.876033 378.985509 
L 250.636364 378.985509 
L 252.173554 377.658746 
L 253.710744 378.322113 
L 256.785124 378.322113 
L 258.322314 378.985509 
L 259.859504 378.322113 
L 261.396694 376.995349 
L 262.933884 378.322113 
L 264.471074 377.658746 
L 266.008264 378.322113 
L 267.545455 377.658746 
L 269.082645 376.331983 
L 270.619835 376.331983 
L 273.694215 377.658746 
L 275.231405 376.331983 
L 276.768595 377.658746 
L 278.305785 376.331983 
L 281.380165 376.331983 
L 282.917355 376.995349 
L 284.454545 376.331983 
L 285.991736 376.331983 
L 287.528926 376.995349 
L 290.603306 375.668586 
L 292.140496 375.668586 
L 293.677686 376.331983 
L 295.214876 375.668586 
L 296.752066 375.668586 
L 298.289256 376.331983 
L 299.826446 376.331983 
L 302.900826 375.005219 
L 304.438017 375.005219 
L 305.975207 375.668586 
L 307.512397 375.668586 
L 309.049587 376.995349 
L 312.123967 374.341823 
L 313.661157 374.341823 
L 315.198347 373.015059 
L 316.735537 374.341823 
L 322.884298 374.341823 
L 324.421488 373.015059 
L 327.495868 373.015059 
L 329.033058 374.341823 
L 330.570248 373.015059 
L 333.644628 375.668586 
L 335.181818 374.341823 
L 336.719008 374.341823 
L 338.256198 373.015059 
L 339.793388 374.341823 
L 341.330579 374.341823 
L 344.404959 371.688326 
L 345.942149 371.688326 
L 347.479339 373.015059 
L 349.016529 370.361563 
L 350.553719 371.688326 
L 352.090909 370.361563 
L 353.628099 371.688326 
L 355.165289 371.688326 
L 356.702479 373.015059 
L 358.239669 373.015059 
L 359.77686 371.688326 
L 361.31405 373.015059 
L 364.38843 373.015059 
L 367.46281 370.361563 
L 369 370.361563 
L 370.53719 373.015059 
L 373.61157 370.361563 
L 375.14876 371.688326 
L 376.68595 370.361563 
L 378.22314 370.361563 
L 379.760331 369.034799 
L 381.297521 370.361563 
L 382.834711 369.034799 
L 384.371901 370.361563 
L 385.909091 370.361563 
L 387.446281 367.708036 
L 390.520661 367.708036 
L 392.057851 370.361563 
L 396.669421 370.361563 
L 398.206612 367.708036 
L 399.743802 369.034799 
L 402.818182 369.034799 
L 404.355372 367.708036 
L 407.429752 367.708036 
L 408.966942 369.034799 
L 410.504132 366.381273 
L 412.041322 367.708036 
L 413.578512 367.708036 
L 415.115702 366.381273 
L 416.652893 367.708036 
L 418.190083 367.708036 
L 419.727273 369.034799 
L 421.264463 369.034799 
L 422.801653 370.361563 
L 424.338843 369.034799 
L 425.876033 370.361563 
L 427.413223 366.381273 
L 428.950413 369.034799 
L 430.487603 366.381273 
L 432.024793 366.381273 
L 433.561983 367.708036 
L 435.099174 366.381273 
L 436.636364 366.381273 
L 438.173554 365.05451 
L 441.247934 367.708036 
L 442.785124 365.05451 
L 444.322314 366.381273 
L 447.396694 363.727746 
L 448.933884 365.05451 
L 450.471074 363.727746 
L 452.008264 366.381273 
L 453.545455 365.05451 
L 455.082645 361.07422 
L 456.619835 362.400983 
L 458.157025 365.05451 
L 459.694215 363.727746 
L 461.231405 365.05451 
L 462.768595 362.400983 
L 464.305785 361.07422 
L 465.842975 362.400983 
L 467.380165 362.400983 
L 468.917355 359.747456 
L 470.454545 361.07422 
L 471.991736 361.07422 
L 473.528926 362.400983 
L 475.066116 358.420693 
L 478.140496 358.420693 
L 479.677686 357.09393 
L 481.214876 357.09393 
L 482.752066 358.420693 
L 484.289256 354.440433 
L 485.826446 359.747456 
L 487.363636 355.767196 
L 488.900826 358.420693 
L 490.438017 354.440433 
L 491.975207 355.767196 
L 493.512397 354.440433 
L 495.049587 351.786907 
L 496.586777 354.440433 
L 501.198347 350.460143 
L 502.735537 350.460143 
L 504.272727 347.806617 
L 505.809917 347.806617 
L 507.347107 350.460143 
L 508.884298 350.460143 
L 510.421488 345.15309 
L 511.958678 350.460143 
L 513.495868 345.15309 
L 515.033058 345.15309 
L 516.570248 342.499564 
L 524.256198 342.499564 
L 527.330579 337.19254 
L 530.404959 337.19254 
L 531.942149 331.885487 
L 533.479339 337.19254 
L 535.016529 334.539014 
L 536.553719 329.231961 
L 538.090909 331.885487 
L 539.628099 331.885487 
L 541.165289 329.231961 
L 542.702479 329.231961 
L 544.239669 326.578434 
L 547.31405 326.578434 
L 548.85124 323.924907 
L 550.38843 318.617884 
L 551.92562 318.617884 
L 553.46281 321.271411 
L 555 318.617884 
L 556.53719 313.310831 
L 558.07438 313.310831 
L 559.61157 310.657305 
L 562.68595 310.657305 
L 565.760331 305.350281 
L 567.297521 300.043228 
L 568.834711 302.696755 
L 570.371901 297.389702 
L 571.909091 297.389702 
L 573.446281 292.082648 
L 576.520661 292.082648 
L 578.057851 289.429122 
L 579.595041 289.429122 
L 581.132231 281.468572 
L 582.669421 278.815045 
L 584.206612 278.815045 
L 585.743802 273.507992 
L 587.280992 273.507992 
L 591.892562 265.547443 
L 593.429752 260.240389 
L 596.504132 254.933366 
L 598.041322 257.586863 
L 599.578512 252.27984 
L 601.115702 249.626313 
L 602.652893 244.31926 
L 604.190083 244.31926 
L 605.727273 239.012207 
L 607.264463 236.35871 
L 608.801653 231.051657 
L 610.338843 228.39813 
L 611.876033 223.091077 
L 613.413223 215.130527 
L 614.950413 217.784054 
L 616.487603 209.823474 
L 618.024793 207.169948 
L 619.561983 207.169948 
L 622.636364 196.555871 
L 622.636364 196.555871 
" clip-path="url(#p38ec8eb78b)" style="fill: none; stroke: #008000; stroke-width: 3.5; stroke-linecap: square"/>
   </g>
   <g id="line2d_35">
    <path d="M 124.107424 699.4 
L 124.586777 656.319992 
L 126.123967 562.285811 
L 127.661157 498.228136 
L 129.198347 454.942562 
L 130.735537 426.168434 
L 132.272727 407.759625 
L 133.809917 397.228461 
L 135.347107 391.755572 
L 136.884298 389.267896 
L 138.421488 387.775288 
L 139.958678 387.11191 
L 143.033058 386.116839 
L 144.570248 386.116839 
L 146.107438 385.785149 
L 147.644628 385.619302 
L 149.181818 385.287612 
L 150.719008 385.619302 
L 155.330579 384.624234 
L 156.867769 384.955923 
L 158.404959 384.458386 
L 159.942149 384.292541 
L 161.479339 384.292541 
L 163.016529 383.960852 
L 164.553719 384.292541 
L 166.090909 383.629163 
L 167.628099 383.29747 
L 169.165289 383.629163 
L 170.702479 383.29747 
L 172.239669 383.629163 
L 173.77686 382.965781 
L 175.31405 383.29747 
L 176.85124 382.965781 
L 178.38843 382.965781 
L 179.92562 382.634092 
L 181.46281 382.634092 
L 183 382.302402 
L 186.07438 382.302402 
L 187.61157 381.970719 
L 189.14876 381.970719 
L 190.68595 382.302402 
L 192.22314 381.639006 
L 193.760331 382.302402 
L 195.297521 382.302402 
L 196.834711 381.639006 
L 198.371901 381.639006 
L 199.909091 381.970719 
L 201.446281 381.639006 
L 202.983471 380.312272 
L 204.520661 381.307322 
L 207.595041 381.307322 
L 209.132231 380.643956 
L 210.669421 380.312272 
L 213.743802 380.312272 
L 215.280992 381.639006 
L 216.818182 380.312272 
L 218.355372 379.648876 
L 221.429752 379.648876 
L 222.966942 380.312272 
L 224.504132 379.648876 
L 226.041322 379.648876 
L 227.578512 378.985509 
L 229.115702 378.985509 
L 230.652893 379.648876 
L 233.727273 379.648876 
L 235.264463 378.985509 
L 236.801653 378.985509 
L 238.338843 378.322113 
L 239.876033 378.322113 
L 241.413223 378.985509 
L 242.950413 377.658746 
L 246.024793 378.985509 
L 247.561983 377.658746 
L 252.173554 377.658746 
L 253.710744 376.995349 
L 256.785124 376.995349 
L 258.322314 377.658746 
L 259.859504 377.658746 
L 261.396694 376.995349 
L 262.933884 377.658746 
L 264.471074 377.658746 
L 266.008264 376.331983 
L 267.545455 376.995349 
L 269.082645 376.331983 
L 270.619835 376.331983 
L 273.694215 377.658746 
L 275.231405 376.331983 
L 276.768595 375.668586 
L 278.305785 376.331983 
L 281.380165 376.331983 
L 282.917355 375.668586 
L 284.454545 376.331983 
L 285.991736 375.668586 
L 287.528926 375.668586 
L 289.066116 374.341823 
L 290.603306 375.668586 
L 292.140496 375.668586 
L 293.677686 375.005219 
L 295.214876 376.331983 
L 298.289256 375.005219 
L 299.826446 375.668586 
L 301.363636 375.668586 
L 304.438017 374.341823 
L 305.975207 375.668586 
L 307.512397 374.341823 
L 309.049587 373.678456 
L 310.586777 375.668586 
L 312.123967 374.341823 
L 315.198347 374.341823 
L 316.735537 373.015059 
L 318.272727 373.015059 
L 319.809917 374.341823 
L 321.347107 374.341823 
L 322.884298 373.015059 
L 327.495868 373.015059 
L 329.033058 374.341823 
L 330.570248 374.341823 
L 332.107438 373.015059 
L 333.644628 374.341823 
L 335.181818 373.015059 
L 336.719008 373.015059 
L 338.256198 371.688326 
L 344.404959 371.688326 
L 345.942149 373.015059 
L 347.479339 371.688326 
L 350.553719 371.688326 
L 352.090909 373.015059 
L 355.165289 370.361563 
L 356.702479 370.361563 
L 358.239669 373.015059 
L 361.31405 370.361563 
L 362.85124 371.688326 
L 365.92562 371.688326 
L 367.46281 370.361563 
L 370.53719 370.361563 
L 372.07438 369.034799 
L 375.14876 371.688326 
L 376.68595 369.034799 
L 378.22314 367.708036 
L 379.760331 370.361563 
L 384.371901 370.361563 
L 385.909091 369.034799 
L 387.446281 369.034799 
L 388.983471 367.708036 
L 390.520661 369.034799 
L 392.057851 369.034799 
L 393.595041 367.708036 
L 395.132231 369.034799 
L 396.669421 369.034799 
L 398.206612 367.708036 
L 399.743802 367.708036 
L 402.818182 370.361563 
L 404.355372 367.708036 
L 405.892562 366.381273 
L 407.429752 367.708036 
L 408.966942 367.708036 
L 410.504132 366.381273 
L 412.041322 367.708036 
L 413.578512 366.381273 
L 419.727273 366.381273 
L 421.264463 365.05451 
L 422.801653 365.05451 
L 424.338843 367.708036 
L 425.876033 365.05451 
L 427.413223 365.05451 
L 428.950413 367.708036 
L 432.024793 365.05451 
L 435.099174 365.05451 
L 436.636364 362.400983 
L 438.173554 363.727746 
L 439.710744 366.381273 
L 441.247934 365.05451 
L 444.322314 365.05451 
L 445.859504 362.400983 
L 447.396694 365.05451 
L 450.471074 365.05451 
L 455.082645 361.07422 
L 456.619835 362.400983 
L 458.157025 362.400983 
L 459.694215 361.07422 
L 461.231405 362.400983 
L 464.305785 359.747456 
L 465.842975 362.400983 
L 467.380165 358.420693 
L 468.917355 362.400983 
L 470.454545 358.420693 
L 471.991736 361.07422 
L 473.528926 358.420693 
L 478.140496 358.420693 
L 479.677686 357.09393 
L 481.214876 357.09393 
L 482.752066 358.420693 
L 484.289256 357.09393 
L 485.826446 359.747456 
L 487.363636 355.767196 
L 488.900826 357.09393 
L 490.438017 354.440433 
L 491.975207 355.767196 
L 493.512397 353.11367 
L 496.586777 350.460143 
L 498.123967 353.11367 
L 499.661157 354.440433 
L 501.198347 351.786907 
L 502.735537 350.460143 
L 504.272727 347.806617 
L 505.809917 347.806617 
L 507.347107 350.460143 
L 510.421488 345.15309 
L 511.958678 347.806617 
L 513.495868 345.15309 
L 515.033058 345.15309 
L 516.570248 347.806617 
L 518.107438 342.499564 
L 524.256198 342.499564 
L 527.330579 337.19254 
L 530.404959 337.19254 
L 531.942149 334.539014 
L 535.016529 334.539014 
L 538.090909 329.231961 
L 539.628099 331.885487 
L 541.165289 329.231961 
L 542.702479 329.231961 
L 545.77686 323.924907 
L 547.31405 323.924907 
L 548.85124 318.617884 
L 550.38843 321.271411 
L 551.92562 321.271411 
L 553.46281 315.964358 
L 555 315.964358 
L 556.53719 313.310831 
L 558.07438 313.310831 
L 559.61157 310.657305 
L 561.14876 310.657305 
L 562.68595 305.350281 
L 564.22314 305.350281 
L 565.760331 302.696755 
L 568.834711 302.696755 
L 570.371901 294.736175 
L 571.909091 297.389702 
L 573.446281 292.082648 
L 576.520661 286.775625 
L 579.595041 286.775625 
L 581.132231 284.122099 
L 582.669421 276.161519 
L 584.206612 278.815045 
L 585.743802 273.507992 
L 587.280992 273.507992 
L 588.818182 268.200969 
L 590.355372 268.200969 
L 591.892562 262.893916 
L 593.429752 262.893916 
L 594.966942 257.586863 
L 599.578512 249.626313 
L 601.115702 249.626313 
L 602.652893 241.665733 
L 604.190083 241.665733 
L 605.727273 233.705183 
L 607.264463 233.705183 
L 608.801653 231.051657 
L 611.876033 220.43758 
L 613.413223 217.784054 
L 614.950413 212.477001 
L 616.487603 212.477001 
L 619.561983 201.862924 
L 621.099174 199.209398 
L 622.636364 199.209398 
L 622.636364 199.209398 
" clip-path="url(#p38ec8eb78b)" style="fill: none; stroke-dasharray: 12.95,5.6; stroke-dashoffset: 0; stroke: #000000; stroke-width: 3.5"/>
   </g>
   <g id="patch_3">
    <path d="M 90 621.576 
L 90 83.808 
" style="fill: none; stroke: #000000; stroke-width: 0.8; stroke-linejoin: miter; stroke-linecap: square"/>
   </g>
   <g id="patch_4">
    <path d="M 648 621.576 
L 648 83.808 
" style="fill: none; stroke: #000000; stroke-width: 0.8; stroke-linejoin: miter; stroke-linecap: square"/>
   </g>
   <g id="patch_5">
    <path d="M 90 621.576 
L 648 621.576 
" style="fill: none; stroke: #000000; stroke-width: 0.8; stroke-linejoin: miter; stroke-linecap: square"/>
   </g>
   <g id="patch_6">
    <path d="M 90 83.808 
L 648 83.808 
" style="fill: none; stroke: #000000; stroke-width: 0.8; stroke-linejoin: miter; stroke-linecap: square"/>
   </g>
   <g id="legend_1">
    <g id="patch_7">
     <path d="M 101.2 214.033 
L 172.715 214.033 
Q 175.915 214.033 175.915 210.833 
L 175.915 95.008 
Q 175.915 91.808 172.715 91.808 
L 101.2 91.808 
Q 98 91.808 98 95.008 
L 98 210.833 
Q 98 214.033 101.2 214.033 
z
" style="fill: #ffffff; opacity: 0.8; stroke: #cccccc; stroke-linejoin: miter"/>
    </g>
    <g id="line2d_36">
     <path d="M 104.4 104.7655 
L 120.4 104.7655 
L 136.4 104.7655 
" style="fill: none; stroke-dasharray: 3.5,5.775; stroke-dashoffset: 0; stroke: #0000ff; stroke-width: 3.5"/>
    </g>
    <g id="text_18">
     <!-- FF -->
     <g transform="translate(149.2 110.3655) scale(0.16 -0.16)">
      <defs>
       <path id="DejaVuSans-46" d="M 628 4666 
L 3309 4666 
L 3309 4134 
L 1259 4134 
L 1259 2759 
L 3109 2759 
L 3109 2228 
L 1259 2228 
L 1259 0 
L 628 0 
L 628 4666 
z
" transform="scale(0.015625)"/>
      </defs>
      <use xlink:href="#DejaVuSans-46"/>
      <use xlink:href="#DejaVuSans-46" x="57.519531"/>
     </g>
    </g>
    <g id="line2d_37">
     <path d="M 104.4 128.2505 
L 120.4 128.2505 
L 136.4 128.2505 
" style="fill: none; stroke: #ff0000; stroke-width: 3.5; stroke-linecap: square"/>
    </g>
    <g id="text_19">
     <!-- FS -->
     <g transform="translate(149.2 133.8505) scale(0.16 -0.16)">
      <defs>
       <path id="DejaVuSans-53" d="M 3425 4513 
L 3425 3897 
Q 3066 4069 2747 4153 
Q 2428 4238 2131 4238 
Q 1616 4238 1336 4038 
Q 1056 3838 1056 3469 
Q 1056 3159 1242 3001 
Q 1428 2844 1947 2747 
L 2328 2669 
Q 3034 2534 3370 2195 
Q 3706 1856 3706 1288 
Q 3706 609 3251 259 
Q 2797 -91 1919 -91 
Q 1588 -91 1214 -16 
Q 841 59 441 206 
L 441 856 
Q 825 641 1194 531 
Q 1563 422 1919 422 
Q 2459 422 2753 634 
Q 3047 847 3047 1241 
Q 3047 1584 2836 1778 
Q 2625 1972 2144 2069 
L 1759 2144 
Q 1053 2284 737 2584 
Q 422 2884 422 3419 
Q 422 4038 858 4394 
Q 1294 4750 2059 4750 
Q 2388 4750 2728 4690 
Q 3069 4631 3425 4513 
z
" transform="scale(0.015625)"/>
      </defs>
      <use xlink:href="#DejaVuSans-46"/>
      <use xlink:href="#DejaVuSans-53" x="55.769531"/>
     </g>
    </g>
    <g id="line2d_38">
     <path d="M 104.4 151.7355 
L 120.4 151.7355 
L 136.4 151.7355 
" style="fill: none; stroke: #bf00bf; stroke-width: 3.5; stroke-linecap: square"/>
    </g>
    <g id="text_20">
     <!-- SF -->
     <g transform="translate(149.2 157.3355) scale(0.16 -0.16)">
      <use xlink:href="#DejaVuSans-53"/>
      <use xlink:href="#DejaVuSans-46" x="63.476562"/>
     </g>
    </g>
    <g id="line2d_39">
     <path d="M 104.4 175.2205 
L 120.4 175.2205 
L 136.4 175.2205 
" style="fill: none; stroke: #008000; stroke-width: 3.5; stroke-linecap: square"/>
    </g>
    <g id="text_21">
     <!-- SS -->
     <g transform="translate(149.2 180.8205) scale(0.16 -0.16)">
      <use xlink:href="#DejaVuSans-53"/>
      <use xlink:href="#DejaVuSans-53" x="63.476562"/>
     </g>
    </g>
    <g id="line2d_40">
     <path d="M 104.4 198.7055 
L 120.4 198.7055 
L 136.4 198.7055 
" style="fill: none; stroke-dasharray: 12.95,5.6; stroke-dashoffset: 0; stroke: #000000; stroke-width: 3.5"/>
    </g>
    <g id="text_22">
     <!-- TT -->
     <g transform="translate(149.2 204.3055) scale(0.16 -0.16)">
      <defs>
       <path id="DejaVuSans-54" d="M -19 4666 
L 3928 4666 
L 3928 4134 
L 2272 4134 
L 2272 0 
L 1638 0 
L 1638 4134 
L -19 4134 
L -19 4666 
z
" transform="scale(0.015625)"/>
      </defs>
      <use xlink:href="#DejaVuSans-54"/>
      <use xlink:href="#DejaVuSans-54" x="59.333984"/>
     </g>
    </g>
   </g>
  </g>
 </g>
 <defs>
  <clipPath id="p38ec8eb78b">
   <rect x="90" y="83.808" width="558" height="537.768"/>
  </clipPath>
 </defs>
</svg>
