<?xml version="1.0" encoding="utf-8" standalone="no"?>
<!DOCTYPE svg PUBLIC "-//W3C//DTD SVG 1.1//EN"
  "http://www.w3.org/Graphics/SVG/1.1/DTD/svg11.dtd">
<svg xmlns:xlink="http://www.w3.org/1999/xlink" width="720pt" height="698.4pt" viewBox="0 0 720 698.4" xmlns="http://www.w3.org/2000/svg" version="1.1">
 <metadata>
  <rdf:RDF xmlns:dc="http://purl.org/dc/elements/1.1/" xmlns:cc="http://creativecommons.org/ns#" xmlns:rdf="http://www.w3.org/1999/02/22-rdf-syntax-ns#">
   <cc:Work>
    <dc:type rdf:resource="http://purl.org/dc/dcmitype/StillImage"/>
    <dc:date>2024-03-16T15:34:12.543477</dc:date>
    <dc:format>image/svg+xml</dc:format>
    <dc:creator>
     <cc:Agent>
      <dc:title>Matplotlib v3.7.2, https://matplotlib.org/</dc:title>
     </cc:Agent>
    </dc:creator>
   </cc:Work>
  </rdf:RDF>
 </metadata>
 <defs>
  <style type="text/css">*{stroke-linejoin: round; stroke-linecap: butt}</style>
 </defs>
 <g id="figure_1">
  <g id="patch_1">
   <path d="M 0 698.4 
L 720 698.4 
L 720 0 
L 0 0 
z
" style="fill: #ffffff"/>
  </g>
  <g id="axes_1">
   <g id="patch_2">
    <path d="M 90 621.576 
L 648 621.576 
L 648 83.808 
L 90 83.808 
z
" style="fill: #ffffff"/>
   </g>
   <g id="matplotlib.axis_1">
    <g id="xtick_1">
     <g id="line2d_1">
      <path d="M 115.363636 621.576 
L 115.363636 83.808 
" clip-path="url(#p1715a70abb)" style="fill: none; stroke: #b0b0b0; stroke-width: 0.5; stroke-linecap: square"/>
     </g>
     <g id="line2d_2">
      <defs>
       <path id="m3b860d9cff" d="M 0 0 
L 0 3.5 
" style="stroke: #000000; stroke-width: 0.8"/>
      </defs>
      <g>
       <use xlink:href="#m3b860d9cff" x="115.363636" y="621.576" style="stroke: #000000; stroke-width: 0.8"/>
      </g>
     </g>
     <g id="text_1">
      <!-- 0.0 -->
      <g transform="translate(101.050824 642.253187) scale(0.18 -0.18)">
       <defs>
        <path id="DejaVuSans-30" d="M 2034 4250 
Q 1547 4250 1301 3770 
Q 1056 3291 1056 2328 
Q 1056 1369 1301 889 
Q 1547 409 2034 409 
Q 2525 409 2770 889 
Q 3016 1369 3016 2328 
Q 3016 3291 2770 3770 
Q 2525 4250 2034 4250 
z
M 2034 4750 
Q 2819 4750 3233 4129 
Q 3647 3509 3647 2328 
Q 3647 1150 3233 529 
Q 2819 -91 2034 -91 
Q 1250 -91 836 529 
Q 422 1150 422 2328 
Q 422 3509 836 4129 
Q 1250 4750 2034 4750 
z
" transform="scale(0.015625)"/>
        <path id="DejaVuSans-2e" d="M 684 794 
L 1344 794 
L 1344 0 
L 684 0 
L 684 794 
z
" transform="scale(0.015625)"/>
       </defs>
       <use xlink:href="#DejaVuSans-30"/>
       <use xlink:href="#DejaVuSans-2e" x="63.623047"/>
       <use xlink:href="#DejaVuSans-30" x="95.410156"/>
      </g>
     </g>
    </g>
    <g id="xtick_2">
     <g id="line2d_3">
      <path d="M 192.22314 621.576 
L 192.22314 83.808 
" clip-path="url(#p1715a70abb)" style="fill: none; stroke: #b0b0b0; stroke-width: 0.5; stroke-linecap: square"/>
     </g>
     <g id="line2d_4">
      <g>
       <use xlink:href="#m3b860d9cff" x="192.22314" y="621.576" style="stroke: #000000; stroke-width: 0.8"/>
      </g>
     </g>
     <g id="text_2">
      <!-- 0.5 -->
      <g transform="translate(177.910328 642.253187) scale(0.18 -0.18)">
       <defs>
        <path id="DejaVuSans-35" d="M 691 4666 
L 3169 4666 
L 3169 4134 
L 1269 4134 
L 1269 2991 
Q 1406 3038 1543 3061 
Q 1681 3084 1819 3084 
Q 2600 3084 3056 2656 
Q 3513 2228 3513 1497 
Q 3513 744 3044 326 
Q 2575 -91 1722 -91 
Q 1428 -91 1123 -41 
Q 819 9 494 109 
L 494 744 
Q 775 591 1075 516 
Q 1375 441 1709 441 
Q 2250 441 2565 725 
Q 2881 1009 2881 1497 
Q 2881 1984 2565 2268 
Q 2250 2553 1709 2553 
Q 1456 2553 1204 2497 
Q 953 2441 691 2322 
L 691 4666 
z
" transform="scale(0.015625)"/>
       </defs>
       <use xlink:href="#DejaVuSans-30"/>
       <use xlink:href="#DejaVuSans-2e" x="63.623047"/>
       <use xlink:href="#DejaVuSans-35" x="95.410156"/>
      </g>
     </g>
    </g>
    <g id="xtick_3">
     <g id="line2d_5">
      <path d="M 269.082645 621.576 
L 269.082645 83.808 
" clip-path="url(#p1715a70abb)" style="fill: none; stroke: #b0b0b0; stroke-width: 0.5; stroke-linecap: square"/>
     </g>
     <g id="line2d_6">
      <g>
       <use xlink:href="#m3b860d9cff" x="269.082645" y="621.576" style="stroke: #000000; stroke-width: 0.8"/>
      </g>
     </g>
     <g id="text_3">
      <!-- 1.0 -->
      <g transform="translate(254.769832 642.253187) scale(0.18 -0.18)">
       <defs>
        <path id="DejaVuSans-31" d="M 794 531 
L 1825 531 
L 1825 4091 
L 703 3866 
L 703 4441 
L 1819 4666 
L 2450 4666 
L 2450 531 
L 3481 531 
L 3481 0 
L 794 0 
L 794 531 
z
" transform="scale(0.015625)"/>
       </defs>
       <use xlink:href="#DejaVuSans-31"/>
       <use xlink:href="#DejaVuSans-2e" x="63.623047"/>
       <use xlink:href="#DejaVuSans-30" x="95.410156"/>
      </g>
     </g>
    </g>
    <g id="xtick_4">
     <g id="line2d_7">
      <path d="M 345.942149 621.576 
L 345.942149 83.808 
" clip-path="url(#p1715a70abb)" style="fill: none; stroke: #b0b0b0; stroke-width: 0.5; stroke-linecap: square"/>
     </g>
     <g id="line2d_8">
      <g>
       <use xlink:href="#m3b860d9cff" x="345.942149" y="621.576" style="stroke: #000000; stroke-width: 0.8"/>
      </g>
     </g>
     <g id="text_4">
      <!-- 1.5 -->
      <g transform="translate(331.629336 642.253187) scale(0.18 -0.18)">
       <use xlink:href="#DejaVuSans-31"/>
       <use xlink:href="#DejaVuSans-2e" x="63.623047"/>
       <use xlink:href="#DejaVuSans-35" x="95.410156"/>
      </g>
     </g>
    </g>
    <g id="xtick_5">
     <g id="line2d_9">
      <path d="M 422.801653 621.576 
L 422.801653 83.808 
" clip-path="url(#p1715a70abb)" style="fill: none; stroke: #b0b0b0; stroke-width: 0.5; stroke-linecap: square"/>
     </g>
     <g id="line2d_10">
      <g>
       <use xlink:href="#m3b860d9cff" x="422.801653" y="621.576" style="stroke: #000000; stroke-width: 0.8"/>
      </g>
     </g>
     <g id="text_5">
      <!-- 2.0 -->
      <g transform="translate(408.48884 642.253187) scale(0.18 -0.18)">
       <defs>
        <path id="DejaVuSans-32" d="M 1228 531 
L 3431 531 
L 3431 0 
L 469 0 
L 469 531 
Q 828 903 1448 1529 
Q 2069 2156 2228 2338 
Q 2531 2678 2651 2914 
Q 2772 3150 2772 3378 
Q 2772 3750 2511 3984 
Q 2250 4219 1831 4219 
Q 1534 4219 1204 4116 
Q 875 4013 500 3803 
L 500 4441 
Q 881 4594 1212 4672 
Q 1544 4750 1819 4750 
Q 2544 4750 2975 4387 
Q 3406 4025 3406 3419 
Q 3406 3131 3298 2873 
Q 3191 2616 2906 2266 
Q 2828 2175 2409 1742 
Q 1991 1309 1228 531 
z
" transform="scale(0.015625)"/>
       </defs>
       <use xlink:href="#DejaVuSans-32"/>
       <use xlink:href="#DejaVuSans-2e" x="63.623047"/>
       <use xlink:href="#DejaVuSans-30" x="95.410156"/>
      </g>
     </g>
    </g>
    <g id="xtick_6">
     <g id="line2d_11">
      <path d="M 499.661157 621.576 
L 499.661157 83.808 
" clip-path="url(#p1715a70abb)" style="fill: none; stroke: #b0b0b0; stroke-width: 0.5; stroke-linecap: square"/>
     </g>
     <g id="line2d_12">
      <g>
       <use xlink:href="#m3b860d9cff" x="499.661157" y="621.576" style="stroke: #000000; stroke-width: 0.8"/>
      </g>
     </g>
     <g id="text_6">
      <!-- 2.5 -->
      <g transform="translate(485.348345 642.253187) scale(0.18 -0.18)">
       <use xlink:href="#DejaVuSans-32"/>
       <use xlink:href="#DejaVuSans-2e" x="63.623047"/>
       <use xlink:href="#DejaVuSans-35" x="95.410156"/>
      </g>
     </g>
    </g>
    <g id="xtick_7">
     <g id="line2d_13">
      <path d="M 576.520661 621.576 
L 576.520661 83.808 
" clip-path="url(#p1715a70abb)" style="fill: none; stroke: #b0b0b0; stroke-width: 0.5; stroke-linecap: square"/>
     </g>
     <g id="line2d_14">
      <g>
       <use xlink:href="#m3b860d9cff" x="576.520661" y="621.576" style="stroke: #000000; stroke-width: 0.8"/>
      </g>
     </g>
     <g id="text_7">
      <!-- 3.0 -->
      <g transform="translate(562.207849 642.253187) scale(0.18 -0.18)">
       <defs>
        <path id="DejaVuSans-33" d="M 2597 2516 
Q 3050 2419 3304 2112 
Q 3559 1806 3559 1356 
Q 3559 666 3084 287 
Q 2609 -91 1734 -91 
Q 1441 -91 1130 -33 
Q 819 25 488 141 
L 488 750 
Q 750 597 1062 519 
Q 1375 441 1716 441 
Q 2309 441 2620 675 
Q 2931 909 2931 1356 
Q 2931 1769 2642 2001 
Q 2353 2234 1838 2234 
L 1294 2234 
L 1294 2753 
L 1863 2753 
Q 2328 2753 2575 2939 
Q 2822 3125 2822 3475 
Q 2822 3834 2567 4026 
Q 2313 4219 1838 4219 
Q 1578 4219 1281 4162 
Q 984 4106 628 3988 
L 628 4550 
Q 988 4650 1302 4700 
Q 1616 4750 1894 4750 
Q 2613 4750 3031 4423 
Q 3450 4097 3450 3541 
Q 3450 3153 3228 2886 
Q 3006 2619 2597 2516 
z
" transform="scale(0.015625)"/>
       </defs>
       <use xlink:href="#DejaVuSans-33"/>
       <use xlink:href="#DejaVuSans-2e" x="63.623047"/>
       <use xlink:href="#DejaVuSans-30" x="95.410156"/>
      </g>
     </g>
    </g>
    <g id="text_8">
     <!-- $V_{OUT}$ [V] -->
     <g transform="translate(317.13 669.752562) scale(0.26 -0.26)">
      <defs>
       <path id="DejaVuSans-Oblique-56" d="M 1319 0 
L 500 4666 
L 1119 4666 
L 1797 653 
L 4063 4666 
L 4750 4666 
L 2053 0 
L 1319 0 
z
" transform="scale(0.015625)"/>
       <path id="DejaVuSans-Oblique-4f" d="M 2919 4238 
Q 2400 4238 2003 3986 
Q 1606 3734 1313 3219 
Q 1125 2891 1026 2522 
Q 928 2153 928 1778 
Q 928 1128 1239 775 
Q 1550 422 2119 422 
Q 2631 422 3032 676 
Q 3434 931 3719 1434 
Q 3909 1772 4009 2142 
Q 4109 2513 4109 2881 
Q 4109 3528 3796 3883 
Q 3484 4238 2919 4238 
z
M 2100 -91 
Q 1241 -91 748 418 
Q 256 928 256 1813 
Q 256 2319 448 2847 
Q 641 3375 978 3788 
Q 1375 4272 1862 4511 
Q 2350 4750 2938 4750 
Q 3794 4750 4287 4245 
Q 4781 3741 4781 2869 
Q 4781 2331 4593 1812 
Q 4406 1294 4056 872 
Q 3656 384 3173 146 
Q 2691 -91 2100 -91 
z
" transform="scale(0.015625)"/>
       <path id="DejaVuSans-Oblique-55" d="M 991 4666 
L 1625 4666 
L 1075 1831 
Q 1041 1641 1027 1517 
Q 1013 1394 1013 1300 
Q 1013 869 1253 645 
Q 1494 422 1959 422 
Q 2563 422 2898 753 
Q 3234 1084 3378 1831 
L 3928 4666 
L 4563 4666 
L 4000 1753 
Q 3816 809 3300 359 
Q 2784 -91 1888 -91 
Q 1188 -91 780 261 
Q 372 613 372 1216 
Q 372 1325 387 1461 
Q 403 1597 434 1753 
L 991 4666 
z
" transform="scale(0.015625)"/>
       <path id="DejaVuSans-Oblique-54" d="M 378 4666 
L 4325 4666 
L 4225 4134 
L 2559 4134 
L 1759 0 
L 1125 0 
L 1925 4134 
L 275 4134 
L 378 4666 
z
" transform="scale(0.015625)"/>
       <path id="DejaVuSans-20" transform="scale(0.015625)"/>
       <path id="DejaVuSans-5b" d="M 550 4863 
L 1875 4863 
L 1875 4416 
L 1125 4416 
L 1125 -397 
L 1875 -397 
L 1875 -844 
L 550 -844 
L 550 4863 
z
" transform="scale(0.015625)"/>
       <path id="DejaVuSans-56" d="M 1831 0 
L 50 4666 
L 709 4666 
L 2188 738 
L 3669 4666 
L 4325 4666 
L 2547 0 
L 1831 0 
z
" transform="scale(0.015625)"/>
       <path id="DejaVuSans-5d" d="M 1947 4863 
L 1947 -844 
L 622 -844 
L 622 -397 
L 1369 -397 
L 1369 4416 
L 622 4416 
L 622 4863 
L 1947 4863 
z
" transform="scale(0.015625)"/>
      </defs>
      <use xlink:href="#DejaVuSans-Oblique-56" transform="translate(0 0.015625)"/>
      <use xlink:href="#DejaVuSans-Oblique-4f" transform="translate(68.408203 -16.390625) scale(0.7)"/>
      <use xlink:href="#DejaVuSans-Oblique-55" transform="translate(123.505859 -16.390625) scale(0.7)"/>
      <use xlink:href="#DejaVuSans-Oblique-54" transform="translate(174.741211 -16.390625) scale(0.7)"/>
      <use xlink:href="#DejaVuSans-20" transform="translate(220.234375 0.015625)"/>
      <use xlink:href="#DejaVuSans-5b" transform="translate(252.021484 0.015625)"/>
      <use xlink:href="#DejaVuSans-56" transform="translate(291.035156 0.015625)"/>
      <use xlink:href="#DejaVuSans-5d" transform="translate(359.443359 0.015625)"/>
     </g>
    </g>
   </g>
   <g id="matplotlib.axis_2">
    <g id="ytick_1">
     <g id="line2d_15">
      <path d="M 90 606.638 
L 648 606.638 
" clip-path="url(#p1715a70abb)" style="fill: none; stroke: #b0b0b0; stroke-width: 0.5; stroke-linecap: square"/>
     </g>
     <g id="line2d_16">
      <defs>
       <path id="mc8d0a87988" d="M 0 0 
L -3.5 0 
" style="stroke: #000000; stroke-width: 0.8"/>
      </defs>
      <g>
       <use xlink:href="#mc8d0a87988" x="90" y="606.638" style="stroke: #000000; stroke-width: 0.8"/>
      </g>
     </g>
     <g id="text_9">
      <!-- 0.925 -->
      <g transform="translate(31.469375 613.476594) scale(0.18 -0.18)">
       <defs>
        <path id="DejaVuSans-39" d="M 703 97 
L 703 672 
Q 941 559 1184 500 
Q 1428 441 1663 441 
Q 2288 441 2617 861 
Q 2947 1281 2994 2138 
Q 2813 1869 2534 1725 
Q 2256 1581 1919 1581 
Q 1219 1581 811 2004 
Q 403 2428 403 3163 
Q 403 3881 828 4315 
Q 1253 4750 1959 4750 
Q 2769 4750 3195 4129 
Q 3622 3509 3622 2328 
Q 3622 1225 3098 567 
Q 2575 -91 1691 -91 
Q 1453 -91 1209 -44 
Q 966 3 703 97 
z
M 1959 2075 
Q 2384 2075 2632 2365 
Q 2881 2656 2881 3163 
Q 2881 3666 2632 3958 
Q 2384 4250 1959 4250 
Q 1534 4250 1286 3958 
Q 1038 3666 1038 3163 
Q 1038 2656 1286 2365 
Q 1534 2075 1959 2075 
z
" transform="scale(0.015625)"/>
       </defs>
       <use xlink:href="#DejaVuSans-30"/>
       <use xlink:href="#DejaVuSans-2e" x="63.623047"/>
       <use xlink:href="#DejaVuSans-39" x="95.410156"/>
       <use xlink:href="#DejaVuSans-32" x="159.033203"/>
       <use xlink:href="#DejaVuSans-35" x="222.65625"/>
      </g>
     </g>
    </g>
    <g id="ytick_2">
     <g id="line2d_17">
      <path d="M 90 531.948 
L 648 531.948 
" clip-path="url(#p1715a70abb)" style="fill: none; stroke: #b0b0b0; stroke-width: 0.5; stroke-linecap: square"/>
     </g>
     <g id="line2d_18">
      <g>
       <use xlink:href="#mc8d0a87988" x="90" y="531.948" style="stroke: #000000; stroke-width: 0.8"/>
      </g>
     </g>
     <g id="text_10">
      <!-- 0.950 -->
      <g transform="translate(31.469375 538.786594) scale(0.18 -0.18)">
       <use xlink:href="#DejaVuSans-30"/>
       <use xlink:href="#DejaVuSans-2e" x="63.623047"/>
       <use xlink:href="#DejaVuSans-39" x="95.410156"/>
       <use xlink:href="#DejaVuSans-35" x="159.033203"/>
       <use xlink:href="#DejaVuSans-30" x="222.65625"/>
      </g>
     </g>
    </g>
    <g id="ytick_3">
     <g id="line2d_19">
      <path d="M 90 457.258 
L 648 457.258 
" clip-path="url(#p1715a70abb)" style="fill: none; stroke: #b0b0b0; stroke-width: 0.5; stroke-linecap: square"/>
     </g>
     <g id="line2d_20">
      <g>
       <use xlink:href="#mc8d0a87988" x="90" y="457.258" style="stroke: #000000; stroke-width: 0.8"/>
      </g>
     </g>
     <g id="text_11">
      <!-- 0.975 -->
      <g transform="translate(31.469375 464.096594) scale(0.18 -0.18)">
       <defs>
        <path id="DejaVuSans-37" d="M 525 4666 
L 3525 4666 
L 3525 4397 
L 1831 0 
L 1172 0 
L 2766 4134 
L 525 4134 
L 525 4666 
z
" transform="scale(0.015625)"/>
       </defs>
       <use xlink:href="#DejaVuSans-30"/>
       <use xlink:href="#DejaVuSans-2e" x="63.623047"/>
       <use xlink:href="#DejaVuSans-39" x="95.410156"/>
       <use xlink:href="#DejaVuSans-37" x="159.033203"/>
       <use xlink:href="#DejaVuSans-35" x="222.65625"/>
      </g>
     </g>
    </g>
    <g id="ytick_4">
     <g id="line2d_21">
      <path d="M 90 382.568 
L 648 382.568 
" clip-path="url(#p1715a70abb)" style="fill: none; stroke: #b0b0b0; stroke-width: 0.5; stroke-linecap: square"/>
     </g>
     <g id="line2d_22">
      <g>
       <use xlink:href="#mc8d0a87988" x="90" y="382.568" style="stroke: #000000; stroke-width: 0.8"/>
      </g>
     </g>
     <g id="text_12">
      <!-- 1.000 -->
      <g transform="translate(31.469375 389.406594) scale(0.18 -0.18)">
       <use xlink:href="#DejaVuSans-31"/>
       <use xlink:href="#DejaVuSans-2e" x="63.623047"/>
       <use xlink:href="#DejaVuSans-30" x="95.410156"/>
       <use xlink:href="#DejaVuSans-30" x="159.033203"/>
       <use xlink:href="#DejaVuSans-30" x="222.65625"/>
      </g>
     </g>
    </g>
    <g id="ytick_5">
     <g id="line2d_23">
      <path d="M 90 307.878 
L 648 307.878 
" clip-path="url(#p1715a70abb)" style="fill: none; stroke: #b0b0b0; stroke-width: 0.5; stroke-linecap: square"/>
     </g>
     <g id="line2d_24">
      <g>
       <use xlink:href="#mc8d0a87988" x="90" y="307.878" style="stroke: #000000; stroke-width: 0.8"/>
      </g>
     </g>
     <g id="text_13">
      <!-- 1.025 -->
      <g transform="translate(31.469375 314.716594) scale(0.18 -0.18)">
       <use xlink:href="#DejaVuSans-31"/>
       <use xlink:href="#DejaVuSans-2e" x="63.623047"/>
       <use xlink:href="#DejaVuSans-30" x="95.410156"/>
       <use xlink:href="#DejaVuSans-32" x="159.033203"/>
       <use xlink:href="#DejaVuSans-35" x="222.65625"/>
      </g>
     </g>
    </g>
    <g id="ytick_6">
     <g id="line2d_25">
      <path d="M 90 233.188 
L 648 233.188 
" clip-path="url(#p1715a70abb)" style="fill: none; stroke: #b0b0b0; stroke-width: 0.5; stroke-linecap: square"/>
     </g>
     <g id="line2d_26">
      <g>
       <use xlink:href="#mc8d0a87988" x="90" y="233.188" style="stroke: #000000; stroke-width: 0.8"/>
      </g>
     </g>
     <g id="text_14">
      <!-- 1.050 -->
      <g transform="translate(31.469375 240.026594) scale(0.18 -0.18)">
       <use xlink:href="#DejaVuSans-31"/>
       <use xlink:href="#DejaVuSans-2e" x="63.623047"/>
       <use xlink:href="#DejaVuSans-30" x="95.410156"/>
       <use xlink:href="#DejaVuSans-35" x="159.033203"/>
       <use xlink:href="#DejaVuSans-30" x="222.65625"/>
      </g>
     </g>
    </g>
    <g id="ytick_7">
     <g id="line2d_27">
      <path d="M 90 158.498 
L 648 158.498 
" clip-path="url(#p1715a70abb)" style="fill: none; stroke: #b0b0b0; stroke-width: 0.5; stroke-linecap: square"/>
     </g>
     <g id="line2d_28">
      <g>
       <use xlink:href="#mc8d0a87988" x="90" y="158.498" style="stroke: #000000; stroke-width: 0.8"/>
      </g>
     </g>
     <g id="text_15">
      <!-- 1.075 -->
      <g transform="translate(31.469375 165.336594) scale(0.18 -0.18)">
       <use xlink:href="#DejaVuSans-31"/>
       <use xlink:href="#DejaVuSans-2e" x="63.623047"/>
       <use xlink:href="#DejaVuSans-30" x="95.410156"/>
       <use xlink:href="#DejaVuSans-37" x="159.033203"/>
       <use xlink:href="#DejaVuSans-35" x="222.65625"/>
      </g>
     </g>
    </g>
    <g id="ytick_8">
     <g id="line2d_29">
      <path d="M 90 83.808 
L 648 83.808 
" clip-path="url(#p1715a70abb)" style="fill: none; stroke: #b0b0b0; stroke-width: 0.5; stroke-linecap: square"/>
     </g>
     <g id="line2d_30">
      <g>
       <use xlink:href="#mc8d0a87988" x="90" y="83.808" style="stroke: #000000; stroke-width: 0.8"/>
      </g>
     </g>
     <g id="text_16">
      <!-- 1.100 -->
      <g transform="translate(31.469375 90.646594) scale(0.18 -0.18)">
       <use xlink:href="#DejaVuSans-31"/>
       <use xlink:href="#DejaVuSans-2e" x="63.623047"/>
       <use xlink:href="#DejaVuSans-31" x="95.410156"/>
       <use xlink:href="#DejaVuSans-30" x="159.033203"/>
       <use xlink:href="#DejaVuSans-30" x="222.65625"/>
      </g>
     </g>
    </g>
    <g id="text_17">
     <!-- $I_{OUT}$ [pA] -->
     <g transform="translate(22.009375 407.812) rotate(-90) scale(0.26 -0.26)">
      <defs>
       <path id="DejaVuSans-Oblique-49" d="M 1081 4666 
L 1716 4666 
L 806 0 
L 172 0 
L 1081 4666 
z
" transform="scale(0.015625)"/>
       <path id="DejaVuSans-70" d="M 1159 525 
L 1159 -1331 
L 581 -1331 
L 581 3500 
L 1159 3500 
L 1159 2969 
Q 1341 3281 1617 3432 
Q 1894 3584 2278 3584 
Q 2916 3584 3314 3078 
Q 3713 2572 3713 1747 
Q 3713 922 3314 415 
Q 2916 -91 2278 -91 
Q 1894 -91 1617 61 
Q 1341 213 1159 525 
z
M 3116 1747 
Q 3116 2381 2855 2742 
Q 2594 3103 2138 3103 
Q 1681 3103 1420 2742 
Q 1159 2381 1159 1747 
Q 1159 1113 1420 752 
Q 1681 391 2138 391 
Q 2594 391 2855 752 
Q 3116 1113 3116 1747 
z
" transform="scale(0.015625)"/>
       <path id="DejaVuSans-41" d="M 2188 4044 
L 1331 1722 
L 3047 1722 
L 2188 4044 
z
M 1831 4666 
L 2547 4666 
L 4325 0 
L 3669 0 
L 3244 1197 
L 1141 1197 
L 716 0 
L 50 0 
L 1831 4666 
z
" transform="scale(0.015625)"/>
      </defs>
      <use xlink:href="#DejaVuSans-Oblique-49" transform="translate(0 0.015625)"/>
      <use xlink:href="#DejaVuSans-Oblique-4f" transform="translate(29.492188 -16.390625) scale(0.7)"/>
      <use xlink:href="#DejaVuSans-Oblique-55" transform="translate(84.589844 -16.390625) scale(0.7)"/>
      <use xlink:href="#DejaVuSans-Oblique-54" transform="translate(135.825195 -16.390625) scale(0.7)"/>
      <use xlink:href="#DejaVuSans-20" transform="translate(181.318359 0.015625)"/>
      <use xlink:href="#DejaVuSans-5b" transform="translate(213.105469 0.015625)"/>
      <use xlink:href="#DejaVuSans-70" transform="translate(252.119141 0.015625)"/>
      <use xlink:href="#DejaVuSans-41" transform="translate(315.595703 0.015625)"/>
      <use xlink:href="#DejaVuSans-5d" transform="translate(384.003906 0.015625)"/>
     </g>
    </g>
   </g>
   <g id="line2d_31">
    <path d="M 115.363636 124.188252 
L 116.900826 135.62852 
L 118.438017 142.573285 
L 119.975207 147.341346 
L 121.512397 153.892226 
L 123.049587 150.533865 
L 124.586777 165.75013 
L 126.123967 172.135169 
L 127.661157 177.317848 
L 129.198347 187.683147 
L 130.735537 190.502516 
L 132.272727 198.546001 
L 133.809917 202.609227 
L 135.347107 210.735618 
L 136.884298 210.652712 
L 138.421488 217.784054 
L 139.958678 216.954816 
L 141.495868 225.247079 
L 143.033058 226.076287 
L 144.570248 245.811865 
L 146.107438 235.695313 
L 147.644628 239.509762 
L 149.181818 238.182998 
L 150.719008 244.31926 
L 152.256198 249.792155 
L 153.793388 245.977706 
L 155.330579 256.2601 
L 156.867769 250.621393 
L 158.404959 268.532652 
L 159.942149 267.703414 
L 161.479339 280.971047 
L 163.016529 280.971047 
L 164.553719 276.161519 
L 166.090909 267.869286 
L 167.628099 283.458702 
L 169.165289 285.117149 
L 170.702479 292.082648 
L 172.239669 282.795335 
L 173.77686 280.141809 
L 175.31405 275.498152 
L 176.85124 288.765755 
L 178.38843 293.409412 
L 179.92562 295.399572 
L 181.46281 294.404492 
L 183 300.706595 
L 184.53719 283.458702 
L 186.07438 295.399572 
L 187.61157 302.365041 
L 189.14876 288.434072 
L 190.68595 299.048148 
L 192.22314 303.360121 
L 193.760331 310.325621 
L 195.297521 293.077728 
L 196.834711 308.003778 
L 198.371901 305.681965 
L 199.909091 302.365041 
L 201.446281 310.657305 
L 202.983471 314.637594 
L 204.520661 317.622804 
L 206.057851 314.637594 
L 207.595041 314.969278 
L 209.132231 314.969278 
L 210.669421 311.984068 
L 212.206612 314.637594 
L 213.743802 317.954488 
L 215.280992 321.934778 
L 216.818182 320.608014 
L 218.355372 318.617884 
L 219.892562 311.984068 
L 221.429752 314.637594 
L 222.966942 315.300961 
L 224.504132 322.598144 
L 226.041322 319.281251 
L 227.578512 321.934778 
L 229.115702 320.608014 
L 230.652893 328.568594 
L 232.190083 331.222091 
L 233.727273 327.905197 
L 235.264463 316.627724 
L 236.801653 325.251671 
L 238.338843 315.964358 
L 239.876033 321.271411 
L 241.413223 321.271411 
L 242.950413 327.241831 
L 244.487603 329.231961 
L 246.024793 321.934778 
L 247.561983 320.608014 
L 249.099174 320.608014 
L 250.636364 323.261541 
L 252.173554 320.608014 
L 253.710744 321.934778 
L 255.247934 327.905197 
L 256.785124 325.915067 
L 258.322314 326.578434 
L 259.859504 319.944648 
L 261.396694 321.934778 
L 262.933884 335.20238 
L 264.471074 325.915067 
L 266.008264 325.251671 
L 267.545455 321.271411 
L 269.082645 320.608014 
L 270.619835 313.310831 
L 272.157025 335.20238 
L 273.694215 325.251671 
L 276.768595 326.578434 
L 278.305785 326.578434 
L 279.842975 327.241831 
L 281.380165 318.617884 
L 282.917355 322.598144 
L 284.454545 317.954488 
L 285.991736 320.608014 
L 287.528926 322.598144 
L 289.066116 327.241831 
L 290.603306 327.241831 
L 292.140496 320.608014 
L 293.677686 335.865777 
L 295.214876 320.608014 
L 296.752066 338.519304 
L 298.289256 323.924907 
L 299.826446 332.548854 
L 301.363636 321.934778 
L 302.900826 319.281251 
L 304.438017 330.558724 
L 305.975207 318.617884 
L 307.512397 329.895357 
L 309.049587 333.21225 
L 310.586777 323.924907 
L 312.123967 327.905197 
L 313.661157 333.21225 
L 315.198347 326.578434 
L 316.735537 333.21225 
L 318.272727 330.558724 
L 319.809917 330.558724 
L 321.347107 333.21225 
L 322.884298 327.905197 
L 324.421488 334.539014 
L 325.958678 325.251671 
L 327.495868 331.885487 
L 329.033058 334.539014 
L 330.570248 326.578434 
L 332.107438 330.558724 
L 333.644628 331.885487 
L 335.181818 323.924907 
L 336.719008 317.291121 
L 338.256198 331.885487 
L 339.793388 321.271411 
L 341.330579 323.924907 
L 342.867769 329.231961 
L 344.404959 331.885487 
L 345.942149 321.271411 
L 347.479339 315.964358 
L 349.016529 338.519304 
L 350.553719 331.885487 
L 352.090909 329.231961 
L 353.628099 342.499564 
L 355.165289 318.617884 
L 356.702479 337.19254 
L 358.239669 330.558724 
L 361.31405 327.905197 
L 364.38843 327.905197 
L 365.92562 319.944648 
L 367.46281 329.231961 
L 369 337.19254 
L 370.53719 334.539014 
L 372.07438 326.578434 
L 373.61157 330.558724 
L 375.14876 335.865777 
L 376.68595 331.885487 
L 379.760331 329.231961 
L 382.834711 334.539014 
L 384.371901 333.21225 
L 385.909091 327.905197 
L 387.446281 330.558724 
L 388.983471 337.19254 
L 390.520661 339.846037 
L 392.057851 331.885487 
L 393.595041 318.617884 
L 395.132231 337.19254 
L 396.669421 330.558724 
L 398.206612 330.558724 
L 399.743802 331.885487 
L 401.280992 330.558724 
L 402.818182 333.21225 
L 404.355372 333.21225 
L 405.892562 331.885487 
L 407.429752 331.885487 
L 408.966942 335.865777 
L 412.041322 333.21225 
L 413.578512 338.519304 
L 415.115702 338.519304 
L 416.652893 331.885487 
L 418.190083 330.558724 
L 419.727273 337.19254 
L 421.264463 330.558724 
L 422.801653 321.271411 
L 424.338843 333.21225 
L 425.876033 333.21225 
L 427.413223 327.905197 
L 428.950413 339.846037 
L 430.487603 338.519304 
L 432.024793 322.598144 
L 433.561983 334.539014 
L 435.099174 338.519304 
L 436.636364 329.231961 
L 438.173554 334.539014 
L 441.247934 337.19254 
L 442.785124 330.558724 
L 444.322314 321.271411 
L 445.859504 337.19254 
L 447.396694 333.21225 
L 448.933884 331.885487 
L 450.471074 329.231961 
L 453.545455 342.499564 
L 455.082645 330.558724 
L 456.619835 342.499564 
L 458.157025 337.19254 
L 459.694215 343.826327 
L 461.231405 335.865777 
L 462.768595 325.251671 
L 464.305785 329.231961 
L 465.842975 325.251671 
L 467.380165 333.21225 
L 468.917355 327.905197 
L 470.454545 325.251671 
L 471.991736 334.539014 
L 473.528926 334.539014 
L 475.066116 337.19254 
L 476.603306 333.21225 
L 478.140496 342.499564 
L 479.677686 331.885487 
L 481.214876 341.1728 
L 482.752066 333.21225 
L 484.289256 346.479853 
L 485.826446 338.519304 
L 487.363636 327.905197 
L 488.900826 330.558724 
L 490.438017 338.519304 
L 491.975207 339.846037 
L 493.512397 337.19254 
L 495.049587 343.826327 
L 496.586777 337.19254 
L 498.123967 351.786907 
L 499.661157 331.885487 
L 501.198347 337.19254 
L 502.735537 327.905197 
L 504.272727 334.539014 
L 505.809917 329.231961 
L 507.347107 326.578434 
L 508.884298 331.885487 
L 510.421488 339.846037 
L 511.958678 339.846037 
L 513.495868 334.539014 
L 515.033058 337.19254 
L 516.570248 331.885487 
L 518.107438 334.539014 
L 519.644628 329.231961 
L 521.181818 334.539014 
L 522.719008 337.19254 
L 524.256198 329.231961 
L 527.330579 350.460143 
L 530.404959 345.15309 
L 531.942149 337.19254 
L 533.479339 345.15309 
L 535.016529 326.578434 
L 536.553719 334.539014 
L 538.090909 339.846037 
L 539.628099 334.539014 
L 541.165289 337.19254 
L 542.702479 334.539014 
L 544.239669 334.539014 
L 545.77686 337.19254 
L 547.31405 342.499564 
L 548.85124 337.19254 
L 550.38843 342.499564 
L 551.92562 331.885487 
L 553.46281 334.539014 
L 555 334.539014 
L 556.53719 331.885487 
L 558.07438 342.499564 
L 559.61157 347.806617 
L 561.14876 339.846037 
L 562.68595 353.11367 
L 564.22314 329.231961 
L 565.760331 329.231961 
L 567.297521 342.499564 
L 568.834711 339.846037 
L 570.371901 342.499564 
L 571.909091 350.460143 
L 573.446281 339.846037 
L 574.983471 337.19254 
L 576.520661 339.846037 
L 578.057851 337.19254 
L 579.595041 337.19254 
L 581.132231 339.846037 
L 582.669421 345.15309 
L 584.206612 342.499564 
L 585.743802 337.19254 
L 587.280992 342.499564 
L 588.818182 345.15309 
L 590.355372 350.460143 
L 591.892562 347.806617 
L 593.429752 339.846037 
L 594.966942 337.19254 
L 596.504132 347.806617 
L 598.041322 350.460143 
L 599.578512 345.15309 
L 601.115702 345.15309 
L 602.652893 353.11367 
L 604.190083 350.460143 
L 605.727273 358.420693 
L 607.264463 376.995349 
L 608.801653 408.83762 
L 611.876033 501.710883 
L 613.413223 594.584148 
L 614.537668 699.4 
L 614.537668 699.4 
" clip-path="url(#p1715a70abb)" style="fill: none; stroke-dasharray: 3.5,5.775; stroke-dashoffset: 0; stroke: #0000ff; stroke-width: 3.5"/>
   </g>
   <g id="line2d_32">
    <path d="M 115.363636 232.754589 
L 116.900826 255.347955 
L 118.438017 244.650943 
L 119.975207 254.643121 
L 123.049587 248.175176 
L 124.586777 262.769542 
L 127.661157 254.684589 
L 129.198347 255.762574 
L 130.735537 260.655008 
L 132.272727 261.81593 
L 133.809917 253.191984 
L 135.347107 267.869286 
L 136.884298 266.625428 
L 138.421488 257.503957 
L 139.958678 267.205889 
L 143.033058 261.898836 
L 144.570248 268.698494 
L 146.107438 276.493202 
L 147.644628 278.815045 
L 149.181818 270.688624 
L 150.719008 276.161519 
L 152.256198 277.985837 
L 153.793388 278.151679 
L 155.330579 281.800255 
L 156.867769 279.146729 
L 158.404959 272.512942 
L 159.942149 272.512942 
L 161.479339 280.971047 
L 163.016529 279.146729 
L 164.553719 288.102388 
L 166.090909 273.507992 
L 167.628099 277.488282 
L 172.239669 294.736175 
L 173.77686 286.443912 
L 175.31405 288.102388 
L 178.38843 278.483362 
L 179.92562 287.770675 
L 181.46281 294.736175 
L 183 288.102388 
L 184.53719 284.785465 
L 186.07438 299.048148 
L 187.61157 291.750965 
L 189.14876 286.443912 
L 190.68595 296.726335 
L 192.22314 287.107309 
L 193.760331 282.795335 
L 195.297521 298.053068 
L 196.834711 281.136889 
L 198.371901 299.711545 
L 199.909091 288.102388 
L 201.446281 291.419282 
L 202.983471 292.746045 
L 204.520661 297.058018 
L 206.057851 294.072808 
L 207.595041 282.795335 
L 209.132231 285.448862 
L 210.669421 289.429122 
L 212.206612 285.448862 
L 213.743802 289.429122 
L 216.818182 294.736175 
L 218.355372 295.399572 
L 219.892562 289.429122 
L 221.429752 302.696755 
L 222.966942 298.053068 
L 224.504132 300.043228 
L 226.041322 294.736175 
L 227.578512 292.746045 
L 229.115702 286.775625 
L 230.652893 295.399572 
L 232.190083 291.419282 
L 233.727273 296.062938 
L 235.264463 287.438992 
L 236.801653 280.805175 
L 238.338843 299.379832 
L 239.876033 288.102388 
L 241.413223 309.993938 
L 242.950413 291.419282 
L 244.487603 298.053068 
L 246.024793 293.409412 
L 247.561983 284.122099 
L 249.099174 294.072808 
L 250.636364 294.072808 
L 252.173554 292.746045 
L 253.710744 290.755885 
L 255.247934 293.409412 
L 256.785124 298.053068 
L 258.322314 282.795335 
L 259.859504 288.102388 
L 261.396694 290.092518 
L 262.933884 289.429122 
L 264.471074 306.677015 
L 266.008264 305.350281 
L 267.545455 290.755885 
L 269.082645 295.399572 
L 270.619835 295.399572 
L 272.157025 306.677015 
L 273.694215 300.706595 
L 275.231405 302.033358 
L 276.768595 298.716465 
L 278.305785 294.736175 
L 279.842975 297.389702 
L 281.380165 293.409412 
L 282.917355 290.755885 
L 284.454545 300.043228 
L 285.991736 298.716465 
L 287.528926 295.399572 
L 289.066116 300.043228 
L 290.603306 298.716465 
L 292.140496 301.369991 
L 293.677686 293.409412 
L 295.214876 306.013648 
L 296.752066 282.795335 
L 298.289256 293.409412 
L 299.826446 297.389702 
L 301.363636 296.726335 
L 302.900826 302.696755 
L 304.438017 288.102388 
L 305.975207 299.379832 
L 307.512397 292.082648 
L 309.049587 301.369991 
L 310.586777 285.448862 
L 312.123967 294.736175 
L 313.661157 306.677015 
L 315.198347 305.350281 
L 316.735537 309.330541 
L 318.272727 301.369991 
L 319.809917 302.696755 
L 321.347107 296.062938 
L 322.884298 300.043228 
L 324.421488 296.062938 
L 325.958678 296.062938 
L 327.495868 301.369991 
L 329.033058 293.409412 
L 330.570248 293.409412 
L 332.107438 301.369991 
L 333.644628 296.062938 
L 335.181818 301.369991 
L 336.719008 294.736175 
L 338.256198 296.062938 
L 339.793388 292.082648 
L 341.330579 298.716465 
L 342.867769 304.023518 
L 344.404959 298.716465 
L 345.942149 302.696755 
L 347.479339 302.696755 
L 349.016529 301.369991 
L 350.553719 304.023518 
L 352.090909 290.755885 
L 353.628099 308.003778 
L 355.165289 306.677015 
L 356.702479 302.696755 
L 358.239669 294.736175 
L 359.77686 294.736175 
L 361.31405 308.003778 
L 362.85124 290.755885 
L 364.38843 294.736175 
L 365.92562 306.677015 
L 367.46281 305.350281 
L 369 309.330541 
L 370.53719 305.350281 
L 372.07438 296.062938 
L 373.61157 302.696755 
L 375.14876 311.984068 
L 376.68595 308.003778 
L 378.22314 308.003778 
L 379.760331 309.330541 
L 381.297521 298.716465 
L 382.834711 301.369991 
L 384.371901 297.389702 
L 385.909091 306.677015 
L 387.446281 305.350281 
L 388.983471 301.369991 
L 390.520661 308.003778 
L 392.057851 288.102388 
L 393.595041 302.696755 
L 395.132231 304.023518 
L 396.669421 306.677015 
L 399.743802 304.023518 
L 401.280992 305.350281 
L 402.818182 296.062938 
L 404.355372 301.369991 
L 405.892562 294.736175 
L 407.429752 310.657305 
L 408.966942 314.637594 
L 410.504132 310.657305 
L 412.041322 302.696755 
L 413.578512 293.409412 
L 415.115702 310.657305 
L 416.652893 300.043228 
L 418.190083 305.350281 
L 419.727273 308.003778 
L 421.264463 306.677015 
L 422.801653 300.043228 
L 424.338843 304.023518 
L 425.876033 290.755885 
L 427.413223 306.677015 
L 428.950413 300.043228 
L 430.487603 309.330541 
L 432.024793 308.003778 
L 433.561983 309.330541 
L 435.099174 308.003778 
L 436.636364 308.003778 
L 438.173554 304.023518 
L 439.710744 306.677015 
L 442.785124 293.409412 
L 444.322314 306.677015 
L 445.859504 310.657305 
L 447.396694 305.350281 
L 448.933884 317.291121 
L 450.471074 308.003778 
L 452.008264 306.677015 
L 453.545455 308.003778 
L 455.082645 315.964358 
L 456.619835 308.003778 
L 458.157025 308.003778 
L 459.694215 301.369991 
L 461.231405 314.637594 
L 462.768595 304.023518 
L 464.305785 315.964358 
L 465.842975 304.023518 
L 467.380165 308.003778 
L 468.917355 304.023518 
L 470.454545 326.578434 
L 471.991736 298.716465 
L 473.528926 304.023518 
L 475.066116 310.657305 
L 476.603306 308.003778 
L 478.140496 318.617884 
L 479.677686 308.003778 
L 481.214876 308.003778 
L 482.752066 302.696755 
L 484.289256 301.369991 
L 485.826446 309.330541 
L 487.363636 318.617884 
L 488.900826 314.637594 
L 490.438017 296.062938 
L 491.975207 301.369991 
L 493.512397 301.369991 
L 495.049587 302.696755 
L 496.586777 311.984068 
L 498.123967 305.350281 
L 499.661157 304.023518 
L 501.198347 311.984068 
L 502.735537 298.716465 
L 504.272727 310.657305 
L 505.809917 323.924907 
L 507.347107 302.696755 
L 508.884298 313.310831 
L 510.421488 310.657305 
L 511.958678 313.310831 
L 513.495868 308.003778 
L 515.033058 310.657305 
L 516.570248 302.696755 
L 518.107438 310.657305 
L 519.644628 315.964358 
L 521.181818 305.350281 
L 522.719008 315.964358 
L 524.256198 302.696755 
L 525.793388 310.657305 
L 527.330579 329.231961 
L 528.867769 313.310831 
L 530.404959 313.310831 
L 531.942149 315.964358 
L 533.479339 310.657305 
L 535.016529 302.696755 
L 536.553719 302.696755 
L 538.090909 310.657305 
L 539.628099 308.003778 
L 541.165289 313.310831 
L 542.702479 308.003778 
L 544.239669 313.310831 
L 545.77686 308.003778 
L 548.85124 308.003778 
L 550.38843 315.964358 
L 551.92562 313.310831 
L 553.46281 302.696755 
L 555 315.964358 
L 556.53719 313.310831 
L 559.61157 313.310831 
L 561.14876 302.696755 
L 562.68595 305.350281 
L 564.22314 321.271411 
L 565.760331 300.043228 
L 567.297521 302.696755 
L 570.371901 313.310831 
L 571.909091 313.310831 
L 573.446281 318.617884 
L 574.983471 308.003778 
L 576.520661 308.003778 
L 578.057851 313.310831 
L 579.595041 313.310831 
L 581.132231 305.350281 
L 582.669421 318.617884 
L 584.206612 326.578434 
L 585.743802 318.617884 
L 587.280992 308.003778 
L 588.818182 315.964358 
L 590.355372 326.578434 
L 591.892562 305.350281 
L 593.429752 318.617884 
L 594.966942 308.003778 
L 596.504132 315.964358 
L 598.041322 313.310831 
L 599.578512 318.617884 
L 601.115702 321.271411 
L 602.652893 315.964358 
L 604.190083 321.271411 
L 605.727273 353.11367 
L 607.264463 350.460143 
L 608.801653 379.648876 
L 610.338843 419.451706 
L 611.876033 472.522144 
L 613.413223 554.781322 
L 614.936457 699.4 
L 614.936457 699.4 
" clip-path="url(#p1715a70abb)" style="fill: none; stroke: #ff0000; stroke-width: 3.5; stroke-linecap: square"/>
   </g>
   <g id="line2d_33">
    <path d="M 115.363636 170.371619 
L 116.900826 181.505418 
L 118.438017 187.579508 
L 119.975207 192.264632 
L 121.512397 191.20738 
L 123.049587 202.733601 
L 124.586777 208.247963 
L 126.123967 211.274611 
L 127.661157 207.750408 
L 129.198347 216.374355 
L 130.735537 225.661698 
L 132.272727 231.300434 
L 133.809917 219.85712 
L 135.347107 236.773299 
L 136.884298 232.793039 
L 138.421488 230.802879 
L 139.958678 242.660813 
L 141.495868 251.616443 
L 143.033058 250.123838 
L 144.570248 253.27489 
L 146.107438 262.562233 
L 147.644628 254.104128 
L 149.181818 261.235469 
L 150.719008 258.084418 
L 152.256198 272.844626 
L 153.793388 278.649204 
L 155.330579 270.191099 
L 156.867769 273.010467 
L 158.404959 271.186179 
L 161.479339 277.322441 
L 163.016529 267.371731 
L 164.553719 282.795335 
L 166.090909 269.527732 
L 167.628099 288.434072 
L 169.165289 277.488282 
L 170.702479 281.468572 
L 172.239669 283.127019 
L 173.77686 282.795335 
L 175.31405 290.755885 
L 176.85124 285.117149 
L 178.38843 295.399572 
L 179.92562 290.755885 
L 181.46281 281.468572 
L 183 298.053068 
L 186.07438 294.736175 
L 187.61157 294.072808 
L 189.14876 301.369991 
L 190.68595 288.102388 
L 192.22314 301.701675 
L 193.760331 307.008728 
L 195.297521 309.662254 
L 196.834711 302.365041 
L 198.371901 299.711545 
L 199.909091 295.399572 
L 201.446281 302.365041 
L 202.983471 302.033358 
L 204.520661 312.979148 
L 206.057851 303.360121 
L 207.595041 303.360121 
L 209.132231 304.355201 
L 210.669421 304.686885 
L 212.206612 306.013648 
L 213.743802 298.053068 
L 215.280992 312.647464 
L 216.818182 302.033358 
L 218.355372 306.013648 
L 219.892562 311.320701 
L 221.429752 308.667175 
L 222.966942 302.696755 
L 224.504132 311.984068 
L 226.041322 310.657305 
L 227.578512 290.092518 
L 229.115702 304.686885 
L 230.652893 307.340411 
L 232.190083 315.964358 
L 233.727273 319.281251 
L 235.264463 309.330541 
L 236.801653 308.667175 
L 238.338843 317.291121 
L 239.876033 301.369991 
L 241.413223 301.369991 
L 242.950413 308.003778 
L 244.487603 310.657305 
L 246.024793 308.667175 
L 247.561983 308.003778 
L 249.099174 302.696755 
L 250.636364 306.677015 
L 252.173554 315.964358 
L 253.710744 304.686885 
L 255.247934 302.033358 
L 256.785124 315.964358 
L 258.322314 317.954488 
L 259.859504 309.993938 
L 261.396694 304.023518 
L 262.933884 300.706595 
L 264.471074 305.350281 
L 267.545455 308.003778 
L 269.082645 307.340411 
L 270.619835 314.637594 
L 272.157025 313.974228 
L 273.694215 308.003778 
L 275.231405 315.300961 
L 276.768595 315.300961 
L 278.305785 314.637594 
L 279.842975 314.637594 
L 281.380165 322.598144 
L 282.917355 310.657305 
L 284.454545 313.310831 
L 285.991736 302.696755 
L 287.528926 310.657305 
L 289.066116 317.954488 
L 290.603306 320.608014 
L 292.140496 318.617884 
L 293.677686 311.320701 
L 295.214876 318.617884 
L 296.752066 311.984068 
L 298.289256 312.647464 
L 299.826446 304.023518 
L 301.363636 306.677015 
L 302.900826 306.677015 
L 304.438017 311.320701 
L 305.975207 318.617884 
L 307.512397 311.320701 
L 309.049587 325.251671 
L 310.586777 315.964358 
L 312.123967 308.003778 
L 313.661157 323.924907 
L 315.198347 314.637594 
L 316.735537 311.984068 
L 318.272727 305.350281 
L 319.809917 318.617884 
L 321.347107 306.677015 
L 322.884298 314.637594 
L 324.421488 317.291121 
L 325.958678 304.023518 
L 327.495868 319.944648 
L 330.570248 306.677015 
L 332.107438 318.617884 
L 333.644628 311.984068 
L 335.181818 321.271411 
L 336.719008 314.637594 
L 338.256198 317.291121 
L 339.793388 321.271411 
L 341.330579 317.291121 
L 342.867769 321.271411 
L 344.404959 327.905197 
L 345.942149 317.291121 
L 347.479339 314.637594 
L 349.016529 305.350281 
L 350.553719 318.617884 
L 352.090909 315.964358 
L 353.628099 317.291121 
L 355.165289 321.271411 
L 356.702479 314.637594 
L 358.239669 325.251671 
L 359.77686 315.964358 
L 361.31405 313.310831 
L 362.85124 322.598144 
L 364.38843 318.617884 
L 365.92562 319.944648 
L 367.46281 310.657305 
L 369 309.330541 
L 370.53719 313.310831 
L 372.07438 323.924907 
L 373.61157 327.905197 
L 375.14876 325.251671 
L 376.68595 321.271411 
L 378.22314 326.578434 
L 379.760331 318.617884 
L 381.297521 314.637594 
L 382.834711 318.617884 
L 384.371901 309.330541 
L 385.909091 321.271411 
L 387.446281 305.350281 
L 388.983471 309.330541 
L 390.520661 314.637594 
L 392.057851 317.291121 
L 395.132231 314.637594 
L 396.669421 323.924907 
L 398.206612 330.558724 
L 399.743802 310.657305 
L 401.280992 325.251671 
L 402.818182 321.271411 
L 404.355372 319.944648 
L 405.892562 321.271411 
L 407.429752 326.578434 
L 408.966942 325.251671 
L 410.504132 327.905197 
L 412.041322 329.231961 
L 413.578512 323.924907 
L 415.115702 325.251671 
L 416.652893 310.657305 
L 418.190083 319.944648 
L 419.727273 318.617884 
L 421.264463 314.637594 
L 422.801653 335.865777 
L 424.338843 314.637594 
L 425.876033 323.924907 
L 427.413223 318.617884 
L 428.950413 322.598144 
L 430.487603 323.924907 
L 432.024793 308.003778 
L 433.561983 319.944648 
L 435.099174 329.231961 
L 436.636364 322.598144 
L 438.173554 322.598144 
L 439.710744 327.905197 
L 441.247934 321.271411 
L 442.785124 319.944648 
L 444.322314 317.291121 
L 445.859504 329.231961 
L 447.396694 308.003778 
L 448.933884 318.617884 
L 450.471074 319.944648 
L 452.008264 314.637594 
L 453.545455 321.271411 
L 455.082645 322.598144 
L 456.619835 317.291121 
L 458.157025 322.598144 
L 459.694215 313.310831 
L 461.231405 325.251671 
L 462.768595 314.637594 
L 464.305785 322.598144 
L 465.842975 329.231961 
L 467.380165 325.251671 
L 468.917355 325.251671 
L 470.454545 331.885487 
L 471.991736 333.21225 
L 473.528926 321.271411 
L 475.066116 310.657305 
L 476.603306 322.598144 
L 478.140496 318.617884 
L 479.677686 318.617884 
L 481.214876 334.539014 
L 482.752066 317.291121 
L 484.289256 325.251671 
L 485.826446 327.905197 
L 487.363636 321.271411 
L 488.900826 318.617884 
L 490.438017 321.271411 
L 491.975207 322.598144 
L 493.512397 333.21225 
L 495.049587 329.231961 
L 496.586777 333.21225 
L 498.123967 323.924907 
L 499.661157 317.291121 
L 501.198347 326.578434 
L 502.735537 325.251671 
L 504.272727 326.578434 
L 505.809917 313.310831 
L 507.347107 315.964358 
L 508.884298 329.231961 
L 510.421488 334.539014 
L 511.958678 326.578434 
L 515.033058 321.271411 
L 516.570248 323.924907 
L 518.107438 318.617884 
L 519.644628 318.617884 
L 521.181818 315.964358 
L 522.719008 329.231961 
L 524.256198 323.924907 
L 525.793388 331.885487 
L 527.330579 310.657305 
L 528.867769 331.885487 
L 531.942149 326.578434 
L 533.479339 326.578434 
L 535.016529 329.231961 
L 536.553719 318.617884 
L 541.165289 318.617884 
L 542.702479 323.924907 
L 544.239669 323.924907 
L 545.77686 329.231961 
L 547.31405 308.003778 
L 548.85124 323.924907 
L 550.38843 326.578434 
L 551.92562 318.617884 
L 553.46281 321.271411 
L 555 326.578434 
L 556.53719 318.617884 
L 558.07438 334.539014 
L 559.61157 321.271411 
L 561.14876 326.578434 
L 562.68595 323.924907 
L 564.22314 326.578434 
L 567.297521 326.578434 
L 568.834711 337.19254 
L 570.371901 334.539014 
L 571.909091 323.924907 
L 573.446281 326.578434 
L 574.983471 331.885487 
L 576.520661 323.924907 
L 578.057851 313.310831 
L 579.595041 321.271411 
L 581.132231 321.271411 
L 582.669421 326.578434 
L 584.206612 345.15309 
L 585.743802 329.231961 
L 587.280992 334.539014 
L 588.818182 337.19254 
L 590.355372 326.578434 
L 591.892562 326.578434 
L 593.429752 329.231961 
L 594.966942 323.924907 
L 596.504132 321.271411 
L 598.041322 329.231961 
L 599.578512 334.539014 
L 601.115702 331.885487 
L 602.652893 337.19254 
L 604.190083 334.539014 
L 605.727273 353.11367 
L 607.264463 366.381273 
L 608.801653 390.262967 
L 610.338843 430.065794 
L 611.876033 493.750318 
L 613.413223 583.97006 
L 614.777892 699.4 
L 614.777892 699.4 
" clip-path="url(#p1715a70abb)" style="fill: none; stroke: #bf00bf; stroke-width: 3.5; stroke-linecap: square"/>
   </g>
   <g id="line2d_34">
    <path d="M 115.363636 249.368364 
L 116.900826 257.452122 
L 118.438017 243.137604 
L 119.975207 254.498013 
L 121.512397 255.472359 
L 123.049587 260.281857 
L 124.586777 250.704299 
L 126.123967 250.040932 
L 127.661157 257.503957 
L 129.198347 249.87509 
L 130.735537 261.567153 
L 132.272727 265.298665 
L 133.809917 273.010467 
L 135.347107 252.445681 
L 136.884298 250.455521 
L 138.421488 250.040932 
L 139.958678 252.27984 
L 141.495868 260.737944 
L 143.033058 262.230549 
L 144.570248 259.577023 
L 146.107438 280.473492 
L 147.644628 261.235469 
L 149.181818 256.094258 
L 150.719008 268.698494 
L 152.256198 268.366811 
L 153.793388 272.347101 
L 155.330579 268.035127 
L 156.867769 265.381601 
L 158.404959 265.215759 
L 159.942149 259.079468 
L 161.479339 267.040047 
L 163.016529 268.366811 
L 164.553719 270.854496 
L 166.090909 271.186179 
L 167.628099 266.210809 
L 169.165289 268.864336 
L 170.702479 272.512942 
L 173.77686 271.186179 
L 176.85124 275.166469 
L 178.38843 272.181259 
L 179.92562 274.171389 
L 181.46281 281.136889 
L 183 281.136889 
L 184.53719 277.488282 
L 186.07438 275.829836 
L 187.61157 270.854496 
L 189.14876 273.176309 
L 190.68595 267.869286 
L 192.22314 272.181259 
L 193.760331 283.458702 
L 195.297521 272.844626 
L 196.834711 283.458702 
L 198.371901 270.191099 
L 199.909091 284.453782 
L 201.446281 278.151679 
L 202.983471 269.527732 
L 204.520661 282.795335 
L 206.057851 271.517862 
L 207.595041 272.181259 
L 209.132231 280.805175 
L 210.669421 285.448862 
L 213.743802 280.141809 
L 215.280992 280.141809 
L 216.818182 284.122099 
L 218.355372 277.488282 
L 219.892562 280.141809 
L 221.429752 284.785465 
L 222.966942 285.448862 
L 224.504132 279.478442 
L 226.041322 274.171389 
L 227.578512 293.409412 
L 229.115702 282.795335 
L 230.652893 278.151679 
L 232.190083 282.795335 
L 233.727273 277.488282 
L 235.264463 280.805175 
L 236.801653 275.498152 
L 238.338843 285.448862 
L 239.876033 289.429122 
L 241.413223 282.131939 
L 242.950413 288.102388 
L 244.487603 284.785465 
L 246.024793 273.507992 
L 247.561983 290.755885 
L 249.099174 292.082648 
L 250.636364 286.112229 
L 252.173554 282.131939 
L 253.710744 282.795335 
L 255.247934 294.736175 
L 256.785124 294.072808 
L 258.322314 282.795335 
L 259.859504 289.429122 
L 261.396694 280.805175 
L 262.933884 276.161519 
L 264.471074 284.785465 
L 266.008264 286.775625 
L 267.545455 283.458702 
L 269.082645 289.429122 
L 270.619835 282.795335 
L 272.157025 280.141809 
L 273.694215 288.102388 
L 275.231405 292.082648 
L 276.768595 284.785465 
L 278.305785 285.448862 
L 279.842975 289.429122 
L 281.380165 290.092518 
L 282.917355 287.438992 
L 284.454545 280.805175 
L 285.991736 284.785465 
L 287.528926 299.379832 
L 289.066116 288.102388 
L 290.603306 278.815045 
L 292.140496 292.082648 
L 293.677686 290.755885 
L 295.214876 290.092518 
L 296.752066 293.409412 
L 298.289256 276.824915 
L 299.826446 288.102388 
L 301.363636 270.854496 
L 302.900826 290.092518 
L 304.438017 293.409412 
L 305.975207 291.419282 
L 307.512397 284.785465 
L 309.049587 282.795335 
L 310.586777 288.102388 
L 312.123967 277.488282 
L 313.661157 284.122099 
L 315.198347 280.141809 
L 316.735537 289.429122 
L 318.272727 284.122099 
L 319.809917 286.775625 
L 321.347107 282.795335 
L 322.884298 292.082648 
L 324.421488 294.736175 
L 325.958678 293.409412 
L 327.495868 289.429122 
L 329.033058 284.122099 
L 330.570248 286.775625 
L 332.107438 284.122099 
L 333.644628 286.775625 
L 335.181818 276.161519 
L 336.719008 285.448862 
L 338.256198 289.429122 
L 339.793388 277.488282 
L 341.330579 292.082648 
L 342.867769 297.389702 
L 344.404959 284.122099 
L 345.942149 300.043228 
L 347.479339 302.696755 
L 349.016529 294.736175 
L 350.553719 289.429122 
L 352.090909 290.755885 
L 353.628099 277.488282 
L 355.165289 298.716465 
L 356.702479 296.062938 
L 358.239669 284.122099 
L 359.77686 294.736175 
L 361.31405 286.775625 
L 362.85124 293.409412 
L 364.38843 292.082648 
L 365.92562 285.448862 
L 367.46281 281.468572 
L 369 294.736175 
L 370.53719 294.736175 
L 372.07438 293.409412 
L 373.61157 286.775625 
L 375.14876 297.389702 
L 376.68595 285.448862 
L 378.22314 294.736175 
L 379.760331 288.102388 
L 381.297521 297.389702 
L 382.834711 301.369991 
L 384.371901 286.775625 
L 385.909091 285.448862 
L 387.446281 302.696755 
L 388.983471 289.429122 
L 390.520661 304.023518 
L 392.057851 284.122099 
L 393.595041 280.141809 
L 395.132231 293.409412 
L 396.669421 284.122099 
L 398.206612 294.736175 
L 399.743802 298.716465 
L 401.280992 288.102388 
L 402.818182 298.716465 
L 404.355372 292.082648 
L 405.892562 298.716465 
L 407.429752 297.389702 
L 408.966942 300.043228 
L 410.504132 293.409412 
L 412.041322 292.082648 
L 413.578512 301.369991 
L 415.115702 292.082648 
L 416.652893 298.716465 
L 418.190083 281.468572 
L 419.727273 305.350281 
L 421.264463 288.102388 
L 422.801653 285.448862 
L 424.338843 297.389702 
L 425.876033 292.082648 
L 427.413223 293.409412 
L 428.950413 286.775625 
L 430.487603 292.082648 
L 432.024793 289.429122 
L 433.561983 294.736175 
L 435.099174 298.716465 
L 436.636364 297.389702 
L 438.173554 298.716465 
L 439.710744 293.409412 
L 441.247934 282.795335 
L 442.785124 301.369991 
L 444.322314 300.043228 
L 445.859504 290.755885 
L 447.396694 288.102388 
L 450.471074 304.023518 
L 452.008264 296.062938 
L 453.545455 300.043228 
L 455.082645 297.389702 
L 456.619835 302.696755 
L 458.157025 290.755885 
L 459.694215 288.102388 
L 461.231405 282.795335 
L 462.768595 297.389702 
L 464.305785 301.369991 
L 465.842975 293.409412 
L 467.380165 294.736175 
L 468.917355 285.448862 
L 470.454545 297.389702 
L 471.991736 282.795335 
L 473.528926 302.696755 
L 475.066116 304.023518 
L 476.603306 284.122099 
L 478.140496 304.023518 
L 479.677686 290.755885 
L 481.214876 282.795335 
L 482.752066 306.677015 
L 484.289256 293.409412 
L 485.826446 294.736175 
L 487.363636 297.389702 
L 488.900826 290.755885 
L 490.438017 292.082648 
L 491.975207 296.062938 
L 493.512397 298.716465 
L 495.049587 293.409412 
L 496.586777 285.448862 
L 498.123967 308.003778 
L 499.661157 302.696755 
L 501.198347 289.429122 
L 502.735537 306.677015 
L 504.272727 297.389702 
L 505.809917 302.696755 
L 507.347107 305.350281 
L 510.421488 294.736175 
L 511.958678 308.003778 
L 515.033058 302.696755 
L 516.570248 284.122099 
L 519.644628 294.736175 
L 521.181818 305.350281 
L 522.719008 308.003778 
L 524.256198 300.043228 
L 525.793388 300.043228 
L 527.330579 305.350281 
L 528.867769 300.043228 
L 530.404959 300.043228 
L 531.942149 294.736175 
L 533.479339 300.043228 
L 535.016529 294.736175 
L 536.553719 297.389702 
L 538.090909 281.468572 
L 539.628099 305.350281 
L 541.165289 297.389702 
L 542.702479 300.043228 
L 544.239669 297.389702 
L 545.77686 297.389702 
L 547.31405 308.003778 
L 548.85124 300.043228 
L 550.38843 302.696755 
L 551.92562 297.389702 
L 553.46281 302.696755 
L 555 294.736175 
L 558.07438 294.736175 
L 559.61157 308.003778 
L 561.14876 302.696755 
L 562.68595 294.736175 
L 564.22314 294.736175 
L 565.760331 308.003778 
L 567.297521 300.043228 
L 568.834711 294.736175 
L 570.371901 300.043228 
L 571.909091 300.043228 
L 573.446281 294.736175 
L 574.983471 286.775625 
L 576.520661 308.003778 
L 578.057851 300.043228 
L 579.595041 297.389702 
L 581.132231 297.389702 
L 582.669421 302.696755 
L 584.206612 305.350281 
L 585.743802 292.082648 
L 587.280992 313.310831 
L 588.818182 300.043228 
L 590.355372 308.003778 
L 591.892562 300.043228 
L 593.429752 305.350281 
L 594.966942 302.696755 
L 596.504132 302.696755 
L 598.041322 297.389702 
L 599.578512 308.003778 
L 601.115702 302.696755 
L 602.652893 315.964358 
L 604.190083 318.617884 
L 607.264463 329.231961 
L 608.801653 361.07422 
L 610.338843 395.570011 
L 611.876033 464.561577 
L 613.413223 554.781322 
L 615.000992 699.4 
L 615.000992 699.4 
" clip-path="url(#p1715a70abb)" style="fill: none; stroke: #008000; stroke-width: 3.5; stroke-linecap: square"/>
   </g>
   <g id="line2d_35">
    <path d="M 115.363636 230.02927 
L 116.900826 234.783169 
L 118.438017 230.243153 
L 119.975207 236.047731 
L 121.512397 232.668636 
L 123.049587 235.197788 
L 124.586777 245.272872 
L 126.123967 247.470311 
L 127.661157 254.767495 
L 129.198347 238.34884 
L 130.735537 242.494972 
L 132.272727 247.055722 
L 133.809917 255.596733 
L 135.347107 254.187064 
L 136.884298 258.499037 
L 138.421488 252.611523 
L 139.958678 256.923496 
L 141.495868 266.376651 
L 143.033058 260.737944 
L 144.570248 270.356941 
L 146.107438 283.127019 
L 147.644628 264.220679 
L 149.181818 279.478442 
L 150.719008 280.141809 
L 152.256198 281.966097 
L 153.793388 273.673864 
L 155.330579 282.29781 
L 156.867769 275.995677 
L 158.404959 287.770675 
L 161.479339 281.800255 
L 163.016529 289.760835 
L 164.553719 280.473492 
L 166.090909 288.102388 
L 167.628099 289.429122 
L 169.165289 280.141809 
L 170.702479 284.122099 
L 172.239669 287.438992 
L 173.77686 289.429122 
L 175.31405 289.429122 
L 176.85124 290.092518 
L 178.38843 286.443912 
L 179.92562 283.127019 
L 183 294.404492 
L 184.53719 293.409412 
L 186.07438 301.701675 
L 187.61157 289.097439 
L 189.14876 294.072808 
L 190.68595 296.726335 
L 192.22314 286.443912 
L 193.760331 294.072808 
L 195.297521 297.389702 
L 196.834711 299.048148 
L 198.371901 303.028438 
L 199.909091 303.691805 
L 201.446281 292.414362 
L 202.983471 304.355201 
L 204.520661 311.320701 
L 206.057851 296.726335 
L 207.595041 297.389702 
L 209.132231 301.701675 
L 210.669421 293.077728 
L 212.206612 293.409412 
L 213.743802 293.409412 
L 215.280992 301.369991 
L 216.818182 302.033358 
L 218.355372 298.053068 
L 219.892562 292.746045 
L 221.429752 298.053068 
L 222.966942 302.033358 
L 224.504132 310.657305 
L 226.041322 293.409412 
L 227.578512 304.023518 
L 229.115702 309.993938 
L 230.652893 304.023518 
L 232.190083 294.072808 
L 233.727273 306.013648 
L 235.264463 296.726335 
L 236.801653 298.053068 
L 238.338843 306.013648 
L 239.876033 299.379832 
L 241.413223 306.013648 
L 242.950413 302.696755 
L 244.487603 302.033358 
L 246.024793 302.033358 
L 247.561983 306.677015 
L 249.099174 304.023518 
L 250.636364 314.637594 
L 252.173554 304.686885 
L 253.710744 302.696755 
L 255.247934 310.657305 
L 256.785124 300.706595 
L 258.322314 311.320701 
L 259.859504 304.686885 
L 261.396694 305.350281 
L 262.933884 298.053068 
L 264.471074 301.369991 
L 266.008264 298.716465 
L 267.545455 311.984068 
L 269.082645 306.013648 
L 270.619835 298.716465 
L 272.157025 306.013648 
L 273.694215 298.053068 
L 275.231405 304.686885 
L 276.768595 308.003778 
L 278.305785 300.706595 
L 279.842975 308.003778 
L 281.380165 301.369991 
L 282.917355 295.399572 
L 284.454545 307.340411 
L 285.991736 309.993938 
L 287.528926 301.369991 
L 289.066116 300.706595 
L 290.603306 309.993938 
L 292.140496 302.696755 
L 293.677686 316.627724 
L 295.214876 311.320701 
L 296.752066 313.974228 
L 299.826446 317.954488 
L 301.363636 300.706595 
L 302.900826 298.053068 
L 304.438017 312.647464 
L 305.975207 306.677015 
L 307.512397 304.686885 
L 309.049587 305.350281 
L 310.586777 308.003778 
L 312.123967 304.023518 
L 313.661157 311.984068 
L 316.735537 309.330541 
L 318.272727 314.637594 
L 319.809917 298.716465 
L 321.347107 306.677015 
L 322.884298 310.657305 
L 324.421488 317.291121 
L 325.958678 302.696755 
L 327.495868 308.003778 
L 329.033058 298.716465 
L 330.570248 302.696755 
L 333.644628 308.003778 
L 335.181818 305.350281 
L 336.719008 300.043228 
L 338.256198 302.696755 
L 339.793388 311.984068 
L 341.330579 319.944648 
L 342.867769 309.330541 
L 344.404959 308.003778 
L 345.942149 305.350281 
L 347.479339 300.043228 
L 350.553719 310.657305 
L 352.090909 311.984068 
L 353.628099 305.350281 
L 355.165289 308.003778 
L 356.702479 305.350281 
L 358.239669 309.330541 
L 359.77686 309.330541 
L 361.31405 313.310831 
L 362.85124 306.677015 
L 364.38843 309.330541 
L 365.92562 315.964358 
L 367.46281 314.637594 
L 369 310.657305 
L 370.53719 313.310831 
L 372.07438 301.369991 
L 373.61157 311.984068 
L 375.14876 321.271411 
L 376.68595 310.657305 
L 378.22314 306.677015 
L 379.760331 319.944648 
L 381.297521 302.696755 
L 382.834711 315.964358 
L 384.371901 311.984068 
L 385.909091 309.330541 
L 387.446281 310.657305 
L 388.983471 308.003778 
L 390.520661 308.003778 
L 392.057851 318.617884 
L 393.595041 317.291121 
L 395.132231 314.637594 
L 396.669421 306.677015 
L 398.206612 311.984068 
L 399.743802 327.905197 
L 401.280992 305.350281 
L 402.818182 300.043228 
L 404.355372 305.350281 
L 405.892562 315.964358 
L 407.429752 314.637594 
L 408.966942 305.350281 
L 410.504132 325.251671 
L 412.041322 315.964358 
L 413.578512 322.598144 
L 415.115702 311.984068 
L 416.652893 305.350281 
L 418.190083 304.023518 
L 419.727273 305.350281 
L 421.264463 300.043228 
L 422.801653 314.637594 
L 424.338843 319.944648 
L 425.876033 309.330541 
L 428.950413 304.023518 
L 430.487603 323.924907 
L 432.024793 317.291121 
L 433.561983 318.617884 
L 435.099174 313.310831 
L 436.636364 310.657305 
L 438.173554 315.964358 
L 439.710744 310.657305 
L 441.247934 311.984068 
L 442.785124 319.944648 
L 444.322314 317.291121 
L 445.859504 308.003778 
L 447.396694 318.617884 
L 448.933884 321.271411 
L 452.008264 308.003778 
L 453.545455 314.637594 
L 455.082645 305.350281 
L 456.619835 308.003778 
L 458.157025 314.637594 
L 459.694215 318.617884 
L 462.768595 315.964358 
L 464.305785 322.598144 
L 465.842975 311.984068 
L 467.380165 314.637594 
L 468.917355 313.310831 
L 470.454545 317.291121 
L 471.991736 315.964358 
L 475.066116 318.617884 
L 476.603306 308.003778 
L 478.140496 310.657305 
L 479.677686 325.251671 
L 481.214876 309.330541 
L 482.752066 318.617884 
L 485.826446 323.924907 
L 487.363636 314.637594 
L 488.900826 319.944648 
L 490.438017 313.310831 
L 491.975207 310.657305 
L 493.512397 314.637594 
L 495.049587 314.637594 
L 496.586777 322.598144 
L 498.123967 311.984068 
L 499.661157 318.617884 
L 501.198347 300.043228 
L 502.735537 309.330541 
L 504.272727 305.350281 
L 505.809917 323.924907 
L 507.347107 315.964358 
L 508.884298 326.578434 
L 510.421488 310.657305 
L 513.495868 315.964358 
L 515.033058 321.271411 
L 516.570248 313.310831 
L 518.107438 326.578434 
L 519.644628 313.310831 
L 521.181818 315.964358 
L 522.719008 310.657305 
L 524.256198 315.964358 
L 525.793388 318.617884 
L 527.330579 329.231961 
L 530.404959 313.310831 
L 531.942149 313.310831 
L 533.479339 321.271411 
L 535.016529 321.271411 
L 538.090909 315.964358 
L 539.628099 321.271411 
L 541.165289 318.617884 
L 542.702479 318.617884 
L 544.239669 313.310831 
L 545.77686 310.657305 
L 547.31405 318.617884 
L 548.85124 323.924907 
L 550.38843 318.617884 
L 551.92562 318.617884 
L 553.46281 331.885487 
L 555 313.310831 
L 556.53719 302.696755 
L 558.07438 310.657305 
L 559.61157 321.271411 
L 561.14876 313.310831 
L 562.68595 310.657305 
L 564.22314 315.964358 
L 565.760331 323.924907 
L 567.297521 321.271411 
L 568.834711 315.964358 
L 570.371901 315.964358 
L 571.909091 313.310831 
L 573.446281 329.231961 
L 574.983471 318.617884 
L 576.520661 310.657305 
L 579.595041 315.964358 
L 581.132231 310.657305 
L 582.669421 318.617884 
L 584.206612 323.924907 
L 587.280992 318.617884 
L 588.818182 326.578434 
L 590.355372 318.617884 
L 593.429752 318.617884 
L 594.966942 315.964358 
L 596.504132 334.539014 
L 598.041322 315.964358 
L 599.578512 318.617884 
L 601.115702 326.578434 
L 605.727273 334.539014 
L 607.264463 363.727746 
L 608.801653 384.955923 
L 610.338843 411.491141 
L 613.413223 562.741886 
L 614.85261 699.4 
L 614.85261 699.4 
" clip-path="url(#p1715a70abb)" style="fill: none; stroke-dasharray: 12.95,5.6; stroke-dashoffset: 0; stroke: #000000; stroke-width: 3.5"/>
   </g>
   <g id="patch_3">
    <path d="M 90 621.576 
L 90 83.808 
" style="fill: none; stroke: #000000; stroke-width: 0.8; stroke-linejoin: miter; stroke-linecap: square"/>
   </g>
   <g id="patch_4">
    <path d="M 648 621.576 
L 648 83.808 
" style="fill: none; stroke: #000000; stroke-width: 0.8; stroke-linejoin: miter; stroke-linecap: square"/>
   </g>
   <g id="patch_5">
    <path d="M 90 621.576 
L 648 621.576 
" style="fill: none; stroke: #000000; stroke-width: 0.8; stroke-linejoin: miter; stroke-linecap: square"/>
   </g>
   <g id="patch_6">
    <path d="M 90 83.808 
L 648 83.808 
" style="fill: none; stroke: #000000; stroke-width: 0.8; stroke-linejoin: miter; stroke-linecap: square"/>
   </g>
   <g id="legend_1">
    <g id="patch_7">
     <path d="M 565.285 214.033 
L 636.8 214.033 
Q 640 214.033 640 210.833 
L 640 95.008 
Q 640 91.808 636.8 91.808 
L 565.285 91.808 
Q 562.085 91.808 562.085 95.008 
L 562.085 210.833 
Q 562.085 214.033 565.285 214.033 
z
" style="fill: #ffffff; opacity: 0.8; stroke: #cccccc; stroke-linejoin: miter"/>
    </g>
    <g id="line2d_36">
     <path d="M 568.485 104.7655 
L 584.485 104.7655 
L 600.485 104.7655 
" style="fill: none; stroke-dasharray: 3.5,5.775; stroke-dashoffset: 0; stroke: #0000ff; stroke-width: 3.5"/>
    </g>
    <g id="text_18">
     <!-- FF -->
     <g transform="translate(613.285 110.3655) scale(0.16 -0.16)">
      <defs>
       <path id="DejaVuSans-46" d="M 628 4666 
L 3309 4666 
L 3309 4134 
L 1259 4134 
L 1259 2759 
L 3109 2759 
L 3109 2228 
L 1259 2228 
L 1259 0 
L 628 0 
L 628 4666 
z
" transform="scale(0.015625)"/>
      </defs>
      <use xlink:href="#DejaVuSans-46"/>
      <use xlink:href="#DejaVuSans-46" x="57.519531"/>
     </g>
    </g>
    <g id="line2d_37">
     <path d="M 568.485 128.2505 
L 584.485 128.2505 
L 600.485 128.2505 
" style="fill: none; stroke: #ff0000; stroke-width: 3.5; stroke-linecap: square"/>
    </g>
    <g id="text_19">
     <!-- FS -->
     <g transform="translate(613.285 133.8505) scale(0.16 -0.16)">
      <defs>
       <path id="DejaVuSans-53" d="M 3425 4513 
L 3425 3897 
Q 3066 4069 2747 4153 
Q 2428 4238 2131 4238 
Q 1616 4238 1336 4038 
Q 1056 3838 1056 3469 
Q 1056 3159 1242 3001 
Q 1428 2844 1947 2747 
L 2328 2669 
Q 3034 2534 3370 2195 
Q 3706 1856 3706 1288 
Q 3706 609 3251 259 
Q 2797 -91 1919 -91 
Q 1588 -91 1214 -16 
Q 841 59 441 206 
L 441 856 
Q 825 641 1194 531 
Q 1563 422 1919 422 
Q 2459 422 2753 634 
Q 3047 847 3047 1241 
Q 3047 1584 2836 1778 
Q 2625 1972 2144 2069 
L 1759 2144 
Q 1053 2284 737 2584 
Q 422 2884 422 3419 
Q 422 4038 858 4394 
Q 1294 4750 2059 4750 
Q 2388 4750 2728 4690 
Q 3069 4631 3425 4513 
z
" transform="scale(0.015625)"/>
      </defs>
      <use xlink:href="#DejaVuSans-46"/>
      <use xlink:href="#DejaVuSans-53" x="55.769531"/>
     </g>
    </g>
    <g id="line2d_38">
     <path d="M 568.485 151.7355 
L 584.485 151.7355 
L 600.485 151.7355 
" style="fill: none; stroke: #bf00bf; stroke-width: 3.5; stroke-linecap: square"/>
    </g>
    <g id="text_20">
     <!-- SF -->
     <g transform="translate(613.285 157.3355) scale(0.16 -0.16)">
      <use xlink:href="#DejaVuSans-53"/>
      <use xlink:href="#DejaVuSans-46" x="63.476562"/>
     </g>
    </g>
    <g id="line2d_39">
     <path d="M 568.485 175.2205 
L 584.485 175.2205 
L 600.485 175.2205 
" style="fill: none; stroke: #008000; stroke-width: 3.5; stroke-linecap: square"/>
    </g>
    <g id="text_21">
     <!-- SS -->
     <g transform="translate(613.285 180.8205) scale(0.16 -0.16)">
      <use xlink:href="#DejaVuSans-53"/>
      <use xlink:href="#DejaVuSans-53" x="63.476562"/>
     </g>
    </g>
    <g id="line2d_40">
     <path d="M 568.485 198.7055 
L 584.485 198.7055 
L 600.485 198.7055 
" style="fill: none; stroke-dasharray: 12.95,5.6; stroke-dashoffset: 0; stroke: #000000; stroke-width: 3.5"/>
    </g>
    <g id="text_22">
     <!-- TT -->
     <g transform="translate(613.285 204.3055) scale(0.16 -0.16)">
      <defs>
       <path id="DejaVuSans-54" d="M -19 4666 
L 3928 4666 
L 3928 4134 
L 2272 4134 
L 2272 0 
L 1638 0 
L 1638 4134 
L -19 4134 
L -19 4666 
z
" transform="scale(0.015625)"/>
      </defs>
      <use xlink:href="#DejaVuSans-54"/>
      <use xlink:href="#DejaVuSans-54" x="59.333984"/>
     </g>
    </g>
   </g>
  </g>
 </g>
 <defs>
  <clipPath id="p1715a70abb">
   <rect x="90" y="83.808" width="558" height="537.768"/>
  </clipPath>
 </defs>
</svg>
