<?xml version="1.0" encoding="utf-8" standalone="no"?>
<!DOCTYPE svg PUBLIC "-//W3C//DTD SVG 1.1//EN"
  "http://www.w3.org/Graphics/SVG/1.1/DTD/svg11.dtd">
<svg xmlns:xlink="http://www.w3.org/1999/xlink" width="720pt" height="698.4pt" viewBox="0 0 720 698.4" xmlns="http://www.w3.org/2000/svg" version="1.1">
 <metadata>
  <rdf:RDF xmlns:dc="http://purl.org/dc/elements/1.1/" xmlns:cc="http://creativecommons.org/ns#" xmlns:rdf="http://www.w3.org/1999/02/22-rdf-syntax-ns#">
   <cc:Work>
    <dc:type rdf:resource="http://purl.org/dc/dcmitype/StillImage"/>
    <dc:date>2024-03-15T21:16:58.857120</dc:date>
    <dc:format>image/svg+xml</dc:format>
    <dc:creator>
     <cc:Agent>
      <dc:title>Matplotlib v3.7.2, https://matplotlib.org/</dc:title>
     </cc:Agent>
    </dc:creator>
   </cc:Work>
  </rdf:RDF>
 </metadata>
 <defs>
  <style type="text/css">*{stroke-linejoin: round; stroke-linecap: butt}</style>
 </defs>
 <g id="figure_1">
  <g id="patch_1">
   <path d="M 0 698.4 
L 720 698.4 
L 720 0 
L 0 0 
z
" style="fill: #ffffff"/>
  </g>
  <g id="axes_1">
   <g id="patch_2">
    <path d="M 90 621.576 
L 648 621.576 
L 648 83.808 
L 90 83.808 
z
" style="fill: #ffffff"/>
   </g>
   <g id="matplotlib.axis_1">
    <g id="xtick_1">
     <g id="line2d_1">
      <path d="M 115.363636 621.576 
L 115.363636 83.808 
" clip-path="url(#pe6aa194597)" style="fill: none; stroke: #b0b0b0; stroke-width: 0.5; stroke-linecap: square"/>
     </g>
     <g id="line2d_2">
      <defs>
       <path id="meced6f2528" d="M 0 0 
L 0 3.5 
" style="stroke: #000000; stroke-width: 0.8"/>
      </defs>
      <g>
       <use xlink:href="#meced6f2528" x="115.363636" y="621.576" style="stroke: #000000; stroke-width: 0.8"/>
      </g>
     </g>
     <g id="text_1">
      <!-- 0.0 -->
      <g transform="translate(101.050824 642.253187) scale(0.18 -0.18)">
       <defs>
        <path id="DejaVuSans-30" d="M 2034 4250 
Q 1547 4250 1301 3770 
Q 1056 3291 1056 2328 
Q 1056 1369 1301 889 
Q 1547 409 2034 409 
Q 2525 409 2770 889 
Q 3016 1369 3016 2328 
Q 3016 3291 2770 3770 
Q 2525 4250 2034 4250 
z
M 2034 4750 
Q 2819 4750 3233 4129 
Q 3647 3509 3647 2328 
Q 3647 1150 3233 529 
Q 2819 -91 2034 -91 
Q 1250 -91 836 529 
Q 422 1150 422 2328 
Q 422 3509 836 4129 
Q 1250 4750 2034 4750 
z
" transform="scale(0.015625)"/>
        <path id="DejaVuSans-2e" d="M 684 794 
L 1344 794 
L 1344 0 
L 684 0 
L 684 794 
z
" transform="scale(0.015625)"/>
       </defs>
       <use xlink:href="#DejaVuSans-30"/>
       <use xlink:href="#DejaVuSans-2e" x="63.623047"/>
       <use xlink:href="#DejaVuSans-30" x="95.410156"/>
      </g>
     </g>
    </g>
    <g id="xtick_2">
     <g id="line2d_3">
      <path d="M 192.22314 621.576 
L 192.22314 83.808 
" clip-path="url(#pe6aa194597)" style="fill: none; stroke: #b0b0b0; stroke-width: 0.5; stroke-linecap: square"/>
     </g>
     <g id="line2d_4">
      <g>
       <use xlink:href="#meced6f2528" x="192.22314" y="621.576" style="stroke: #000000; stroke-width: 0.8"/>
      </g>
     </g>
     <g id="text_2">
      <!-- 0.5 -->
      <g transform="translate(177.910328 642.253187) scale(0.18 -0.18)">
       <defs>
        <path id="DejaVuSans-35" d="M 691 4666 
L 3169 4666 
L 3169 4134 
L 1269 4134 
L 1269 2991 
Q 1406 3038 1543 3061 
Q 1681 3084 1819 3084 
Q 2600 3084 3056 2656 
Q 3513 2228 3513 1497 
Q 3513 744 3044 326 
Q 2575 -91 1722 -91 
Q 1428 -91 1123 -41 
Q 819 9 494 109 
L 494 744 
Q 775 591 1075 516 
Q 1375 441 1709 441 
Q 2250 441 2565 725 
Q 2881 1009 2881 1497 
Q 2881 1984 2565 2268 
Q 2250 2553 1709 2553 
Q 1456 2553 1204 2497 
Q 953 2441 691 2322 
L 691 4666 
z
" transform="scale(0.015625)"/>
       </defs>
       <use xlink:href="#DejaVuSans-30"/>
       <use xlink:href="#DejaVuSans-2e" x="63.623047"/>
       <use xlink:href="#DejaVuSans-35" x="95.410156"/>
      </g>
     </g>
    </g>
    <g id="xtick_3">
     <g id="line2d_5">
      <path d="M 269.082645 621.576 
L 269.082645 83.808 
" clip-path="url(#pe6aa194597)" style="fill: none; stroke: #b0b0b0; stroke-width: 0.5; stroke-linecap: square"/>
     </g>
     <g id="line2d_6">
      <g>
       <use xlink:href="#meced6f2528" x="269.082645" y="621.576" style="stroke: #000000; stroke-width: 0.8"/>
      </g>
     </g>
     <g id="text_3">
      <!-- 1.0 -->
      <g transform="translate(254.769832 642.253187) scale(0.18 -0.18)">
       <defs>
        <path id="DejaVuSans-31" d="M 794 531 
L 1825 531 
L 1825 4091 
L 703 3866 
L 703 4441 
L 1819 4666 
L 2450 4666 
L 2450 531 
L 3481 531 
L 3481 0 
L 794 0 
L 794 531 
z
" transform="scale(0.015625)"/>
       </defs>
       <use xlink:href="#DejaVuSans-31"/>
       <use xlink:href="#DejaVuSans-2e" x="63.623047"/>
       <use xlink:href="#DejaVuSans-30" x="95.410156"/>
      </g>
     </g>
    </g>
    <g id="xtick_4">
     <g id="line2d_7">
      <path d="M 345.942149 621.576 
L 345.942149 83.808 
" clip-path="url(#pe6aa194597)" style="fill: none; stroke: #b0b0b0; stroke-width: 0.5; stroke-linecap: square"/>
     </g>
     <g id="line2d_8">
      <g>
       <use xlink:href="#meced6f2528" x="345.942149" y="621.576" style="stroke: #000000; stroke-width: 0.8"/>
      </g>
     </g>
     <g id="text_4">
      <!-- 1.5 -->
      <g transform="translate(331.629336 642.253187) scale(0.18 -0.18)">
       <use xlink:href="#DejaVuSans-31"/>
       <use xlink:href="#DejaVuSans-2e" x="63.623047"/>
       <use xlink:href="#DejaVuSans-35" x="95.410156"/>
      </g>
     </g>
    </g>
    <g id="xtick_5">
     <g id="line2d_9">
      <path d="M 422.801653 621.576 
L 422.801653 83.808 
" clip-path="url(#pe6aa194597)" style="fill: none; stroke: #b0b0b0; stroke-width: 0.5; stroke-linecap: square"/>
     </g>
     <g id="line2d_10">
      <g>
       <use xlink:href="#meced6f2528" x="422.801653" y="621.576" style="stroke: #000000; stroke-width: 0.8"/>
      </g>
     </g>
     <g id="text_5">
      <!-- 2.0 -->
      <g transform="translate(408.48884 642.253187) scale(0.18 -0.18)">
       <defs>
        <path id="DejaVuSans-32" d="M 1228 531 
L 3431 531 
L 3431 0 
L 469 0 
L 469 531 
Q 828 903 1448 1529 
Q 2069 2156 2228 2338 
Q 2531 2678 2651 2914 
Q 2772 3150 2772 3378 
Q 2772 3750 2511 3984 
Q 2250 4219 1831 4219 
Q 1534 4219 1204 4116 
Q 875 4013 500 3803 
L 500 4441 
Q 881 4594 1212 4672 
Q 1544 4750 1819 4750 
Q 2544 4750 2975 4387 
Q 3406 4025 3406 3419 
Q 3406 3131 3298 2873 
Q 3191 2616 2906 2266 
Q 2828 2175 2409 1742 
Q 1991 1309 1228 531 
z
" transform="scale(0.015625)"/>
       </defs>
       <use xlink:href="#DejaVuSans-32"/>
       <use xlink:href="#DejaVuSans-2e" x="63.623047"/>
       <use xlink:href="#DejaVuSans-30" x="95.410156"/>
      </g>
     </g>
    </g>
    <g id="xtick_6">
     <g id="line2d_11">
      <path d="M 499.661157 621.576 
L 499.661157 83.808 
" clip-path="url(#pe6aa194597)" style="fill: none; stroke: #b0b0b0; stroke-width: 0.5; stroke-linecap: square"/>
     </g>
     <g id="line2d_12">
      <g>
       <use xlink:href="#meced6f2528" x="499.661157" y="621.576" style="stroke: #000000; stroke-width: 0.8"/>
      </g>
     </g>
     <g id="text_6">
      <!-- 2.5 -->
      <g transform="translate(485.348345 642.253187) scale(0.18 -0.18)">
       <use xlink:href="#DejaVuSans-32"/>
       <use xlink:href="#DejaVuSans-2e" x="63.623047"/>
       <use xlink:href="#DejaVuSans-35" x="95.410156"/>
      </g>
     </g>
    </g>
    <g id="xtick_7">
     <g id="line2d_13">
      <path d="M 576.520661 621.576 
L 576.520661 83.808 
" clip-path="url(#pe6aa194597)" style="fill: none; stroke: #b0b0b0; stroke-width: 0.5; stroke-linecap: square"/>
     </g>
     <g id="line2d_14">
      <g>
       <use xlink:href="#meced6f2528" x="576.520661" y="621.576" style="stroke: #000000; stroke-width: 0.8"/>
      </g>
     </g>
     <g id="text_7">
      <!-- 3.0 -->
      <g transform="translate(562.207849 642.253187) scale(0.18 -0.18)">
       <defs>
        <path id="DejaVuSans-33" d="M 2597 2516 
Q 3050 2419 3304 2112 
Q 3559 1806 3559 1356 
Q 3559 666 3084 287 
Q 2609 -91 1734 -91 
Q 1441 -91 1130 -33 
Q 819 25 488 141 
L 488 750 
Q 750 597 1062 519 
Q 1375 441 1716 441 
Q 2309 441 2620 675 
Q 2931 909 2931 1356 
Q 2931 1769 2642 2001 
Q 2353 2234 1838 2234 
L 1294 2234 
L 1294 2753 
L 1863 2753 
Q 2328 2753 2575 2939 
Q 2822 3125 2822 3475 
Q 2822 3834 2567 4026 
Q 2313 4219 1838 4219 
Q 1578 4219 1281 4162 
Q 984 4106 628 3988 
L 628 4550 
Q 988 4650 1302 4700 
Q 1616 4750 1894 4750 
Q 2613 4750 3031 4423 
Q 3450 4097 3450 3541 
Q 3450 3153 3228 2886 
Q 3006 2619 2597 2516 
z
" transform="scale(0.015625)"/>
       </defs>
       <use xlink:href="#DejaVuSans-33"/>
       <use xlink:href="#DejaVuSans-2e" x="63.623047"/>
       <use xlink:href="#DejaVuSans-30" x="95.410156"/>
      </g>
     </g>
    </g>
    <g id="text_8">
     <!-- $V_{OUT}$ [V] -->
     <g transform="translate(317.13 669.752562) scale(0.26 -0.26)">
      <defs>
       <path id="DejaVuSans-Oblique-56" d="M 1319 0 
L 500 4666 
L 1119 4666 
L 1797 653 
L 4063 4666 
L 4750 4666 
L 2053 0 
L 1319 0 
z
" transform="scale(0.015625)"/>
       <path id="DejaVuSans-Oblique-4f" d="M 2919 4238 
Q 2400 4238 2003 3986 
Q 1606 3734 1313 3219 
Q 1125 2891 1026 2522 
Q 928 2153 928 1778 
Q 928 1128 1239 775 
Q 1550 422 2119 422 
Q 2631 422 3032 676 
Q 3434 931 3719 1434 
Q 3909 1772 4009 2142 
Q 4109 2513 4109 2881 
Q 4109 3528 3796 3883 
Q 3484 4238 2919 4238 
z
M 2100 -91 
Q 1241 -91 748 418 
Q 256 928 256 1813 
Q 256 2319 448 2847 
Q 641 3375 978 3788 
Q 1375 4272 1862 4511 
Q 2350 4750 2938 4750 
Q 3794 4750 4287 4245 
Q 4781 3741 4781 2869 
Q 4781 2331 4593 1812 
Q 4406 1294 4056 872 
Q 3656 384 3173 146 
Q 2691 -91 2100 -91 
z
" transform="scale(0.015625)"/>
       <path id="DejaVuSans-Oblique-55" d="M 991 4666 
L 1625 4666 
L 1075 1831 
Q 1041 1641 1027 1517 
Q 1013 1394 1013 1300 
Q 1013 869 1253 645 
Q 1494 422 1959 422 
Q 2563 422 2898 753 
Q 3234 1084 3378 1831 
L 3928 4666 
L 4563 4666 
L 4000 1753 
Q 3816 809 3300 359 
Q 2784 -91 1888 -91 
Q 1188 -91 780 261 
Q 372 613 372 1216 
Q 372 1325 387 1461 
Q 403 1597 434 1753 
L 991 4666 
z
" transform="scale(0.015625)"/>
       <path id="DejaVuSans-Oblique-54" d="M 378 4666 
L 4325 4666 
L 4225 4134 
L 2559 4134 
L 1759 0 
L 1125 0 
L 1925 4134 
L 275 4134 
L 378 4666 
z
" transform="scale(0.015625)"/>
       <path id="DejaVuSans-20" transform="scale(0.015625)"/>
       <path id="DejaVuSans-5b" d="M 550 4863 
L 1875 4863 
L 1875 4416 
L 1125 4416 
L 1125 -397 
L 1875 -397 
L 1875 -844 
L 550 -844 
L 550 4863 
z
" transform="scale(0.015625)"/>
       <path id="DejaVuSans-56" d="M 1831 0 
L 50 4666 
L 709 4666 
L 2188 738 
L 3669 4666 
L 4325 4666 
L 2547 0 
L 1831 0 
z
" transform="scale(0.015625)"/>
       <path id="DejaVuSans-5d" d="M 1947 4863 
L 1947 -844 
L 622 -844 
L 622 -397 
L 1369 -397 
L 1369 4416 
L 622 4416 
L 622 4863 
L 1947 4863 
z
" transform="scale(0.015625)"/>
      </defs>
      <use xlink:href="#DejaVuSans-Oblique-56" transform="translate(0 0.015625)"/>
      <use xlink:href="#DejaVuSans-Oblique-4f" transform="translate(68.408203 -16.390625) scale(0.7)"/>
      <use xlink:href="#DejaVuSans-Oblique-55" transform="translate(123.505859 -16.390625) scale(0.7)"/>
      <use xlink:href="#DejaVuSans-Oblique-54" transform="translate(174.741211 -16.390625) scale(0.7)"/>
      <use xlink:href="#DejaVuSans-20" transform="translate(220.234375 0.015625)"/>
      <use xlink:href="#DejaVuSans-5b" transform="translate(252.021484 0.015625)"/>
      <use xlink:href="#DejaVuSans-56" transform="translate(291.035156 0.015625)"/>
      <use xlink:href="#DejaVuSans-5d" transform="translate(359.443359 0.015625)"/>
     </g>
    </g>
   </g>
   <g id="matplotlib.axis_2">
    <g id="ytick_1">
     <g id="line2d_15">
      <path d="M 90 621.576 
L 648 621.576 
" clip-path="url(#pe6aa194597)" style="fill: none; stroke: #b0b0b0; stroke-width: 0.5; stroke-linecap: square"/>
     </g>
     <g id="line2d_16">
      <defs>
       <path id="m363002eee1" d="M 0 0 
L -3.5 0 
" style="stroke: #000000; stroke-width: 0.8"/>
      </defs>
      <g>
       <use xlink:href="#m363002eee1" x="90" y="621.576" style="stroke: #000000; stroke-width: 0.8"/>
      </g>
     </g>
     <g id="text_9">
      <!-- 1.900 -->
      <g transform="translate(31.469375 628.414594) scale(0.18 -0.18)">
       <defs>
        <path id="DejaVuSans-39" d="M 703 97 
L 703 672 
Q 941 559 1184 500 
Q 1428 441 1663 441 
Q 2288 441 2617 861 
Q 2947 1281 2994 2138 
Q 2813 1869 2534 1725 
Q 2256 1581 1919 1581 
Q 1219 1581 811 2004 
Q 403 2428 403 3163 
Q 403 3881 828 4315 
Q 1253 4750 1959 4750 
Q 2769 4750 3195 4129 
Q 3622 3509 3622 2328 
Q 3622 1225 3098 567 
Q 2575 -91 1691 -91 
Q 1453 -91 1209 -44 
Q 966 3 703 97 
z
M 1959 2075 
Q 2384 2075 2632 2365 
Q 2881 2656 2881 3163 
Q 2881 3666 2632 3958 
Q 2384 4250 1959 4250 
Q 1534 4250 1286 3958 
Q 1038 3666 1038 3163 
Q 1038 2656 1286 2365 
Q 1534 2075 1959 2075 
z
" transform="scale(0.015625)"/>
       </defs>
       <use xlink:href="#DejaVuSans-31"/>
       <use xlink:href="#DejaVuSans-2e" x="63.623047"/>
       <use xlink:href="#DejaVuSans-39" x="95.410156"/>
       <use xlink:href="#DejaVuSans-30" x="159.033203"/>
       <use xlink:href="#DejaVuSans-30" x="222.65625"/>
      </g>
     </g>
    </g>
    <g id="ytick_2">
     <g id="line2d_17">
      <path d="M 90 554.355 
L 648 554.355 
" clip-path="url(#pe6aa194597)" style="fill: none; stroke: #b0b0b0; stroke-width: 0.5; stroke-linecap: square"/>
     </g>
     <g id="line2d_18">
      <g>
       <use xlink:href="#m363002eee1" x="90" y="554.355" style="stroke: #000000; stroke-width: 0.8"/>
      </g>
     </g>
     <g id="text_10">
      <!-- 1.925 -->
      <g transform="translate(31.469375 561.193594) scale(0.18 -0.18)">
       <use xlink:href="#DejaVuSans-31"/>
       <use xlink:href="#DejaVuSans-2e" x="63.623047"/>
       <use xlink:href="#DejaVuSans-39" x="95.410156"/>
       <use xlink:href="#DejaVuSans-32" x="159.033203"/>
       <use xlink:href="#DejaVuSans-35" x="222.65625"/>
      </g>
     </g>
    </g>
    <g id="ytick_3">
     <g id="line2d_19">
      <path d="M 90 487.134 
L 648 487.134 
" clip-path="url(#pe6aa194597)" style="fill: none; stroke: #b0b0b0; stroke-width: 0.5; stroke-linecap: square"/>
     </g>
     <g id="line2d_20">
      <g>
       <use xlink:href="#m363002eee1" x="90" y="487.134" style="stroke: #000000; stroke-width: 0.8"/>
      </g>
     </g>
     <g id="text_11">
      <!-- 1.950 -->
      <g transform="translate(31.469375 493.972594) scale(0.18 -0.18)">
       <use xlink:href="#DejaVuSans-31"/>
       <use xlink:href="#DejaVuSans-2e" x="63.623047"/>
       <use xlink:href="#DejaVuSans-39" x="95.410156"/>
       <use xlink:href="#DejaVuSans-35" x="159.033203"/>
       <use xlink:href="#DejaVuSans-30" x="222.65625"/>
      </g>
     </g>
    </g>
    <g id="ytick_4">
     <g id="line2d_21">
      <path d="M 90 419.913 
L 648 419.913 
" clip-path="url(#pe6aa194597)" style="fill: none; stroke: #b0b0b0; stroke-width: 0.5; stroke-linecap: square"/>
     </g>
     <g id="line2d_22">
      <g>
       <use xlink:href="#m363002eee1" x="90" y="419.913" style="stroke: #000000; stroke-width: 0.8"/>
      </g>
     </g>
     <g id="text_12">
      <!-- 1.975 -->
      <g transform="translate(31.469375 426.751594) scale(0.18 -0.18)">
       <defs>
        <path id="DejaVuSans-37" d="M 525 4666 
L 3525 4666 
L 3525 4397 
L 1831 0 
L 1172 0 
L 2766 4134 
L 525 4134 
L 525 4666 
z
" transform="scale(0.015625)"/>
       </defs>
       <use xlink:href="#DejaVuSans-31"/>
       <use xlink:href="#DejaVuSans-2e" x="63.623047"/>
       <use xlink:href="#DejaVuSans-39" x="95.410156"/>
       <use xlink:href="#DejaVuSans-37" x="159.033203"/>
       <use xlink:href="#DejaVuSans-35" x="222.65625"/>
      </g>
     </g>
    </g>
    <g id="ytick_5">
     <g id="line2d_23">
      <path d="M 90 352.692 
L 648 352.692 
" clip-path="url(#pe6aa194597)" style="fill: none; stroke: #b0b0b0; stroke-width: 0.5; stroke-linecap: square"/>
     </g>
     <g id="line2d_24">
      <g>
       <use xlink:href="#m363002eee1" x="90" y="352.692" style="stroke: #000000; stroke-width: 0.8"/>
      </g>
     </g>
     <g id="text_13">
      <!-- 2.000 -->
      <g transform="translate(31.469375 359.530594) scale(0.18 -0.18)">
       <use xlink:href="#DejaVuSans-32"/>
       <use xlink:href="#DejaVuSans-2e" x="63.623047"/>
       <use xlink:href="#DejaVuSans-30" x="95.410156"/>
       <use xlink:href="#DejaVuSans-30" x="159.033203"/>
       <use xlink:href="#DejaVuSans-30" x="222.65625"/>
      </g>
     </g>
    </g>
    <g id="ytick_6">
     <g id="line2d_25">
      <path d="M 90 285.471 
L 648 285.471 
" clip-path="url(#pe6aa194597)" style="fill: none; stroke: #b0b0b0; stroke-width: 0.5; stroke-linecap: square"/>
     </g>
     <g id="line2d_26">
      <g>
       <use xlink:href="#m363002eee1" x="90" y="285.471" style="stroke: #000000; stroke-width: 0.8"/>
      </g>
     </g>
     <g id="text_14">
      <!-- 2.025 -->
      <g transform="translate(31.469375 292.309594) scale(0.18 -0.18)">
       <use xlink:href="#DejaVuSans-32"/>
       <use xlink:href="#DejaVuSans-2e" x="63.623047"/>
       <use xlink:href="#DejaVuSans-30" x="95.410156"/>
       <use xlink:href="#DejaVuSans-32" x="159.033203"/>
       <use xlink:href="#DejaVuSans-35" x="222.65625"/>
      </g>
     </g>
    </g>
    <g id="ytick_7">
     <g id="line2d_27">
      <path d="M 90 218.25 
L 648 218.25 
" clip-path="url(#pe6aa194597)" style="fill: none; stroke: #b0b0b0; stroke-width: 0.5; stroke-linecap: square"/>
     </g>
     <g id="line2d_28">
      <g>
       <use xlink:href="#m363002eee1" x="90" y="218.25" style="stroke: #000000; stroke-width: 0.8"/>
      </g>
     </g>
     <g id="text_15">
      <!-- 2.050 -->
      <g transform="translate(31.469375 225.088594) scale(0.18 -0.18)">
       <use xlink:href="#DejaVuSans-32"/>
       <use xlink:href="#DejaVuSans-2e" x="63.623047"/>
       <use xlink:href="#DejaVuSans-30" x="95.410156"/>
       <use xlink:href="#DejaVuSans-35" x="159.033203"/>
       <use xlink:href="#DejaVuSans-30" x="222.65625"/>
      </g>
     </g>
    </g>
    <g id="ytick_8">
     <g id="line2d_29">
      <path d="M 90 151.029 
L 648 151.029 
" clip-path="url(#pe6aa194597)" style="fill: none; stroke: #b0b0b0; stroke-width: 0.5; stroke-linecap: square"/>
     </g>
     <g id="line2d_30">
      <g>
       <use xlink:href="#m363002eee1" x="90" y="151.029" style="stroke: #000000; stroke-width: 0.8"/>
      </g>
     </g>
     <g id="text_16">
      <!-- 2.075 -->
      <g transform="translate(31.469375 157.867594) scale(0.18 -0.18)">
       <use xlink:href="#DejaVuSans-32"/>
       <use xlink:href="#DejaVuSans-2e" x="63.623047"/>
       <use xlink:href="#DejaVuSans-30" x="95.410156"/>
       <use xlink:href="#DejaVuSans-37" x="159.033203"/>
       <use xlink:href="#DejaVuSans-35" x="222.65625"/>
      </g>
     </g>
    </g>
    <g id="ytick_9">
     <g id="line2d_31">
      <path d="M 90 83.808 
L 648 83.808 
" clip-path="url(#pe6aa194597)" style="fill: none; stroke: #b0b0b0; stroke-width: 0.5; stroke-linecap: square"/>
     </g>
     <g id="line2d_32">
      <g>
       <use xlink:href="#m363002eee1" x="90" y="83.808" style="stroke: #000000; stroke-width: 0.8"/>
      </g>
     </g>
     <g id="text_17">
      <!-- 2.100 -->
      <g transform="translate(31.469375 90.646594) scale(0.18 -0.18)">
       <use xlink:href="#DejaVuSans-32"/>
       <use xlink:href="#DejaVuSans-2e" x="63.623047"/>
       <use xlink:href="#DejaVuSans-31" x="95.410156"/>
       <use xlink:href="#DejaVuSans-30" x="159.033203"/>
       <use xlink:href="#DejaVuSans-30" x="222.65625"/>
      </g>
     </g>
    </g>
    <g id="text_18">
     <!-- $I_{OUT}$ [pA] -->
     <g transform="translate(22.009375 407.812) rotate(-90) scale(0.26 -0.26)">
      <defs>
       <path id="DejaVuSans-Oblique-49" d="M 1081 4666 
L 1716 4666 
L 806 0 
L 172 0 
L 1081 4666 
z
" transform="scale(0.015625)"/>
       <path id="DejaVuSans-70" d="M 1159 525 
L 1159 -1331 
L 581 -1331 
L 581 3500 
L 1159 3500 
L 1159 2969 
Q 1341 3281 1617 3432 
Q 1894 3584 2278 3584 
Q 2916 3584 3314 3078 
Q 3713 2572 3713 1747 
Q 3713 922 3314 415 
Q 2916 -91 2278 -91 
Q 1894 -91 1617 61 
Q 1341 213 1159 525 
z
M 3116 1747 
Q 3116 2381 2855 2742 
Q 2594 3103 2138 3103 
Q 1681 3103 1420 2742 
Q 1159 2381 1159 1747 
Q 1159 1113 1420 752 
Q 1681 391 2138 391 
Q 2594 391 2855 752 
Q 3116 1113 3116 1747 
z
" transform="scale(0.015625)"/>
       <path id="DejaVuSans-41" d="M 2188 4044 
L 1331 1722 
L 3047 1722 
L 2188 4044 
z
M 1831 4666 
L 2547 4666 
L 4325 0 
L 3669 0 
L 3244 1197 
L 1141 1197 
L 716 0 
L 50 0 
L 1831 4666 
z
" transform="scale(0.015625)"/>
      </defs>
      <use xlink:href="#DejaVuSans-Oblique-49" transform="translate(0 0.015625)"/>
      <use xlink:href="#DejaVuSans-Oblique-4f" transform="translate(29.492188 -16.390625) scale(0.7)"/>
      <use xlink:href="#DejaVuSans-Oblique-55" transform="translate(84.589844 -16.390625) scale(0.7)"/>
      <use xlink:href="#DejaVuSans-Oblique-54" transform="translate(135.825195 -16.390625) scale(0.7)"/>
      <use xlink:href="#DejaVuSans-20" transform="translate(181.318359 0.015625)"/>
      <use xlink:href="#DejaVuSans-5b" transform="translate(213.105469 0.015625)"/>
      <use xlink:href="#DejaVuSans-70" transform="translate(252.119141 0.015625)"/>
      <use xlink:href="#DejaVuSans-41" transform="translate(315.595703 0.015625)"/>
      <use xlink:href="#DejaVuSans-5d" transform="translate(384.003906 0.015625)"/>
     </g>
    </g>
   </g>
   <g id="line2d_33">
    <path d="M 125.466103 699.4 
L 126.123967 624.502587 
L 127.661157 506.847903 
L 129.198347 430.426472 
L 130.735537 384.827375 
L 132.272727 360.423249 
L 133.809917 348.780921 
L 135.347107 343.109028 
L 136.884298 340.049182 
L 138.421488 338.183423 
L 139.958678 336.989336 
L 141.495868 335.944506 
L 144.570248 334.451904 
L 146.107438 334.004132 
L 149.181818 332.810045 
L 150.719008 332.51153 
L 152.256198 331.765215 
L 153.793388 331.615958 
L 156.867769 330.720386 
L 158.404959 330.421871 
L 159.942149 330.272613 
L 161.479339 329.974098 
L 163.016529 329.526299 
L 164.553719 329.227784 
L 166.090909 328.332212 
L 167.628099 328.033697 
L 169.165289 328.033697 
L 170.702479 327.735182 
L 172.239669 326.83961 
L 173.77686 327.138152 
L 175.31405 326.541095 
L 181.46281 325.347008 
L 183 324.749978 
L 186.07438 324.749978 
L 187.61157 324.152921 
L 192.22314 323.257376 
L 193.760331 322.361804 
L 195.297521 322.660319 
L 196.834711 322.361804 
L 198.371901 321.764747 
L 199.909091 322.361804 
L 201.446281 320.869202 
L 202.983471 320.57066 
L 204.520661 321.466232 
L 206.057851 320.272145 
L 207.595041 319.97363 
L 209.132231 319.97363 
L 212.206612 319.3766 
L 213.743802 318.779543 
L 216.818182 318.779543 
L 219.892562 317.585456 
L 221.429752 317.585456 
L 222.966942 318.182513 
L 224.504132 316.988426 
L 226.041322 316.391369 
L 227.578512 316.391369 
L 229.115702 315.794339 
L 230.652893 316.391369 
L 235.264463 314.600252 
L 239.876033 314.600252 
L 241.413223 314.003195 
L 242.950413 314.600252 
L 244.487603 313.406165 
L 246.024793 313.406165 
L 247.561983 312.809108 
L 252.173554 312.809108 
L 253.710744 311.615048 
L 255.247934 311.615048 
L 256.785124 311.017992 
L 258.322314 311.017992 
L 259.859504 311.615048 
L 261.396694 311.017992 
L 262.933884 311.017992 
L 264.471074 309.823905 
L 266.008264 309.823905 
L 267.545455 309.226875 
L 269.082645 309.226875 
L 270.619835 309.823905 
L 272.157025 308.629818 
L 276.768595 308.629818 
L 278.305785 306.241644 
L 279.842975 307.435731 
L 281.380165 308.032788 
L 282.917355 306.838701 
L 285.991736 306.838701 
L 289.066116 305.644614 
L 290.603306 305.644614 
L 292.140496 305.047584 
L 293.677686 305.644614 
L 295.214876 305.047584 
L 296.752066 303.853497 
L 301.363636 303.853497 
L 302.900826 304.450527 
L 304.438017 302.65941 
L 305.975207 303.853497 
L 307.512397 302.062353 
L 309.049587 302.65941 
L 310.586777 302.062353 
L 312.123967 302.062353 
L 313.661157 303.25644 
L 315.198347 300.868266 
L 316.735537 302.062353 
L 318.272727 300.868266 
L 319.809917 302.062353 
L 321.347107 300.868266 
L 322.884298 300.868266 
L 324.421488 298.480092 
L 325.958678 299.674179 
L 327.495868 298.480092 
L 329.033058 299.674179 
L 332.107438 299.674179 
L 333.644628 298.480092 
L 335.181818 299.674179 
L 336.719008 299.674179 
L 338.256198 297.286032 
L 341.330579 297.286032 
L 342.867769 296.091945 
L 344.404959 298.480092 
L 345.942149 296.091945 
L 347.479339 297.286032 
L 349.016529 296.091945 
L 352.090909 296.091945 
L 353.628099 294.897858 
L 358.239669 294.897858 
L 359.77686 292.509684 
L 361.31405 293.703771 
L 364.38843 293.703771 
L 365.92562 294.897858 
L 367.46281 292.509684 
L 369 293.703771 
L 370.53719 292.509684 
L 372.07438 293.703771 
L 373.61157 291.315597 
L 379.760331 291.315597 
L 381.297521 288.927423 
L 382.834711 290.12151 
L 384.371901 288.927423 
L 385.909091 290.12151 
L 388.983471 290.12151 
L 390.520661 287.733336 
L 392.057851 288.927423 
L 395.132231 288.927423 
L 396.669421 286.539249 
L 398.206612 287.733336 
L 399.743802 287.733336 
L 401.280992 286.539249 
L 402.818182 287.733336 
L 404.355372 285.345162 
L 405.892562 284.151075 
L 407.429752 285.345162 
L 408.966942 285.345162 
L 410.504132 286.539249 
L 412.041322 285.345162 
L 413.578512 285.345162 
L 415.115702 286.539249 
L 416.652893 285.345162 
L 418.190083 285.345162 
L 419.727273 282.956988 
L 421.264463 282.956988 
L 422.801653 284.151075 
L 425.876033 281.762928 
L 427.413223 282.956988 
L 430.487603 282.956988 
L 432.024793 280.568841 
L 435.099174 282.956988 
L 436.636364 280.568841 
L 438.173554 279.374754 
L 441.247934 279.374754 
L 444.322314 276.98658 
L 445.859504 276.98658 
L 447.396694 275.792494 
L 450.471074 278.180667 
L 452.008264 276.98658 
L 453.545455 273.40432 
L 458.157025 273.40432 
L 459.694215 274.598407 
L 461.231405 271.016146 
L 462.768595 272.210233 
L 464.305785 272.210233 
L 465.842975 271.016146 
L 467.380165 272.210233 
L 468.917355 267.433885 
L 470.454545 269.822059 
L 471.991736 266.239825 
L 473.528926 265.045738 
L 475.066116 266.239825 
L 476.603306 265.045738 
L 478.140496 265.045738 
L 479.677686 262.657564 
L 481.214876 262.657564 
L 482.752066 263.851651 
L 484.289256 262.657564 
L 487.363636 257.881216 
L 488.900826 256.687129 
L 490.438017 257.881216 
L 491.975207 257.881216 
L 493.512397 255.493042 
L 496.586777 253.104868 
L 498.123967 250.716721 
L 501.198347 250.716721 
L 502.735537 249.522634 
L 504.272727 249.522634 
L 505.809917 242.358113 
L 507.347107 244.746286 
L 510.421488 239.969939 
L 513.495868 239.969939 
L 515.033058 242.358113 
L 516.570248 232.805444 
L 518.107438 237.581765 
L 522.719008 230.41727 
L 524.256198 225.640922 
L 525.793388 225.640922 
L 527.330579 223.252748 
L 528.867769 223.252748 
L 531.942149 218.476427 
L 533.479339 218.476427 
L 535.016529 213.700079 
L 536.553719 211.311905 
L 538.090909 211.311905 
L 539.628099 206.535585 
L 541.165289 204.147411 
L 542.702479 199.371063 
L 548.85124 189.818394 
L 550.38843 185.042046 
L 551.92562 187.43022 
L 555 177.877525 
L 556.53719 175.489377 
L 558.07438 175.489377 
L 559.61157 168.324856 
L 561.14876 165.936682 
L 562.68595 161.160361 
L 564.22314 158.772187 
L 565.760331 153.995839 
L 568.834711 149.219491 
L 571.909091 139.666823 
L 573.446281 137.278649 
L 576.520661 127.72598 
L 578.057851 120.561458 
L 579.595041 118.173284 
L 582.669421 108.620616 
L 584.206612 106.232442 
L 587.280992 91.903425 
L 591.892562 77.574408 
L 593.429752 75.186235 
L 594.966942 68.02174 
L 596.504132 63.245392 
L 598.041322 56.08087 
L 599.578512 53.692723 
L 601.115702 44.140027 
L 602.652893 39.363707 
L 608.801653 10.705646 
L 611.876033 1.152978 
L 612.153194 -1 
L 612.153194 -1 
" clip-path="url(#pe6aa194597)" style="fill: none; stroke-dasharray: 3.5,5.775; stroke-dashoffset: 0; stroke: #0000ff; stroke-width: 3.5"/>
   </g>
   <g id="line2d_34">
    <path d="M 125.390748 699.4 
L 126.123967 615.994721 
L 127.661157 498.638578 
L 129.198347 422.590305 
L 130.735537 377.215081 
L 132.272727 353.557269 
L 133.809917 341.914941 
L 135.347107 336.466921 
L 136.884298 333.556332 
L 138.421488 331.541316 
L 141.495868 329.526299 
L 143.033058 328.481496 
L 144.570248 328.033697 
L 147.644628 326.83961 
L 150.719008 325.944065 
L 152.256198 325.347008 
L 153.793388 325.048493 
L 155.330579 324.302179 
L 156.867769 324.003664 
L 158.404959 323.854406 
L 159.942149 323.406634 
L 161.479339 323.108092 
L 163.016529 322.660319 
L 164.553719 322.361804 
L 166.090909 322.361804 
L 170.702479 320.57066 
L 172.239669 320.869202 
L 175.31405 319.675115 
L 176.85124 319.675115 
L 178.38843 319.97363 
L 179.92562 319.078058 
L 186.07438 317.883971 
L 187.61157 317.286941 
L 189.14876 317.286941 
L 192.22314 316.092854 
L 193.760331 316.092854 
L 195.297521 316.391369 
L 196.834711 316.092854 
L 198.371901 315.197282 
L 199.909091 314.898767 
L 201.446281 314.301737 
L 202.983471 314.600252 
L 204.520661 314.301737 
L 206.057851 314.301737 
L 207.595041 314.003195 
L 209.132231 313.406165 
L 210.669421 313.10765 
L 212.206612 311.615048 
L 213.743802 312.809108 
L 215.280992 311.615048 
L 219.892562 311.615048 
L 221.429752 311.017992 
L 222.966942 311.017992 
L 224.504132 309.823905 
L 226.041322 310.420961 
L 229.115702 309.226875 
L 233.727273 309.226875 
L 235.264463 308.032788 
L 236.801653 308.629818 
L 238.338843 308.629818 
L 239.876033 307.435731 
L 241.413223 308.032788 
L 242.950413 306.241644 
L 244.487603 306.241644 
L 246.024793 306.838701 
L 247.561983 306.241644 
L 249.099174 306.241644 
L 252.173554 305.047584 
L 253.710744 305.047584 
L 255.247934 305.644614 
L 256.785124 305.644614 
L 258.322314 304.450527 
L 259.859504 303.853497 
L 262.933884 303.853497 
L 264.471074 303.25644 
L 266.008264 303.25644 
L 269.082645 302.062353 
L 273.694215 302.062353 
L 275.231405 300.868266 
L 276.768595 301.465323 
L 278.305785 299.674179 
L 279.842975 300.868266 
L 281.380165 299.077149 
L 282.917355 299.674179 
L 284.454545 300.868266 
L 285.991736 299.077149 
L 287.528926 299.674179 
L 289.066116 299.077149 
L 295.214876 299.077149 
L 299.826446 297.286032 
L 301.363636 297.286032 
L 302.900826 296.688975 
L 304.438017 297.286032 
L 305.975207 296.091945 
L 307.512397 295.494888 
L 309.049587 296.688975 
L 310.586777 296.091945 
L 312.123967 294.897858 
L 315.198347 294.897858 
L 316.735537 293.703771 
L 318.272727 294.897858 
L 319.809917 293.703771 
L 325.958678 293.703771 
L 327.495868 291.315597 
L 329.033058 292.509684 
L 332.107438 292.509684 
L 333.644628 291.315597 
L 339.793388 291.315597 
L 341.330579 290.12151 
L 342.867769 291.315597 
L 344.404959 288.927423 
L 345.942149 290.12151 
L 349.016529 290.12151 
L 350.553719 287.733336 
L 352.090909 290.12151 
L 353.628099 288.927423 
L 355.165289 290.12151 
L 358.239669 287.733336 
L 359.77686 287.733336 
L 361.31405 285.345162 
L 362.85124 286.539249 
L 364.38843 286.539249 
L 365.92562 287.733336 
L 367.46281 286.539249 
L 370.53719 286.539249 
L 372.07438 285.345162 
L 373.61157 286.539249 
L 375.14876 285.345162 
L 379.760331 285.345162 
L 382.834711 282.956988 
L 384.371901 284.151075 
L 385.909091 284.151075 
L 387.446281 281.762928 
L 388.983471 282.956988 
L 390.520661 282.956988 
L 392.057851 281.762928 
L 393.595041 281.762928 
L 395.132231 280.568841 
L 399.743802 280.568841 
L 401.280992 279.374754 
L 405.892562 279.374754 
L 408.966942 281.762928 
L 410.504132 278.180667 
L 412.041322 278.180667 
L 413.578512 279.374754 
L 415.115702 279.374754 
L 416.652893 276.98658 
L 418.190083 276.98658 
L 421.264463 274.598407 
L 424.338843 276.98658 
L 425.876033 274.598407 
L 427.413223 275.792494 
L 428.950413 273.40432 
L 430.487603 273.40432 
L 432.024793 275.792494 
L 435.099174 271.016146 
L 436.636364 272.210233 
L 438.173554 272.210233 
L 439.710744 271.016146 
L 441.247934 272.210233 
L 442.785124 269.822059 
L 444.322314 271.016146 
L 445.859504 273.40432 
L 447.396694 269.822059 
L 448.933884 267.433885 
L 450.471074 272.210233 
L 453.545455 267.433885 
L 455.082645 269.822059 
L 456.619835 265.045738 
L 458.157025 266.239825 
L 459.694215 266.239825 
L 461.231405 267.433885 
L 462.768595 263.851651 
L 464.305785 262.657564 
L 465.842975 263.851651 
L 468.917355 263.851651 
L 470.454545 261.463477 
L 471.991736 262.657564 
L 473.528926 257.881216 
L 475.066116 260.26939 
L 476.603306 260.26939 
L 478.140496 257.881216 
L 479.677686 257.881216 
L 481.214876 256.687129 
L 484.289256 256.687129 
L 485.826446 253.104868 
L 488.900826 253.104868 
L 491.975207 248.328547 
L 493.512397 249.522634 
L 495.049587 247.13446 
L 496.586777 247.13446 
L 498.123967 243.5522 
L 499.661157 242.358113 
L 501.198347 244.746286 
L 502.735537 243.5522 
L 504.272727 239.969939 
L 505.809917 239.969939 
L 507.347107 237.581765 
L 508.884298 237.581765 
L 510.421488 235.193618 
L 511.958678 237.581765 
L 513.495868 230.41727 
L 515.033058 232.805444 
L 516.570248 230.41727 
L 518.107438 230.41727 
L 519.644628 225.640922 
L 521.181818 225.640922 
L 524.256198 220.864601 
L 525.793388 220.864601 
L 527.330579 213.700079 
L 528.867769 216.088253 
L 530.404959 213.700079 
L 531.942149 208.923732 
L 535.016529 208.923732 
L 536.553719 201.759237 
L 538.090909 204.147411 
L 539.628099 199.371063 
L 548.85124 185.042046 
L 550.38843 180.265698 
L 553.46281 175.489377 
L 555 170.71303 
L 559.61157 163.548508 
L 561.14876 156.384013 
L 562.68595 156.384013 
L 564.22314 153.995839 
L 568.834711 139.666823 
L 570.371901 139.666823 
L 571.909091 132.502301 
L 573.446281 132.502301 
L 574.983471 125.337806 
L 578.057851 115.785137 
L 581.132231 111.008789 
L 582.669421 101.456094 
L 584.206612 99.067947 
L 588.818182 84.73893 
L 591.892562 70.409914 
L 593.429752 65.633566 
L 594.966942 63.245392 
L 596.504132 53.692723 
L 601.115702 39.363707 
L 602.652893 32.199185 
L 605.727273 22.646516 
L 607.264463 10.705646 
L 608.801653 3.541152 
L 610.338843 1.152978 
L 610.685294 -1 
L 610.685294 -1 
" clip-path="url(#pe6aa194597)" style="fill: none; stroke: #ff0000; stroke-width: 3.5; stroke-linecap: square"/>
   </g>
   <g id="line2d_35">
    <path d="M 125.5805 699.4 
L 126.123967 638.159932 
L 127.661157 522.371006 
L 129.198347 447.889977 
L 130.735537 403.70884 
L 132.272727 380.4988 
L 133.809917 369.677402 
L 135.347107 364.304024 
L 136.884298 361.244178 
L 138.421488 359.378419 
L 141.495868 357.288787 
L 143.033058 356.542473 
L 144.570248 355.646928 
L 146.107438 355.199128 
L 147.644628 354.602098 
L 150.719008 353.706526 
L 152.256198 353.109496 
L 153.793388 353.109496 
L 155.330579 352.661697 
L 156.867769 352.512439 
L 158.404959 351.766152 
L 159.942149 351.616867 
L 161.479339 350.721322 
L 164.553719 350.422807 
L 166.090909 350.124265 
L 167.628099 349.527235 
L 169.165289 349.22872 
L 170.702479 348.631663 
L 172.239669 348.631663 
L 173.77686 348.034633 
L 175.31405 347.736091 
L 176.85124 347.736091 
L 178.38843 347.437576 
L 179.92562 346.840546 
L 181.46281 346.840546 
L 183 346.243489 
L 184.53719 345.944974 
L 186.07438 345.347944 
L 187.61157 345.049403 
L 189.14876 345.347944 
L 192.22314 344.153857 
L 193.760331 344.750887 
L 195.297521 343.258286 
L 196.834711 343.855316 
L 198.371901 343.556801 
L 199.909091 342.959771 
L 201.446281 342.661255 
L 202.983471 342.064199 
L 204.520661 342.362714 
L 206.057851 341.765684 
L 213.743802 340.273082 
L 215.280992 339.676025 
L 216.818182 340.273082 
L 218.355372 339.676025 
L 219.892562 338.481938 
L 221.429752 339.078995 
L 222.966942 338.481938 
L 224.504132 338.481938 
L 226.041322 337.884908 
L 227.578512 338.481938 
L 229.115702 337.287851 
L 230.652893 337.287851 
L 232.190083 336.690821 
L 233.727273 336.690821 
L 235.264463 335.496734 
L 236.801653 336.093764 
L 239.876033 334.899704 
L 241.413223 335.496734 
L 242.950413 334.899704 
L 244.487603 334.899704 
L 246.024793 334.302647 
L 247.561983 334.899704 
L 249.099174 333.705617 
L 250.636364 333.10856 
L 252.173554 333.705617 
L 253.710744 333.10856 
L 255.247934 333.10856 
L 259.859504 331.317443 
L 261.396694 331.914473 
L 262.933884 331.317443 
L 264.471074 331.914473 
L 267.545455 329.526299 
L 270.619835 330.720386 
L 272.157025 330.720386 
L 279.842975 327.735182 
L 281.380165 327.735182 
L 282.917355 328.929269 
L 285.991736 326.541095 
L 287.528926 327.735182 
L 289.066116 326.541095 
L 290.603306 326.541095 
L 292.140496 327.138152 
L 293.677686 326.541095 
L 295.214876 326.541095 
L 296.752066 325.944065 
L 298.289256 324.749978 
L 299.826446 324.749978 
L 301.363636 325.944065 
L 302.900826 324.152921 
L 304.438017 324.749978 
L 307.512397 324.749978 
L 310.586777 323.555891 
L 312.123967 324.749978 
L 313.661157 321.167717 
L 315.198347 322.361804 
L 316.735537 322.361804 
L 318.272727 323.555891 
L 319.809917 319.97363 
L 321.347107 322.361804 
L 322.884298 321.167717 
L 327.495868 321.167717 
L 329.033058 319.97363 
L 330.570248 321.167717 
L 333.644628 318.779543 
L 335.181818 318.779543 
L 336.719008 319.97363 
L 338.256198 318.779543 
L 339.793388 318.779543 
L 341.330579 317.585456 
L 342.867769 318.779543 
L 344.404959 317.585456 
L 345.942149 317.585456 
L 349.016529 319.97363 
L 350.553719 317.585456 
L 352.090909 316.391369 
L 353.628099 316.391369 
L 355.165289 315.197282 
L 356.702479 315.197282 
L 358.239669 312.809108 
L 359.77686 315.197282 
L 362.85124 315.197282 
L 364.38843 314.003195 
L 365.92562 315.197282 
L 367.46281 314.003195 
L 370.53719 314.003195 
L 372.07438 312.809108 
L 378.22314 312.809108 
L 379.760331 311.615048 
L 385.909091 311.615048 
L 387.446281 309.226875 
L 388.983471 310.420961 
L 390.520661 310.420961 
L 392.057851 309.226875 
L 393.595041 310.420961 
L 395.132231 308.032788 
L 396.669421 309.226875 
L 398.206612 309.226875 
L 399.743802 308.032788 
L 405.892562 308.032788 
L 408.966942 305.644614 
L 410.504132 306.838701 
L 415.115702 306.838701 
L 416.652893 305.644614 
L 418.190083 305.644614 
L 419.727273 304.450527 
L 421.264463 304.450527 
L 422.801653 303.25644 
L 424.338843 304.450527 
L 425.876033 302.062353 
L 430.487603 305.644614 
L 432.024793 302.062353 
L 433.561983 302.062353 
L 435.099174 303.25644 
L 438.173554 300.868266 
L 439.710744 302.062353 
L 441.247934 299.674179 
L 442.785124 300.868266 
L 444.322314 299.674179 
L 445.859504 296.091945 
L 448.933884 298.480092 
L 450.471074 296.091945 
L 452.008264 297.286032 
L 453.545455 294.897858 
L 455.082645 294.897858 
L 456.619835 293.703771 
L 458.157025 294.897858 
L 459.694215 294.897858 
L 461.231405 292.509684 
L 465.842975 292.509684 
L 470.454545 288.927423 
L 471.991736 288.927423 
L 473.528926 290.12151 
L 475.066116 286.539249 
L 476.603306 287.733336 
L 478.140496 284.151075 
L 479.677686 285.345162 
L 481.214876 282.956988 
L 484.289256 282.956988 
L 485.826446 281.762928 
L 487.363636 282.956988 
L 493.512397 278.180667 
L 495.049587 274.598407 
L 496.586777 275.792494 
L 498.123967 273.40432 
L 501.198347 273.40432 
L 502.735537 269.822059 
L 504.272727 268.627972 
L 505.809917 268.627972 
L 507.347107 266.239825 
L 508.884298 266.239825 
L 510.421488 261.463477 
L 511.958678 266.239825 
L 513.495868 263.851651 
L 515.033058 256.687129 
L 518.107438 256.687129 
L 521.181818 251.910808 
L 524.256198 251.910808 
L 525.793388 244.746286 
L 527.330579 247.13446 
L 528.867769 247.13446 
L 531.942149 237.581765 
L 533.479339 237.581765 
L 535.016529 235.193618 
L 536.553719 228.029096 
L 541.165289 228.029096 
L 542.702479 223.252748 
L 545.77686 218.476427 
L 547.31405 213.700079 
L 548.85124 213.700079 
L 550.38843 208.923732 
L 551.92562 208.923732 
L 553.46281 206.535585 
L 556.53719 196.982889 
L 559.61157 192.206541 
L 561.14876 187.43022 
L 562.68595 185.042046 
L 565.760331 175.489377 
L 570.371901 168.324856 
L 574.983471 153.995839 
L 576.520661 151.607665 
L 578.057851 146.831317 
L 579.595041 144.44317 
L 581.132231 134.890475 
L 582.669421 132.502301 
L 584.206612 127.72598 
L 585.743802 125.337806 
L 588.818182 115.785137 
L 590.355372 106.232442 
L 591.892562 101.456094 
L 593.429752 99.067947 
L 594.966942 91.903425 
L 596.504132 89.515251 
L 599.578512 75.186235 
L 601.115702 70.409914 
L 602.652893 68.02174 
L 604.190083 58.469044 
L 607.264463 44.140027 
L 608.801653 41.751854 
L 610.338843 32.199185 
L 611.876033 27.422837 
L 613.413223 15.481994 
L 614.950413 13.09382 
L 616.487603 1.152978 
L 617.180504 -1 
L 617.180504 -1 
" clip-path="url(#pe6aa194597)" style="fill: none; stroke: #bf00bf; stroke-width: 3.5; stroke-linecap: square"/>
   </g>
   <g id="line2d_36">
    <path d="M 125.488339 699.4 
L 126.123967 627.898269 
L 127.661157 512.295923 
L 129.198347 438.113408 
L 130.735537 394.529302 
L 132.272727 371.841703 
L 133.809917 360.871048 
L 135.347107 355.646928 
L 136.884298 352.810954 
L 138.421488 351.019837 
L 139.958678 349.527235 
L 143.033058 348.333148 
L 144.570248 347.288319 
L 146.107438 346.840546 
L 147.644628 346.243489 
L 150.719008 345.347944 
L 152.256198 344.750887 
L 153.793388 344.60163 
L 155.330579 343.855316 
L 156.867769 343.706058 
L 158.404959 343.109028 
L 161.479339 342.213456 
L 163.016529 342.213456 
L 164.553719 341.467169 
L 166.090909 341.467169 
L 169.165289 340.870112 
L 170.702479 340.273082 
L 173.77686 339.676025 
L 175.31405 339.676025 
L 178.38843 338.481938 
L 179.92562 338.183423 
L 181.46281 338.183423 
L 183 337.586393 
L 186.07438 336.989336 
L 187.61157 336.989336 
L 192.22314 336.093764 
L 193.760331 335.496734 
L 195.297521 335.795249 
L 196.834711 334.601162 
L 198.371901 334.601162 
L 199.909091 334.899704 
L 201.446281 334.302647 
L 202.983471 333.407075 
L 204.520661 333.407075 
L 206.057851 333.705617 
L 207.595041 332.810045 
L 209.132231 332.810045 
L 210.669421 331.914473 
L 212.206612 332.212988 
L 213.743802 331.914473 
L 216.818182 330.720386 
L 219.892562 330.720386 
L 221.429752 329.526299 
L 224.504132 330.720386 
L 226.041322 328.929269 
L 229.115702 328.929269 
L 230.652893 328.332212 
L 232.190083 328.929269 
L 233.727273 327.735182 
L 236.801653 327.735182 
L 238.338843 326.541095 
L 239.876033 326.541095 
L 241.413223 327.138152 
L 242.950413 327.138152 
L 244.487603 325.944065 
L 246.024793 326.541095 
L 249.099174 325.347008 
L 250.636364 325.347008 
L 252.173554 324.749978 
L 253.710744 324.749978 
L 255.247934 324.152921 
L 256.785124 324.749978 
L 258.322314 323.555891 
L 261.396694 322.361804 
L 262.933884 322.361804 
L 264.471074 322.958834 
L 266.008264 322.361804 
L 267.545455 322.958834 
L 269.082645 321.764747 
L 270.619835 321.167717 
L 272.157025 321.167717 
L 273.694215 321.764747 
L 275.231405 321.167717 
L 278.305785 318.779543 
L 279.842975 319.97363 
L 281.380165 319.97363 
L 284.454545 318.779543 
L 285.991736 319.3766 
L 287.528926 318.182513 
L 290.603306 318.182513 
L 293.677686 316.988426 
L 295.214876 316.988426 
L 296.752066 316.391369 
L 298.289256 316.988426 
L 299.826446 316.391369 
L 301.363636 315.197282 
L 302.900826 316.391369 
L 304.438017 315.197282 
L 305.975207 315.197282 
L 307.512397 314.600252 
L 309.049587 314.600252 
L 310.586777 315.197282 
L 312.123967 316.391369 
L 313.661157 312.809108 
L 315.198347 312.809108 
L 316.735537 314.003195 
L 319.809917 314.003195 
L 321.347107 312.809108 
L 322.884298 314.003195 
L 324.421488 312.809108 
L 325.958678 312.809108 
L 327.495868 311.615048 
L 329.033058 311.615048 
L 330.570248 312.809108 
L 332.107438 311.615048 
L 335.181818 311.615048 
L 336.719008 312.809108 
L 338.256198 311.615048 
L 339.793388 309.226875 
L 341.330579 310.420961 
L 342.867769 309.226875 
L 344.404959 309.226875 
L 345.942149 308.032788 
L 347.479339 309.226875 
L 349.016529 309.226875 
L 350.553719 308.032788 
L 353.628099 308.032788 
L 355.165289 306.838701 
L 356.702479 308.032788 
L 359.77686 305.644614 
L 364.38843 305.644614 
L 365.92562 304.450527 
L 367.46281 305.644614 
L 369 305.644614 
L 370.53719 304.450527 
L 372.07438 304.450527 
L 373.61157 303.25644 
L 375.14876 304.450527 
L 379.760331 304.450527 
L 381.297521 302.062353 
L 382.834711 302.062353 
L 384.371901 303.25644 
L 385.909091 302.062353 
L 387.446281 302.062353 
L 388.983471 300.868266 
L 390.520661 302.062353 
L 392.057851 300.868266 
L 393.595041 300.868266 
L 395.132231 299.674179 
L 396.669421 299.674179 
L 398.206612 300.868266 
L 399.743802 300.868266 
L 401.280992 299.674179 
L 402.818182 299.674179 
L 404.355372 298.480092 
L 405.892562 298.480092 
L 407.429752 299.674179 
L 408.966942 298.480092 
L 410.504132 298.480092 
L 413.578512 296.091945 
L 415.115702 298.480092 
L 416.652893 297.286032 
L 418.190083 294.897858 
L 419.727273 296.091945 
L 421.264463 293.703771 
L 422.801653 293.703771 
L 424.338843 296.091945 
L 427.413223 293.703771 
L 428.950413 294.897858 
L 430.487603 292.509684 
L 435.099174 292.509684 
L 436.636364 294.897858 
L 438.173554 291.315597 
L 439.710744 292.509684 
L 441.247934 291.315597 
L 442.785124 291.315597 
L 445.859504 288.927423 
L 447.396694 291.315597 
L 448.933884 288.927423 
L 450.471074 288.927423 
L 452.008264 286.539249 
L 453.545455 285.345162 
L 455.082645 288.927423 
L 456.619835 286.539249 
L 458.157025 285.345162 
L 459.694215 282.956988 
L 461.231405 286.539249 
L 462.768595 285.345162 
L 464.305785 281.762928 
L 465.842975 284.151075 
L 467.380165 282.956988 
L 468.917355 282.956988 
L 470.454545 280.568841 
L 475.066116 276.98658 
L 476.603306 279.374754 
L 478.140496 276.98658 
L 479.677686 276.98658 
L 484.289256 273.40432 
L 485.826446 269.822059 
L 487.363636 273.40432 
L 488.900826 269.822059 
L 490.438017 271.016146 
L 491.975207 267.433885 
L 493.512397 269.822059 
L 495.049587 267.433885 
L 496.586777 263.851651 
L 498.123967 266.239825 
L 499.661157 263.851651 
L 501.198347 262.657564 
L 502.735537 259.075303 
L 504.272727 256.687129 
L 505.809917 259.075303 
L 508.884298 254.298955 
L 510.421488 254.298955 
L 511.958678 251.910808 
L 515.033058 251.910808 
L 521.181818 242.358113 
L 522.719008 242.358113 
L 524.256198 237.581765 
L 525.793388 239.969939 
L 535.016529 225.640922 
L 536.553719 225.640922 
L 539.628099 220.864601 
L 541.165289 213.700079 
L 544.239669 213.700079 
L 545.77686 211.311905 
L 547.31405 206.535585 
L 555 194.594715 
L 556.53719 189.818394 
L 558.07438 187.43022 
L 559.61157 182.653872 
L 561.14876 182.653872 
L 564.22314 173.101204 
L 565.760331 170.71303 
L 570.371901 156.384013 
L 571.909091 153.995839 
L 573.446281 149.219491 
L 574.983471 146.831317 
L 576.520661 139.666823 
L 578.057851 139.666823 
L 579.595041 134.890475 
L 581.132231 125.337806 
L 584.206612 120.561458 
L 587.280992 111.008789 
L 588.818182 103.844268 
L 593.429752 89.515251 
L 594.966942 82.350756 
L 596.504132 79.962582 
L 599.578512 65.633566 
L 601.115702 60.857218 
L 602.652893 58.469044 
L 604.190083 51.304549 
L 605.727273 41.751854 
L 608.801653 32.199185 
L 610.338843 20.258342 
L 611.876033 17.870168 
L 613.413223 13.09382 
L 614.950413 1.152978 
L 615.643314 -1 
L 615.643314 -1 
" clip-path="url(#pe6aa194597)" style="fill: none; stroke: #008000; stroke-width: 3.5; stroke-linecap: square"/>
   </g>
   <g id="line2d_37">
    <path d="M 125.495649 699.4 
L 126.123967 628.308721 
L 127.661157 511.773508 
L 129.198347 436.471522 
L 130.735537 391.693355 
L 132.272727 368.4087 
L 133.809917 357.13953 
L 135.347107 351.616867 
L 136.884298 348.855563 
L 138.421488 346.840546 
L 139.958678 345.497202 
L 143.033058 344.0046 
L 144.570248 343.109028 
L 146.107438 342.959771 
L 147.644628 342.213456 
L 149.181818 341.616426 
L 153.793388 340.273082 
L 155.330579 339.676025 
L 156.867769 339.526767 
L 158.404959 339.228252 
L 159.942149 338.78048 
L 161.479339 338.481938 
L 163.016529 338.034165 
L 164.553719 337.884908 
L 167.628099 337.287851 
L 169.165289 336.690821 
L 170.702479 336.392306 
L 173.77686 335.198219 
L 176.85124 335.198219 
L 178.38843 334.899704 
L 179.92562 334.899704 
L 183 333.705617 
L 186.07438 333.10856 
L 187.61157 332.51153 
L 189.14876 332.810045 
L 190.68595 331.914473 
L 192.22314 331.615958 
L 193.760331 331.914473 
L 195.297521 331.018928 
L 196.834711 331.018928 
L 198.371901 330.421871 
L 199.909091 330.421871 
L 201.446281 329.526299 
L 206.057851 329.526299 
L 207.595041 328.630754 
L 209.132231 328.929269 
L 212.206612 327.735182 
L 213.743802 328.332212 
L 215.280992 327.138152 
L 218.355372 327.138152 
L 219.892562 325.944065 
L 221.429752 327.138152 
L 222.966942 325.944065 
L 224.504132 325.944065 
L 227.578512 324.749978 
L 229.115702 324.749978 
L 230.652893 324.152921 
L 232.190083 324.152921 
L 233.727273 325.347008 
L 235.264463 324.152921 
L 236.801653 323.555891 
L 239.876033 323.555891 
L 244.487603 321.764747 
L 246.024793 321.764747 
L 249.099174 320.57066 
L 252.173554 320.57066 
L 253.710744 319.97363 
L 255.247934 321.167717 
L 256.785124 319.97363 
L 259.859504 318.779543 
L 261.396694 318.779543 
L 262.933884 319.3766 
L 264.471074 318.779543 
L 266.008264 318.779543 
L 267.545455 318.182513 
L 269.082645 316.391369 
L 272.157025 317.585456 
L 273.694215 316.988426 
L 275.231405 316.988426 
L 276.768595 317.585456 
L 278.305785 315.794339 
L 279.842975 315.197282 
L 281.380165 316.391369 
L 284.454545 316.391369 
L 285.991736 315.197282 
L 287.528926 314.600252 
L 289.066116 315.197282 
L 290.603306 314.600252 
L 292.140496 314.600252 
L 293.677686 313.406165 
L 299.826446 313.406165 
L 301.363636 311.615048 
L 302.900826 311.615048 
L 304.438017 312.212078 
L 305.975207 311.615048 
L 307.512397 312.809108 
L 310.586777 310.420961 
L 312.123967 310.420961 
L 313.661157 311.615048 
L 316.735537 309.226875 
L 318.272727 309.226875 
L 319.809917 310.420961 
L 321.347107 310.420961 
L 322.884298 308.032788 
L 324.421488 308.032788 
L 325.958678 309.226875 
L 327.495868 309.226875 
L 329.033058 308.032788 
L 332.107438 308.032788 
L 333.644628 306.838701 
L 335.181818 306.838701 
L 336.719008 308.032788 
L 338.256198 306.838701 
L 339.793388 306.838701 
L 341.330579 305.644614 
L 342.867769 306.838701 
L 344.404959 305.644614 
L 345.942149 305.644614 
L 347.479339 304.450527 
L 349.016529 304.450527 
L 350.553719 306.838701 
L 352.090909 304.450527 
L 353.628099 304.450527 
L 358.239669 300.868266 
L 359.77686 302.062353 
L 362.85124 302.062353 
L 364.38843 303.25644 
L 365.92562 300.868266 
L 367.46281 302.062353 
L 369 300.868266 
L 372.07438 300.868266 
L 373.61157 299.674179 
L 375.14876 302.062353 
L 378.22314 299.674179 
L 381.297521 299.674179 
L 382.834711 298.480092 
L 384.371901 298.480092 
L 385.909091 299.674179 
L 387.446281 297.286032 
L 388.983471 296.091945 
L 390.520661 298.480092 
L 393.595041 296.091945 
L 395.132231 298.480092 
L 396.669421 294.897858 
L 398.206612 296.091945 
L 401.280992 296.091945 
L 402.818182 297.286032 
L 404.355372 294.897858 
L 405.892562 294.897858 
L 407.429752 296.091945 
L 410.504132 293.703771 
L 412.041322 294.897858 
L 413.578512 292.509684 
L 415.115702 293.703771 
L 416.652893 293.703771 
L 419.727273 291.315597 
L 421.264463 291.315597 
L 422.801653 288.927423 
L 424.338843 291.315597 
L 425.876033 288.927423 
L 427.413223 288.927423 
L 428.950413 291.315597 
L 430.487603 292.509684 
L 432.024793 290.12151 
L 435.099174 287.733336 
L 436.636364 288.927423 
L 439.710744 286.539249 
L 441.247934 286.539249 
L 442.785124 285.345162 
L 444.322314 286.539249 
L 445.859504 286.539249 
L 447.396694 287.733336 
L 455.082645 281.762928 
L 456.619835 282.956988 
L 458.157025 281.762928 
L 459.694215 279.374754 
L 461.231405 282.956988 
L 462.768595 281.762928 
L 464.305785 279.374754 
L 467.380165 279.374754 
L 468.917355 276.98658 
L 470.454545 276.98658 
L 473.528926 274.598407 
L 475.066116 276.98658 
L 476.603306 272.210233 
L 478.140496 273.40432 
L 479.677686 272.210233 
L 481.214876 269.822059 
L 482.752066 271.016146 
L 484.289256 269.822059 
L 485.826446 272.210233 
L 487.363636 267.433885 
L 488.900826 268.627972 
L 490.438017 265.045738 
L 491.975207 266.239825 
L 493.512397 263.851651 
L 496.586777 263.851651 
L 498.123967 260.26939 
L 499.661157 260.26939 
L 501.198347 257.881216 
L 502.735537 259.075303 
L 504.272727 256.687129 
L 505.809917 256.687129 
L 510.421488 249.522634 
L 511.958678 249.522634 
L 518.107438 239.969939 
L 519.644628 242.358113 
L 521.181818 237.581765 
L 524.256198 237.581765 
L 525.793388 232.805444 
L 528.867769 232.805444 
L 530.404959 228.029096 
L 531.942149 228.029096 
L 533.479339 225.640922 
L 535.016529 220.864601 
L 538.090909 216.088253 
L 539.628099 216.088253 
L 541.165289 211.311905 
L 542.702479 208.923732 
L 544.239669 208.923732 
L 545.77686 204.147411 
L 547.31405 201.759237 
L 548.85124 204.147411 
L 550.38843 196.982889 
L 551.92562 192.206541 
L 553.46281 189.818394 
L 555 189.818394 
L 558.07438 180.265698 
L 559.61157 180.265698 
L 561.14876 177.877525 
L 565.760331 163.548508 
L 568.834711 158.772187 
L 571.909091 149.219491 
L 573.446281 146.831317 
L 574.983471 142.054997 
L 576.520661 134.890475 
L 578.057851 134.890475 
L 579.595041 127.72598 
L 581.132231 125.337806 
L 582.669421 118.173284 
L 585.743802 113.396963 
L 587.280992 103.844268 
L 588.818182 101.456094 
L 591.892562 87.127077 
L 593.429752 82.350756 
L 596.504132 77.574408 
L 598.041322 68.02174 
L 599.578512 63.245392 
L 601.115702 53.692723 
L 604.190083 44.140027 
L 605.727273 36.975533 
L 607.264463 32.199185 
L 610.338843 17.870168 
L 613.375376 -1 
L 613.375376 -1 
" clip-path="url(#pe6aa194597)" style="fill: none; stroke-dasharray: 12.95,5.6; stroke-dashoffset: 0; stroke: #000000; stroke-width: 3.5"/>
   </g>
   <g id="patch_3">
    <path d="M 90 621.576 
L 90 83.808 
" style="fill: none; stroke: #000000; stroke-width: 0.8; stroke-linejoin: miter; stroke-linecap: square"/>
   </g>
   <g id="patch_4">
    <path d="M 648 621.576 
L 648 83.808 
" style="fill: none; stroke: #000000; stroke-width: 0.8; stroke-linejoin: miter; stroke-linecap: square"/>
   </g>
   <g id="patch_5">
    <path d="M 90 621.576 
L 648 621.576 
" style="fill: none; stroke: #000000; stroke-width: 0.8; stroke-linejoin: miter; stroke-linecap: square"/>
   </g>
   <g id="patch_6">
    <path d="M 90 83.808 
L 648 83.808 
" style="fill: none; stroke: #000000; stroke-width: 0.8; stroke-linejoin: miter; stroke-linecap: square"/>
   </g>
   <g id="legend_1">
    <g id="patch_7">
     <path d="M 101.2 214.033 
L 172.715 214.033 
Q 175.915 214.033 175.915 210.833 
L 175.915 95.008 
Q 175.915 91.808 172.715 91.808 
L 101.2 91.808 
Q 98 91.808 98 95.008 
L 98 210.833 
Q 98 214.033 101.2 214.033 
z
" style="fill: #ffffff; opacity: 0.8; stroke: #cccccc; stroke-linejoin: miter"/>
    </g>
    <g id="line2d_38">
     <path d="M 104.4 104.7655 
L 120.4 104.7655 
L 136.4 104.7655 
" style="fill: none; stroke-dasharray: 3.5,5.775; stroke-dashoffset: 0; stroke: #0000ff; stroke-width: 3.5"/>
    </g>
    <g id="text_19">
     <!-- FF -->
     <g transform="translate(149.2 110.3655) scale(0.16 -0.16)">
      <defs>
       <path id="DejaVuSans-46" d="M 628 4666 
L 3309 4666 
L 3309 4134 
L 1259 4134 
L 1259 2759 
L 3109 2759 
L 3109 2228 
L 1259 2228 
L 1259 0 
L 628 0 
L 628 4666 
z
" transform="scale(0.015625)"/>
      </defs>
      <use xlink:href="#DejaVuSans-46"/>
      <use xlink:href="#DejaVuSans-46" x="57.519531"/>
     </g>
    </g>
    <g id="line2d_39">
     <path d="M 104.4 128.2505 
L 120.4 128.2505 
L 136.4 128.2505 
" style="fill: none; stroke: #ff0000; stroke-width: 3.5; stroke-linecap: square"/>
    </g>
    <g id="text_20">
     <!-- FS -->
     <g transform="translate(149.2 133.8505) scale(0.16 -0.16)">
      <defs>
       <path id="DejaVuSans-53" d="M 3425 4513 
L 3425 3897 
Q 3066 4069 2747 4153 
Q 2428 4238 2131 4238 
Q 1616 4238 1336 4038 
Q 1056 3838 1056 3469 
Q 1056 3159 1242 3001 
Q 1428 2844 1947 2747 
L 2328 2669 
Q 3034 2534 3370 2195 
Q 3706 1856 3706 1288 
Q 3706 609 3251 259 
Q 2797 -91 1919 -91 
Q 1588 -91 1214 -16 
Q 841 59 441 206 
L 441 856 
Q 825 641 1194 531 
Q 1563 422 1919 422 
Q 2459 422 2753 634 
Q 3047 847 3047 1241 
Q 3047 1584 2836 1778 
Q 2625 1972 2144 2069 
L 1759 2144 
Q 1053 2284 737 2584 
Q 422 2884 422 3419 
Q 422 4038 858 4394 
Q 1294 4750 2059 4750 
Q 2388 4750 2728 4690 
Q 3069 4631 3425 4513 
z
" transform="scale(0.015625)"/>
      </defs>
      <use xlink:href="#DejaVuSans-46"/>
      <use xlink:href="#DejaVuSans-53" x="55.769531"/>
     </g>
    </g>
    <g id="line2d_40">
     <path d="M 104.4 151.7355 
L 120.4 151.7355 
L 136.4 151.7355 
" style="fill: none; stroke: #bf00bf; stroke-width: 3.5; stroke-linecap: square"/>
    </g>
    <g id="text_21">
     <!-- SF -->
     <g transform="translate(149.2 157.3355) scale(0.16 -0.16)">
      <use xlink:href="#DejaVuSans-53"/>
      <use xlink:href="#DejaVuSans-46" x="63.476562"/>
     </g>
    </g>
    <g id="line2d_41">
     <path d="M 104.4 175.2205 
L 120.4 175.2205 
L 136.4 175.2205 
" style="fill: none; stroke: #008000; stroke-width: 3.5; stroke-linecap: square"/>
    </g>
    <g id="text_22">
     <!-- SS -->
     <g transform="translate(149.2 180.8205) scale(0.16 -0.16)">
      <use xlink:href="#DejaVuSans-53"/>
      <use xlink:href="#DejaVuSans-53" x="63.476562"/>
     </g>
    </g>
    <g id="line2d_42">
     <path d="M 104.4 198.7055 
L 120.4 198.7055 
L 136.4 198.7055 
" style="fill: none; stroke-dasharray: 12.95,5.6; stroke-dashoffset: 0; stroke: #000000; stroke-width: 3.5"/>
    </g>
    <g id="text_23">
     <!-- TT -->
     <g transform="translate(149.2 204.3055) scale(0.16 -0.16)">
      <defs>
       <path id="DejaVuSans-54" d="M -19 4666 
L 3928 4666 
L 3928 4134 
L 2272 4134 
L 2272 0 
L 1638 0 
L 1638 4134 
L -19 4134 
L -19 4666 
z
" transform="scale(0.015625)"/>
      </defs>
      <use xlink:href="#DejaVuSans-54"/>
      <use xlink:href="#DejaVuSans-54" x="59.333984"/>
     </g>
    </g>
   </g>
  </g>
 </g>
 <defs>
  <clipPath id="pe6aa194597">
   <rect x="90" y="83.808" width="558" height="537.768"/>
  </clipPath>
 </defs>
</svg>
