<?xml version="1.0" encoding="utf-8" standalone="no"?>
<!DOCTYPE svg PUBLIC "-//W3C//DTD SVG 1.1//EN"
  "http://www.w3.org/Graphics/SVG/1.1/DTD/svg11.dtd">
<svg xmlns:xlink="http://www.w3.org/1999/xlink" width="864pt" height="576pt" viewBox="0 0 864 576" xmlns="http://www.w3.org/2000/svg" version="1.1">
 <metadata>
  <rdf:RDF xmlns:dc="http://purl.org/dc/elements/1.1/" xmlns:cc="http://creativecommons.org/ns#" xmlns:rdf="http://www.w3.org/1999/02/22-rdf-syntax-ns#">
   <cc:Work>
    <dc:type rdf:resource="http://purl.org/dc/dcmitype/StillImage"/>
    <dc:date>2024-02-01T20:25:27.150863</dc:date>
    <dc:format>image/svg+xml</dc:format>
    <dc:creator>
     <cc:Agent>
      <dc:title>Matplotlib v3.7.2, https://matplotlib.org/</dc:title>
     </cc:Agent>
    </dc:creator>
   </cc:Work>
  </rdf:RDF>
 </metadata>
 <defs>
  <style type="text/css">*{stroke-linejoin: round; stroke-linecap: butt}</style>
 </defs>
 <g id="figure_1">
  <g id="patch_1">
   <path d="M 0 576 
L 864 576 
L 864 0 
L 0 0 
z
" style="fill: #ffffff"/>
  </g>
  <g id="axes_1">
   <g id="patch_2">
    <path d="M 108 512.64 
L 777.6 512.64 
L 777.6 69.12 
L 108 69.12 
z
" style="fill: #ffffff"/>
   </g>
   <g id="matplotlib.axis_1">
    <g id="xtick_1">
     <g id="line2d_1">
      <path d="M 108 512.64 
L 108 69.12 
" clip-path="url(#pc07b561494)" style="fill: none; stroke: #b0b0b0; stroke-width: 0.5; stroke-linecap: square"/>
     </g>
     <g id="line2d_2">
      <defs>
       <path id="m5785704e5c" d="M 0 0 
L 0 3.5 
" style="stroke: #000000; stroke-width: 0.8"/>
      </defs>
      <g>
       <use xlink:href="#m5785704e5c" x="108" y="512.64" style="stroke: #000000; stroke-width: 0.8"/>
      </g>
     </g>
     <g id="text_1">
      <!-- $\mathdefault{10^{-2}}$ -->
      <g transform="translate(86.85 533.317188) scale(0.18 -0.18)">
       <defs>
        <path id="DejaVuSans-31" d="M 794 531 
L 1825 531 
L 1825 4091 
L 703 3866 
L 703 4441 
L 1819 4666 
L 2450 4666 
L 2450 531 
L 3481 531 
L 3481 0 
L 794 0 
L 794 531 
z
" transform="scale(0.015625)"/>
        <path id="DejaVuSans-30" d="M 2034 4250 
Q 1547 4250 1301 3770 
Q 1056 3291 1056 2328 
Q 1056 1369 1301 889 
Q 1547 409 2034 409 
Q 2525 409 2770 889 
Q 3016 1369 3016 2328 
Q 3016 3291 2770 3770 
Q 2525 4250 2034 4250 
z
M 2034 4750 
Q 2819 4750 3233 4129 
Q 3647 3509 3647 2328 
Q 3647 1150 3233 529 
Q 2819 -91 2034 -91 
Q 1250 -91 836 529 
Q 422 1150 422 2328 
Q 422 3509 836 4129 
Q 1250 4750 2034 4750 
z
" transform="scale(0.015625)"/>
        <path id="DejaVuSans-2212" d="M 678 2272 
L 4684 2272 
L 4684 1741 
L 678 1741 
L 678 2272 
z
" transform="scale(0.015625)"/>
        <path id="DejaVuSans-32" d="M 1228 531 
L 3431 531 
L 3431 0 
L 469 0 
L 469 531 
Q 828 903 1448 1529 
Q 2069 2156 2228 2338 
Q 2531 2678 2651 2914 
Q 2772 3150 2772 3378 
Q 2772 3750 2511 3984 
Q 2250 4219 1831 4219 
Q 1534 4219 1204 4116 
Q 875 4013 500 3803 
L 500 4441 
Q 881 4594 1212 4672 
Q 1544 4750 1819 4750 
Q 2544 4750 2975 4387 
Q 3406 4025 3406 3419 
Q 3406 3131 3298 2873 
Q 3191 2616 2906 2266 
Q 2828 2175 2409 1742 
Q 1991 1309 1228 531 
z
" transform="scale(0.015625)"/>
       </defs>
       <use xlink:href="#DejaVuSans-31" transform="translate(0 0.765625)"/>
       <use xlink:href="#DejaVuSans-30" transform="translate(63.623047 0.765625)"/>
       <use xlink:href="#DejaVuSans-2212" transform="translate(128.203125 39.046875) scale(0.7)"/>
       <use xlink:href="#DejaVuSans-32" transform="translate(186.855469 39.046875) scale(0.7)"/>
      </g>
     </g>
    </g>
    <g id="xtick_2">
     <g id="line2d_3">
      <path d="M 241.92 512.64 
L 241.92 69.12 
" clip-path="url(#pc07b561494)" style="fill: none; stroke: #b0b0b0; stroke-width: 0.5; stroke-linecap: square"/>
     </g>
     <g id="line2d_4">
      <g>
       <use xlink:href="#m5785704e5c" x="241.92" y="512.64" style="stroke: #000000; stroke-width: 0.8"/>
      </g>
     </g>
     <g id="text_2">
      <!-- $\mathdefault{10^{-1}}$ -->
      <g transform="translate(220.77 533.317188) scale(0.18 -0.18)">
       <use xlink:href="#DejaVuSans-31" transform="translate(0 0.684375)"/>
       <use xlink:href="#DejaVuSans-30" transform="translate(63.623047 0.684375)"/>
       <use xlink:href="#DejaVuSans-2212" transform="translate(128.203125 38.965625) scale(0.7)"/>
       <use xlink:href="#DejaVuSans-31" transform="translate(186.855469 38.965625) scale(0.7)"/>
      </g>
     </g>
    </g>
    <g id="xtick_3">
     <g id="line2d_5">
      <path d="M 375.84 512.64 
L 375.84 69.12 
" clip-path="url(#pc07b561494)" style="fill: none; stroke: #b0b0b0; stroke-width: 0.5; stroke-linecap: square"/>
     </g>
     <g id="line2d_6">
      <g>
       <use xlink:href="#m5785704e5c" x="375.84" y="512.64" style="stroke: #000000; stroke-width: 0.8"/>
      </g>
     </g>
     <g id="text_3">
      <!-- $\mathdefault{10^{0}}$ -->
      <g transform="translate(360 533.317188) scale(0.18 -0.18)">
       <use xlink:href="#DejaVuSans-31" transform="translate(0 0.765625)"/>
       <use xlink:href="#DejaVuSans-30" transform="translate(63.623047 0.765625)"/>
       <use xlink:href="#DejaVuSans-30" transform="translate(128.203125 39.046875) scale(0.7)"/>
      </g>
     </g>
    </g>
    <g id="xtick_4">
     <g id="line2d_7">
      <path d="M 509.76 512.64 
L 509.76 69.12 
" clip-path="url(#pc07b561494)" style="fill: none; stroke: #b0b0b0; stroke-width: 0.5; stroke-linecap: square"/>
     </g>
     <g id="line2d_8">
      <g>
       <use xlink:href="#m5785704e5c" x="509.76" y="512.64" style="stroke: #000000; stroke-width: 0.8"/>
      </g>
     </g>
     <g id="text_4">
      <!-- $\mathdefault{10^{1}}$ -->
      <g transform="translate(493.92 533.317188) scale(0.18 -0.18)">
       <use xlink:href="#DejaVuSans-31" transform="translate(0 0.684375)"/>
       <use xlink:href="#DejaVuSans-30" transform="translate(63.623047 0.684375)"/>
       <use xlink:href="#DejaVuSans-31" transform="translate(128.203125 38.965625) scale(0.7)"/>
      </g>
     </g>
    </g>
    <g id="xtick_5">
     <g id="line2d_9">
      <path d="M 643.68 512.64 
L 643.68 69.12 
" clip-path="url(#pc07b561494)" style="fill: none; stroke: #b0b0b0; stroke-width: 0.5; stroke-linecap: square"/>
     </g>
     <g id="line2d_10">
      <g>
       <use xlink:href="#m5785704e5c" x="643.68" y="512.64" style="stroke: #000000; stroke-width: 0.8"/>
      </g>
     </g>
     <g id="text_5">
      <!-- $\mathdefault{10^{2}}$ -->
      <g transform="translate(627.84 533.317188) scale(0.18 -0.18)">
       <use xlink:href="#DejaVuSans-31" transform="translate(0 0.765625)"/>
       <use xlink:href="#DejaVuSans-30" transform="translate(63.623047 0.765625)"/>
       <use xlink:href="#DejaVuSans-32" transform="translate(128.203125 39.046875) scale(0.7)"/>
      </g>
     </g>
    </g>
    <g id="xtick_6">
     <g id="line2d_11">
      <path d="M 777.6 512.64 
L 777.6 69.12 
" clip-path="url(#pc07b561494)" style="fill: none; stroke: #b0b0b0; stroke-width: 0.5; stroke-linecap: square"/>
     </g>
     <g id="line2d_12">
      <g>
       <use xlink:href="#m5785704e5c" x="777.6" y="512.64" style="stroke: #000000; stroke-width: 0.8"/>
      </g>
     </g>
     <g id="text_6">
      <!-- $\mathdefault{10^{3}}$ -->
      <g transform="translate(761.76 533.317188) scale(0.18 -0.18)">
       <defs>
        <path id="DejaVuSans-33" d="M 2597 2516 
Q 3050 2419 3304 2112 
Q 3559 1806 3559 1356 
Q 3559 666 3084 287 
Q 2609 -91 1734 -91 
Q 1441 -91 1130 -33 
Q 819 25 488 141 
L 488 750 
Q 750 597 1062 519 
Q 1375 441 1716 441 
Q 2309 441 2620 675 
Q 2931 909 2931 1356 
Q 2931 1769 2642 2001 
Q 2353 2234 1838 2234 
L 1294 2234 
L 1294 2753 
L 1863 2753 
Q 2328 2753 2575 2939 
Q 2822 3125 2822 3475 
Q 2822 3834 2567 4026 
Q 2313 4219 1838 4219 
Q 1578 4219 1281 4162 
Q 984 4106 628 3988 
L 628 4550 
Q 988 4650 1302 4700 
Q 1616 4750 1894 4750 
Q 2613 4750 3031 4423 
Q 3450 4097 3450 3541 
Q 3450 3153 3228 2886 
Q 3006 2619 2597 2516 
z
" transform="scale(0.015625)"/>
       </defs>
       <use xlink:href="#DejaVuSans-31" transform="translate(0 0.765625)"/>
       <use xlink:href="#DejaVuSans-30" transform="translate(63.623047 0.765625)"/>
       <use xlink:href="#DejaVuSans-33" transform="translate(128.203125 39.046875) scale(0.7)"/>
      </g>
     </g>
    </g>
    <g id="xtick_7">
     <g id="line2d_13">
      <defs>
       <path id="me13d6b6850" d="M 0 0 
L 0 2 
" style="stroke: #000000; stroke-width: 0.6"/>
      </defs>
      <g>
       <use xlink:href="#me13d6b6850" x="148.313937" y="512.64" style="stroke: #000000; stroke-width: 0.6"/>
      </g>
     </g>
    </g>
    <g id="xtick_8">
     <g id="line2d_14">
      <g>
       <use xlink:href="#me13d6b6850" x="171.896078" y="512.64" style="stroke: #000000; stroke-width: 0.6"/>
      </g>
     </g>
    </g>
    <g id="xtick_9">
     <g id="line2d_15">
      <g>
       <use xlink:href="#me13d6b6850" x="188.627874" y="512.64" style="stroke: #000000; stroke-width: 0.6"/>
      </g>
     </g>
    </g>
    <g id="xtick_10">
     <g id="line2d_16">
      <g>
       <use xlink:href="#me13d6b6850" x="201.606063" y="512.64" style="stroke: #000000; stroke-width: 0.6"/>
      </g>
     </g>
    </g>
    <g id="xtick_11">
     <g id="line2d_17">
      <g>
       <use xlink:href="#me13d6b6850" x="212.210015" y="512.64" style="stroke: #000000; stroke-width: 0.6"/>
      </g>
     </g>
    </g>
    <g id="xtick_12">
     <g id="line2d_18">
      <g>
       <use xlink:href="#me13d6b6850" x="221.17553" y="512.64" style="stroke: #000000; stroke-width: 0.6"/>
      </g>
     </g>
    </g>
    <g id="xtick_13">
     <g id="line2d_19">
      <g>
       <use xlink:href="#me13d6b6850" x="228.941811" y="512.64" style="stroke: #000000; stroke-width: 0.6"/>
      </g>
     </g>
    </g>
    <g id="xtick_14">
     <g id="line2d_20">
      <g>
       <use xlink:href="#me13d6b6850" x="235.792157" y="512.64" style="stroke: #000000; stroke-width: 0.6"/>
      </g>
     </g>
    </g>
    <g id="xtick_15">
     <g id="line2d_21">
      <g>
       <use xlink:href="#me13d6b6850" x="282.233937" y="512.64" style="stroke: #000000; stroke-width: 0.6"/>
      </g>
     </g>
    </g>
    <g id="xtick_16">
     <g id="line2d_22">
      <g>
       <use xlink:href="#me13d6b6850" x="305.816078" y="512.64" style="stroke: #000000; stroke-width: 0.6"/>
      </g>
     </g>
    </g>
    <g id="xtick_17">
     <g id="line2d_23">
      <g>
       <use xlink:href="#me13d6b6850" x="322.547874" y="512.64" style="stroke: #000000; stroke-width: 0.6"/>
      </g>
     </g>
    </g>
    <g id="xtick_18">
     <g id="line2d_24">
      <g>
       <use xlink:href="#me13d6b6850" x="335.526063" y="512.64" style="stroke: #000000; stroke-width: 0.6"/>
      </g>
     </g>
    </g>
    <g id="xtick_19">
     <g id="line2d_25">
      <g>
       <use xlink:href="#me13d6b6850" x="346.130015" y="512.64" style="stroke: #000000; stroke-width: 0.6"/>
      </g>
     </g>
    </g>
    <g id="xtick_20">
     <g id="line2d_26">
      <g>
       <use xlink:href="#me13d6b6850" x="355.09553" y="512.64" style="stroke: #000000; stroke-width: 0.6"/>
      </g>
     </g>
    </g>
    <g id="xtick_21">
     <g id="line2d_27">
      <g>
       <use xlink:href="#me13d6b6850" x="362.861811" y="512.64" style="stroke: #000000; stroke-width: 0.6"/>
      </g>
     </g>
    </g>
    <g id="xtick_22">
     <g id="line2d_28">
      <g>
       <use xlink:href="#me13d6b6850" x="369.712157" y="512.64" style="stroke: #000000; stroke-width: 0.6"/>
      </g>
     </g>
    </g>
    <g id="xtick_23">
     <g id="line2d_29">
      <g>
       <use xlink:href="#me13d6b6850" x="416.153937" y="512.64" style="stroke: #000000; stroke-width: 0.6"/>
      </g>
     </g>
    </g>
    <g id="xtick_24">
     <g id="line2d_30">
      <g>
       <use xlink:href="#me13d6b6850" x="439.736078" y="512.64" style="stroke: #000000; stroke-width: 0.6"/>
      </g>
     </g>
    </g>
    <g id="xtick_25">
     <g id="line2d_31">
      <g>
       <use xlink:href="#me13d6b6850" x="456.467874" y="512.64" style="stroke: #000000; stroke-width: 0.6"/>
      </g>
     </g>
    </g>
    <g id="xtick_26">
     <g id="line2d_32">
      <g>
       <use xlink:href="#me13d6b6850" x="469.446063" y="512.64" style="stroke: #000000; stroke-width: 0.6"/>
      </g>
     </g>
    </g>
    <g id="xtick_27">
     <g id="line2d_33">
      <g>
       <use xlink:href="#me13d6b6850" x="480.050015" y="512.64" style="stroke: #000000; stroke-width: 0.6"/>
      </g>
     </g>
    </g>
    <g id="xtick_28">
     <g id="line2d_34">
      <g>
       <use xlink:href="#me13d6b6850" x="489.01553" y="512.64" style="stroke: #000000; stroke-width: 0.6"/>
      </g>
     </g>
    </g>
    <g id="xtick_29">
     <g id="line2d_35">
      <g>
       <use xlink:href="#me13d6b6850" x="496.781811" y="512.64" style="stroke: #000000; stroke-width: 0.6"/>
      </g>
     </g>
    </g>
    <g id="xtick_30">
     <g id="line2d_36">
      <g>
       <use xlink:href="#me13d6b6850" x="503.632157" y="512.64" style="stroke: #000000; stroke-width: 0.6"/>
      </g>
     </g>
    </g>
    <g id="xtick_31">
     <g id="line2d_37">
      <g>
       <use xlink:href="#me13d6b6850" x="550.073937" y="512.64" style="stroke: #000000; stroke-width: 0.6"/>
      </g>
     </g>
    </g>
    <g id="xtick_32">
     <g id="line2d_38">
      <g>
       <use xlink:href="#me13d6b6850" x="573.656078" y="512.64" style="stroke: #000000; stroke-width: 0.6"/>
      </g>
     </g>
    </g>
    <g id="xtick_33">
     <g id="line2d_39">
      <g>
       <use xlink:href="#me13d6b6850" x="590.387874" y="512.64" style="stroke: #000000; stroke-width: 0.6"/>
      </g>
     </g>
    </g>
    <g id="xtick_34">
     <g id="line2d_40">
      <g>
       <use xlink:href="#me13d6b6850" x="603.366063" y="512.64" style="stroke: #000000; stroke-width: 0.6"/>
      </g>
     </g>
    </g>
    <g id="xtick_35">
     <g id="line2d_41">
      <g>
       <use xlink:href="#me13d6b6850" x="613.970015" y="512.64" style="stroke: #000000; stroke-width: 0.6"/>
      </g>
     </g>
    </g>
    <g id="xtick_36">
     <g id="line2d_42">
      <g>
       <use xlink:href="#me13d6b6850" x="622.93553" y="512.64" style="stroke: #000000; stroke-width: 0.6"/>
      </g>
     </g>
    </g>
    <g id="xtick_37">
     <g id="line2d_43">
      <g>
       <use xlink:href="#me13d6b6850" x="630.701811" y="512.64" style="stroke: #000000; stroke-width: 0.6"/>
      </g>
     </g>
    </g>
    <g id="xtick_38">
     <g id="line2d_44">
      <g>
       <use xlink:href="#me13d6b6850" x="637.552157" y="512.64" style="stroke: #000000; stroke-width: 0.6"/>
      </g>
     </g>
    </g>
    <g id="xtick_39">
     <g id="line2d_45">
      <g>
       <use xlink:href="#me13d6b6850" x="683.993937" y="512.64" style="stroke: #000000; stroke-width: 0.6"/>
      </g>
     </g>
    </g>
    <g id="xtick_40">
     <g id="line2d_46">
      <g>
       <use xlink:href="#me13d6b6850" x="707.576078" y="512.64" style="stroke: #000000; stroke-width: 0.6"/>
      </g>
     </g>
    </g>
    <g id="xtick_41">
     <g id="line2d_47">
      <g>
       <use xlink:href="#me13d6b6850" x="724.307874" y="512.64" style="stroke: #000000; stroke-width: 0.6"/>
      </g>
     </g>
    </g>
    <g id="xtick_42">
     <g id="line2d_48">
      <g>
       <use xlink:href="#me13d6b6850" x="737.286063" y="512.64" style="stroke: #000000; stroke-width: 0.6"/>
      </g>
     </g>
    </g>
    <g id="xtick_43">
     <g id="line2d_49">
      <g>
       <use xlink:href="#me13d6b6850" x="747.890015" y="512.64" style="stroke: #000000; stroke-width: 0.6"/>
      </g>
     </g>
    </g>
    <g id="xtick_44">
     <g id="line2d_50">
      <g>
       <use xlink:href="#me13d6b6850" x="756.85553" y="512.64" style="stroke: #000000; stroke-width: 0.6"/>
      </g>
     </g>
    </g>
    <g id="xtick_45">
     <g id="line2d_51">
      <g>
       <use xlink:href="#me13d6b6850" x="764.621811" y="512.64" style="stroke: #000000; stroke-width: 0.6"/>
      </g>
     </g>
    </g>
    <g id="xtick_46">
     <g id="line2d_52">
      <g>
       <use xlink:href="#me13d6b6850" x="771.472157" y="512.64" style="stroke: #000000; stroke-width: 0.6"/>
      </g>
     </g>
    </g>
    <g id="text_7">
     <!-- Frequency [Hz] -->
     <g transform="translate(344.767812 560.816563) scale(0.26 -0.26)">
      <defs>
       <path id="DejaVuSans-46" d="M 628 4666 
L 3309 4666 
L 3309 4134 
L 1259 4134 
L 1259 2759 
L 3109 2759 
L 3109 2228 
L 1259 2228 
L 1259 0 
L 628 0 
L 628 4666 
z
" transform="scale(0.015625)"/>
       <path id="DejaVuSans-72" d="M 2631 2963 
Q 2534 3019 2420 3045 
Q 2306 3072 2169 3072 
Q 1681 3072 1420 2755 
Q 1159 2438 1159 1844 
L 1159 0 
L 581 0 
L 581 3500 
L 1159 3500 
L 1159 2956 
Q 1341 3275 1631 3429 
Q 1922 3584 2338 3584 
Q 2397 3584 2469 3576 
Q 2541 3569 2628 3553 
L 2631 2963 
z
" transform="scale(0.015625)"/>
       <path id="DejaVuSans-65" d="M 3597 1894 
L 3597 1613 
L 953 1613 
Q 991 1019 1311 708 
Q 1631 397 2203 397 
Q 2534 397 2845 478 
Q 3156 559 3463 722 
L 3463 178 
Q 3153 47 2828 -22 
Q 2503 -91 2169 -91 
Q 1331 -91 842 396 
Q 353 884 353 1716 
Q 353 2575 817 3079 
Q 1281 3584 2069 3584 
Q 2775 3584 3186 3129 
Q 3597 2675 3597 1894 
z
M 3022 2063 
Q 3016 2534 2758 2815 
Q 2500 3097 2075 3097 
Q 1594 3097 1305 2825 
Q 1016 2553 972 2059 
L 3022 2063 
z
" transform="scale(0.015625)"/>
       <path id="DejaVuSans-71" d="M 947 1747 
Q 947 1113 1208 752 
Q 1469 391 1925 391 
Q 2381 391 2643 752 
Q 2906 1113 2906 1747 
Q 2906 2381 2643 2742 
Q 2381 3103 1925 3103 
Q 1469 3103 1208 2742 
Q 947 2381 947 1747 
z
M 2906 525 
Q 2725 213 2448 61 
Q 2172 -91 1784 -91 
Q 1150 -91 751 415 
Q 353 922 353 1747 
Q 353 2572 751 3078 
Q 1150 3584 1784 3584 
Q 2172 3584 2448 3432 
Q 2725 3281 2906 2969 
L 2906 3500 
L 3481 3500 
L 3481 -1331 
L 2906 -1331 
L 2906 525 
z
" transform="scale(0.015625)"/>
       <path id="DejaVuSans-75" d="M 544 1381 
L 544 3500 
L 1119 3500 
L 1119 1403 
Q 1119 906 1312 657 
Q 1506 409 1894 409 
Q 2359 409 2629 706 
Q 2900 1003 2900 1516 
L 2900 3500 
L 3475 3500 
L 3475 0 
L 2900 0 
L 2900 538 
Q 2691 219 2414 64 
Q 2138 -91 1772 -91 
Q 1169 -91 856 284 
Q 544 659 544 1381 
z
M 1991 3584 
L 1991 3584 
z
" transform="scale(0.015625)"/>
       <path id="DejaVuSans-6e" d="M 3513 2113 
L 3513 0 
L 2938 0 
L 2938 2094 
Q 2938 2591 2744 2837 
Q 2550 3084 2163 3084 
Q 1697 3084 1428 2787 
Q 1159 2491 1159 1978 
L 1159 0 
L 581 0 
L 581 3500 
L 1159 3500 
L 1159 2956 
Q 1366 3272 1645 3428 
Q 1925 3584 2291 3584 
Q 2894 3584 3203 3211 
Q 3513 2838 3513 2113 
z
" transform="scale(0.015625)"/>
       <path id="DejaVuSans-63" d="M 3122 3366 
L 3122 2828 
Q 2878 2963 2633 3030 
Q 2388 3097 2138 3097 
Q 1578 3097 1268 2742 
Q 959 2388 959 1747 
Q 959 1106 1268 751 
Q 1578 397 2138 397 
Q 2388 397 2633 464 
Q 2878 531 3122 666 
L 3122 134 
Q 2881 22 2623 -34 
Q 2366 -91 2075 -91 
Q 1284 -91 818 406 
Q 353 903 353 1747 
Q 353 2603 823 3093 
Q 1294 3584 2113 3584 
Q 2378 3584 2631 3529 
Q 2884 3475 3122 3366 
z
" transform="scale(0.015625)"/>
       <path id="DejaVuSans-79" d="M 2059 -325 
Q 1816 -950 1584 -1140 
Q 1353 -1331 966 -1331 
L 506 -1331 
L 506 -850 
L 844 -850 
Q 1081 -850 1212 -737 
Q 1344 -625 1503 -206 
L 1606 56 
L 191 3500 
L 800 3500 
L 1894 763 
L 2988 3500 
L 3597 3500 
L 2059 -325 
z
" transform="scale(0.015625)"/>
       <path id="DejaVuSans-20" transform="scale(0.015625)"/>
       <path id="DejaVuSans-5b" d="M 550 4863 
L 1875 4863 
L 1875 4416 
L 1125 4416 
L 1125 -397 
L 1875 -397 
L 1875 -844 
L 550 -844 
L 550 4863 
z
" transform="scale(0.015625)"/>
       <path id="DejaVuSans-48" d="M 628 4666 
L 1259 4666 
L 1259 2753 
L 3553 2753 
L 3553 4666 
L 4184 4666 
L 4184 0 
L 3553 0 
L 3553 2222 
L 1259 2222 
L 1259 0 
L 628 0 
L 628 4666 
z
" transform="scale(0.015625)"/>
       <path id="DejaVuSans-7a" d="M 353 3500 
L 3084 3500 
L 3084 2975 
L 922 459 
L 3084 459 
L 3084 0 
L 275 0 
L 275 525 
L 2438 3041 
L 353 3041 
L 353 3500 
z
" transform="scale(0.015625)"/>
       <path id="DejaVuSans-5d" d="M 1947 4863 
L 1947 -844 
L 622 -844 
L 622 -397 
L 1369 -397 
L 1369 4416 
L 622 4416 
L 622 4863 
L 1947 4863 
z
" transform="scale(0.015625)"/>
      </defs>
      <use xlink:href="#DejaVuSans-46"/>
      <use xlink:href="#DejaVuSans-72" x="50.269531"/>
      <use xlink:href="#DejaVuSans-65" x="89.132812"/>
      <use xlink:href="#DejaVuSans-71" x="150.65625"/>
      <use xlink:href="#DejaVuSans-75" x="214.132812"/>
      <use xlink:href="#DejaVuSans-65" x="277.511719"/>
      <use xlink:href="#DejaVuSans-6e" x="339.035156"/>
      <use xlink:href="#DejaVuSans-63" x="402.414062"/>
      <use xlink:href="#DejaVuSans-79" x="457.394531"/>
      <use xlink:href="#DejaVuSans-20" x="516.574219"/>
      <use xlink:href="#DejaVuSans-5b" x="548.361328"/>
      <use xlink:href="#DejaVuSans-48" x="587.375"/>
      <use xlink:href="#DejaVuSans-7a" x="662.570312"/>
      <use xlink:href="#DejaVuSans-5d" x="715.060547"/>
     </g>
    </g>
   </g>
   <g id="matplotlib.axis_2">
    <g id="ytick_1">
     <g id="line2d_53">
      <path d="M 108 492.49309 
L 777.6 492.49309 
" clip-path="url(#pc07b561494)" style="fill: none; stroke: #b0b0b0; stroke-width: 0.5; stroke-linecap: square"/>
     </g>
     <g id="line2d_54">
      <defs>
       <path id="ma87a9b0162" d="M 0 0 
L -3.5 0 
" style="stroke: #000000; stroke-width: 0.8"/>
      </defs>
      <g>
       <use xlink:href="#ma87a9b0162" x="108" y="492.49309" style="stroke: #000000; stroke-width: 0.8"/>
      </g>
     </g>
     <g id="text_8">
      <!-- 0 -->
      <g transform="translate(89.5475 499.331683) scale(0.18 -0.18)">
       <use xlink:href="#DejaVuSans-30"/>
      </g>
     </g>
    </g>
    <g id="ytick_2">
     <g id="line2d_55">
      <path d="M 108 402.630513 
L 777.6 402.630513 
" clip-path="url(#pc07b561494)" style="fill: none; stroke: #b0b0b0; stroke-width: 0.5; stroke-linecap: square"/>
     </g>
     <g id="line2d_56">
      <g>
       <use xlink:href="#ma87a9b0162" x="108" y="402.630513" style="stroke: #000000; stroke-width: 0.8"/>
      </g>
     </g>
     <g id="text_9">
      <!-- 50 -->
      <g transform="translate(78.095 409.469107) scale(0.18 -0.18)">
       <defs>
        <path id="DejaVuSans-35" d="M 691 4666 
L 3169 4666 
L 3169 4134 
L 1269 4134 
L 1269 2991 
Q 1406 3038 1543 3061 
Q 1681 3084 1819 3084 
Q 2600 3084 3056 2656 
Q 3513 2228 3513 1497 
Q 3513 744 3044 326 
Q 2575 -91 1722 -91 
Q 1428 -91 1123 -41 
Q 819 9 494 109 
L 494 744 
Q 775 591 1075 516 
Q 1375 441 1709 441 
Q 2250 441 2565 725 
Q 2881 1009 2881 1497 
Q 2881 1984 2565 2268 
Q 2250 2553 1709 2553 
Q 1456 2553 1204 2497 
Q 953 2441 691 2322 
L 691 4666 
z
" transform="scale(0.015625)"/>
       </defs>
       <use xlink:href="#DejaVuSans-35"/>
       <use xlink:href="#DejaVuSans-30" x="63.623047"/>
      </g>
     </g>
    </g>
    <g id="ytick_3">
     <g id="line2d_57">
      <path d="M 108 312.767937 
L 777.6 312.767937 
" clip-path="url(#pc07b561494)" style="fill: none; stroke: #b0b0b0; stroke-width: 0.5; stroke-linecap: square"/>
     </g>
     <g id="line2d_58">
      <g>
       <use xlink:href="#ma87a9b0162" x="108" y="312.767937" style="stroke: #000000; stroke-width: 0.8"/>
      </g>
     </g>
     <g id="text_10">
      <!-- 100 -->
      <g transform="translate(66.6425 319.60653) scale(0.18 -0.18)">
       <use xlink:href="#DejaVuSans-31"/>
       <use xlink:href="#DejaVuSans-30" x="63.623047"/>
       <use xlink:href="#DejaVuSans-30" x="127.246094"/>
      </g>
     </g>
    </g>
    <g id="ytick_4">
     <g id="line2d_59">
      <path d="M 108 222.90536 
L 777.6 222.90536 
" clip-path="url(#pc07b561494)" style="fill: none; stroke: #b0b0b0; stroke-width: 0.5; stroke-linecap: square"/>
     </g>
     <g id="line2d_60">
      <g>
       <use xlink:href="#ma87a9b0162" x="108" y="222.90536" style="stroke: #000000; stroke-width: 0.8"/>
      </g>
     </g>
     <g id="text_11">
      <!-- 150 -->
      <g transform="translate(66.6425 229.743954) scale(0.18 -0.18)">
       <use xlink:href="#DejaVuSans-31"/>
       <use xlink:href="#DejaVuSans-35" x="63.623047"/>
       <use xlink:href="#DejaVuSans-30" x="127.246094"/>
      </g>
     </g>
    </g>
    <g id="ytick_5">
     <g id="line2d_61">
      <path d="M 108 133.042784 
L 777.6 133.042784 
" clip-path="url(#pc07b561494)" style="fill: none; stroke: #b0b0b0; stroke-width: 0.5; stroke-linecap: square"/>
     </g>
     <g id="line2d_62">
      <g>
       <use xlink:href="#ma87a9b0162" x="108" y="133.042784" style="stroke: #000000; stroke-width: 0.8"/>
      </g>
     </g>
     <g id="text_12">
      <!-- 200 -->
      <g transform="translate(66.6425 139.881377) scale(0.18 -0.18)">
       <use xlink:href="#DejaVuSans-32"/>
       <use xlink:href="#DejaVuSans-30" x="63.623047"/>
       <use xlink:href="#DejaVuSans-30" x="127.246094"/>
      </g>
     </g>
    </g>
    <g id="text_13">
     <!-- $R$ [GΩ] -->
     <g transform="translate(57.235312 334.3) rotate(-90) scale(0.26 -0.26)">
      <defs>
       <path id="DejaVuSans-Oblique-52" d="M 1613 4147 
L 1294 2491 
L 2106 2491 
Q 2584 2491 2879 2755 
Q 3175 3019 3175 3444 
Q 3175 3784 2976 3965 
Q 2778 4147 2406 4147 
L 1613 4147 
z
M 2772 2241 
Q 2972 2194 3105 2009 
Q 3238 1825 3413 1275 
L 3809 0 
L 3144 0 
L 2778 1197 
Q 2638 1659 2453 1815 
Q 2269 1972 1888 1972 
L 1191 1972 
L 806 0 
L 172 0 
L 1081 4666 
L 2503 4666 
Q 3150 4666 3495 4373 
Q 3841 4081 3841 3531 
Q 3841 3044 3547 2687 
Q 3253 2331 2772 2241 
z
" transform="scale(0.015625)"/>
       <path id="DejaVuSans-47" d="M 3809 666 
L 3809 1919 
L 2778 1919 
L 2778 2438 
L 4434 2438 
L 4434 434 
Q 4069 175 3628 42 
Q 3188 -91 2688 -91 
Q 1594 -91 976 548 
Q 359 1188 359 2328 
Q 359 3472 976 4111 
Q 1594 4750 2688 4750 
Q 3144 4750 3555 4637 
Q 3966 4525 4313 4306 
L 4313 3634 
Q 3963 3931 3569 4081 
Q 3175 4231 2741 4231 
Q 1884 4231 1454 3753 
Q 1025 3275 1025 2328 
Q 1025 1384 1454 906 
Q 1884 428 2741 428 
Q 3075 428 3337 486 
Q 3600 544 3809 666 
z
" transform="scale(0.015625)"/>
       <path id="DejaVuSans-3a9" d="M 4647 556 
L 4647 0 
L 2772 0 
L 2772 556 
Q 3325 859 3634 1378 
Q 3944 1897 3944 2528 
Q 3944 3278 3531 3731 
Q 3119 4184 2444 4184 
Q 1769 4184 1355 3729 
Q 941 3275 941 2528 
Q 941 1897 1250 1378 
Q 1563 859 2119 556 
L 2119 0 
L 244 0 
L 244 556 
L 1241 556 
Q 747 991 519 1456 
Q 294 1922 294 2497 
Q 294 3491 894 4106 
Q 1491 4722 2444 4722 
Q 3391 4722 3994 4106 
Q 4594 3494 4594 2528 
Q 4594 1922 4372 1459 
Q 4150 997 3647 556 
L 4647 556 
z
" transform="scale(0.015625)"/>
      </defs>
      <use xlink:href="#DejaVuSans-Oblique-52" transform="translate(0 0.015625)"/>
      <use xlink:href="#DejaVuSans-20" transform="translate(69.482422 0.015625)"/>
      <use xlink:href="#DejaVuSans-5b" transform="translate(101.269531 0.015625)"/>
      <use xlink:href="#DejaVuSans-47" transform="translate(140.283203 0.015625)"/>
      <use xlink:href="#DejaVuSans-3a9" transform="translate(217.773438 0.015625)"/>
      <use xlink:href="#DejaVuSans-5d" transform="translate(294.189453 0.015625)"/>
     </g>
    </g>
   </g>
   <g id="line2d_63">
    <path d="M 108 160.794862 
L 121.392 160.794889 
L 134.784 160.794933 
L 148.176 160.795002 
L 161.568 160.795111 
L 174.96 160.795286 
L 188.352 160.795563 
L 201.744 160.796001 
L 215.136 160.796695 
L 228.528 160.797795 
L 241.92 160.799538 
L 255.312 160.8023 
L 268.704 160.806679 
L 282.096 160.840798 
L 295.488 160.851791 
L 308.88 160.869214 
L 322.272 160.89682 
L 335.664 160.96771 
L 349.056 161.06411 
L 362.448 161.227974 
L 375.84 161.455578 
L 389.232 161.837755 
L 402.624 162.458567 
L 416.016 163.406518 
L 429.408 164.896842 
L 442.8 167.235733 
L 456.192 170.814853 
L 469.584 176.272865 
L 482.976 184.35851 
L 496.368 195.908823 
L 509.76 211.695644 
L 523.152 231.898999 
L 536.544 255.73104 
L 549.936 281.508427 
L 563.328 307.166964 
L 576.72 330.907019 
L 590.112 350.808493 
L 603.504 364.285964 
L 616.896 372.184558 
L 630.288 378.841782 
L 643.68 386.610649 
L 657.072 395.987437 
L 670.464 406.768332 
L 683.856 418.270786 
L 697.248 429.509476 
L 710.64 439.570958 
L 724.032 447.955292 
L 737.424 454.657353 
L 750.816 460.004756 
L 764.208 464.437098 
L 777.6 468.330584 
L 790.992 471.915867 
L 804.384 475.278239 
L 817.776 478.412581 
L 831.168 481.280254 
L 844.56 483.835327 
L 857.952 486.032059 
L 865 486.981851 
" clip-path="url(#pc07b561494)" style="fill: none; stroke-dasharray: 3.5,5.775; stroke-dashoffset: 0; stroke: #0000ff; stroke-width: 3.5"/>
   </g>
   <g id="line2d_64">
    <path d="M 108 147.623039 
L 121.392 147.623071 
L 134.784 147.62312 
L 148.176 147.623199 
L 161.568 147.623323 
L 174.96 147.623519 
L 188.352 147.62383 
L 201.744 147.624322 
L 215.136 147.625102 
L 228.528 147.62634 
L 241.92 147.628301 
L 255.312 147.63141 
L 268.704 147.636337 
L 282.096 147.644146 
L 295.488 147.656518 
L 308.88 147.676128 
L 322.272 147.736562 
L 335.664 147.815122 
L 349.056 147.893058 
L 362.448 148.104328 
L 375.84 148.328735 
L 389.232 148.78299 
L 402.624 149.44368 
L 416.016 150.554805 
L 429.408 152.237532 
L 442.8 154.857409 
L 456.192 158.843595 
L 469.584 164.964686 
L 482.976 173.908288 
L 496.368 186.650453 
L 509.76 203.862389 
L 523.152 225.560539 
L 536.544 250.830722 
L 549.936 277.729769 
L 563.328 304.121919 
L 576.72 328.212555 
L 590.112 347.901149 
L 603.504 360.733135 
L 616.896 368.495177 
L 630.288 375.567879 
L 643.68 383.94068 
L 657.072 393.972824 
L 670.464 405.369489 
L 683.856 417.356892 
L 697.248 428.893015 
L 710.64 439.082941 
L 724.032 447.496223 
L 737.424 454.199468 
L 750.816 459.56928 
L 764.208 464.060937 
L 777.6 468.043132 
L 790.992 471.728255 
L 804.384 475.184594 
L 817.776 478.397986 
L 831.168 481.326045 
L 844.56 483.920618 
L 857.952 486.134948 
L 865 487.084009 
" clip-path="url(#pc07b561494)" style="fill: none; stroke: #87ceeb; stroke-width: 3.5; stroke-linecap: square"/>
   </g>
   <g id="line2d_65">
    <path d="M 108 141.217158 
L 121.392 141.21719 
L 134.784 141.217243 
L 148.176 141.217325 
L 161.568 141.217458 
L 174.96 141.217665 
L 188.352 141.217996 
L 201.744 141.218519 
L 215.136 141.219347 
L 228.528 141.220661 
L 241.92 141.222744 
L 255.312 141.226044 
L 268.704 141.231274 
L 282.096 141.239563 
L 295.488 141.252697 
L 308.88 141.273511 
L 322.272 141.306492 
L 335.664 141.389196 
L 349.056 141.532786 
L 362.448 141.694125 
L 375.84 141.99228 
L 389.232 142.470741 
L 402.624 143.197463 
L 416.016 144.307787 
L 429.408 146.080514 
L 442.8 148.838799 
L 456.192 153.142244 
L 469.584 159.565094 
L 482.976 168.980602 
L 496.368 182.325042 
L 509.76 200.287451 
L 523.152 222.792475 
L 536.544 248.797932 
L 549.936 276.350959 
L 563.328 303.275798 
L 576.72 327.697252 
L 590.112 347.121529 
L 603.504 359.235036 
L 616.896 366.771165 
L 630.288 374.045101 
L 643.68 382.734662 
L 657.072 393.093315 
L 670.464 404.786949 
L 683.856 416.989795 
L 697.248 428.645256 
L 710.64 438.870719 
L 724.032 447.278565 
L 737.424 453.973992 
L 750.816 459.355095 
L 764.208 463.88227 
L 777.6 467.916982 
L 790.992 471.658946 
L 804.384 475.166721 
L 817.776 478.421238 
L 831.168 481.378718 
L 844.56 483.990504 
L 857.952 486.209579 
L 865 487.155788 
" clip-path="url(#pc07b561494)" style="fill: none; stroke: #90ee90; stroke-width: 3.5; stroke-linecap: square"/>
   </g>
   <g id="line2d_66">
    <defs>
     <path id="mada3f2f1db" d="M 0 -3 
L -0.673542 -0.927051 
L -2.85317 -0.927051 
L -1.089814 0.354102 
L -1.763356 2.427051 
L -0 1.145898 
L 1.763356 2.427051 
L 1.089814 0.354102 
L 2.85317 -0.927051 
L 0.673542 -0.927051 
z
" style="stroke: #008000; stroke-linejoin: bevel"/>
    </defs>
    <g clip-path="url(#pc07b561494)">
     <use xlink:href="#mada3f2f1db" x="108" y="123.909306" style="fill: #008000; stroke: #008000; stroke-linejoin: bevel"/>
     <use xlink:href="#mada3f2f1db" x="121.392" y="123.909345" style="fill: #008000; stroke: #008000; stroke-linejoin: bevel"/>
     <use xlink:href="#mada3f2f1db" x="134.784" y="123.909405" style="fill: #008000; stroke: #008000; stroke-linejoin: bevel"/>
     <use xlink:href="#mada3f2f1db" x="148.176" y="123.909502" style="fill: #008000; stroke: #008000; stroke-linejoin: bevel"/>
     <use xlink:href="#mada3f2f1db" x="161.568" y="123.909655" style="fill: #008000; stroke: #008000; stroke-linejoin: bevel"/>
     <use xlink:href="#mada3f2f1db" x="174.96" y="123.909895" style="fill: #008000; stroke: #008000; stroke-linejoin: bevel"/>
     <use xlink:href="#mada3f2f1db" x="188.352" y="123.91028" style="fill: #008000; stroke: #008000; stroke-linejoin: bevel"/>
     <use xlink:href="#mada3f2f1db" x="201.744" y="123.910887" style="fill: #008000; stroke: #008000; stroke-linejoin: bevel"/>
     <use xlink:href="#mada3f2f1db" x="215.136" y="123.911849" style="fill: #008000; stroke: #008000; stroke-linejoin: bevel"/>
     <use xlink:href="#mada3f2f1db" x="228.528" y="123.913375" style="fill: #008000; stroke: #008000; stroke-linejoin: bevel"/>
     <use xlink:href="#mada3f2f1db" x="241.92" y="123.915794" style="fill: #008000; stroke: #008000; stroke-linejoin: bevel"/>
     <use xlink:href="#mada3f2f1db" x="255.312" y="123.919628" style="fill: #008000; stroke: #008000; stroke-linejoin: bevel"/>
     <use xlink:href="#mada3f2f1db" x="268.704" y="123.925702" style="fill: #008000; stroke: #008000; stroke-linejoin: bevel"/>
     <use xlink:href="#mada3f2f1db" x="282.096" y="123.935328" style="fill: #008000; stroke: #008000; stroke-linejoin: bevel"/>
     <use xlink:href="#mada3f2f1db" x="295.488" y="123.950585" style="fill: #008000; stroke: #008000; stroke-linejoin: bevel"/>
     <use xlink:href="#mada3f2f1db" x="308.88" y="124.008308" style="fill: #008000; stroke: #008000; stroke-linejoin: bevel"/>
     <use xlink:href="#mada3f2f1db" x="322.272" y="124.046603" style="fill: #008000; stroke: #008000; stroke-linejoin: bevel"/>
     <use xlink:href="#mada3f2f1db" x="335.664" y="124.140788" style="fill: #008000; stroke: #008000; stroke-linejoin: bevel"/>
     <use xlink:href="#mada3f2f1db" x="349.056" y="124.270341" style="fill: #008000; stroke: #008000; stroke-linejoin: bevel"/>
     <use xlink:href="#mada3f2f1db" x="362.448" y="124.489274" style="fill: #008000; stroke: #008000; stroke-linejoin: bevel"/>
     <use xlink:href="#mada3f2f1db" x="375.84" y="124.796487" style="fill: #008000; stroke: #008000; stroke-linejoin: bevel"/>
     <use xlink:href="#mada3f2f1db" x="389.232" y="125.342663" style="fill: #008000; stroke: #008000; stroke-linejoin: bevel"/>
     <use xlink:href="#mada3f2f1db" x="402.624" y="126.173014" style="fill: #008000; stroke: #008000; stroke-linejoin: bevel"/>
     <use xlink:href="#mada3f2f1db" x="416.016" y="127.507572" style="fill: #008000; stroke: #008000; stroke-linejoin: bevel"/>
     <use xlink:href="#mada3f2f1db" x="429.408" y="129.561459" style="fill: #008000; stroke: #008000; stroke-linejoin: bevel"/>
     <use xlink:href="#mada3f2f1db" x="442.8" y="132.763608" style="fill: #008000; stroke: #008000; stroke-linejoin: bevel"/>
     <use xlink:href="#mada3f2f1db" x="456.192" y="137.645599" style="fill: #008000; stroke: #008000; stroke-linejoin: bevel"/>
     <use xlink:href="#mada3f2f1db" x="469.584" y="144.962903" style="fill: #008000; stroke: #008000; stroke-linejoin: bevel"/>
     <use xlink:href="#mada3f2f1db" x="482.976" y="155.674009" style="fill: #008000; stroke: #008000; stroke-linejoin: bevel"/>
     <use xlink:href="#mada3f2f1db" x="496.368" y="170.695209" style="fill: #008000; stroke: #008000; stroke-linejoin: bevel"/>
     <use xlink:href="#mada3f2f1db" x="509.76" y="190.631282" style="fill: #008000; stroke: #008000; stroke-linejoin: bevel"/>
     <use xlink:href="#mada3f2f1db" x="523.152" y="215.230514" style="fill: #008000; stroke: #008000; stroke-linejoin: bevel"/>
     <use xlink:href="#mada3f2f1db" x="536.544" y="243.122883" style="fill: #008000; stroke: #008000; stroke-linejoin: bevel"/>
     <use xlink:href="#mada3f2f1db" x="549.936" y="272.140753" style="fill: #008000; stroke: #008000; stroke-linejoin: bevel"/>
     <use xlink:href="#mada3f2f1db" x="563.328" y="300.078769" style="fill: #008000; stroke: #008000; stroke-linejoin: bevel"/>
     <use xlink:href="#mada3f2f1db" x="576.72" y="324.893508" style="fill: #008000; stroke: #008000; stroke-linejoin: bevel"/>
     <use xlink:href="#mada3f2f1db" x="590.112" y="343.647779" style="fill: #008000; stroke: #008000; stroke-linejoin: bevel"/>
     <use xlink:href="#mada3f2f1db" x="603.504" y="354.864055" style="fill: #008000; stroke: #008000; stroke-linejoin: bevel"/>
     <use xlink:href="#mada3f2f1db" x="616.896" y="362.536544" style="fill: #008000; stroke: #008000; stroke-linejoin: bevel"/>
     <use xlink:href="#mada3f2f1db" x="630.288" y="370.547019" style="fill: #008000; stroke: #008000; stroke-linejoin: bevel"/>
     <use xlink:href="#mada3f2f1db" x="643.68" y="380.136461" style="fill: #008000; stroke: #008000; stroke-linejoin: bevel"/>
     <use xlink:href="#mada3f2f1db" x="657.072" y="391.406269" style="fill: #008000; stroke: #008000; stroke-linejoin: bevel"/>
     <use xlink:href="#mada3f2f1db" x="670.464" y="403.880883" style="fill: #008000; stroke: #008000; stroke-linejoin: bevel"/>
     <use xlink:href="#mada3f2f1db" x="683.856" y="416.611038" style="fill: #008000; stroke: #008000; stroke-linejoin: bevel"/>
     <use xlink:href="#mada3f2f1db" x="697.248" y="428.496793" style="fill: #008000; stroke: #008000; stroke-linejoin: bevel"/>
     <use xlink:href="#mada3f2f1db" x="710.64" y="438.732752" style="fill: #008000; stroke: #008000; stroke-linejoin: bevel"/>
     <use xlink:href="#mada3f2f1db" x="724.032" y="447.048489" style="fill: #008000; stroke: #008000; stroke-linejoin: bevel"/>
     <use xlink:href="#mada3f2f1db" x="737.424" y="453.653759" style="fill: #008000; stroke: #008000; stroke-linejoin: bevel"/>
     <use xlink:href="#mada3f2f1db" x="750.816" y="459.003554" style="fill: #008000; stroke: #008000; stroke-linejoin: bevel"/>
     <use xlink:href="#mada3f2f1db" x="764.208" y="463.566249" style="fill: #008000; stroke: #008000; stroke-linejoin: bevel"/>
     <use xlink:href="#mada3f2f1db" x="777.6" y="467.682932" style="fill: #008000; stroke: #008000; stroke-linejoin: bevel"/>
     <use xlink:href="#mada3f2f1db" x="790.992" y="471.524066" style="fill: #008000; stroke: #008000; stroke-linejoin: bevel"/>
     <use xlink:href="#mada3f2f1db" x="804.384" y="475.125251" style="fill: #008000; stroke: #008000; stroke-linejoin: bevel"/>
     <use xlink:href="#mada3f2f1db" x="817.776" y="478.45668" style="fill: #008000; stroke: #008000; stroke-linejoin: bevel"/>
     <use xlink:href="#mada3f2f1db" x="831.168" y="481.470081" style="fill: #008000; stroke: #008000; stroke-linejoin: bevel"/>
     <use xlink:href="#mada3f2f1db" x="844.56" y="484.113877" style="fill: #008000; stroke: #008000; stroke-linejoin: bevel"/>
     <use xlink:href="#mada3f2f1db" x="857.952" y="486.341511" style="fill: #008000; stroke: #008000; stroke-linejoin: bevel"/>
     <use xlink:href="#mada3f2f1db" x="871.344" y="488.128803" style="fill: #008000; stroke: #008000; stroke-linejoin: bevel"/>
     <use xlink:href="#mada3f2f1db" x="884.736" y="489.490634" style="fill: #008000; stroke: #008000; stroke-linejoin: bevel"/>
     <use xlink:href="#mada3f2f1db" x="898.128" y="490.479166" style="fill: #008000; stroke: #008000; stroke-linejoin: bevel"/>
     <use xlink:href="#mada3f2f1db" x="911.52" y="491.168128" style="fill: #008000; stroke: #008000; stroke-linejoin: bevel"/>
     <use xlink:href="#mada3f2f1db" x="924.912" y="491.633477" style="fill: #008000; stroke: #008000; stroke-linejoin: bevel"/>
     <use xlink:href="#mada3f2f1db" x="938.304" y="491.940743" style="fill: #008000; stroke: #008000; stroke-linejoin: bevel"/>
     <use xlink:href="#mada3f2f1db" x="951.696" y="492.140457" style="fill: #008000; stroke: #008000; stroke-linejoin: bevel"/>
     <use xlink:href="#mada3f2f1db" x="965.088" y="492.26891" style="fill: #008000; stroke: #008000; stroke-linejoin: bevel"/>
     <use xlink:href="#mada3f2f1db" x="978.48" y="492.35096" style="fill: #008000; stroke: #008000; stroke-linejoin: bevel"/>
     <use xlink:href="#mada3f2f1db" x="991.872" y="492.403139" style="fill: #008000; stroke: #008000; stroke-linejoin: bevel"/>
     <use xlink:href="#mada3f2f1db" x="1005.264" y="492.436225" style="fill: #008000; stroke: #008000; stroke-linejoin: bevel"/>
     <use xlink:href="#mada3f2f1db" x="1018.656" y="492.457167" style="fill: #008000; stroke: #008000; stroke-linejoin: bevel"/>
     <use xlink:href="#mada3f2f1db" x="1032.048" y="492.470406" style="fill: #008000; stroke: #008000; stroke-linejoin: bevel"/>
     <use xlink:href="#mada3f2f1db" x="1045.44" y="492.47877" style="fill: #008000; stroke: #008000; stroke-linejoin: bevel"/>
    </g>
   </g>
   <g id="line2d_67">
    <path d="M 108 109.068183 
L 121.392 109.068226 
L 134.784 109.068297 
L 148.176 109.068404 
L 161.568 109.068577 
L 174.96 109.06885 
L 188.352 109.069281 
L 201.744 109.069968 
L 215.136 109.071055 
L 228.528 109.072777 
L 241.92 109.075507 
L 255.312 109.079833 
L 268.704 109.086688 
L 282.096 109.097554 
L 295.488 109.132927 
L 308.88 109.178358 
L 322.272 109.221577 
L 335.664 109.290045 
L 349.056 109.452833 
L 362.448 109.696785 
L 375.84 110.094417 
L 389.232 110.666646 
L 402.624 111.627739 
L 416.016 113.112819 
L 429.408 115.431927 
L 442.8 119.00397 
L 456.192 124.476669 
L 469.584 132.658339 
L 482.976 144.521108 
L 496.368 160.994815 
L 509.76 182.637781 
L 523.152 208.980789 
L 536.544 238.385873 
L 549.936 268.55549 
L 563.328 297.204691 
L 576.72 322.161599 
L 590.112 340.295081 
L 603.504 351.002566 
L 616.896 358.934284 
L 630.288 367.575295 
L 643.68 377.900712 
L 657.072 389.906844 
L 670.464 403.000096 
L 683.856 416.140746 
L 697.248 428.212148 
L 710.64 438.469799 
L 724.032 446.740367 
L 737.424 453.308831 
L 750.816 458.666017 
L 764.208 463.283194 
L 777.6 467.483713 
L 790.992 471.415422 
L 804.384 475.098364 
L 817.776 478.495208 
L 831.168 481.554899 
L 844.56 484.223835 
L 857.952 486.455936 
L 865 487.390748 
" clip-path="url(#pc07b561494)" style="fill: none; stroke-dasharray: 12.95,5.6; stroke-dashoffset: 0; stroke: #000000; stroke-width: 3.5"/>
   </g>
   <g id="line2d_68">
    <path d="M 108 95.217168 
L 121.392 95.217215 
L 134.784 95.217292 
L 148.176 95.217415 
L 161.568 95.217607 
L 174.96 95.217911 
L 188.352 95.218394 
L 201.744 95.21916 
L 215.136 95.220373 
L 228.528 95.222296 
L 241.92 95.225344 
L 255.312 95.230175 
L 268.704 95.237831 
L 282.096 95.249965 
L 295.488 95.269192 
L 308.88 95.29966 
L 322.272 95.38689 
L 335.664 95.502268 
L 349.056 95.662197 
L 362.448 95.892581 
L 375.84 96.311698 
L 389.232 97.021323 
L 402.624 98.042647 
L 416.016 99.717896 
L 429.408 102.271938 
L 442.8 106.255087 
L 456.192 112.259088 
L 469.584 121.320286 
L 482.976 134.283105 
L 496.368 152.209657 
L 509.76 175.480438 
L 523.152 203.511546 
L 536.544 234.425027 
L 549.936 265.826433 
L 563.328 295.408753 
L 576.72 320.457797 
L 590.112 337.434087 
L 603.504 347.358983 
L 616.896 355.51953 
L 630.288 364.782677 
L 643.68 375.828917 
L 657.072 388.535111 
L 670.464 402.195952 
L 683.856 415.688668 
L 697.248 427.897231 
L 710.64 438.152316 
L 724.032 446.376644 
L 737.424 452.923456 
L 750.816 458.310865 
L 764.208 463.005809 
L 777.6 467.309212 
L 790.992 471.344745 
L 804.384 475.117303 
L 817.776 478.583866 
L 831.168 481.690297 
L 844.56 484.380568 
L 857.952 486.610203 
L 865 487.534684 
" clip-path="url(#pc07b561494)" style="fill: none; stroke-dasharray: 3.5,5.775; stroke-dashoffset: 0; stroke: #bfbf00; stroke-width: 3.5"/>
   </g>
   <g id="line2d_69">
    <path d="M 108 89.28 
L 121.392 89.280052 
L 134.784 89.280133 
L 148.176 89.280262 
L 161.568 89.280467 
L 174.96 89.280791 
L 188.352 89.281305 
L 201.744 89.282119 
L 215.136 89.283409 
L 228.528 89.285455 
L 241.92 89.288695 
L 255.312 89.293833 
L 268.704 89.301975 
L 282.096 89.314877 
L 295.488 89.335323 
L 308.88 89.367722 
L 322.272 89.419057 
L 335.664 89.540481 
L 349.056 89.74934 
L 362.448 89.993016 
L 375.84 90.434766 
L 389.232 91.141805 
L 402.624 92.258155 
L 416.016 94.021964 
L 429.408 96.711405 
L 442.8 100.865288 
L 456.192 107.215666 
L 469.584 116.69204 
L 482.976 130.280235 
L 496.368 148.971317 
L 509.76 173.173097 
L 523.152 202.250752 
L 536.544 234.274349 
L 549.936 266.724245 
L 563.328 296.967274 
L 576.72 321.664818 
L 590.112 337.668047 
L 603.504 347.553443 
L 616.896 356.34117 
L 630.288 366.284607 
L 643.68 377.918763 
L 657.072 391.049441 
L 670.464 404.888348 
L 683.856 418.284724 
L 697.248 430.180908 
L 710.64 440.02219 
L 724.032 447.835464 
L 737.424 454.030561 
L 750.816 459.13939 
L 764.208 463.618254 
L 777.6 467.752004 
L 790.992 471.651951 
L 804.384 475.316041 
L 817.776 478.697706 
L 831.168 481.740211 
L 844.56 484.386812 
L 857.952 486.591591 
L 865 487.510914 
" clip-path="url(#pc07b561494)" style="fill: none; stroke-dasharray: 12.95,5.6; stroke-dashoffset: 0; stroke: #ff0000; stroke-width: 3.5"/>
   </g>
   <g id="line2d_70">
    <path d="M 108 199.356038 
L 121.392 199.356061 
L 134.784 199.356096 
L 148.176 199.356153 
L 161.568 199.356241 
L 174.96 199.356383 
L 188.352 199.356606 
L 201.744 199.35696 
L 215.136 199.357523 
L 228.528 199.358414 
L 241.92 199.359825 
L 255.312 199.362062 
L 268.704 199.365608 
L 282.096 199.371227 
L 295.488 199.380132 
L 308.88 199.394244 
L 322.272 199.437826 
L 335.664 199.473255 
L 349.056 199.550582 
L 362.448 199.660647 
L 375.84 199.843658 
L 389.232 200.10847 
L 402.624 200.544411 
L 416.016 201.224996 
L 429.408 202.305869 
L 442.8 203.981696 
L 456.192 206.594251 
L 469.584 210.636572 
L 482.976 216.749292 
L 496.368 225.803013 
L 509.76 238.720413 
L 523.152 256.294634 
L 536.544 278.723839 
L 549.936 305.048479 
L 563.328 332.801482 
L 576.72 357.736727 
L 590.112 375.775682 
L 603.504 387.735151 
L 616.896 397.114357 
L 630.288 405.973507 
L 643.68 415.181583 
L 657.072 424.992517 
L 670.464 435.14979 
L 683.856 444.999671 
L 697.248 453.793655 
L 710.64 461.030002 
L 724.032 466.599385 
L 737.424 470.705194 
L 750.816 473.695172 
L 764.208 475.927924 
L 777.6 477.700953 
L 790.992 479.227892 
L 804.384 480.643862 
L 817.776 482.024221 
L 831.168 483.402525 
L 844.56 484.778364 
L 857.952 486.120585 
L 865 486.783496 
" clip-path="url(#pc07b561494)" style="fill: none; stroke-dasharray: 22.4,5.6,3.5,5.6; stroke-dashoffset: 0; stroke: #bf00bf; stroke-width: 3.5"/>
   </g>
   <g id="patch_3">
    <path d="M 108 512.64 
L 108 69.12 
" style="fill: none; stroke: #000000; stroke-width: 0.8; stroke-linejoin: miter; stroke-linecap: square"/>
   </g>
   <g id="patch_4">
    <path d="M 777.6 512.64 
L 777.6 69.12 
" style="fill: none; stroke: #000000; stroke-width: 0.8; stroke-linejoin: miter; stroke-linecap: square"/>
   </g>
   <g id="patch_5">
    <path d="M 108 512.64 
L 777.6 512.64 
" style="fill: none; stroke: #000000; stroke-width: 0.8; stroke-linejoin: miter; stroke-linecap: square"/>
   </g>
   <g id="patch_6">
    <path d="M 108 69.12 
L 777.6 69.12 
" style="fill: none; stroke: #000000; stroke-width: 0.8; stroke-linejoin: miter; stroke-linecap: square"/>
   </g>
   <g id="legend_1">
    <g id="patch_7">
     <path d="M 662.24 269.8 
L 766.4 269.8 
Q 769.6 269.8 769.6 266.6 
L 769.6 80.32 
Q 769.6 77.12 766.4 77.12 
L 662.24 77.12 
Q 659.04 77.12 659.04 80.32 
L 659.04 266.6 
Q 659.04 269.8 662.24 269.8 
z
" style="fill: #ffffff; opacity: 0.8; stroke: #cccccc; stroke-linejoin: miter"/>
    </g>
    <g id="line2d_71">
     <path d="M 665.44 90.0775 
L 681.44 90.0775 
L 697.44 90.0775 
" style="fill: none; stroke-dasharray: 3.5,5.775; stroke-dashoffset: 0; stroke: #0000ff; stroke-width: 3.5"/>
    </g>
    <g id="text_14">
     <!-- $-20 °C $ -->
     <g transform="translate(710.24 95.6775) scale(0.16 -0.16)">
      <defs>
       <path id="DejaVuSans-b0" d="M 1600 4347 
Q 1350 4347 1178 4173 
Q 1006 4000 1006 3750 
Q 1006 3503 1178 3333 
Q 1350 3163 1600 3163 
Q 1850 3163 2022 3333 
Q 2194 3503 2194 3750 
Q 2194 3997 2020 4172 
Q 1847 4347 1600 4347 
z
M 1600 4750 
Q 1800 4750 1984 4673 
Q 2169 4597 2303 4453 
Q 2447 4313 2519 4134 
Q 2591 3956 2591 3750 
Q 2591 3338 2302 3052 
Q 2013 2766 1594 2766 
Q 1172 2766 890 3047 
Q 609 3328 609 3750 
Q 609 4169 896 4459 
Q 1184 4750 1600 4750 
z
" transform="scale(0.015625)"/>
       <path id="DejaVuSans-Oblique-43" d="M 4447 4306 
L 4319 3641 
Q 4019 3944 3683 4091 
Q 3347 4238 2956 4238 
Q 2422 4238 2017 3981 
Q 1613 3725 1319 3200 
Q 1131 2863 1032 2486 
Q 934 2109 934 1728 
Q 934 1091 1264 756 
Q 1594 422 2222 422 
Q 2656 422 3056 561 
Q 3456 700 3834 978 
L 3688 231 
Q 3316 72 2936 -9 
Q 2556 -91 2175 -91 
Q 1278 -91 773 396 
Q 269 884 269 1753 
Q 269 2309 461 2846 
Q 653 3384 1013 3828 
Q 1394 4300 1883 4525 
Q 2372 4750 3022 4750 
Q 3422 4750 3780 4639 
Q 4138 4528 4447 4306 
z
" transform="scale(0.015625)"/>
      </defs>
      <use xlink:href="#DejaVuSans-2212" transform="translate(0 0.78125)"/>
      <use xlink:href="#DejaVuSans-32" transform="translate(83.789062 0.78125)"/>
      <use xlink:href="#DejaVuSans-30" transform="translate(147.412109 0.78125)"/>
      <use xlink:href="#DejaVuSans-b0" transform="translate(211.035156 0.78125)"/>
      <use xlink:href="#DejaVuSans-Oblique-43" transform="translate(261.035156 0.78125)"/>
     </g>
    </g>
    <g id="line2d_72">
     <path d="M 665.44 113.5625 
L 681.44 113.5625 
L 697.44 113.5625 
" style="fill: none; stroke: #87ceeb; stroke-width: 3.5; stroke-linecap: square"/>
    </g>
    <g id="text_15">
     <!-- $-10°C $ -->
     <g transform="translate(710.24 119.1625) scale(0.16 -0.16)">
      <use xlink:href="#DejaVuSans-2212" transform="translate(0 0.78125)"/>
      <use xlink:href="#DejaVuSans-31" transform="translate(83.789062 0.78125)"/>
      <use xlink:href="#DejaVuSans-30" transform="translate(147.412109 0.78125)"/>
      <use xlink:href="#DejaVuSans-b0" transform="translate(211.035156 0.78125)"/>
      <use xlink:href="#DejaVuSans-Oblique-43" transform="translate(261.035156 0.78125)"/>
     </g>
    </g>
    <g id="line2d_73">
     <path d="M 665.44 137.0475 
L 681.44 137.0475 
L 697.44 137.0475 
" style="fill: none; stroke: #90ee90; stroke-width: 3.5; stroke-linecap: square"/>
    </g>
    <g id="text_16">
     <!-- $0°C $ -->
     <g transform="translate(710.24 142.6475) scale(0.16 -0.16)">
      <use xlink:href="#DejaVuSans-30" transform="translate(0 0.78125)"/>
      <use xlink:href="#DejaVuSans-b0" transform="translate(63.623047 0.78125)"/>
      <use xlink:href="#DejaVuSans-Oblique-43" transform="translate(113.623047 0.78125)"/>
     </g>
    </g>
    <g id="line2d_74">
     <g>
      <use xlink:href="#mada3f2f1db" x="681.44" y="160.5325" style="fill: #008000; stroke: #008000; stroke-linejoin: bevel"/>
     </g>
    </g>
    <g id="text_17">
     <!-- $15°C $ -->
     <g transform="translate(710.24 166.1325) scale(0.16 -0.16)">
      <use xlink:href="#DejaVuSans-31" transform="translate(0 0.78125)"/>
      <use xlink:href="#DejaVuSans-35" transform="translate(63.623047 0.78125)"/>
      <use xlink:href="#DejaVuSans-b0" transform="translate(127.246094 0.78125)"/>
      <use xlink:href="#DejaVuSans-Oblique-43" transform="translate(177.246094 0.78125)"/>
     </g>
    </g>
    <g id="line2d_75">
     <path d="M 665.44 184.0175 
L 681.44 184.0175 
L 697.44 184.0175 
" style="fill: none; stroke-dasharray: 12.95,5.6; stroke-dashoffset: 0; stroke: #000000; stroke-width: 3.5"/>
    </g>
    <g id="text_18">
     <!-- $27°C $ -->
     <g transform="translate(710.24 189.6175) scale(0.16 -0.16)">
      <defs>
       <path id="DejaVuSans-37" d="M 525 4666 
L 3525 4666 
L 3525 4397 
L 1831 0 
L 1172 0 
L 2766 4134 
L 525 4134 
L 525 4666 
z
" transform="scale(0.015625)"/>
      </defs>
      <use xlink:href="#DejaVuSans-32" transform="translate(0 0.78125)"/>
      <use xlink:href="#DejaVuSans-37" transform="translate(63.623047 0.78125)"/>
      <use xlink:href="#DejaVuSans-b0" transform="translate(127.246094 0.78125)"/>
      <use xlink:href="#DejaVuSans-Oblique-43" transform="translate(177.246094 0.78125)"/>
     </g>
    </g>
    <g id="line2d_76">
     <path d="M 665.44 207.5025 
L 681.44 207.5025 
L 697.44 207.5025 
" style="fill: none; stroke-dasharray: 3.5,5.775; stroke-dashoffset: 0; stroke: #bfbf00; stroke-width: 3.5"/>
    </g>
    <g id="text_19">
     <!-- $45°C $ -->
     <g transform="translate(710.24 213.1025) scale(0.16 -0.16)">
      <defs>
       <path id="DejaVuSans-34" d="M 2419 4116 
L 825 1625 
L 2419 1625 
L 2419 4116 
z
M 2253 4666 
L 3047 4666 
L 3047 1625 
L 3713 1625 
L 3713 1100 
L 3047 1100 
L 3047 0 
L 2419 0 
L 2419 1100 
L 313 1100 
L 313 1709 
L 2253 4666 
z
" transform="scale(0.015625)"/>
      </defs>
      <use xlink:href="#DejaVuSans-34" transform="translate(0 0.78125)"/>
      <use xlink:href="#DejaVuSans-35" transform="translate(63.623047 0.78125)"/>
      <use xlink:href="#DejaVuSans-b0" transform="translate(127.246094 0.78125)"/>
      <use xlink:href="#DejaVuSans-Oblique-43" transform="translate(177.246094 0.78125)"/>
     </g>
    </g>
    <g id="line2d_77">
     <path d="M 665.44 230.9875 
L 681.44 230.9875 
L 697.44 230.9875 
" style="fill: none; stroke-dasharray: 12.95,5.6; stroke-dashoffset: 0; stroke: #ff0000; stroke-width: 3.5"/>
    </g>
    <g id="text_20">
     <!-- $65°C $ -->
     <g transform="translate(710.24 236.5875) scale(0.16 -0.16)">
      <defs>
       <path id="DejaVuSans-36" d="M 2113 2584 
Q 1688 2584 1439 2293 
Q 1191 2003 1191 1497 
Q 1191 994 1439 701 
Q 1688 409 2113 409 
Q 2538 409 2786 701 
Q 3034 994 3034 1497 
Q 3034 2003 2786 2293 
Q 2538 2584 2113 2584 
z
M 3366 4563 
L 3366 3988 
Q 3128 4100 2886 4159 
Q 2644 4219 2406 4219 
Q 1781 4219 1451 3797 
Q 1122 3375 1075 2522 
Q 1259 2794 1537 2939 
Q 1816 3084 2150 3084 
Q 2853 3084 3261 2657 
Q 3669 2231 3669 1497 
Q 3669 778 3244 343 
Q 2819 -91 2113 -91 
Q 1303 -91 875 529 
Q 447 1150 447 2328 
Q 447 3434 972 4092 
Q 1497 4750 2381 4750 
Q 2619 4750 2861 4703 
Q 3103 4656 3366 4563 
z
" transform="scale(0.015625)"/>
      </defs>
      <use xlink:href="#DejaVuSans-36" transform="translate(0 0.78125)"/>
      <use xlink:href="#DejaVuSans-35" transform="translate(63.623047 0.78125)"/>
      <use xlink:href="#DejaVuSans-b0" transform="translate(127.246094 0.78125)"/>
      <use xlink:href="#DejaVuSans-Oblique-43" transform="translate(177.246094 0.78125)"/>
     </g>
    </g>
    <g id="line2d_78">
     <path d="M 665.44 254.4725 
L 681.44 254.4725 
L 697.44 254.4725 
" style="fill: none; stroke-dasharray: 22.4,5.6,3.5,5.6; stroke-dashoffset: 0; stroke: #bf00bf; stroke-width: 3.5"/>
    </g>
    <g id="text_21">
     <!-- $85°C $ -->
     <g transform="translate(710.24 260.0725) scale(0.16 -0.16)">
      <defs>
       <path id="DejaVuSans-38" d="M 2034 2216 
Q 1584 2216 1326 1975 
Q 1069 1734 1069 1313 
Q 1069 891 1326 650 
Q 1584 409 2034 409 
Q 2484 409 2743 651 
Q 3003 894 3003 1313 
Q 3003 1734 2745 1975 
Q 2488 2216 2034 2216 
z
M 1403 2484 
Q 997 2584 770 2862 
Q 544 3141 544 3541 
Q 544 4100 942 4425 
Q 1341 4750 2034 4750 
Q 2731 4750 3128 4425 
Q 3525 4100 3525 3541 
Q 3525 3141 3298 2862 
Q 3072 2584 2669 2484 
Q 3125 2378 3379 2068 
Q 3634 1759 3634 1313 
Q 3634 634 3220 271 
Q 2806 -91 2034 -91 
Q 1263 -91 848 271 
Q 434 634 434 1313 
Q 434 1759 690 2068 
Q 947 2378 1403 2484 
z
M 1172 3481 
Q 1172 3119 1398 2916 
Q 1625 2713 2034 2713 
Q 2441 2713 2670 2916 
Q 2900 3119 2900 3481 
Q 2900 3844 2670 4047 
Q 2441 4250 2034 4250 
Q 1625 4250 1398 4047 
Q 1172 3844 1172 3481 
z
" transform="scale(0.015625)"/>
      </defs>
      <use xlink:href="#DejaVuSans-38" transform="translate(0 0.78125)"/>
      <use xlink:href="#DejaVuSans-35" transform="translate(63.623047 0.78125)"/>
      <use xlink:href="#DejaVuSans-b0" transform="translate(127.246094 0.78125)"/>
      <use xlink:href="#DejaVuSans-Oblique-43" transform="translate(177.246094 0.78125)"/>
     </g>
    </g>
   </g>
  </g>
 </g>
 <defs>
  <clipPath id="pc07b561494">
   <rect x="108" y="69.12" width="669.6" height="443.52"/>
  </clipPath>
 </defs>
</svg>
