<?xml version="1.0" encoding="utf-8" standalone="no"?>
<!DOCTYPE svg PUBLIC "-//W3C//DTD SVG 1.1//EN"
  "http://www.w3.org/Graphics/SVG/1.1/DTD/svg11.dtd">
<svg xmlns:xlink="http://www.w3.org/1999/xlink" width="864pt" height="576pt" viewBox="0 0 864 576" xmlns="http://www.w3.org/2000/svg" version="1.1">
 <metadata>
  <rdf:RDF xmlns:dc="http://purl.org/dc/elements/1.1/" xmlns:cc="http://creativecommons.org/ns#" xmlns:rdf="http://www.w3.org/1999/02/22-rdf-syntax-ns#">
   <cc:Work>
    <dc:type rdf:resource="http://purl.org/dc/dcmitype/StillImage"/>
    <dc:date>2024-03-14T15:44:07.256097</dc:date>
    <dc:format>image/svg+xml</dc:format>
    <dc:creator>
     <cc:Agent>
      <dc:title>Matplotlib v3.7.2, https://matplotlib.org/</dc:title>
     </cc:Agent>
    </dc:creator>
   </cc:Work>
  </rdf:RDF>
 </metadata>
 <defs>
  <style type="text/css">*{stroke-linejoin: round; stroke-linecap: butt}</style>
 </defs>
 <g id="figure_1">
  <g id="patch_1">
   <path d="M 0 576 
L 864 576 
L 864 0 
L 0 0 
z
" style="fill: #ffffff"/>
  </g>
  <g id="axes_1">
   <g id="patch_2">
    <path d="M 108 512.64 
L 777.6 512.64 
L 777.6 69.12 
L 108 69.12 
z
" style="fill: #ffffff"/>
   </g>
   <g id="matplotlib.axis_1">
    <g id="xtick_1">
     <g id="line2d_1">
      <path d="M 108 512.64 
L 108 69.12 
" clip-path="url(#p5df6739e3c)" style="fill: none; stroke: #b0b0b0; stroke-width: 0.5; stroke-linecap: square"/>
     </g>
     <g id="line2d_2">
      <defs>
       <path id="mcc9c132ab5" d="M 0 0 
L 0 3.5 
" style="stroke: #000000; stroke-width: 0.8"/>
      </defs>
      <g>
       <use xlink:href="#mcc9c132ab5" x="108" y="512.64" style="stroke: #000000; stroke-width: 0.8"/>
      </g>
     </g>
     <g id="text_1">
      <!-- $\mathdefault{10^{-2}}$ -->
      <g transform="translate(86.85 533.317188) scale(0.18 -0.18)">
       <defs>
        <path id="DejaVuSans-31" d="M 794 531 
L 1825 531 
L 1825 4091 
L 703 3866 
L 703 4441 
L 1819 4666 
L 2450 4666 
L 2450 531 
L 3481 531 
L 3481 0 
L 794 0 
L 794 531 
z
" transform="scale(0.015625)"/>
        <path id="DejaVuSans-30" d="M 2034 4250 
Q 1547 4250 1301 3770 
Q 1056 3291 1056 2328 
Q 1056 1369 1301 889 
Q 1547 409 2034 409 
Q 2525 409 2770 889 
Q 3016 1369 3016 2328 
Q 3016 3291 2770 3770 
Q 2525 4250 2034 4250 
z
M 2034 4750 
Q 2819 4750 3233 4129 
Q 3647 3509 3647 2328 
Q 3647 1150 3233 529 
Q 2819 -91 2034 -91 
Q 1250 -91 836 529 
Q 422 1150 422 2328 
Q 422 3509 836 4129 
Q 1250 4750 2034 4750 
z
" transform="scale(0.015625)"/>
        <path id="DejaVuSans-2212" d="M 678 2272 
L 4684 2272 
L 4684 1741 
L 678 1741 
L 678 2272 
z
" transform="scale(0.015625)"/>
        <path id="DejaVuSans-32" d="M 1228 531 
L 3431 531 
L 3431 0 
L 469 0 
L 469 531 
Q 828 903 1448 1529 
Q 2069 2156 2228 2338 
Q 2531 2678 2651 2914 
Q 2772 3150 2772 3378 
Q 2772 3750 2511 3984 
Q 2250 4219 1831 4219 
Q 1534 4219 1204 4116 
Q 875 4013 500 3803 
L 500 4441 
Q 881 4594 1212 4672 
Q 1544 4750 1819 4750 
Q 2544 4750 2975 4387 
Q 3406 4025 3406 3419 
Q 3406 3131 3298 2873 
Q 3191 2616 2906 2266 
Q 2828 2175 2409 1742 
Q 1991 1309 1228 531 
z
" transform="scale(0.015625)"/>
       </defs>
       <use xlink:href="#DejaVuSans-31" transform="translate(0 0.765625)"/>
       <use xlink:href="#DejaVuSans-30" transform="translate(63.623047 0.765625)"/>
       <use xlink:href="#DejaVuSans-2212" transform="translate(128.203125 39.046875) scale(0.7)"/>
       <use xlink:href="#DejaVuSans-32" transform="translate(186.855469 39.046875) scale(0.7)"/>
      </g>
     </g>
    </g>
    <g id="xtick_2">
     <g id="line2d_3">
      <path d="M 275.4 512.64 
L 275.4 69.12 
" clip-path="url(#p5df6739e3c)" style="fill: none; stroke: #b0b0b0; stroke-width: 0.5; stroke-linecap: square"/>
     </g>
     <g id="line2d_4">
      <g>
       <use xlink:href="#mcc9c132ab5" x="275.4" y="512.64" style="stroke: #000000; stroke-width: 0.8"/>
      </g>
     </g>
     <g id="text_2">
      <!-- $\mathdefault{10^{-1}}$ -->
      <g transform="translate(254.25 533.317188) scale(0.18 -0.18)">
       <use xlink:href="#DejaVuSans-31" transform="translate(0 0.684375)"/>
       <use xlink:href="#DejaVuSans-30" transform="translate(63.623047 0.684375)"/>
       <use xlink:href="#DejaVuSans-2212" transform="translate(128.203125 38.965625) scale(0.7)"/>
       <use xlink:href="#DejaVuSans-31" transform="translate(186.855469 38.965625) scale(0.7)"/>
      </g>
     </g>
    </g>
    <g id="xtick_3">
     <g id="line2d_5">
      <path d="M 442.8 512.64 
L 442.8 69.12 
" clip-path="url(#p5df6739e3c)" style="fill: none; stroke: #b0b0b0; stroke-width: 0.5; stroke-linecap: square"/>
     </g>
     <g id="line2d_6">
      <g>
       <use xlink:href="#mcc9c132ab5" x="442.8" y="512.64" style="stroke: #000000; stroke-width: 0.8"/>
      </g>
     </g>
     <g id="text_3">
      <!-- $\mathdefault{10^{0}}$ -->
      <g transform="translate(426.96 533.317188) scale(0.18 -0.18)">
       <use xlink:href="#DejaVuSans-31" transform="translate(0 0.765625)"/>
       <use xlink:href="#DejaVuSans-30" transform="translate(63.623047 0.765625)"/>
       <use xlink:href="#DejaVuSans-30" transform="translate(128.203125 39.046875) scale(0.7)"/>
      </g>
     </g>
    </g>
    <g id="xtick_4">
     <g id="line2d_7">
      <path d="M 610.2 512.64 
L 610.2 69.12 
" clip-path="url(#p5df6739e3c)" style="fill: none; stroke: #b0b0b0; stroke-width: 0.5; stroke-linecap: square"/>
     </g>
     <g id="line2d_8">
      <g>
       <use xlink:href="#mcc9c132ab5" x="610.2" y="512.64" style="stroke: #000000; stroke-width: 0.8"/>
      </g>
     </g>
     <g id="text_4">
      <!-- $\mathdefault{10^{1}}$ -->
      <g transform="translate(594.36 533.317188) scale(0.18 -0.18)">
       <use xlink:href="#DejaVuSans-31" transform="translate(0 0.684375)"/>
       <use xlink:href="#DejaVuSans-30" transform="translate(63.623047 0.684375)"/>
       <use xlink:href="#DejaVuSans-31" transform="translate(128.203125 38.965625) scale(0.7)"/>
      </g>
     </g>
    </g>
    <g id="xtick_5">
     <g id="line2d_9">
      <path d="M 777.6 512.64 
L 777.6 69.12 
" clip-path="url(#p5df6739e3c)" style="fill: none; stroke: #b0b0b0; stroke-width: 0.5; stroke-linecap: square"/>
     </g>
     <g id="line2d_10">
      <g>
       <use xlink:href="#mcc9c132ab5" x="777.6" y="512.64" style="stroke: #000000; stroke-width: 0.8"/>
      </g>
     </g>
     <g id="text_5">
      <!-- $\mathdefault{10^{2}}$ -->
      <g transform="translate(761.76 533.317188) scale(0.18 -0.18)">
       <use xlink:href="#DejaVuSans-31" transform="translate(0 0.765625)"/>
       <use xlink:href="#DejaVuSans-30" transform="translate(63.623047 0.765625)"/>
       <use xlink:href="#DejaVuSans-32" transform="translate(128.203125 39.046875) scale(0.7)"/>
      </g>
     </g>
    </g>
    <g id="xtick_6">
     <g id="line2d_11">
      <defs>
       <path id="mb950f6c59a" d="M 0 0 
L 0 2 
" style="stroke: #000000; stroke-width: 0.6"/>
      </defs>
      <g>
       <use xlink:href="#mb950f6c59a" x="158.392421" y="512.64" style="stroke: #000000; stroke-width: 0.6"/>
      </g>
     </g>
    </g>
    <g id="xtick_7">
     <g id="line2d_12">
      <g>
       <use xlink:href="#mb950f6c59a" x="187.870098" y="512.64" style="stroke: #000000; stroke-width: 0.6"/>
      </g>
     </g>
    </g>
    <g id="xtick_8">
     <g id="line2d_13">
      <g>
       <use xlink:href="#mb950f6c59a" x="208.784843" y="512.64" style="stroke: #000000; stroke-width: 0.6"/>
      </g>
     </g>
    </g>
    <g id="xtick_9">
     <g id="line2d_14">
      <g>
       <use xlink:href="#mb950f6c59a" x="225.007579" y="512.64" style="stroke: #000000; stroke-width: 0.6"/>
      </g>
     </g>
    </g>
    <g id="xtick_10">
     <g id="line2d_15">
      <g>
       <use xlink:href="#mb950f6c59a" x="238.262519" y="512.64" style="stroke: #000000; stroke-width: 0.6"/>
      </g>
     </g>
    </g>
    <g id="xtick_11">
     <g id="line2d_16">
      <g>
       <use xlink:href="#mb950f6c59a" x="249.469412" y="512.64" style="stroke: #000000; stroke-width: 0.6"/>
      </g>
     </g>
    </g>
    <g id="xtick_12">
     <g id="line2d_17">
      <g>
       <use xlink:href="#mb950f6c59a" x="259.177264" y="512.64" style="stroke: #000000; stroke-width: 0.6"/>
      </g>
     </g>
    </g>
    <g id="xtick_13">
     <g id="line2d_18">
      <g>
       <use xlink:href="#mb950f6c59a" x="267.740196" y="512.64" style="stroke: #000000; stroke-width: 0.6"/>
      </g>
     </g>
    </g>
    <g id="xtick_14">
     <g id="line2d_19">
      <g>
       <use xlink:href="#mb950f6c59a" x="325.792421" y="512.64" style="stroke: #000000; stroke-width: 0.6"/>
      </g>
     </g>
    </g>
    <g id="xtick_15">
     <g id="line2d_20">
      <g>
       <use xlink:href="#mb950f6c59a" x="355.270098" y="512.64" style="stroke: #000000; stroke-width: 0.6"/>
      </g>
     </g>
    </g>
    <g id="xtick_16">
     <g id="line2d_21">
      <g>
       <use xlink:href="#mb950f6c59a" x="376.184843" y="512.64" style="stroke: #000000; stroke-width: 0.6"/>
      </g>
     </g>
    </g>
    <g id="xtick_17">
     <g id="line2d_22">
      <g>
       <use xlink:href="#mb950f6c59a" x="392.407579" y="512.64" style="stroke: #000000; stroke-width: 0.6"/>
      </g>
     </g>
    </g>
    <g id="xtick_18">
     <g id="line2d_23">
      <g>
       <use xlink:href="#mb950f6c59a" x="405.662519" y="512.64" style="stroke: #000000; stroke-width: 0.6"/>
      </g>
     </g>
    </g>
    <g id="xtick_19">
     <g id="line2d_24">
      <g>
       <use xlink:href="#mb950f6c59a" x="416.869412" y="512.64" style="stroke: #000000; stroke-width: 0.6"/>
      </g>
     </g>
    </g>
    <g id="xtick_20">
     <g id="line2d_25">
      <g>
       <use xlink:href="#mb950f6c59a" x="426.577264" y="512.64" style="stroke: #000000; stroke-width: 0.6"/>
      </g>
     </g>
    </g>
    <g id="xtick_21">
     <g id="line2d_26">
      <g>
       <use xlink:href="#mb950f6c59a" x="435.140196" y="512.64" style="stroke: #000000; stroke-width: 0.6"/>
      </g>
     </g>
    </g>
    <g id="xtick_22">
     <g id="line2d_27">
      <g>
       <use xlink:href="#mb950f6c59a" x="493.192421" y="512.64" style="stroke: #000000; stroke-width: 0.6"/>
      </g>
     </g>
    </g>
    <g id="xtick_23">
     <g id="line2d_28">
      <g>
       <use xlink:href="#mb950f6c59a" x="522.670098" y="512.64" style="stroke: #000000; stroke-width: 0.6"/>
      </g>
     </g>
    </g>
    <g id="xtick_24">
     <g id="line2d_29">
      <g>
       <use xlink:href="#mb950f6c59a" x="543.584843" y="512.64" style="stroke: #000000; stroke-width: 0.6"/>
      </g>
     </g>
    </g>
    <g id="xtick_25">
     <g id="line2d_30">
      <g>
       <use xlink:href="#mb950f6c59a" x="559.807579" y="512.64" style="stroke: #000000; stroke-width: 0.6"/>
      </g>
     </g>
    </g>
    <g id="xtick_26">
     <g id="line2d_31">
      <g>
       <use xlink:href="#mb950f6c59a" x="573.062519" y="512.64" style="stroke: #000000; stroke-width: 0.6"/>
      </g>
     </g>
    </g>
    <g id="xtick_27">
     <g id="line2d_32">
      <g>
       <use xlink:href="#mb950f6c59a" x="584.269412" y="512.64" style="stroke: #000000; stroke-width: 0.6"/>
      </g>
     </g>
    </g>
    <g id="xtick_28">
     <g id="line2d_33">
      <g>
       <use xlink:href="#mb950f6c59a" x="593.977264" y="512.64" style="stroke: #000000; stroke-width: 0.6"/>
      </g>
     </g>
    </g>
    <g id="xtick_29">
     <g id="line2d_34">
      <g>
       <use xlink:href="#mb950f6c59a" x="602.540196" y="512.64" style="stroke: #000000; stroke-width: 0.6"/>
      </g>
     </g>
    </g>
    <g id="xtick_30">
     <g id="line2d_35">
      <g>
       <use xlink:href="#mb950f6c59a" x="660.592421" y="512.64" style="stroke: #000000; stroke-width: 0.6"/>
      </g>
     </g>
    </g>
    <g id="xtick_31">
     <g id="line2d_36">
      <g>
       <use xlink:href="#mb950f6c59a" x="690.070098" y="512.64" style="stroke: #000000; stroke-width: 0.6"/>
      </g>
     </g>
    </g>
    <g id="xtick_32">
     <g id="line2d_37">
      <g>
       <use xlink:href="#mb950f6c59a" x="710.984843" y="512.64" style="stroke: #000000; stroke-width: 0.6"/>
      </g>
     </g>
    </g>
    <g id="xtick_33">
     <g id="line2d_38">
      <g>
       <use xlink:href="#mb950f6c59a" x="727.207579" y="512.64" style="stroke: #000000; stroke-width: 0.6"/>
      </g>
     </g>
    </g>
    <g id="xtick_34">
     <g id="line2d_39">
      <g>
       <use xlink:href="#mb950f6c59a" x="740.462519" y="512.64" style="stroke: #000000; stroke-width: 0.6"/>
      </g>
     </g>
    </g>
    <g id="xtick_35">
     <g id="line2d_40">
      <g>
       <use xlink:href="#mb950f6c59a" x="751.669412" y="512.64" style="stroke: #000000; stroke-width: 0.6"/>
      </g>
     </g>
    </g>
    <g id="xtick_36">
     <g id="line2d_41">
      <g>
       <use xlink:href="#mb950f6c59a" x="761.377264" y="512.64" style="stroke: #000000; stroke-width: 0.6"/>
      </g>
     </g>
    </g>
    <g id="xtick_37">
     <g id="line2d_42">
      <g>
       <use xlink:href="#mb950f6c59a" x="769.940196" y="512.64" style="stroke: #000000; stroke-width: 0.6"/>
      </g>
     </g>
    </g>
    <g id="text_6">
     <!-- Frequency [Hz] -->
     <g transform="translate(344.767812 560.816563) scale(0.26 -0.26)">
      <defs>
       <path id="DejaVuSans-46" d="M 628 4666 
L 3309 4666 
L 3309 4134 
L 1259 4134 
L 1259 2759 
L 3109 2759 
L 3109 2228 
L 1259 2228 
L 1259 0 
L 628 0 
L 628 4666 
z
" transform="scale(0.015625)"/>
       <path id="DejaVuSans-72" d="M 2631 2963 
Q 2534 3019 2420 3045 
Q 2306 3072 2169 3072 
Q 1681 3072 1420 2755 
Q 1159 2438 1159 1844 
L 1159 0 
L 581 0 
L 581 3500 
L 1159 3500 
L 1159 2956 
Q 1341 3275 1631 3429 
Q 1922 3584 2338 3584 
Q 2397 3584 2469 3576 
Q 2541 3569 2628 3553 
L 2631 2963 
z
" transform="scale(0.015625)"/>
       <path id="DejaVuSans-65" d="M 3597 1894 
L 3597 1613 
L 953 1613 
Q 991 1019 1311 708 
Q 1631 397 2203 397 
Q 2534 397 2845 478 
Q 3156 559 3463 722 
L 3463 178 
Q 3153 47 2828 -22 
Q 2503 -91 2169 -91 
Q 1331 -91 842 396 
Q 353 884 353 1716 
Q 353 2575 817 3079 
Q 1281 3584 2069 3584 
Q 2775 3584 3186 3129 
Q 3597 2675 3597 1894 
z
M 3022 2063 
Q 3016 2534 2758 2815 
Q 2500 3097 2075 3097 
Q 1594 3097 1305 2825 
Q 1016 2553 972 2059 
L 3022 2063 
z
" transform="scale(0.015625)"/>
       <path id="DejaVuSans-71" d="M 947 1747 
Q 947 1113 1208 752 
Q 1469 391 1925 391 
Q 2381 391 2643 752 
Q 2906 1113 2906 1747 
Q 2906 2381 2643 2742 
Q 2381 3103 1925 3103 
Q 1469 3103 1208 2742 
Q 947 2381 947 1747 
z
M 2906 525 
Q 2725 213 2448 61 
Q 2172 -91 1784 -91 
Q 1150 -91 751 415 
Q 353 922 353 1747 
Q 353 2572 751 3078 
Q 1150 3584 1784 3584 
Q 2172 3584 2448 3432 
Q 2725 3281 2906 2969 
L 2906 3500 
L 3481 3500 
L 3481 -1331 
L 2906 -1331 
L 2906 525 
z
" transform="scale(0.015625)"/>
       <path id="DejaVuSans-75" d="M 544 1381 
L 544 3500 
L 1119 3500 
L 1119 1403 
Q 1119 906 1312 657 
Q 1506 409 1894 409 
Q 2359 409 2629 706 
Q 2900 1003 2900 1516 
L 2900 3500 
L 3475 3500 
L 3475 0 
L 2900 0 
L 2900 538 
Q 2691 219 2414 64 
Q 2138 -91 1772 -91 
Q 1169 -91 856 284 
Q 544 659 544 1381 
z
M 1991 3584 
L 1991 3584 
z
" transform="scale(0.015625)"/>
       <path id="DejaVuSans-6e" d="M 3513 2113 
L 3513 0 
L 2938 0 
L 2938 2094 
Q 2938 2591 2744 2837 
Q 2550 3084 2163 3084 
Q 1697 3084 1428 2787 
Q 1159 2491 1159 1978 
L 1159 0 
L 581 0 
L 581 3500 
L 1159 3500 
L 1159 2956 
Q 1366 3272 1645 3428 
Q 1925 3584 2291 3584 
Q 2894 3584 3203 3211 
Q 3513 2838 3513 2113 
z
" transform="scale(0.015625)"/>
       <path id="DejaVuSans-63" d="M 3122 3366 
L 3122 2828 
Q 2878 2963 2633 3030 
Q 2388 3097 2138 3097 
Q 1578 3097 1268 2742 
Q 959 2388 959 1747 
Q 959 1106 1268 751 
Q 1578 397 2138 397 
Q 2388 397 2633 464 
Q 2878 531 3122 666 
L 3122 134 
Q 2881 22 2623 -34 
Q 2366 -91 2075 -91 
Q 1284 -91 818 406 
Q 353 903 353 1747 
Q 353 2603 823 3093 
Q 1294 3584 2113 3584 
Q 2378 3584 2631 3529 
Q 2884 3475 3122 3366 
z
" transform="scale(0.015625)"/>
       <path id="DejaVuSans-79" d="M 2059 -325 
Q 1816 -950 1584 -1140 
Q 1353 -1331 966 -1331 
L 506 -1331 
L 506 -850 
L 844 -850 
Q 1081 -850 1212 -737 
Q 1344 -625 1503 -206 
L 1606 56 
L 191 3500 
L 800 3500 
L 1894 763 
L 2988 3500 
L 3597 3500 
L 2059 -325 
z
" transform="scale(0.015625)"/>
       <path id="DejaVuSans-20" transform="scale(0.015625)"/>
       <path id="DejaVuSans-5b" d="M 550 4863 
L 1875 4863 
L 1875 4416 
L 1125 4416 
L 1125 -397 
L 1875 -397 
L 1875 -844 
L 550 -844 
L 550 4863 
z
" transform="scale(0.015625)"/>
       <path id="DejaVuSans-48" d="M 628 4666 
L 1259 4666 
L 1259 2753 
L 3553 2753 
L 3553 4666 
L 4184 4666 
L 4184 0 
L 3553 0 
L 3553 2222 
L 1259 2222 
L 1259 0 
L 628 0 
L 628 4666 
z
" transform="scale(0.015625)"/>
       <path id="DejaVuSans-7a" d="M 353 3500 
L 3084 3500 
L 3084 2975 
L 922 459 
L 3084 459 
L 3084 0 
L 275 0 
L 275 525 
L 2438 3041 
L 353 3041 
L 353 3500 
z
" transform="scale(0.015625)"/>
       <path id="DejaVuSans-5d" d="M 1947 4863 
L 1947 -844 
L 622 -844 
L 622 -397 
L 1369 -397 
L 1369 4416 
L 622 4416 
L 622 4863 
L 1947 4863 
z
" transform="scale(0.015625)"/>
      </defs>
      <use xlink:href="#DejaVuSans-46"/>
      <use xlink:href="#DejaVuSans-72" x="50.269531"/>
      <use xlink:href="#DejaVuSans-65" x="89.132812"/>
      <use xlink:href="#DejaVuSans-71" x="150.65625"/>
      <use xlink:href="#DejaVuSans-75" x="214.132812"/>
      <use xlink:href="#DejaVuSans-65" x="277.511719"/>
      <use xlink:href="#DejaVuSans-6e" x="339.035156"/>
      <use xlink:href="#DejaVuSans-63" x="402.414062"/>
      <use xlink:href="#DejaVuSans-79" x="457.394531"/>
      <use xlink:href="#DejaVuSans-20" x="516.574219"/>
      <use xlink:href="#DejaVuSans-5b" x="548.361328"/>
      <use xlink:href="#DejaVuSans-48" x="587.375"/>
      <use xlink:href="#DejaVuSans-7a" x="662.570312"/>
      <use xlink:href="#DejaVuSans-5d" x="715.060547"/>
     </g>
    </g>
   </g>
   <g id="matplotlib.axis_2">
    <g id="ytick_1">
     <g id="line2d_43">
      <path d="M 108 512.64 
L 777.6 512.64 
" clip-path="url(#p5df6739e3c)" style="fill: none; stroke: #b0b0b0; stroke-width: 0.5; stroke-linecap: square"/>
     </g>
     <g id="line2d_44">
      <defs>
       <path id="mb3e89cf5a2" d="M 0 0 
L -3.5 0 
" style="stroke: #000000; stroke-width: 0.8"/>
      </defs>
      <g>
       <use xlink:href="#mb3e89cf5a2" x="108" y="512.64" style="stroke: #000000; stroke-width: 0.8"/>
      </g>
     </g>
     <g id="text_7">
      <!-- 180 -->
      <g transform="translate(66.6425 519.478594) scale(0.18 -0.18)">
       <defs>
        <path id="DejaVuSans-38" d="M 2034 2216 
Q 1584 2216 1326 1975 
Q 1069 1734 1069 1313 
Q 1069 891 1326 650 
Q 1584 409 2034 409 
Q 2484 409 2743 651 
Q 3003 894 3003 1313 
Q 3003 1734 2745 1975 
Q 2488 2216 2034 2216 
z
M 1403 2484 
Q 997 2584 770 2862 
Q 544 3141 544 3541 
Q 544 4100 942 4425 
Q 1341 4750 2034 4750 
Q 2731 4750 3128 4425 
Q 3525 4100 3525 3541 
Q 3525 3141 3298 2862 
Q 3072 2584 2669 2484 
Q 3125 2378 3379 2068 
Q 3634 1759 3634 1313 
Q 3634 634 3220 271 
Q 2806 -91 2034 -91 
Q 1263 -91 848 271 
Q 434 634 434 1313 
Q 434 1759 690 2068 
Q 947 2378 1403 2484 
z
M 1172 3481 
Q 1172 3119 1398 2916 
Q 1625 2713 2034 2713 
Q 2441 2713 2670 2916 
Q 2900 3119 2900 3481 
Q 2900 3844 2670 4047 
Q 2441 4250 2034 4250 
Q 1625 4250 1398 4047 
Q 1172 3844 1172 3481 
z
" transform="scale(0.015625)"/>
       </defs>
       <use xlink:href="#DejaVuSans-31"/>
       <use xlink:href="#DejaVuSans-38" x="63.623047"/>
       <use xlink:href="#DejaVuSans-30" x="127.246094"/>
      </g>
     </g>
    </g>
    <g id="ytick_2">
     <g id="line2d_45">
      <path d="M 108 423.936 
L 777.6 423.936 
" clip-path="url(#p5df6739e3c)" style="fill: none; stroke: #b0b0b0; stroke-width: 0.5; stroke-linecap: square"/>
     </g>
     <g id="line2d_46">
      <g>
       <use xlink:href="#mb3e89cf5a2" x="108" y="423.936" style="stroke: #000000; stroke-width: 0.8"/>
      </g>
     </g>
     <g id="text_8">
      <!-- 190 -->
      <g transform="translate(66.6425 430.774594) scale(0.18 -0.18)">
       <defs>
        <path id="DejaVuSans-39" d="M 703 97 
L 703 672 
Q 941 559 1184 500 
Q 1428 441 1663 441 
Q 2288 441 2617 861 
Q 2947 1281 2994 2138 
Q 2813 1869 2534 1725 
Q 2256 1581 1919 1581 
Q 1219 1581 811 2004 
Q 403 2428 403 3163 
Q 403 3881 828 4315 
Q 1253 4750 1959 4750 
Q 2769 4750 3195 4129 
Q 3622 3509 3622 2328 
Q 3622 1225 3098 567 
Q 2575 -91 1691 -91 
Q 1453 -91 1209 -44 
Q 966 3 703 97 
z
M 1959 2075 
Q 2384 2075 2632 2365 
Q 2881 2656 2881 3163 
Q 2881 3666 2632 3958 
Q 2384 4250 1959 4250 
Q 1534 4250 1286 3958 
Q 1038 3666 1038 3163 
Q 1038 2656 1286 2365 
Q 1534 2075 1959 2075 
z
" transform="scale(0.015625)"/>
       </defs>
       <use xlink:href="#DejaVuSans-31"/>
       <use xlink:href="#DejaVuSans-39" x="63.623047"/>
       <use xlink:href="#DejaVuSans-30" x="127.246094"/>
      </g>
     </g>
    </g>
    <g id="ytick_3">
     <g id="line2d_47">
      <path d="M 108 335.232 
L 777.6 335.232 
" clip-path="url(#p5df6739e3c)" style="fill: none; stroke: #b0b0b0; stroke-width: 0.5; stroke-linecap: square"/>
     </g>
     <g id="line2d_48">
      <g>
       <use xlink:href="#mb3e89cf5a2" x="108" y="335.232" style="stroke: #000000; stroke-width: 0.8"/>
      </g>
     </g>
     <g id="text_9">
      <!-- 200 -->
      <g transform="translate(66.6425 342.070594) scale(0.18 -0.18)">
       <use xlink:href="#DejaVuSans-32"/>
       <use xlink:href="#DejaVuSans-30" x="63.623047"/>
       <use xlink:href="#DejaVuSans-30" x="127.246094"/>
      </g>
     </g>
    </g>
    <g id="ytick_4">
     <g id="line2d_49">
      <path d="M 108 246.528 
L 777.6 246.528 
" clip-path="url(#p5df6739e3c)" style="fill: none; stroke: #b0b0b0; stroke-width: 0.5; stroke-linecap: square"/>
     </g>
     <g id="line2d_50">
      <g>
       <use xlink:href="#mb3e89cf5a2" x="108" y="246.528" style="stroke: #000000; stroke-width: 0.8"/>
      </g>
     </g>
     <g id="text_10">
      <!-- 210 -->
      <g transform="translate(66.6425 253.366594) scale(0.18 -0.18)">
       <use xlink:href="#DejaVuSans-32"/>
       <use xlink:href="#DejaVuSans-31" x="63.623047"/>
       <use xlink:href="#DejaVuSans-30" x="127.246094"/>
      </g>
     </g>
    </g>
    <g id="ytick_5">
     <g id="line2d_51">
      <path d="M 108 157.824 
L 777.6 157.824 
" clip-path="url(#p5df6739e3c)" style="fill: none; stroke: #b0b0b0; stroke-width: 0.5; stroke-linecap: square"/>
     </g>
     <g id="line2d_52">
      <g>
       <use xlink:href="#mb3e89cf5a2" x="108" y="157.824" style="stroke: #000000; stroke-width: 0.8"/>
      </g>
     </g>
     <g id="text_11">
      <!-- 220 -->
      <g transform="translate(66.6425 164.662594) scale(0.18 -0.18)">
       <use xlink:href="#DejaVuSans-32"/>
       <use xlink:href="#DejaVuSans-32" x="63.623047"/>
       <use xlink:href="#DejaVuSans-30" x="127.246094"/>
      </g>
     </g>
    </g>
    <g id="ytick_6">
     <g id="line2d_53">
      <path d="M 108 69.12 
L 777.6 69.12 
" clip-path="url(#p5df6739e3c)" style="fill: none; stroke: #b0b0b0; stroke-width: 0.5; stroke-linecap: square"/>
     </g>
     <g id="line2d_54">
      <g>
       <use xlink:href="#mb3e89cf5a2" x="108" y="69.12" style="stroke: #000000; stroke-width: 0.8"/>
      </g>
     </g>
     <g id="text_12">
      <!-- 230 -->
      <g transform="translate(66.6425 75.958594) scale(0.18 -0.18)">
       <defs>
        <path id="DejaVuSans-33" d="M 2597 2516 
Q 3050 2419 3304 2112 
Q 3559 1806 3559 1356 
Q 3559 666 3084 287 
Q 2609 -91 1734 -91 
Q 1441 -91 1130 -33 
Q 819 25 488 141 
L 488 750 
Q 750 597 1062 519 
Q 1375 441 1716 441 
Q 2309 441 2620 675 
Q 2931 909 2931 1356 
Q 2931 1769 2642 2001 
Q 2353 2234 1838 2234 
L 1294 2234 
L 1294 2753 
L 1863 2753 
Q 2328 2753 2575 2939 
Q 2822 3125 2822 3475 
Q 2822 3834 2567 4026 
Q 2313 4219 1838 4219 
Q 1578 4219 1281 4162 
Q 984 4106 628 3988 
L 628 4550 
Q 988 4650 1302 4700 
Q 1616 4750 1894 4750 
Q 2613 4750 3031 4423 
Q 3450 4097 3450 3541 
Q 3450 3153 3228 2886 
Q 3006 2619 2597 2516 
z
" transform="scale(0.015625)"/>
       </defs>
       <use xlink:href="#DejaVuSans-32"/>
       <use xlink:href="#DejaVuSans-33" x="63.623047"/>
       <use xlink:href="#DejaVuSans-30" x="127.246094"/>
      </g>
     </g>
    </g>
    <g id="text_13">
     <!-- $R$ [GΩ] -->
     <g transform="translate(57.235312 334.3) rotate(-90) scale(0.26 -0.26)">
      <defs>
       <path id="DejaVuSans-Oblique-52" d="M 1613 4147 
L 1294 2491 
L 2106 2491 
Q 2584 2491 2879 2755 
Q 3175 3019 3175 3444 
Q 3175 3784 2976 3965 
Q 2778 4147 2406 4147 
L 1613 4147 
z
M 2772 2241 
Q 2972 2194 3105 2009 
Q 3238 1825 3413 1275 
L 3809 0 
L 3144 0 
L 2778 1197 
Q 2638 1659 2453 1815 
Q 2269 1972 1888 1972 
L 1191 1972 
L 806 0 
L 172 0 
L 1081 4666 
L 2503 4666 
Q 3150 4666 3495 4373 
Q 3841 4081 3841 3531 
Q 3841 3044 3547 2687 
Q 3253 2331 2772 2241 
z
" transform="scale(0.015625)"/>
       <path id="DejaVuSans-47" d="M 3809 666 
L 3809 1919 
L 2778 1919 
L 2778 2438 
L 4434 2438 
L 4434 434 
Q 4069 175 3628 42 
Q 3188 -91 2688 -91 
Q 1594 -91 976 548 
Q 359 1188 359 2328 
Q 359 3472 976 4111 
Q 1594 4750 2688 4750 
Q 3144 4750 3555 4637 
Q 3966 4525 4313 4306 
L 4313 3634 
Q 3963 3931 3569 4081 
Q 3175 4231 2741 4231 
Q 1884 4231 1454 3753 
Q 1025 3275 1025 2328 
Q 1025 1384 1454 906 
Q 1884 428 2741 428 
Q 3075 428 3337 486 
Q 3600 544 3809 666 
z
" transform="scale(0.015625)"/>
       <path id="DejaVuSans-3a9" d="M 4647 556 
L 4647 0 
L 2772 0 
L 2772 556 
Q 3325 859 3634 1378 
Q 3944 1897 3944 2528 
Q 3944 3278 3531 3731 
Q 3119 4184 2444 4184 
Q 1769 4184 1355 3729 
Q 941 3275 941 2528 
Q 941 1897 1250 1378 
Q 1563 859 2119 556 
L 2119 0 
L 244 0 
L 244 556 
L 1241 556 
Q 747 991 519 1456 
Q 294 1922 294 2497 
Q 294 3491 894 4106 
Q 1491 4722 2444 4722 
Q 3391 4722 3994 4106 
Q 4594 3494 4594 2528 
Q 4594 1922 4372 1459 
Q 4150 997 3647 556 
L 4647 556 
z
" transform="scale(0.015625)"/>
      </defs>
      <use xlink:href="#DejaVuSans-Oblique-52" transform="translate(0 0.015625)"/>
      <use xlink:href="#DejaVuSans-20" transform="translate(69.482422 0.015625)"/>
      <use xlink:href="#DejaVuSans-5b" transform="translate(101.269531 0.015625)"/>
      <use xlink:href="#DejaVuSans-47" transform="translate(140.283203 0.015625)"/>
      <use xlink:href="#DejaVuSans-3a9" transform="translate(217.773438 0.015625)"/>
      <use xlink:href="#DejaVuSans-5d" transform="translate(294.189453 0.015625)"/>
     </g>
    </g>
   </g>
   <g id="line2d_55">
    <path d="M -1 322.855965 
L 283.77 322.894063 
L 285.444 323.055611 
L 347.382 323.234926 
L 362.448 323.347474 
L 364.122 323.522744 
L 389.232 323.868202 
L 399.276 324.088516 
L 400.95 324.290965 
L 409.32 324.538201 
L 410.994 324.754186 
L 417.69 325.008589 
L 419.364 325.239069 
L 424.386 325.473478 
L 426.06 325.718186 
L 437.778 326.440919 
L 439.452 326.723291 
L 442.8 326.987921 
L 444.474 327.288326 
L 446.148 327.436622 
L 447.822 327.750474 
L 451.17 328.083043 
L 452.844 328.419533 
L 454.518 328.605873 
L 457.866 329.321608 
L 459.54 329.535225 
L 461.214 329.916918 
L 462.888 330.15092 
L 466.236 330.96791 
L 467.91 331.236098 
L 471.258 332.125737 
L 472.932 332.433061 
L 481.302 334.825816 
L 482.976 335.542597 
L 487.998 337.336538 
L 489.672 338.131601 
L 491.346 338.792454 
L 493.02 339.320554 
L 494.694 340.1843 
L 496.368 340.917421 
L 501.39 343.743654 
L 508.086 347.778099 
L 511.434 350.230764 
L 514.782 352.682605 
L 521.478 358.554277 
L 524.826 361.849658 
L 529.848 367.491755 
L 533.196 371.642703 
L 536.544 376.047762 
L 539.892 381.019958 
L 543.24 386.284904 
L 544.914 389.034418 
L 548.262 395.068374 
L 551.61 401.591782 
L 554.958 408.626355 
L 556.632 412.290256 
L 561.654 424.455637 
L 565.002 433.293181 
L 570.024 448.091323 
L 573.372 458.788165 
L 576.72 470.131926 
L 581.742 488.913028 
L 585.09 502.495048 
L 588.438 517.003713 
L 591.786 532.436435 
L 596.808 557.398699 
L 600.456748 577 
L 600.456748 577 
" clip-path="url(#p5df6739e3c)" style="fill: none; stroke-dasharray: 3.5,5.775; stroke-dashoffset: 0; stroke: #0000ff; stroke-width: 3.5"/>
   </g>
   <g id="line2d_56">
    <path d="M -1 240.278138 
L 285.444 240.324734 
L 287.118 240.501787 
L 344.034 240.686522 
L 360.774 240.823073 
L 362.448 241.015242 
L 382.536 241.300913 
L 384.21 241.507229 
L 402.624 241.971542 
L 407.646 242.144541 
L 409.32 242.38209 
L 414.342 242.589942 
L 416.016 242.840105 
L 421.038 243.089806 
L 422.712 243.35512 
L 427.734 243.655064 
L 429.408 243.938571 
L 436.104 244.430372 
L 437.778 244.741856 
L 442.8 245.194797 
L 444.474 245.533726 
L 446.148 245.706778 
L 447.822 246.061381 
L 449.496 246.25096 
L 451.17 246.622727 
L 454.518 247.047814 
L 457.866 247.859616 
L 459.54 248.108812 
L 462.888 248.988126 
L 464.562 249.273717 
L 476.28 252.541714 
L 477.954 253.29545 
L 479.628 253.896207 
L 481.302 254.34528 
L 482.976 255.157524 
L 486.324 256.504734 
L 487.998 257.383604 
L 491.346 258.874382 
L 493.02 259.829316 
L 496.368 261.483885 
L 501.39 264.704399 
L 506.412 268.065127 
L 509.76 270.777296 
L 511.434 272.112096 
L 513.108 273.824128 
L 514.782 275.082341 
L 519.804 280.14812 
L 523.152 283.789774 
L 528.174 290.019979 
L 531.522 294.601851 
L 533.196 296.996407 
L 536.544 302.325912 
L 539.892 307.80687 
L 544.914 317.214488 
L 548.262 324.200008 
L 551.61 331.577448 
L 556.632 343.96561 
L 559.98 353.182487 
L 563.328 362.875493 
L 566.676 373.504352 
L 571.698 390.92651 
L 575.046 403.459711 
L 578.394 416.971698 
L 581.742 431.334171 
L 586.764 454.772455 
L 590.112 471.649624 
L 593.46 489.371548 
L 596.808 508.277644 
L 600.156 528.213877 
L 603.504 549.038329 
L 607.746076 577 
L 607.746076 577 
" clip-path="url(#p5df6739e3c)" style="fill: none; stroke: #ff0000; stroke-width: 3.5; stroke-linecap: square"/>
   </g>
   <g id="line2d_57">
    <path d="M -1 216.366121 
L 315.576 216.475945 
L 357.426 216.713388 
L 369.144 216.845442 
L 370.818 217.047252 
L 387.558 217.340561 
L 389.232 217.557114 
L 399.276 217.821762 
L 400.95 218.052402 
L 416.016 218.641307 
L 417.69 218.901822 
L 427.734 219.479472 
L 429.408 219.770705 
L 432.756 220.012166 
L 434.43 220.319844 
L 436.104 220.455162 
L 437.778 220.775109 
L 439.452 220.923369 
L 441.126 221.256745 
L 446.148 221.767281 
L 447.822 222.13157 
L 449.496 222.326604 
L 452.844 223.099881 
L 456.192 223.557496 
L 457.866 223.979931 
L 459.54 224.236277 
L 461.214 224.681872 
L 462.888 224.962638 
L 466.236 225.918016 
L 467.91 226.239745 
L 474.606 228.389105 
L 481.302 230.821724 
L 486.324 232.864967 
L 487.998 233.592881 
L 499.716 240.154006 
L 504.738 243.669008 
L 509.76 247.528874 
L 511.434 249.242263 
L 513.108 250.487445 
L 519.804 257.153568 
L 521.478 258.994806 
L 524.826 263.184731 
L 529.848 269.771349 
L 531.522 272.157069 
L 536.544 280.083047 
L 539.892 285.868668 
L 541.566 288.888187 
L 544.914 295.51639 
L 546.588 298.969769 
L 551.61 310.241422 
L 554.958 318.696705 
L 558.306 327.599739 
L 561.654 337.43138 
L 563.328 342.457171 
L 568.35 359.050044 
L 571.698 371.026663 
L 576.72 390.826283 
L 581.742 412.624262 
L 585.09 428.305719 
L 590.112 453.924623 
L 593.46 472.128786 
L 596.808 491.407562 
L 600.156 511.727005 
L 605.178 544.238157 
L 608.526 567.063754 
L 609.936619 577 
L 609.936619 577 
" clip-path="url(#p5df6739e3c)" style="fill: none; stroke: #bf00bf; stroke-width: 3.5; stroke-linecap: square"/>
   </g>
   <g id="line2d_58">
    <path d="M -1 205.359578 
L 313.902 205.469207 
L 349.056 205.647919 
L 350.73 205.84289 
L 377.514 205.990272 
L 379.188 206.201254 
L 392.58 206.49514 
L 394.254 206.721211 
L 402.624 206.97957 
L 404.298 207.21978 
L 417.69 207.805094 
L 419.364 207.894569 
L 421.038 208.169002 
L 424.386 208.369695 
L 426.06 208.657805 
L 429.408 208.888054 
L 431.082 209.191857 
L 434.43 209.455991 
L 436.104 209.777782 
L 441.126 210.24299 
L 442.8 210.592963 
L 444.474 210.77069 
L 446.148 211.136754 
L 447.822 211.331477 
L 451.17 212.108231 
L 454.518 212.565119 
L 456.192 212.98923 
L 459.54 213.513063 
L 471.258 216.844572 
L 472.932 217.408003 
L 474.606 217.810834 
L 476.28 218.410517 
L 477.954 219.207416 
L 479.628 219.668624 
L 481.302 220.506451 
L 482.976 221.011115 
L 484.65 221.893666 
L 486.324 222.445804 
L 498.042 229.025033 
L 503.064 232.550166 
L 508.086 236.420002 
L 509.76 237.794523 
L 516.456 244.10945 
L 519.804 247.919136 
L 523.152 251.786586 
L 528.174 258.396985 
L 531.522 263.257778 
L 536.544 271.446391 
L 539.892 277.42426 
L 543.24 284.081717 
L 546.588 291.116121 
L 551.61 302.751576 
L 554.958 311.472669 
L 558.306 320.659104 
L 563.328 336.127742 
L 566.676 347.33975 
L 570.024 359.24851 
L 575.046 378.906124 
L 580.068 400.736542 
L 585.09 424.748263 
L 588.438 442.005963 
L 591.786 460.260563 
L 596.808 489.634502 
L 600.156 510.573445 
L 603.504 532.507966 
L 606.852 555.410665 
L 609.878441 577 
L 609.878441 577 
" clip-path="url(#p5df6739e3c)" style="fill: none; stroke: #008000; stroke-width: 3.5; stroke-linecap: square"/>
   </g>
   <g id="line2d_59">
    <path d="M -1 216.904146 
L 315.576 217.01437 
L 335.664 217.185302 
L 354.078 217.311608 
L 357.426 217.431846 
L 382.536 217.778448 
L 394.254 218.042644 
L 397.602 218.224585 
L 404.298 218.526507 
L 407.646 218.73772 
L 412.668 219.032102 
L 417.69 219.44603 
L 422.712 219.715974 
L 427.734 220.204228 
L 432.756 220.559638 
L 447.822 222.5948 
L 451.17 223.173177 
L 454.518 223.8784 
L 461.214 225.151631 
L 467.91 226.890575 
L 471.258 227.846822 
L 477.954 230.04881 
L 482.976 232.055073 
L 486.324 233.443113 
L 487.998 234.347743 
L 489.672 235.015285 
L 501.39 241.801505 
L 503.064 243.148129 
L 504.738 244.27247 
L 511.434 249.687255 
L 513.108 251.107051 
L 518.13 256.083026 
L 521.478 259.802696 
L 524.826 263.91888 
L 526.5 265.942928 
L 529.848 270.437179 
L 536.544 280.690651 
L 541.566 289.597544 
L 546.588 299.701418 
L 551.61 311.075861 
L 554.958 319.393981 
L 558.306 328.469526 
L 561.654 338.170639 
L 566.676 354.18557 
L 570.024 365.839262 
L 573.372 378.402374 
L 576.72 391.883688 
L 580.068 406.021775 
L 585.09 429.423478 
L 588.438 446.251771 
L 591.786 463.997911 
L 595.134 482.712317 
L 598.482 502.546141 
L 603.504 534.359893 
L 606.852 556.710658 
L 609.771472 577 
L 609.771472 577 
" clip-path="url(#p5df6739e3c)" style="fill: none; stroke-dasharray: 12.95,5.6; stroke-dashoffset: 0; stroke: #000000; stroke-width: 3.5"/>
   </g>
   <g id="patch_3">
    <path d="M 108 512.64 
L 108 69.12 
" style="fill: none; stroke: #000000; stroke-width: 0.8; stroke-linejoin: miter; stroke-linecap: square"/>
   </g>
   <g id="patch_4">
    <path d="M 777.6 512.64 
L 777.6 69.12 
" style="fill: none; stroke: #000000; stroke-width: 0.8; stroke-linejoin: miter; stroke-linecap: square"/>
   </g>
   <g id="patch_5">
    <path d="M 108 512.64 
L 777.6 512.64 
" style="fill: none; stroke: #000000; stroke-width: 0.8; stroke-linejoin: miter; stroke-linecap: square"/>
   </g>
   <g id="patch_6">
    <path d="M 108 69.12 
L 777.6 69.12 
" style="fill: none; stroke: #000000; stroke-width: 0.8; stroke-linejoin: miter; stroke-linecap: square"/>
   </g>
   <g id="legend_1">
    <g id="patch_7">
     <path d="M 694.885 199.345 
L 766.4 199.345 
Q 769.6 199.345 769.6 196.145 
L 769.6 80.32 
Q 769.6 77.12 766.4 77.12 
L 694.885 77.12 
Q 691.685 77.12 691.685 80.32 
L 691.685 196.145 
Q 691.685 199.345 694.885 199.345 
z
" style="fill: #ffffff; opacity: 0.8; stroke: #cccccc; stroke-linejoin: miter"/>
    </g>
    <g id="line2d_60">
     <path d="M 698.085 90.0775 
L 714.085 90.0775 
L 730.085 90.0775 
" style="fill: none; stroke-dasharray: 3.5,5.775; stroke-dashoffset: 0; stroke: #0000ff; stroke-width: 3.5"/>
    </g>
    <g id="text_14">
     <!-- FF -->
     <g transform="translate(742.885 95.6775) scale(0.16 -0.16)">
      <use xlink:href="#DejaVuSans-46"/>
      <use xlink:href="#DejaVuSans-46" x="57.519531"/>
     </g>
    </g>
    <g id="line2d_61">
     <path d="M 698.085 113.5625 
L 714.085 113.5625 
L 730.085 113.5625 
" style="fill: none; stroke: #ff0000; stroke-width: 3.5; stroke-linecap: square"/>
    </g>
    <g id="text_15">
     <!-- FS -->
     <g transform="translate(742.885 119.1625) scale(0.16 -0.16)">
      <defs>
       <path id="DejaVuSans-53" d="M 3425 4513 
L 3425 3897 
Q 3066 4069 2747 4153 
Q 2428 4238 2131 4238 
Q 1616 4238 1336 4038 
Q 1056 3838 1056 3469 
Q 1056 3159 1242 3001 
Q 1428 2844 1947 2747 
L 2328 2669 
Q 3034 2534 3370 2195 
Q 3706 1856 3706 1288 
Q 3706 609 3251 259 
Q 2797 -91 1919 -91 
Q 1588 -91 1214 -16 
Q 841 59 441 206 
L 441 856 
Q 825 641 1194 531 
Q 1563 422 1919 422 
Q 2459 422 2753 634 
Q 3047 847 3047 1241 
Q 3047 1584 2836 1778 
Q 2625 1972 2144 2069 
L 1759 2144 
Q 1053 2284 737 2584 
Q 422 2884 422 3419 
Q 422 4038 858 4394 
Q 1294 4750 2059 4750 
Q 2388 4750 2728 4690 
Q 3069 4631 3425 4513 
z
" transform="scale(0.015625)"/>
      </defs>
      <use xlink:href="#DejaVuSans-46"/>
      <use xlink:href="#DejaVuSans-53" x="55.769531"/>
     </g>
    </g>
    <g id="line2d_62">
     <path d="M 698.085 137.0475 
L 714.085 137.0475 
L 730.085 137.0475 
" style="fill: none; stroke: #bf00bf; stroke-width: 3.5; stroke-linecap: square"/>
    </g>
    <g id="text_16">
     <!-- SF -->
     <g transform="translate(742.885 142.6475) scale(0.16 -0.16)">
      <use xlink:href="#DejaVuSans-53"/>
      <use xlink:href="#DejaVuSans-46" x="63.476562"/>
     </g>
    </g>
    <g id="line2d_63">
     <path d="M 698.085 160.5325 
L 714.085 160.5325 
L 730.085 160.5325 
" style="fill: none; stroke: #008000; stroke-width: 3.5; stroke-linecap: square"/>
    </g>
    <g id="text_17">
     <!-- SS -->
     <g transform="translate(742.885 166.1325) scale(0.16 -0.16)">
      <use xlink:href="#DejaVuSans-53"/>
      <use xlink:href="#DejaVuSans-53" x="63.476562"/>
     </g>
    </g>
    <g id="line2d_64">
     <path d="M 698.085 184.0175 
L 714.085 184.0175 
L 730.085 184.0175 
" style="fill: none; stroke-dasharray: 12.95,5.6; stroke-dashoffset: 0; stroke: #000000; stroke-width: 3.5"/>
    </g>
    <g id="text_18">
     <!-- TT -->
     <g transform="translate(742.885 189.6175) scale(0.16 -0.16)">
      <defs>
       <path id="DejaVuSans-54" d="M -19 4666 
L 3928 4666 
L 3928 4134 
L 2272 4134 
L 2272 0 
L 1638 0 
L 1638 4134 
L -19 4134 
L -19 4666 
z
" transform="scale(0.015625)"/>
      </defs>
      <use xlink:href="#DejaVuSans-54"/>
      <use xlink:href="#DejaVuSans-54" x="59.333984"/>
     </g>
    </g>
   </g>
  </g>
 </g>
 <defs>
  <clipPath id="p5df6739e3c">
   <rect x="108" y="69.12" width="669.6" height="443.52"/>
  </clipPath>
 </defs>
</svg>
