<?xml version="1.0" encoding="utf-8" standalone="no"?>
<!DOCTYPE svg PUBLIC "-//W3C//DTD SVG 1.1//EN"
  "http://www.w3.org/Graphics/SVG/1.1/DTD/svg11.dtd">
<svg xmlns:xlink="http://www.w3.org/1999/xlink" width="864pt" height="576pt" viewBox="0 0 864 576" xmlns="http://www.w3.org/2000/svg" version="1.1">
 <metadata>
  <rdf:RDF xmlns:dc="http://purl.org/dc/elements/1.1/" xmlns:cc="http://creativecommons.org/ns#" xmlns:rdf="http://www.w3.org/1999/02/22-rdf-syntax-ns#">
   <cc:Work>
    <dc:type rdf:resource="http://purl.org/dc/dcmitype/StillImage"/>
    <dc:date>2024-03-13T18:12:43.005457</dc:date>
    <dc:format>image/svg+xml</dc:format>
    <dc:creator>
     <cc:Agent>
      <dc:title>Matplotlib v3.7.2, https://matplotlib.org/</dc:title>
     </cc:Agent>
    </dc:creator>
   </cc:Work>
  </rdf:RDF>
 </metadata>
 <defs>
  <style type="text/css">*{stroke-linejoin: round; stroke-linecap: butt}</style>
 </defs>
 <g id="figure_1">
  <g id="patch_1">
   <path d="M 0 576 
L 864 576 
L 864 0 
L 0 0 
z
" style="fill: #ffffff"/>
  </g>
  <g id="axes_1">
   <g id="patch_2">
    <path d="M 108 512.64 
L 777.6 512.64 
L 777.6 69.12 
L 108 69.12 
z
" style="fill: #ffffff"/>
   </g>
   <g id="matplotlib.axis_1">
    <g id="xtick_1">
     <g id="line2d_1">
      <path d="M 108 512.64 
L 108 69.12 
" clip-path="url(#pc285530916)" style="fill: none; stroke: #b0b0b0; stroke-width: 0.5; stroke-linecap: square"/>
     </g>
     <g id="line2d_2">
      <defs>
       <path id="m05e5693c2c" d="M 0 0 
L 0 3.5 
" style="stroke: #000000; stroke-width: 0.8"/>
      </defs>
      <g>
       <use xlink:href="#m05e5693c2c" x="108" y="512.64" style="stroke: #000000; stroke-width: 0.8"/>
      </g>
     </g>
     <g id="text_1">
      <!-- $\mathdefault{10^{-2}}$ -->
      <g transform="translate(86.85 533.317188) scale(0.18 -0.18)">
       <defs>
        <path id="DejaVuSans-31" d="M 794 531 
L 1825 531 
L 1825 4091 
L 703 3866 
L 703 4441 
L 1819 4666 
L 2450 4666 
L 2450 531 
L 3481 531 
L 3481 0 
L 794 0 
L 794 531 
z
" transform="scale(0.015625)"/>
        <path id="DejaVuSans-30" d="M 2034 4250 
Q 1547 4250 1301 3770 
Q 1056 3291 1056 2328 
Q 1056 1369 1301 889 
Q 1547 409 2034 409 
Q 2525 409 2770 889 
Q 3016 1369 3016 2328 
Q 3016 3291 2770 3770 
Q 2525 4250 2034 4250 
z
M 2034 4750 
Q 2819 4750 3233 4129 
Q 3647 3509 3647 2328 
Q 3647 1150 3233 529 
Q 2819 -91 2034 -91 
Q 1250 -91 836 529 
Q 422 1150 422 2328 
Q 422 3509 836 4129 
Q 1250 4750 2034 4750 
z
" transform="scale(0.015625)"/>
        <path id="DejaVuSans-2212" d="M 678 2272 
L 4684 2272 
L 4684 1741 
L 678 1741 
L 678 2272 
z
" transform="scale(0.015625)"/>
        <path id="DejaVuSans-32" d="M 1228 531 
L 3431 531 
L 3431 0 
L 469 0 
L 469 531 
Q 828 903 1448 1529 
Q 2069 2156 2228 2338 
Q 2531 2678 2651 2914 
Q 2772 3150 2772 3378 
Q 2772 3750 2511 3984 
Q 2250 4219 1831 4219 
Q 1534 4219 1204 4116 
Q 875 4013 500 3803 
L 500 4441 
Q 881 4594 1212 4672 
Q 1544 4750 1819 4750 
Q 2544 4750 2975 4387 
Q 3406 4025 3406 3419 
Q 3406 3131 3298 2873 
Q 3191 2616 2906 2266 
Q 2828 2175 2409 1742 
Q 1991 1309 1228 531 
z
" transform="scale(0.015625)"/>
       </defs>
       <use xlink:href="#DejaVuSans-31" transform="translate(0 0.765625)"/>
       <use xlink:href="#DejaVuSans-30" transform="translate(63.623047 0.765625)"/>
       <use xlink:href="#DejaVuSans-2212" transform="translate(128.203125 39.046875) scale(0.7)"/>
       <use xlink:href="#DejaVuSans-32" transform="translate(186.855469 39.046875) scale(0.7)"/>
      </g>
     </g>
    </g>
    <g id="xtick_2">
     <g id="line2d_3">
      <path d="M 241.92 512.64 
L 241.92 69.12 
" clip-path="url(#pc285530916)" style="fill: none; stroke: #b0b0b0; stroke-width: 0.5; stroke-linecap: square"/>
     </g>
     <g id="line2d_4">
      <g>
       <use xlink:href="#m05e5693c2c" x="241.92" y="512.64" style="stroke: #000000; stroke-width: 0.8"/>
      </g>
     </g>
     <g id="text_2">
      <!-- $\mathdefault{10^{-1}}$ -->
      <g transform="translate(220.77 533.317188) scale(0.18 -0.18)">
       <use xlink:href="#DejaVuSans-31" transform="translate(0 0.684375)"/>
       <use xlink:href="#DejaVuSans-30" transform="translate(63.623047 0.684375)"/>
       <use xlink:href="#DejaVuSans-2212" transform="translate(128.203125 38.965625) scale(0.7)"/>
       <use xlink:href="#DejaVuSans-31" transform="translate(186.855469 38.965625) scale(0.7)"/>
      </g>
     </g>
    </g>
    <g id="xtick_3">
     <g id="line2d_5">
      <path d="M 375.84 512.64 
L 375.84 69.12 
" clip-path="url(#pc285530916)" style="fill: none; stroke: #b0b0b0; stroke-width: 0.5; stroke-linecap: square"/>
     </g>
     <g id="line2d_6">
      <g>
       <use xlink:href="#m05e5693c2c" x="375.84" y="512.64" style="stroke: #000000; stroke-width: 0.8"/>
      </g>
     </g>
     <g id="text_3">
      <!-- $\mathdefault{10^{0}}$ -->
      <g transform="translate(360 533.317188) scale(0.18 -0.18)">
       <use xlink:href="#DejaVuSans-31" transform="translate(0 0.765625)"/>
       <use xlink:href="#DejaVuSans-30" transform="translate(63.623047 0.765625)"/>
       <use xlink:href="#DejaVuSans-30" transform="translate(128.203125 39.046875) scale(0.7)"/>
      </g>
     </g>
    </g>
    <g id="xtick_4">
     <g id="line2d_7">
      <path d="M 509.76 512.64 
L 509.76 69.12 
" clip-path="url(#pc285530916)" style="fill: none; stroke: #b0b0b0; stroke-width: 0.5; stroke-linecap: square"/>
     </g>
     <g id="line2d_8">
      <g>
       <use xlink:href="#m05e5693c2c" x="509.76" y="512.64" style="stroke: #000000; stroke-width: 0.8"/>
      </g>
     </g>
     <g id="text_4">
      <!-- $\mathdefault{10^{1}}$ -->
      <g transform="translate(493.92 533.317188) scale(0.18 -0.18)">
       <use xlink:href="#DejaVuSans-31" transform="translate(0 0.684375)"/>
       <use xlink:href="#DejaVuSans-30" transform="translate(63.623047 0.684375)"/>
       <use xlink:href="#DejaVuSans-31" transform="translate(128.203125 38.965625) scale(0.7)"/>
      </g>
     </g>
    </g>
    <g id="xtick_5">
     <g id="line2d_9">
      <path d="M 643.68 512.64 
L 643.68 69.12 
" clip-path="url(#pc285530916)" style="fill: none; stroke: #b0b0b0; stroke-width: 0.5; stroke-linecap: square"/>
     </g>
     <g id="line2d_10">
      <g>
       <use xlink:href="#m05e5693c2c" x="643.68" y="512.64" style="stroke: #000000; stroke-width: 0.8"/>
      </g>
     </g>
     <g id="text_5">
      <!-- $\mathdefault{10^{2}}$ -->
      <g transform="translate(627.84 533.317188) scale(0.18 -0.18)">
       <use xlink:href="#DejaVuSans-31" transform="translate(0 0.765625)"/>
       <use xlink:href="#DejaVuSans-30" transform="translate(63.623047 0.765625)"/>
       <use xlink:href="#DejaVuSans-32" transform="translate(128.203125 39.046875) scale(0.7)"/>
      </g>
     </g>
    </g>
    <g id="xtick_6">
     <g id="line2d_11">
      <path d="M 777.6 512.64 
L 777.6 69.12 
" clip-path="url(#pc285530916)" style="fill: none; stroke: #b0b0b0; stroke-width: 0.5; stroke-linecap: square"/>
     </g>
     <g id="line2d_12">
      <g>
       <use xlink:href="#m05e5693c2c" x="777.6" y="512.64" style="stroke: #000000; stroke-width: 0.8"/>
      </g>
     </g>
     <g id="text_6">
      <!-- $\mathdefault{10^{3}}$ -->
      <g transform="translate(761.76 533.317188) scale(0.18 -0.18)">
       <defs>
        <path id="DejaVuSans-33" d="M 2597 2516 
Q 3050 2419 3304 2112 
Q 3559 1806 3559 1356 
Q 3559 666 3084 287 
Q 2609 -91 1734 -91 
Q 1441 -91 1130 -33 
Q 819 25 488 141 
L 488 750 
Q 750 597 1062 519 
Q 1375 441 1716 441 
Q 2309 441 2620 675 
Q 2931 909 2931 1356 
Q 2931 1769 2642 2001 
Q 2353 2234 1838 2234 
L 1294 2234 
L 1294 2753 
L 1863 2753 
Q 2328 2753 2575 2939 
Q 2822 3125 2822 3475 
Q 2822 3834 2567 4026 
Q 2313 4219 1838 4219 
Q 1578 4219 1281 4162 
Q 984 4106 628 3988 
L 628 4550 
Q 988 4650 1302 4700 
Q 1616 4750 1894 4750 
Q 2613 4750 3031 4423 
Q 3450 4097 3450 3541 
Q 3450 3153 3228 2886 
Q 3006 2619 2597 2516 
z
" transform="scale(0.015625)"/>
       </defs>
       <use xlink:href="#DejaVuSans-31" transform="translate(0 0.765625)"/>
       <use xlink:href="#DejaVuSans-30" transform="translate(63.623047 0.765625)"/>
       <use xlink:href="#DejaVuSans-33" transform="translate(128.203125 39.046875) scale(0.7)"/>
      </g>
     </g>
    </g>
    <g id="xtick_7">
     <g id="line2d_13">
      <defs>
       <path id="m5f14cf4ae1" d="M 0 0 
L 0 2 
" style="stroke: #000000; stroke-width: 0.6"/>
      </defs>
      <g>
       <use xlink:href="#m5f14cf4ae1" x="148.313937" y="512.64" style="stroke: #000000; stroke-width: 0.6"/>
      </g>
     </g>
    </g>
    <g id="xtick_8">
     <g id="line2d_14">
      <g>
       <use xlink:href="#m5f14cf4ae1" x="171.896078" y="512.64" style="stroke: #000000; stroke-width: 0.6"/>
      </g>
     </g>
    </g>
    <g id="xtick_9">
     <g id="line2d_15">
      <g>
       <use xlink:href="#m5f14cf4ae1" x="188.627874" y="512.64" style="stroke: #000000; stroke-width: 0.6"/>
      </g>
     </g>
    </g>
    <g id="xtick_10">
     <g id="line2d_16">
      <g>
       <use xlink:href="#m5f14cf4ae1" x="201.606063" y="512.64" style="stroke: #000000; stroke-width: 0.6"/>
      </g>
     </g>
    </g>
    <g id="xtick_11">
     <g id="line2d_17">
      <g>
       <use xlink:href="#m5f14cf4ae1" x="212.210015" y="512.64" style="stroke: #000000; stroke-width: 0.6"/>
      </g>
     </g>
    </g>
    <g id="xtick_12">
     <g id="line2d_18">
      <g>
       <use xlink:href="#m5f14cf4ae1" x="221.17553" y="512.64" style="stroke: #000000; stroke-width: 0.6"/>
      </g>
     </g>
    </g>
    <g id="xtick_13">
     <g id="line2d_19">
      <g>
       <use xlink:href="#m5f14cf4ae1" x="228.941811" y="512.64" style="stroke: #000000; stroke-width: 0.6"/>
      </g>
     </g>
    </g>
    <g id="xtick_14">
     <g id="line2d_20">
      <g>
       <use xlink:href="#m5f14cf4ae1" x="235.792157" y="512.64" style="stroke: #000000; stroke-width: 0.6"/>
      </g>
     </g>
    </g>
    <g id="xtick_15">
     <g id="line2d_21">
      <g>
       <use xlink:href="#m5f14cf4ae1" x="282.233937" y="512.64" style="stroke: #000000; stroke-width: 0.6"/>
      </g>
     </g>
    </g>
    <g id="xtick_16">
     <g id="line2d_22">
      <g>
       <use xlink:href="#m5f14cf4ae1" x="305.816078" y="512.64" style="stroke: #000000; stroke-width: 0.6"/>
      </g>
     </g>
    </g>
    <g id="xtick_17">
     <g id="line2d_23">
      <g>
       <use xlink:href="#m5f14cf4ae1" x="322.547874" y="512.64" style="stroke: #000000; stroke-width: 0.6"/>
      </g>
     </g>
    </g>
    <g id="xtick_18">
     <g id="line2d_24">
      <g>
       <use xlink:href="#m5f14cf4ae1" x="335.526063" y="512.64" style="stroke: #000000; stroke-width: 0.6"/>
      </g>
     </g>
    </g>
    <g id="xtick_19">
     <g id="line2d_25">
      <g>
       <use xlink:href="#m5f14cf4ae1" x="346.130015" y="512.64" style="stroke: #000000; stroke-width: 0.6"/>
      </g>
     </g>
    </g>
    <g id="xtick_20">
     <g id="line2d_26">
      <g>
       <use xlink:href="#m5f14cf4ae1" x="355.09553" y="512.64" style="stroke: #000000; stroke-width: 0.6"/>
      </g>
     </g>
    </g>
    <g id="xtick_21">
     <g id="line2d_27">
      <g>
       <use xlink:href="#m5f14cf4ae1" x="362.861811" y="512.64" style="stroke: #000000; stroke-width: 0.6"/>
      </g>
     </g>
    </g>
    <g id="xtick_22">
     <g id="line2d_28">
      <g>
       <use xlink:href="#m5f14cf4ae1" x="369.712157" y="512.64" style="stroke: #000000; stroke-width: 0.6"/>
      </g>
     </g>
    </g>
    <g id="xtick_23">
     <g id="line2d_29">
      <g>
       <use xlink:href="#m5f14cf4ae1" x="416.153937" y="512.64" style="stroke: #000000; stroke-width: 0.6"/>
      </g>
     </g>
    </g>
    <g id="xtick_24">
     <g id="line2d_30">
      <g>
       <use xlink:href="#m5f14cf4ae1" x="439.736078" y="512.64" style="stroke: #000000; stroke-width: 0.6"/>
      </g>
     </g>
    </g>
    <g id="xtick_25">
     <g id="line2d_31">
      <g>
       <use xlink:href="#m5f14cf4ae1" x="456.467874" y="512.64" style="stroke: #000000; stroke-width: 0.6"/>
      </g>
     </g>
    </g>
    <g id="xtick_26">
     <g id="line2d_32">
      <g>
       <use xlink:href="#m5f14cf4ae1" x="469.446063" y="512.64" style="stroke: #000000; stroke-width: 0.6"/>
      </g>
     </g>
    </g>
    <g id="xtick_27">
     <g id="line2d_33">
      <g>
       <use xlink:href="#m5f14cf4ae1" x="480.050015" y="512.64" style="stroke: #000000; stroke-width: 0.6"/>
      </g>
     </g>
    </g>
    <g id="xtick_28">
     <g id="line2d_34">
      <g>
       <use xlink:href="#m5f14cf4ae1" x="489.01553" y="512.64" style="stroke: #000000; stroke-width: 0.6"/>
      </g>
     </g>
    </g>
    <g id="xtick_29">
     <g id="line2d_35">
      <g>
       <use xlink:href="#m5f14cf4ae1" x="496.781811" y="512.64" style="stroke: #000000; stroke-width: 0.6"/>
      </g>
     </g>
    </g>
    <g id="xtick_30">
     <g id="line2d_36">
      <g>
       <use xlink:href="#m5f14cf4ae1" x="503.632157" y="512.64" style="stroke: #000000; stroke-width: 0.6"/>
      </g>
     </g>
    </g>
    <g id="xtick_31">
     <g id="line2d_37">
      <g>
       <use xlink:href="#m5f14cf4ae1" x="550.073937" y="512.64" style="stroke: #000000; stroke-width: 0.6"/>
      </g>
     </g>
    </g>
    <g id="xtick_32">
     <g id="line2d_38">
      <g>
       <use xlink:href="#m5f14cf4ae1" x="573.656078" y="512.64" style="stroke: #000000; stroke-width: 0.6"/>
      </g>
     </g>
    </g>
    <g id="xtick_33">
     <g id="line2d_39">
      <g>
       <use xlink:href="#m5f14cf4ae1" x="590.387874" y="512.64" style="stroke: #000000; stroke-width: 0.6"/>
      </g>
     </g>
    </g>
    <g id="xtick_34">
     <g id="line2d_40">
      <g>
       <use xlink:href="#m5f14cf4ae1" x="603.366063" y="512.64" style="stroke: #000000; stroke-width: 0.6"/>
      </g>
     </g>
    </g>
    <g id="xtick_35">
     <g id="line2d_41">
      <g>
       <use xlink:href="#m5f14cf4ae1" x="613.970015" y="512.64" style="stroke: #000000; stroke-width: 0.6"/>
      </g>
     </g>
    </g>
    <g id="xtick_36">
     <g id="line2d_42">
      <g>
       <use xlink:href="#m5f14cf4ae1" x="622.93553" y="512.64" style="stroke: #000000; stroke-width: 0.6"/>
      </g>
     </g>
    </g>
    <g id="xtick_37">
     <g id="line2d_43">
      <g>
       <use xlink:href="#m5f14cf4ae1" x="630.701811" y="512.64" style="stroke: #000000; stroke-width: 0.6"/>
      </g>
     </g>
    </g>
    <g id="xtick_38">
     <g id="line2d_44">
      <g>
       <use xlink:href="#m5f14cf4ae1" x="637.552157" y="512.64" style="stroke: #000000; stroke-width: 0.6"/>
      </g>
     </g>
    </g>
    <g id="xtick_39">
     <g id="line2d_45">
      <g>
       <use xlink:href="#m5f14cf4ae1" x="683.993937" y="512.64" style="stroke: #000000; stroke-width: 0.6"/>
      </g>
     </g>
    </g>
    <g id="xtick_40">
     <g id="line2d_46">
      <g>
       <use xlink:href="#m5f14cf4ae1" x="707.576078" y="512.64" style="stroke: #000000; stroke-width: 0.6"/>
      </g>
     </g>
    </g>
    <g id="xtick_41">
     <g id="line2d_47">
      <g>
       <use xlink:href="#m5f14cf4ae1" x="724.307874" y="512.64" style="stroke: #000000; stroke-width: 0.6"/>
      </g>
     </g>
    </g>
    <g id="xtick_42">
     <g id="line2d_48">
      <g>
       <use xlink:href="#m5f14cf4ae1" x="737.286063" y="512.64" style="stroke: #000000; stroke-width: 0.6"/>
      </g>
     </g>
    </g>
    <g id="xtick_43">
     <g id="line2d_49">
      <g>
       <use xlink:href="#m5f14cf4ae1" x="747.890015" y="512.64" style="stroke: #000000; stroke-width: 0.6"/>
      </g>
     </g>
    </g>
    <g id="xtick_44">
     <g id="line2d_50">
      <g>
       <use xlink:href="#m5f14cf4ae1" x="756.85553" y="512.64" style="stroke: #000000; stroke-width: 0.6"/>
      </g>
     </g>
    </g>
    <g id="xtick_45">
     <g id="line2d_51">
      <g>
       <use xlink:href="#m5f14cf4ae1" x="764.621811" y="512.64" style="stroke: #000000; stroke-width: 0.6"/>
      </g>
     </g>
    </g>
    <g id="xtick_46">
     <g id="line2d_52">
      <g>
       <use xlink:href="#m5f14cf4ae1" x="771.472157" y="512.64" style="stroke: #000000; stroke-width: 0.6"/>
      </g>
     </g>
    </g>
    <g id="text_7">
     <!-- Frequency [Hz] -->
     <g transform="translate(344.767812 560.816563) scale(0.26 -0.26)">
      <defs>
       <path id="DejaVuSans-46" d="M 628 4666 
L 3309 4666 
L 3309 4134 
L 1259 4134 
L 1259 2759 
L 3109 2759 
L 3109 2228 
L 1259 2228 
L 1259 0 
L 628 0 
L 628 4666 
z
" transform="scale(0.015625)"/>
       <path id="DejaVuSans-72" d="M 2631 2963 
Q 2534 3019 2420 3045 
Q 2306 3072 2169 3072 
Q 1681 3072 1420 2755 
Q 1159 2438 1159 1844 
L 1159 0 
L 581 0 
L 581 3500 
L 1159 3500 
L 1159 2956 
Q 1341 3275 1631 3429 
Q 1922 3584 2338 3584 
Q 2397 3584 2469 3576 
Q 2541 3569 2628 3553 
L 2631 2963 
z
" transform="scale(0.015625)"/>
       <path id="DejaVuSans-65" d="M 3597 1894 
L 3597 1613 
L 953 1613 
Q 991 1019 1311 708 
Q 1631 397 2203 397 
Q 2534 397 2845 478 
Q 3156 559 3463 722 
L 3463 178 
Q 3153 47 2828 -22 
Q 2503 -91 2169 -91 
Q 1331 -91 842 396 
Q 353 884 353 1716 
Q 353 2575 817 3079 
Q 1281 3584 2069 3584 
Q 2775 3584 3186 3129 
Q 3597 2675 3597 1894 
z
M 3022 2063 
Q 3016 2534 2758 2815 
Q 2500 3097 2075 3097 
Q 1594 3097 1305 2825 
Q 1016 2553 972 2059 
L 3022 2063 
z
" transform="scale(0.015625)"/>
       <path id="DejaVuSans-71" d="M 947 1747 
Q 947 1113 1208 752 
Q 1469 391 1925 391 
Q 2381 391 2643 752 
Q 2906 1113 2906 1747 
Q 2906 2381 2643 2742 
Q 2381 3103 1925 3103 
Q 1469 3103 1208 2742 
Q 947 2381 947 1747 
z
M 2906 525 
Q 2725 213 2448 61 
Q 2172 -91 1784 -91 
Q 1150 -91 751 415 
Q 353 922 353 1747 
Q 353 2572 751 3078 
Q 1150 3584 1784 3584 
Q 2172 3584 2448 3432 
Q 2725 3281 2906 2969 
L 2906 3500 
L 3481 3500 
L 3481 -1331 
L 2906 -1331 
L 2906 525 
z
" transform="scale(0.015625)"/>
       <path id="DejaVuSans-75" d="M 544 1381 
L 544 3500 
L 1119 3500 
L 1119 1403 
Q 1119 906 1312 657 
Q 1506 409 1894 409 
Q 2359 409 2629 706 
Q 2900 1003 2900 1516 
L 2900 3500 
L 3475 3500 
L 3475 0 
L 2900 0 
L 2900 538 
Q 2691 219 2414 64 
Q 2138 -91 1772 -91 
Q 1169 -91 856 284 
Q 544 659 544 1381 
z
M 1991 3584 
L 1991 3584 
z
" transform="scale(0.015625)"/>
       <path id="DejaVuSans-6e" d="M 3513 2113 
L 3513 0 
L 2938 0 
L 2938 2094 
Q 2938 2591 2744 2837 
Q 2550 3084 2163 3084 
Q 1697 3084 1428 2787 
Q 1159 2491 1159 1978 
L 1159 0 
L 581 0 
L 581 3500 
L 1159 3500 
L 1159 2956 
Q 1366 3272 1645 3428 
Q 1925 3584 2291 3584 
Q 2894 3584 3203 3211 
Q 3513 2838 3513 2113 
z
" transform="scale(0.015625)"/>
       <path id="DejaVuSans-63" d="M 3122 3366 
L 3122 2828 
Q 2878 2963 2633 3030 
Q 2388 3097 2138 3097 
Q 1578 3097 1268 2742 
Q 959 2388 959 1747 
Q 959 1106 1268 751 
Q 1578 397 2138 397 
Q 2388 397 2633 464 
Q 2878 531 3122 666 
L 3122 134 
Q 2881 22 2623 -34 
Q 2366 -91 2075 -91 
Q 1284 -91 818 406 
Q 353 903 353 1747 
Q 353 2603 823 3093 
Q 1294 3584 2113 3584 
Q 2378 3584 2631 3529 
Q 2884 3475 3122 3366 
z
" transform="scale(0.015625)"/>
       <path id="DejaVuSans-79" d="M 2059 -325 
Q 1816 -950 1584 -1140 
Q 1353 -1331 966 -1331 
L 506 -1331 
L 506 -850 
L 844 -850 
Q 1081 -850 1212 -737 
Q 1344 -625 1503 -206 
L 1606 56 
L 191 3500 
L 800 3500 
L 1894 763 
L 2988 3500 
L 3597 3500 
L 2059 -325 
z
" transform="scale(0.015625)"/>
       <path id="DejaVuSans-20" transform="scale(0.015625)"/>
       <path id="DejaVuSans-5b" d="M 550 4863 
L 1875 4863 
L 1875 4416 
L 1125 4416 
L 1125 -397 
L 1875 -397 
L 1875 -844 
L 550 -844 
L 550 4863 
z
" transform="scale(0.015625)"/>
       <path id="DejaVuSans-48" d="M 628 4666 
L 1259 4666 
L 1259 2753 
L 3553 2753 
L 3553 4666 
L 4184 4666 
L 4184 0 
L 3553 0 
L 3553 2222 
L 1259 2222 
L 1259 0 
L 628 0 
L 628 4666 
z
" transform="scale(0.015625)"/>
       <path id="DejaVuSans-7a" d="M 353 3500 
L 3084 3500 
L 3084 2975 
L 922 459 
L 3084 459 
L 3084 0 
L 275 0 
L 275 525 
L 2438 3041 
L 353 3041 
L 353 3500 
z
" transform="scale(0.015625)"/>
       <path id="DejaVuSans-5d" d="M 1947 4863 
L 1947 -844 
L 622 -844 
L 622 -397 
L 1369 -397 
L 1369 4416 
L 622 4416 
L 622 4863 
L 1947 4863 
z
" transform="scale(0.015625)"/>
      </defs>
      <use xlink:href="#DejaVuSans-46"/>
      <use xlink:href="#DejaVuSans-72" x="50.269531"/>
      <use xlink:href="#DejaVuSans-65" x="89.132812"/>
      <use xlink:href="#DejaVuSans-71" x="150.65625"/>
      <use xlink:href="#DejaVuSans-75" x="214.132812"/>
      <use xlink:href="#DejaVuSans-65" x="277.511719"/>
      <use xlink:href="#DejaVuSans-6e" x="339.035156"/>
      <use xlink:href="#DejaVuSans-63" x="402.414062"/>
      <use xlink:href="#DejaVuSans-79" x="457.394531"/>
      <use xlink:href="#DejaVuSans-20" x="516.574219"/>
      <use xlink:href="#DejaVuSans-5b" x="548.361328"/>
      <use xlink:href="#DejaVuSans-48" x="587.375"/>
      <use xlink:href="#DejaVuSans-7a" x="662.570312"/>
      <use xlink:href="#DejaVuSans-5d" x="715.060547"/>
     </g>
    </g>
   </g>
   <g id="matplotlib.axis_2">
    <g id="ytick_1">
     <g id="line2d_53">
      <path d="M 108 472.32 
L 777.6 472.32 
" clip-path="url(#pc285530916)" style="fill: none; stroke: #b0b0b0; stroke-width: 0.5; stroke-linecap: square"/>
     </g>
     <g id="line2d_54">
      <defs>
       <path id="m0125ad38a0" d="M 0 0 
L -3.5 0 
" style="stroke: #000000; stroke-width: 0.8"/>
      </defs>
      <g>
       <use xlink:href="#m0125ad38a0" x="108" y="472.32" style="stroke: #000000; stroke-width: 0.8"/>
      </g>
     </g>
     <g id="text_8">
      <!-- 0 -->
      <g transform="translate(89.5475 479.158594) scale(0.18 -0.18)">
       <use xlink:href="#DejaVuSans-30"/>
      </g>
     </g>
    </g>
    <g id="ytick_2">
     <g id="line2d_55">
      <path d="M 108 391.68 
L 777.6 391.68 
" clip-path="url(#pc285530916)" style="fill: none; stroke: #b0b0b0; stroke-width: 0.5; stroke-linecap: square"/>
     </g>
     <g id="line2d_56">
      <g>
       <use xlink:href="#m0125ad38a0" x="108" y="391.68" style="stroke: #000000; stroke-width: 0.8"/>
      </g>
     </g>
     <g id="text_9">
      <!-- 200 -->
      <g transform="translate(66.6425 398.518594) scale(0.18 -0.18)">
       <use xlink:href="#DejaVuSans-32"/>
       <use xlink:href="#DejaVuSans-30" x="63.623047"/>
       <use xlink:href="#DejaVuSans-30" x="127.246094"/>
      </g>
     </g>
    </g>
    <g id="ytick_3">
     <g id="line2d_57">
      <path d="M 108 311.04 
L 777.6 311.04 
" clip-path="url(#pc285530916)" style="fill: none; stroke: #b0b0b0; stroke-width: 0.5; stroke-linecap: square"/>
     </g>
     <g id="line2d_58">
      <g>
       <use xlink:href="#m0125ad38a0" x="108" y="311.04" style="stroke: #000000; stroke-width: 0.8"/>
      </g>
     </g>
     <g id="text_10">
      <!-- 400 -->
      <g transform="translate(66.6425 317.878594) scale(0.18 -0.18)">
       <defs>
        <path id="DejaVuSans-34" d="M 2419 4116 
L 825 1625 
L 2419 1625 
L 2419 4116 
z
M 2253 4666 
L 3047 4666 
L 3047 1625 
L 3713 1625 
L 3713 1100 
L 3047 1100 
L 3047 0 
L 2419 0 
L 2419 1100 
L 313 1100 
L 313 1709 
L 2253 4666 
z
" transform="scale(0.015625)"/>
       </defs>
       <use xlink:href="#DejaVuSans-34"/>
       <use xlink:href="#DejaVuSans-30" x="63.623047"/>
       <use xlink:href="#DejaVuSans-30" x="127.246094"/>
      </g>
     </g>
    </g>
    <g id="ytick_4">
     <g id="line2d_59">
      <path d="M 108 230.4 
L 777.6 230.4 
" clip-path="url(#pc285530916)" style="fill: none; stroke: #b0b0b0; stroke-width: 0.5; stroke-linecap: square"/>
     </g>
     <g id="line2d_60">
      <g>
       <use xlink:href="#m0125ad38a0" x="108" y="230.4" style="stroke: #000000; stroke-width: 0.8"/>
      </g>
     </g>
     <g id="text_11">
      <!-- 600 -->
      <g transform="translate(66.6425 237.238594) scale(0.18 -0.18)">
       <defs>
        <path id="DejaVuSans-36" d="M 2113 2584 
Q 1688 2584 1439 2293 
Q 1191 2003 1191 1497 
Q 1191 994 1439 701 
Q 1688 409 2113 409 
Q 2538 409 2786 701 
Q 3034 994 3034 1497 
Q 3034 2003 2786 2293 
Q 2538 2584 2113 2584 
z
M 3366 4563 
L 3366 3988 
Q 3128 4100 2886 4159 
Q 2644 4219 2406 4219 
Q 1781 4219 1451 3797 
Q 1122 3375 1075 2522 
Q 1259 2794 1537 2939 
Q 1816 3084 2150 3084 
Q 2853 3084 3261 2657 
Q 3669 2231 3669 1497 
Q 3669 778 3244 343 
Q 2819 -91 2113 -91 
Q 1303 -91 875 529 
Q 447 1150 447 2328 
Q 447 3434 972 4092 
Q 1497 4750 2381 4750 
Q 2619 4750 2861 4703 
Q 3103 4656 3366 4563 
z
" transform="scale(0.015625)"/>
       </defs>
       <use xlink:href="#DejaVuSans-36"/>
       <use xlink:href="#DejaVuSans-30" x="63.623047"/>
       <use xlink:href="#DejaVuSans-30" x="127.246094"/>
      </g>
     </g>
    </g>
    <g id="ytick_5">
     <g id="line2d_61">
      <path d="M 108 149.76 
L 777.6 149.76 
" clip-path="url(#pc285530916)" style="fill: none; stroke: #b0b0b0; stroke-width: 0.5; stroke-linecap: square"/>
     </g>
     <g id="line2d_62">
      <g>
       <use xlink:href="#m0125ad38a0" x="108" y="149.76" style="stroke: #000000; stroke-width: 0.8"/>
      </g>
     </g>
     <g id="text_12">
      <!-- 800 -->
      <g transform="translate(66.6425 156.598594) scale(0.18 -0.18)">
       <defs>
        <path id="DejaVuSans-38" d="M 2034 2216 
Q 1584 2216 1326 1975 
Q 1069 1734 1069 1313 
Q 1069 891 1326 650 
Q 1584 409 2034 409 
Q 2484 409 2743 651 
Q 3003 894 3003 1313 
Q 3003 1734 2745 1975 
Q 2488 2216 2034 2216 
z
M 1403 2484 
Q 997 2584 770 2862 
Q 544 3141 544 3541 
Q 544 4100 942 4425 
Q 1341 4750 2034 4750 
Q 2731 4750 3128 4425 
Q 3525 4100 3525 3541 
Q 3525 3141 3298 2862 
Q 3072 2584 2669 2484 
Q 3125 2378 3379 2068 
Q 3634 1759 3634 1313 
Q 3634 634 3220 271 
Q 2806 -91 2034 -91 
Q 1263 -91 848 271 
Q 434 634 434 1313 
Q 434 1759 690 2068 
Q 947 2378 1403 2484 
z
M 1172 3481 
Q 1172 3119 1398 2916 
Q 1625 2713 2034 2713 
Q 2441 2713 2670 2916 
Q 2900 3119 2900 3481 
Q 2900 3844 2670 4047 
Q 2441 4250 2034 4250 
Q 1625 4250 1398 4047 
Q 1172 3844 1172 3481 
z
" transform="scale(0.015625)"/>
       </defs>
       <use xlink:href="#DejaVuSans-38"/>
       <use xlink:href="#DejaVuSans-30" x="63.623047"/>
       <use xlink:href="#DejaVuSans-30" x="127.246094"/>
      </g>
     </g>
    </g>
    <g id="ytick_6">
     <g id="line2d_63">
      <path d="M 108 69.12 
L 777.6 69.12 
" clip-path="url(#pc285530916)" style="fill: none; stroke: #b0b0b0; stroke-width: 0.5; stroke-linecap: square"/>
     </g>
     <g id="line2d_64">
      <g>
       <use xlink:href="#m0125ad38a0" x="108" y="69.12" style="stroke: #000000; stroke-width: 0.8"/>
      </g>
     </g>
     <g id="text_13">
      <!-- 1000 -->
      <g transform="translate(55.19 75.958594) scale(0.18 -0.18)">
       <use xlink:href="#DejaVuSans-31"/>
       <use xlink:href="#DejaVuSans-30" x="63.623047"/>
       <use xlink:href="#DejaVuSans-30" x="127.246094"/>
       <use xlink:href="#DejaVuSans-30" x="190.869141"/>
      </g>
     </g>
    </g>
    <g id="text_14">
     <!-- $R$ [GΩ] -->
     <g transform="translate(45.782813 334.3) rotate(-90) scale(0.26 -0.26)">
      <defs>
       <path id="DejaVuSans-Oblique-52" d="M 1613 4147 
L 1294 2491 
L 2106 2491 
Q 2584 2491 2879 2755 
Q 3175 3019 3175 3444 
Q 3175 3784 2976 3965 
Q 2778 4147 2406 4147 
L 1613 4147 
z
M 2772 2241 
Q 2972 2194 3105 2009 
Q 3238 1825 3413 1275 
L 3809 0 
L 3144 0 
L 2778 1197 
Q 2638 1659 2453 1815 
Q 2269 1972 1888 1972 
L 1191 1972 
L 806 0 
L 172 0 
L 1081 4666 
L 2503 4666 
Q 3150 4666 3495 4373 
Q 3841 4081 3841 3531 
Q 3841 3044 3547 2687 
Q 3253 2331 2772 2241 
z
" transform="scale(0.015625)"/>
       <path id="DejaVuSans-47" d="M 3809 666 
L 3809 1919 
L 2778 1919 
L 2778 2438 
L 4434 2438 
L 4434 434 
Q 4069 175 3628 42 
Q 3188 -91 2688 -91 
Q 1594 -91 976 548 
Q 359 1188 359 2328 
Q 359 3472 976 4111 
Q 1594 4750 2688 4750 
Q 3144 4750 3555 4637 
Q 3966 4525 4313 4306 
L 4313 3634 
Q 3963 3931 3569 4081 
Q 3175 4231 2741 4231 
Q 1884 4231 1454 3753 
Q 1025 3275 1025 2328 
Q 1025 1384 1454 906 
Q 1884 428 2741 428 
Q 3075 428 3337 486 
Q 3600 544 3809 666 
z
" transform="scale(0.015625)"/>
       <path id="DejaVuSans-3a9" d="M 4647 556 
L 4647 0 
L 2772 0 
L 2772 556 
Q 3325 859 3634 1378 
Q 3944 1897 3944 2528 
Q 3944 3278 3531 3731 
Q 3119 4184 2444 4184 
Q 1769 4184 1355 3729 
Q 941 3275 941 2528 
Q 941 1897 1250 1378 
Q 1563 859 2119 556 
L 2119 0 
L 244 0 
L 244 556 
L 1241 556 
Q 747 991 519 1456 
Q 294 1922 294 2497 
Q 294 3491 894 4106 
Q 1491 4722 2444 4722 
Q 3391 4722 3994 4106 
Q 4594 3494 4594 2528 
Q 4594 1922 4372 1459 
Q 4150 997 3647 556 
L 4647 556 
z
" transform="scale(0.015625)"/>
      </defs>
      <use xlink:href="#DejaVuSans-Oblique-52" transform="translate(0 0.015625)"/>
      <use xlink:href="#DejaVuSans-20" transform="translate(69.482422 0.015625)"/>
      <use xlink:href="#DejaVuSans-5b" transform="translate(101.269531 0.015625)"/>
      <use xlink:href="#DejaVuSans-47" transform="translate(140.283203 0.015625)"/>
      <use xlink:href="#DejaVuSans-3a9" transform="translate(217.773438 0.015625)"/>
      <use xlink:href="#DejaVuSans-5d" transform="translate(294.189453 0.015625)"/>
     </g>
    </g>
   </g>
   <g id="line2d_65">
    <path d="M 108 142.405422 
L 121.392 142.405585 
L 134.784 142.405843 
L 148.176 142.406252 
L 161.568 142.4069 
L 174.96 142.407927 
L 188.352 142.409555 
L 201.744 142.412135 
L 215.136 142.416224 
L 228.528 142.422705 
L 241.92 142.432975 
L 255.312 142.449251 
L 268.704 142.475042 
L 282.096 142.51591 
L 295.488 142.580657 
L 308.88 142.802751 
L 322.272 142.96497 
L 335.664 143.340689 
L 349.056 143.864665 
L 362.448 144.622018 
L 375.84 145.861884 
L 389.232 147.783698 
L 402.624 150.688322 
L 416.016 155.447121 
L 429.408 162.40884 
L 442.8 172.595652 
L 456.192 187.233772 
L 469.584 207.06179 
L 482.976 231.940803 
L 496.368 260.689942 
L 509.76 290.819149 
L 523.152 319.31185 
L 536.544 343.879218 
L 549.936 363.543272 
L 563.328 378.56495 
L 576.72 389.918322 
L 590.112 398.745296 
L 603.504 406.007212 
L 616.896 412.35405 
L 630.288 418.071625 
L 643.68 423.220726 
L 657.072 427.775054 
L 670.464 431.748185 
L 683.856 435.206573 
L 697.248 438.233771 
L 710.64 440.914929 
L 724.032 443.218762 
L 737.424 444.907319 
L 750.816 446.019368 
L 764.208 447.156774 
L 777.6 448.701465 
L 790.992 450.69743 
L 804.384 453.055527 
L 817.776 455.60098 
L 831.168 458.110769 
L 844.56 460.380444 
L 857.952 462.290886 
L 865 463.099315 
" clip-path="url(#pc285530916)" style="fill: none; stroke-dasharray: 3.5,5.775; stroke-dashoffset: 0; stroke: #0000ff; stroke-width: 3.5"/>
   </g>
   <g id="line2d_66">
    <path d="M 108 132.273231 
L 121.392 132.273408 
L 134.784 132.27369 
L 148.176 132.274137 
L 161.568 132.274844 
L 174.96 132.275965 
L 188.352 132.277742 
L 201.744 132.280558 
L 215.136 132.285021 
L 228.528 132.292094 
L 241.92 132.303304 
L 255.312 132.321069 
L 268.704 132.349219 
L 282.096 132.520999 
L 295.488 132.591585 
L 308.88 132.703389 
L 322.272 132.880414 
L 335.664 133.160548 
L 349.056 133.729318 
L 362.448 134.677689 
L 375.84 136.022621 
L 389.232 138.10643 
L 402.624 141.372888 
L 416.016 146.397924 
L 429.408 154.01524 
L 442.8 165.056376 
L 456.192 180.85371 
L 469.584 201.854269 
L 482.976 228.077045 
L 496.368 258.019089 
L 509.76 288.986079 
L 523.152 317.908712 
L 536.544 342.566268 
L 549.936 362.144654 
L 563.328 377.055772 
L 576.72 388.347392 
L 590.112 397.187129 
L 603.504 404.530518 
L 616.896 410.982796 
L 630.288 416.803719 
L 643.68 422.02731 
L 657.072 426.645081 
L 670.464 430.667727 
L 683.856 434.164068 
L 697.248 437.23817 
L 710.64 439.957162 
L 724.032 442.259267 
L 737.424 443.893244 
L 750.816 445.01396 
L 764.208 446.257722 
L 777.6 447.944228 
L 790.992 450.093094 
L 804.384 452.596978 
L 817.776 455.264615 
L 831.168 457.861273 
L 844.56 460.183369 
L 857.952 462.122497 
L 865 462.940535 
" clip-path="url(#pc285530916)" style="fill: none; stroke: #87ceeb; stroke-width: 3.5; stroke-linecap: square"/>
   </g>
   <g id="line2d_67">
    <path d="M 108 129.318544 
L 121.392 129.318727 
L 134.784 129.319018 
L 148.176 129.319478 
L 161.568 129.320208 
L 174.96 129.321365 
L 188.352 129.323199 
L 201.744 129.326105 
L 215.136 129.330712 
L 228.528 129.338012 
L 241.92 129.34958 
L 255.312 129.367914 
L 268.704 129.396965 
L 282.096 129.442998 
L 295.488 129.515926 
L 308.88 129.631436 
L 322.272 129.943297 
L 335.664 130.232374 
L 349.056 130.817424 
L 362.448 131.665213 
L 375.84 133.050459 
L 389.232 135.31979 
L 402.624 138.558722 
L 416.016 143.842586 
L 429.408 151.556216 
L 442.8 163.082442 
L 456.192 179.154174 
L 469.584 200.594776 
L 482.976 227.325428 
L 496.368 257.687896 
L 509.76 288.9175 
L 523.152 317.972907 
L 536.544 342.664198 
L 549.936 362.220652 
L 563.328 377.095394 
L 576.72 388.387281 
L 590.112 397.255741 
L 603.504 404.652954 
L 616.896 411.174583 
L 630.288 417.06221 
L 643.68 422.347779 
L 657.072 427.00911 
L 670.464 431.071458 
L 683.856 434.609725 
L 697.248 437.715373 
L 710.64 440.460925 
L 724.032 442.742069 
L 737.424 444.295091 
L 750.816 445.36786 
L 764.208 446.613268 
L 777.6 448.309836 
L 790.992 450.458126 
L 804.384 452.944122 
L 817.776 455.574385 
L 831.168 458.117728 
L 844.56 460.38031 
L 857.952 462.26359 
L 865 463.058775 
" clip-path="url(#pc285530916)" style="fill: none; stroke: #90ee90; stroke-width: 3.5; stroke-linecap: square"/>
   </g>
   <g id="line2d_68">
    <defs>
     <path id="me251699de2" d="M 0 -3 
L -0.673542 -0.927051 
L -2.85317 -0.927051 
L -1.089814 0.354102 
L -1.763356 2.427051 
L -0 1.145898 
L 1.763356 2.427051 
L 1.089814 0.354102 
L 2.85317 -0.927051 
L 0.673542 -0.927051 
z
" style="stroke: #008000; stroke-linejoin: bevel"/>
    </defs>
    <g clip-path="url(#pc285530916)">
     <use xlink:href="#me251699de2" x="108" y="117.106854" style="fill: #008000; stroke: #008000; stroke-linejoin: bevel"/>
     <use xlink:href="#me251699de2" x="121.392" y="117.107056" style="fill: #008000; stroke: #008000; stroke-linejoin: bevel"/>
     <use xlink:href="#me251699de2" x="134.784" y="117.107377" style="fill: #008000; stroke: #008000; stroke-linejoin: bevel"/>
     <use xlink:href="#me251699de2" x="148.176" y="117.107885" style="fill: #008000; stroke: #008000; stroke-linejoin: bevel"/>
     <use xlink:href="#me251699de2" x="161.568" y="117.108691" style="fill: #008000; stroke: #008000; stroke-linejoin: bevel"/>
     <use xlink:href="#me251699de2" x="174.96" y="117.109967" style="fill: #008000; stroke: #008000; stroke-linejoin: bevel"/>
     <use xlink:href="#me251699de2" x="188.352" y="117.11199" style="fill: #008000; stroke: #008000; stroke-linejoin: bevel"/>
     <use xlink:href="#me251699de2" x="201.744" y="117.115196" style="fill: #008000; stroke: #008000; stroke-linejoin: bevel"/>
     <use xlink:href="#me251699de2" x="215.136" y="117.120277" style="fill: #008000; stroke: #008000; stroke-linejoin: bevel"/>
     <use xlink:href="#me251699de2" x="228.528" y="117.12833" style="fill: #008000; stroke: #008000; stroke-linejoin: bevel"/>
     <use xlink:href="#me251699de2" x="241.92" y="117.141093" style="fill: #008000; stroke: #008000; stroke-linejoin: bevel"/>
     <use xlink:href="#me251699de2" x="255.312" y="117.161317" style="fill: #008000; stroke: #008000; stroke-linejoin: bevel"/>
     <use xlink:href="#me251699de2" x="268.704" y="117.193366" style="fill: #008000; stroke: #008000; stroke-linejoin: bevel"/>
     <use xlink:href="#me251699de2" x="282.096" y="117.244146" style="fill: #008000; stroke: #008000; stroke-linejoin: bevel"/>
     <use xlink:href="#me251699de2" x="295.488" y="117.324594" style="fill: #008000; stroke: #008000; stroke-linejoin: bevel"/>
     <use xlink:href="#me251699de2" x="308.88" y="117.452009" style="fill: #008000; stroke: #008000; stroke-linejoin: bevel"/>
     <use xlink:href="#me251699de2" x="322.272" y="117.792011" style="fill: #008000; stroke: #008000; stroke-linejoin: bevel"/>
     <use xlink:href="#me251699de2" x="335.664" y="118.248611" style="fill: #008000; stroke: #008000; stroke-linejoin: bevel"/>
     <use xlink:href="#me251699de2" x="349.056" y="118.889054" style="fill: #008000; stroke: #008000; stroke-linejoin: bevel"/>
     <use xlink:href="#me251699de2" x="362.448" y="119.818602" style="fill: #008000; stroke: #008000; stroke-linejoin: bevel"/>
     <use xlink:href="#me251699de2" x="375.84" y="121.335361" style="fill: #008000; stroke: #008000; stroke-linejoin: bevel"/>
     <use xlink:href="#me251699de2" x="389.232" y="123.683865" style="fill: #008000; stroke: #008000; stroke-linejoin: bevel"/>
     <use xlink:href="#me251699de2" x="402.624" y="127.485982" style="fill: #008000; stroke: #008000; stroke-linejoin: bevel"/>
     <use xlink:href="#me251699de2" x="416.016" y="133.118811" style="fill: #008000; stroke: #008000; stroke-linejoin: bevel"/>
     <use xlink:href="#me251699de2" x="429.408" y="141.62517" style="fill: #008000; stroke: #008000; stroke-linejoin: bevel"/>
     <use xlink:href="#me251699de2" x="442.8" y="153.997019" style="fill: #008000; stroke: #008000; stroke-linejoin: bevel"/>
     <use xlink:href="#me251699de2" x="456.192" y="171.3961" style="fill: #008000; stroke: #008000; stroke-linejoin: bevel"/>
     <use xlink:href="#me251699de2" x="469.584" y="194.428635" style="fill: #008000; stroke: #008000; stroke-linejoin: bevel"/>
     <use xlink:href="#me251699de2" x="482.976" y="222.745864" style="fill: #008000; stroke: #008000; stroke-linejoin: bevel"/>
     <use xlink:href="#me251699de2" x="496.368" y="254.516302" style="fill: #008000; stroke: #008000; stroke-linejoin: bevel"/>
     <use xlink:href="#me251699de2" x="509.76" y="286.700439" style="fill: #008000; stroke: #008000; stroke-linejoin: bevel"/>
     <use xlink:href="#me251699de2" x="523.152" y="316.220247" style="fill: #008000; stroke: #008000; stroke-linejoin: bevel"/>
     <use xlink:href="#me251699de2" x="536.544" y="341.021346" style="fill: #008000; stroke: #008000; stroke-linejoin: bevel"/>
     <use xlink:href="#me251699de2" x="549.936" y="360.524566" style="fill: #008000; stroke: #008000; stroke-linejoin: bevel"/>
     <use xlink:href="#me251699de2" x="563.328" y="375.327012" style="fill: #008000; stroke: #008000; stroke-linejoin: bevel"/>
     <use xlink:href="#me251699de2" x="576.72" y="386.585977" style="fill: #008000; stroke: #008000; stroke-linejoin: bevel"/>
     <use xlink:href="#me251699de2" x="590.112" y="395.496829" style="fill: #008000; stroke: #008000; stroke-linejoin: bevel"/>
     <use xlink:href="#me251699de2" x="603.504" y="402.999581" style="fill: #008000; stroke: #008000; stroke-linejoin: bevel"/>
     <use xlink:href="#me251699de2" x="616.896" y="409.645002" style="fill: #008000; stroke: #008000; stroke-linejoin: bevel"/>
     <use xlink:href="#me251699de2" x="630.288" y="415.645517" style="fill: #008000; stroke: #008000; stroke-linejoin: bevel"/>
     <use xlink:href="#me251699de2" x="643.68" y="421.01587" style="fill: #008000; stroke: #008000; stroke-linejoin: bevel"/>
     <use xlink:href="#me251699de2" x="657.072" y="425.746428" style="fill: #008000; stroke: #008000; stroke-linejoin: bevel"/>
     <use xlink:href="#me251699de2" x="670.464" y="429.867932" style="fill: #008000; stroke: #008000; stroke-linejoin: bevel"/>
     <use xlink:href="#me251699de2" x="683.856" y="433.468732" style="fill: #008000; stroke: #008000; stroke-linejoin: bevel"/>
     <use xlink:href="#me251699de2" x="697.248" y="436.643738" style="fill: #008000; stroke: #008000; stroke-linejoin: bevel"/>
     <use xlink:href="#me251699de2" x="710.64" y="439.43686" style="fill: #008000; stroke: #008000; stroke-linejoin: bevel"/>
     <use xlink:href="#me251699de2" x="724.032" y="441.68653" style="fill: #008000; stroke: #008000; stroke-linejoin: bevel"/>
     <use xlink:href="#me251699de2" x="737.424" y="443.168194" style="fill: #008000; stroke: #008000; stroke-linejoin: bevel"/>
     <use xlink:href="#me251699de2" x="750.816" y="444.307858" style="fill: #008000; stroke: #008000; stroke-linejoin: bevel"/>
     <use xlink:href="#me251699de2" x="764.208" y="445.727703" style="fill: #008000; stroke: #008000; stroke-linejoin: bevel"/>
     <use xlink:href="#me251699de2" x="777.6" y="447.627935" style="fill: #008000; stroke: #008000; stroke-linejoin: bevel"/>
     <use xlink:href="#me251699de2" x="790.992" y="449.979058" style="fill: #008000; stroke: #008000; stroke-linejoin: bevel"/>
     <use xlink:href="#me251699de2" x="804.384" y="452.645941" style="fill: #008000; stroke: #008000; stroke-linejoin: bevel"/>
     <use xlink:href="#me251699de2" x="817.776" y="455.412493" style="fill: #008000; stroke: #008000; stroke-linejoin: bevel"/>
     <use xlink:href="#me251699de2" x="831.168" y="458.036703" style="fill: #008000; stroke: #008000; stroke-linejoin: bevel"/>
     <use xlink:href="#me251699de2" x="844.56" y="460.331614" style="fill: #008000; stroke: #008000; stroke-linejoin: bevel"/>
     <use xlink:href="#me251699de2" x="857.952" y="462.217497" style="fill: #008000; stroke: #008000; stroke-linejoin: bevel"/>
     <use xlink:href="#me251699de2" x="871.344" y="463.719708" style="fill: #008000; stroke: #008000; stroke-linejoin: bevel"/>
     <use xlink:href="#me251699de2" x="884.736" y="464.926175" style="fill: #008000; stroke: #008000; stroke-linejoin: bevel"/>
     <use xlink:href="#me251699de2" x="898.128" y="465.939117" style="fill: #008000; stroke: #008000; stroke-linejoin: bevel"/>
     <use xlink:href="#me251699de2" x="911.52" y="466.839909" style="fill: #008000; stroke: #008000; stroke-linejoin: bevel"/>
     <use xlink:href="#me251699de2" x="924.912" y="467.674194" style="fill: #008000; stroke: #008000; stroke-linejoin: bevel"/>
     <use xlink:href="#me251699de2" x="938.304" y="468.455797" style="fill: #008000; stroke: #008000; stroke-linejoin: bevel"/>
     <use xlink:href="#me251699de2" x="951.696" y="469.180848" style="fill: #008000; stroke: #008000; stroke-linejoin: bevel"/>
     <use xlink:href="#me251699de2" x="965.088" y="469.839733" style="fill: #008000; stroke: #008000; stroke-linejoin: bevel"/>
     <use xlink:href="#me251699de2" x="978.48" y="470.421661" style="fill: #008000; stroke: #008000; stroke-linejoin: bevel"/>
     <use xlink:href="#me251699de2" x="991.872" y="470.916331" style="fill: #008000; stroke: #008000; stroke-linejoin: bevel"/>
     <use xlink:href="#me251699de2" x="1005.264" y="471.317363" style="fill: #008000; stroke: #008000; stroke-linejoin: bevel"/>
     <use xlink:href="#me251699de2" x="1018.656" y="471.626127" style="fill: #008000; stroke: #008000; stroke-linejoin: bevel"/>
     <use xlink:href="#me251699de2" x="1032.048" y="471.852369" style="fill: #008000; stroke: #008000; stroke-linejoin: bevel"/>
     <use xlink:href="#me251699de2" x="1045.44" y="472.011261" style="fill: #008000; stroke: #008000; stroke-linejoin: bevel"/>
     <use xlink:href="#me251699de2" x="1058.832" y="472.119194" style="fill: #008000; stroke: #008000; stroke-linejoin: bevel"/>
     <use xlink:href="#me251699de2" x="1072.224" y="472.190752" style="fill: #008000; stroke: #008000; stroke-linejoin: bevel"/>
     <use xlink:href="#me251699de2" x="1085.616" y="472.237392" style="fill: #008000; stroke: #008000; stroke-linejoin: bevel"/>
     <use xlink:href="#me251699de2" x="1099.008" y="472.267445" style="fill: #008000; stroke: #008000; stroke-linejoin: bevel"/>
     <use xlink:href="#me251699de2" x="1112.4" y="472.286665" style="fill: #008000; stroke: #008000; stroke-linejoin: bevel"/>
     <use xlink:href="#me251699de2" x="1125.792" y="472.298896" style="fill: #008000; stroke: #008000; stroke-linejoin: bevel"/>
     <use xlink:href="#me251699de2" x="1139.184" y="472.306656" style="fill: #008000; stroke: #008000; stroke-linejoin: bevel"/>
     <use xlink:href="#me251699de2" x="1152.576" y="472.311569" style="fill: #008000; stroke: #008000; stroke-linejoin: bevel"/>
     <use xlink:href="#me251699de2" x="1165.968" y="472.314676" style="fill: #008000; stroke: #008000; stroke-linejoin: bevel"/>
     <use xlink:href="#me251699de2" x="1179.36" y="472.316639" style="fill: #008000; stroke: #008000; stroke-linejoin: bevel"/>
    </g>
   </g>
   <g id="line2d_69">
    <path d="M 108 110.019617 
L 121.392 110.019833 
L 134.784 110.020175 
L 148.176 110.020718 
L 161.568 110.021578 
L 174.96 110.022941 
L 188.352 110.025101 
L 201.744 110.028524 
L 215.136 110.03395 
L 228.528 110.042549 
L 241.92 110.056175 
L 255.312 110.07777 
L 268.704 110.111988 
L 282.096 110.166207 
L 295.488 110.252099 
L 308.88 110.388134 
L 322.272 110.603495 
L 335.664 110.944221 
L 349.056 111.768161 
L 362.448 112.757422 
L 375.84 114.369696 
L 389.232 117.002095 
L 402.624 121.030752 
L 416.016 126.995168 
L 429.408 135.983229 
L 442.8 149.122364 
L 456.192 167.446404 
L 469.584 191.567893 
L 482.976 220.903228 
L 496.368 253.440691 
L 509.76 286.133483 
L 523.152 315.836692 
L 536.544 340.60466 
L 549.936 359.96789 
L 563.328 374.65806 
L 576.72 385.867898 
L 590.112 394.797352 
L 603.504 402.359424 
L 616.896 409.082474 
L 630.288 415.153227 
L 643.68 420.575649 
L 657.072 425.33486 
L 670.464 429.492365 
L 683.856 433.125727 
L 697.248 436.335713 
L 710.64 439.142562 
L 724.032 441.333857 
L 737.424 442.74106 
L 750.816 443.901284 
L 764.208 445.393963 
L 777.6 447.376873 
L 790.992 449.806335 
L 804.384 452.538435 
L 817.776 455.349812 
L 831.168 457.996482 
L 844.56 460.297453 
L 857.952 462.181212 
L 865 462.970474 
" clip-path="url(#pc285530916)" style="fill: none; stroke-dasharray: 12.95,5.6; stroke-dashoffset: 0; stroke: #000000; stroke-width: 3.5"/>
   </g>
   <g id="line2d_70">
    <path d="M 108 97.144506 
L 121.392 97.144746 
L 134.784 97.145125 
L 148.176 97.145726 
L 161.568 97.14668 
L 174.96 97.14819 
L 188.352 97.150584 
L 201.744 97.154378 
L 215.136 97.16039 
L 228.528 97.16992 
L 241.92 97.185021 
L 255.312 97.208953 
L 268.704 97.246874 
L 282.096 97.461724 
L 295.488 97.556788 
L 308.88 97.70734 
L 322.272 97.945667 
L 335.664 98.322679 
L 349.056 98.918426 
L 362.448 100.16143 
L 375.84 101.935338 
L 389.232 104.825543 
L 402.624 109.243718 
L 416.016 115.910443 
L 429.408 125.711313 
L 442.8 140.078634 
L 456.192 159.902851 
L 469.584 185.765125 
L 482.976 216.80334 
L 496.368 250.700846 
L 509.76 284.240446 
L 523.152 314.261684 
L 536.544 339.01433 
L 549.936 358.238679 
L 563.328 372.791017 
L 576.72 383.974044 
L 590.112 392.971705 
L 603.504 400.666803 
L 616.896 407.546265 
L 630.288 413.75192 
L 643.68 419.282353 
L 657.072 424.128254 
L 670.464 428.356641 
L 683.856 432.063774 
L 697.248 435.342228 
L 710.64 438.163637 
L 724.032 440.256519 
L 737.424 441.601029 
L 750.816 442.864634 
L 764.208 444.535906 
L 777.6 446.714468 
L 790.992 449.333841 
L 804.384 452.227455 
L 817.776 455.15199 
L 831.168 457.861262 
L 844.56 460.185144 
L 857.952 462.072663 
L 865 462.862678 
" clip-path="url(#pc285530916)" style="fill: none; stroke-dasharray: 3.5,5.775; stroke-dashoffset: 0; stroke: #bfbf00; stroke-width: 3.5"/>
   </g>
   <g id="line2d_71">
    <path d="M 108 93.386496 
L 121.392 93.386742 
L 134.784 93.387132 
L 148.176 93.387751 
L 161.568 93.388731 
L 174.96 93.390285 
L 188.352 93.392747 
L 201.744 93.396649 
L 215.136 93.402835 
L 228.528 93.412636 
L 241.92 93.42817 
L 255.312 93.452786 
L 268.704 93.491792 
L 282.096 93.711472 
L 295.488 93.809252 
L 308.88 93.964104 
L 322.272 94.366356 
L 335.664 94.753629 
L 349.056 95.365555 
L 362.448 96.63973 
L 375.84 98.458902 
L 389.232 101.421276 
L 402.624 105.804458 
L 416.016 112.775625 
L 429.408 122.804707 
L 442.8 137.486032 
L 456.192 157.798019 
L 469.584 184.089052 
L 482.976 215.595658 
L 496.368 249.865246 
L 509.76 283.578851 
L 523.152 313.676278 
L 536.544 338.415082 
L 549.936 357.60194 
L 563.328 372.130397 
L 576.72 383.291004 
L 590.112 392.295997 
L 603.504 400.023666 
L 616.896 406.949039 
L 630.288 413.205822 
L 643.68 418.789902 
L 657.072 423.696607 
L 670.464 427.990021 
L 683.856 431.773002 
L 697.248 435.11711 
L 710.64 437.917623 
L 724.032 439.884898 
L 737.424 441.205136 
L 750.816 442.585928 
L 764.208 444.403282 
L 777.6 446.715601 
L 790.992 449.446213 
L 804.384 452.414155 
L 817.776 455.3705 
L 831.168 458.071719 
L 844.56 460.362818 
L 857.952 462.209329 
L 865 462.979833 
" clip-path="url(#pc285530916)" style="fill: none; stroke-dasharray: 12.95,5.6; stroke-dashoffset: 0; stroke: #ff0000; stroke-width: 3.5"/>
   </g>
   <g id="patch_3">
    <path d="M 108 512.64 
L 108 69.12 
" style="fill: none; stroke: #000000; stroke-width: 0.8; stroke-linejoin: miter; stroke-linecap: square"/>
   </g>
   <g id="patch_4">
    <path d="M 777.6 512.64 
L 777.6 69.12 
" style="fill: none; stroke: #000000; stroke-width: 0.8; stroke-linejoin: miter; stroke-linecap: square"/>
   </g>
   <g id="patch_5">
    <path d="M 108 512.64 
L 777.6 512.64 
" style="fill: none; stroke: #000000; stroke-width: 0.8; stroke-linejoin: miter; stroke-linecap: square"/>
   </g>
   <g id="patch_6">
    <path d="M 108 69.12 
L 777.6 69.12 
" style="fill: none; stroke: #000000; stroke-width: 0.8; stroke-linejoin: miter; stroke-linecap: square"/>
   </g>
   <g id="legend_1">
    <g id="patch_7">
     <path d="M 662.24 246.315 
L 766.4 246.315 
Q 769.6 246.315 769.6 243.115 
L 769.6 80.32 
Q 769.6 77.12 766.4 77.12 
L 662.24 77.12 
Q 659.04 77.12 659.04 80.32 
L 659.04 243.115 
Q 659.04 246.315 662.24 246.315 
z
" style="fill: #ffffff; opacity: 0.8; stroke: #cccccc; stroke-linejoin: miter"/>
    </g>
    <g id="line2d_72">
     <path d="M 665.44 90.0775 
L 681.44 90.0775 
L 697.44 90.0775 
" style="fill: none; stroke-dasharray: 3.5,5.775; stroke-dashoffset: 0; stroke: #0000ff; stroke-width: 3.5"/>
    </g>
    <g id="text_15">
     <!-- $-20 °C $ -->
     <g transform="translate(710.24 95.6775) scale(0.16 -0.16)">
      <defs>
       <path id="DejaVuSans-b0" d="M 1600 4347 
Q 1350 4347 1178 4173 
Q 1006 4000 1006 3750 
Q 1006 3503 1178 3333 
Q 1350 3163 1600 3163 
Q 1850 3163 2022 3333 
Q 2194 3503 2194 3750 
Q 2194 3997 2020 4172 
Q 1847 4347 1600 4347 
z
M 1600 4750 
Q 1800 4750 1984 4673 
Q 2169 4597 2303 4453 
Q 2447 4313 2519 4134 
Q 2591 3956 2591 3750 
Q 2591 3338 2302 3052 
Q 2013 2766 1594 2766 
Q 1172 2766 890 3047 
Q 609 3328 609 3750 
Q 609 4169 896 4459 
Q 1184 4750 1600 4750 
z
" transform="scale(0.015625)"/>
       <path id="DejaVuSans-Oblique-43" d="M 4447 4306 
L 4319 3641 
Q 4019 3944 3683 4091 
Q 3347 4238 2956 4238 
Q 2422 4238 2017 3981 
Q 1613 3725 1319 3200 
Q 1131 2863 1032 2486 
Q 934 2109 934 1728 
Q 934 1091 1264 756 
Q 1594 422 2222 422 
Q 2656 422 3056 561 
Q 3456 700 3834 978 
L 3688 231 
Q 3316 72 2936 -9 
Q 2556 -91 2175 -91 
Q 1278 -91 773 396 
Q 269 884 269 1753 
Q 269 2309 461 2846 
Q 653 3384 1013 3828 
Q 1394 4300 1883 4525 
Q 2372 4750 3022 4750 
Q 3422 4750 3780 4639 
Q 4138 4528 4447 4306 
z
" transform="scale(0.015625)"/>
      </defs>
      <use xlink:href="#DejaVuSans-2212" transform="translate(0 0.78125)"/>
      <use xlink:href="#DejaVuSans-32" transform="translate(83.789062 0.78125)"/>
      <use xlink:href="#DejaVuSans-30" transform="translate(147.412109 0.78125)"/>
      <use xlink:href="#DejaVuSans-b0" transform="translate(211.035156 0.78125)"/>
      <use xlink:href="#DejaVuSans-Oblique-43" transform="translate(261.035156 0.78125)"/>
     </g>
    </g>
    <g id="line2d_73">
     <path d="M 665.44 113.5625 
L 681.44 113.5625 
L 697.44 113.5625 
" style="fill: none; stroke: #87ceeb; stroke-width: 3.5; stroke-linecap: square"/>
    </g>
    <g id="text_16">
     <!-- $-10°C $ -->
     <g transform="translate(710.24 119.1625) scale(0.16 -0.16)">
      <use xlink:href="#DejaVuSans-2212" transform="translate(0 0.78125)"/>
      <use xlink:href="#DejaVuSans-31" transform="translate(83.789062 0.78125)"/>
      <use xlink:href="#DejaVuSans-30" transform="translate(147.412109 0.78125)"/>
      <use xlink:href="#DejaVuSans-b0" transform="translate(211.035156 0.78125)"/>
      <use xlink:href="#DejaVuSans-Oblique-43" transform="translate(261.035156 0.78125)"/>
     </g>
    </g>
    <g id="line2d_74">
     <path d="M 665.44 137.0475 
L 681.44 137.0475 
L 697.44 137.0475 
" style="fill: none; stroke: #90ee90; stroke-width: 3.5; stroke-linecap: square"/>
    </g>
    <g id="text_17">
     <!-- $0°C $ -->
     <g transform="translate(710.24 142.6475) scale(0.16 -0.16)">
      <use xlink:href="#DejaVuSans-30" transform="translate(0 0.78125)"/>
      <use xlink:href="#DejaVuSans-b0" transform="translate(63.623047 0.78125)"/>
      <use xlink:href="#DejaVuSans-Oblique-43" transform="translate(113.623047 0.78125)"/>
     </g>
    </g>
    <g id="line2d_75">
     <g>
      <use xlink:href="#me251699de2" x="681.44" y="160.5325" style="fill: #008000; stroke: #008000; stroke-linejoin: bevel"/>
     </g>
    </g>
    <g id="text_18">
     <!-- $15°C $ -->
     <g transform="translate(710.24 166.1325) scale(0.16 -0.16)">
      <defs>
       <path id="DejaVuSans-35" d="M 691 4666 
L 3169 4666 
L 3169 4134 
L 1269 4134 
L 1269 2991 
Q 1406 3038 1543 3061 
Q 1681 3084 1819 3084 
Q 2600 3084 3056 2656 
Q 3513 2228 3513 1497 
Q 3513 744 3044 326 
Q 2575 -91 1722 -91 
Q 1428 -91 1123 -41 
Q 819 9 494 109 
L 494 744 
Q 775 591 1075 516 
Q 1375 441 1709 441 
Q 2250 441 2565 725 
Q 2881 1009 2881 1497 
Q 2881 1984 2565 2268 
Q 2250 2553 1709 2553 
Q 1456 2553 1204 2497 
Q 953 2441 691 2322 
L 691 4666 
z
" transform="scale(0.015625)"/>
      </defs>
      <use xlink:href="#DejaVuSans-31" transform="translate(0 0.78125)"/>
      <use xlink:href="#DejaVuSans-35" transform="translate(63.623047 0.78125)"/>
      <use xlink:href="#DejaVuSans-b0" transform="translate(127.246094 0.78125)"/>
      <use xlink:href="#DejaVuSans-Oblique-43" transform="translate(177.246094 0.78125)"/>
     </g>
    </g>
    <g id="line2d_76">
     <path d="M 665.44 184.0175 
L 681.44 184.0175 
L 697.44 184.0175 
" style="fill: none; stroke-dasharray: 12.95,5.6; stroke-dashoffset: 0; stroke: #000000; stroke-width: 3.5"/>
    </g>
    <g id="text_19">
     <!-- $27°C $ -->
     <g transform="translate(710.24 189.6175) scale(0.16 -0.16)">
      <defs>
       <path id="DejaVuSans-37" d="M 525 4666 
L 3525 4666 
L 3525 4397 
L 1831 0 
L 1172 0 
L 2766 4134 
L 525 4134 
L 525 4666 
z
" transform="scale(0.015625)"/>
      </defs>
      <use xlink:href="#DejaVuSans-32" transform="translate(0 0.78125)"/>
      <use xlink:href="#DejaVuSans-37" transform="translate(63.623047 0.78125)"/>
      <use xlink:href="#DejaVuSans-b0" transform="translate(127.246094 0.78125)"/>
      <use xlink:href="#DejaVuSans-Oblique-43" transform="translate(177.246094 0.78125)"/>
     </g>
    </g>
    <g id="line2d_77">
     <path d="M 665.44 207.5025 
L 681.44 207.5025 
L 697.44 207.5025 
" style="fill: none; stroke-dasharray: 3.5,5.775; stroke-dashoffset: 0; stroke: #bfbf00; stroke-width: 3.5"/>
    </g>
    <g id="text_20">
     <!-- $45°C $ -->
     <g transform="translate(710.24 213.1025) scale(0.16 -0.16)">
      <use xlink:href="#DejaVuSans-34" transform="translate(0 0.78125)"/>
      <use xlink:href="#DejaVuSans-35" transform="translate(63.623047 0.78125)"/>
      <use xlink:href="#DejaVuSans-b0" transform="translate(127.246094 0.78125)"/>
      <use xlink:href="#DejaVuSans-Oblique-43" transform="translate(177.246094 0.78125)"/>
     </g>
    </g>
    <g id="line2d_78">
     <path d="M 665.44 230.9875 
L 681.44 230.9875 
L 697.44 230.9875 
" style="fill: none; stroke-dasharray: 12.95,5.6; stroke-dashoffset: 0; stroke: #ff0000; stroke-width: 3.5"/>
    </g>
    <g id="text_21">
     <!-- $65°C $ -->
     <g transform="translate(710.24 236.5875) scale(0.16 -0.16)">
      <use xlink:href="#DejaVuSans-36" transform="translate(0 0.78125)"/>
      <use xlink:href="#DejaVuSans-35" transform="translate(63.623047 0.78125)"/>
      <use xlink:href="#DejaVuSans-b0" transform="translate(127.246094 0.78125)"/>
      <use xlink:href="#DejaVuSans-Oblique-43" transform="translate(177.246094 0.78125)"/>
     </g>
    </g>
   </g>
  </g>
 </g>
 <defs>
  <clipPath id="pc285530916">
   <rect x="108" y="69.12" width="669.6" height="443.52"/>
  </clipPath>
 </defs>
</svg>
